<?xml version="1.0" encoding="utf-8"?>
<!-- Generator: Adobe Illustrator 26.0.2, SVG Export Plug-In . SVG Version: 6.00 Build 0)  -->
<svg version="1.1" id="レイヤー_1" xmlns="http://www.w3.org/2000/svg" xmlns:xlink="http://www.w3.org/1999/xlink" x="0px"
	 y="0px" viewBox="0 0 188 53" style="enable-background:new 0 0 188 53;" xml:space="preserve">
<style type="text/css">
	.st0{fill:#E7242B;}
	.st1{fill:#231815;}
</style>
<g>
	<g>
		<path class="st0" d="M38.2,39.3c-1.9,1.9-4.2,3.4-6.7,4.3c-2.5,1-5.2,1.5-7.8,1.4c-5.1,0.1-10.1-1.8-13.9-5.2
			c-0.4-0.3-0.7-0.7-1-1l-0.5-0.5l0.5-0.5c0.3-0.4,0.6-0.7,1-1.1c3.8-3.4,8.8-5.3,13.9-5.2c2.7-0.1,5.3,0.4,7.8,1.4
			c2.5,1,4.8,2.5,6.7,4.3h8.5c-4.2-7.4-13-12.5-23.1-12.5C13.2,24.8,4,30.4,0,38.3c4,7.9,13.2,13.5,23.7,13.5
			c10.1,0,18.8-5.1,23.1-12.5H38.2z"/>
		<path class="st1" d="M81.5,26.8c-0.7,0-1.4,0.2-2,0.5c-3-0.5-6.1-0.7-9.1-0.7c-0.1-1.7-0.2-2.6-0.2-2.6c0.4-0.3,0.1-1.1,0.1-1.1
			c-0.9-1.4-1.8-1.3-1.8-1.3c-1.3,0-1.5,2.1-1.5,2.1c0,1,0,2-0.1,2.9c-5.6,0.2-11.1,1-11.1,1c-0.8,0.2-0.8,1.4-0.7,2.1
			c0.1,0.7,0.2,1.4,0.5,2c1.1,9.5,1.6,9.3,2.1,9.4c0.5,0,1-0.1,1.5-0.4c2.1,0,5.4,0.1,7.6,0.2c0,5,0.1,7,0.1,7
			c0,1.4,0.2,2.8,0.6,4.1c0.5,1.5,2.2-1.5,2.2-1.5c0.7-1.9,1-6.3,1.1-9.5c2.2,0,4.3-0.2,6.5-0.6c2.7-0.4,2.6-1.2,2.6-1.2
			c2.9-5.6,2.7-8,2.7-8c0.2-0.4,0.4-0.8,0.4-1.3C83,29.4,82.5,26.8,81.5,26.8z M59.5,36l-0.3-3.8c0-0.6-0.4-0.9,7.6-1.1
			c0,2-0.1,3.5-0.1,5.1C61.8,36.2,59.5,36,59.5,36L59.5,36z M77.7,35.8c0,0-0.9,0-6.9,0.3c0-1.9-0.1-3.5-0.2-5.1c1.8,0,4,0,6.5,0
			c0.5,0,0.9,0.1,1.4,0.2C78.7,31.5,78.7,31.7,77.7,35.8L77.7,35.8z"/>
		<path class="st1" d="M123.5,45.7c1.3-0.5,2.4-1.3,3.3-2.2c2.4-2,4.2-4.7,5.2-7.6c-2.8,0.1-5.9,0.1-8.8,0c0,0-1.3-0.4-1-1.6
			c0,0,0.2-1.1,0.4-2.1c0.1-0.5,0.3-0.9,0.7-1.2c0.4-0.3,0.8-0.5,1.3-0.5c0,0,1.8-0.4,8.3-0.4c0-1.1,0-2.2-0.2-3.2
			c0,0,0.4-6.2,2.8-1.5c0,0,0.9,1.2,1,4.8c2.9,0,6.4,0.2,10.7,0.4c0.3,0.1,0.5,0.2,0.7,0.4c0.2,0.2,0.4,0.4,0.5,0.7
			c0.1,0.3,0.2,0.5,0.2,0.8c0,0.3-0.1,0.6-0.2,0.8c0,0-0.1,1.9-4.9,2.2c0,0-3.1,0.3-7.3,0.5c0,0.2,0,0.4-0.1,0.6
			c1.2,2,4.3,5.1,12.7,9.8c1.1,0.5,2,1.2,2.8,2c-0.4,0.9-1.1,1.6-1.9,2.1c-0.8,0.5-1.8,0.8-2.8,0.9c-1.1,0-2.1-0.2-3-0.7
			c-0.9-0.5-1.7-1.2-2.3-2.1c-2.3-2.8-4.8-5.6-7.4-8.1c-1.4,2-2.9,3.9-4.5,5.6c-2.4,1.9-5.2,3.1-8.2,3.5c0,0-2.2,0.3-0.8-1.5
			c0.1-0.6,0.4-1.1,0.8-1.5c0,0,0.1-0.1,0.4-0.2C122.1,46.2,122.8,45.9,123.5,45.7z"/>
		<path class="st1" d="M183,29.9c-0.7-1.7-2.9-0.3-2.9-0.3c-1.5-0.2-2.9-0.3-4.4-0.4c1-0.4,2-0.9,3-1.5c2.6-1.9-0.5-3.8-0.5-3.8
			c-0.3-0.1-0.6-0.2-0.9-0.2c-0.3,0-0.6,0.1-0.9,0.2c-0.3,0.1-0.5,0.3-0.7,0.5c-0.2,0.2-0.4,0.5-0.5,0.8c0,0.7-0.2,1.5-0.5,2.1
			s-0.8,1.2-1.4,1.7c-0.7,0-1.4,0-2.1,0c1.6-2.6-1.9-5.2-1.9-5.2c-1.6-1.2-1.8,0.6-1.8,0.6c0,2.9,0.5,4.1,0.9,4.6
			c-1,0.1-2.1,0.1-3,0.2c0.9-3.4-2.7-4.8-2.7-4.8c-2.9,0-2,1.7-2,1.7c0.9,0.9,1.6,2.1,1.9,3.4c-2.5,0.3-4,0.5-4,0.5
			c-0.4-0.4-1.3-0.2-1.3-0.2c-0.5,0.2-0.9,0.6-1.2,1.1c-0.3,0.5-0.5,1-0.5,1.5c-0.2,2.3-0.2,5.4-0.2,5.4c-0.1,0.3-0.1,0.5-0.1,0.8
			c0,0.3,0.1,0.5,0.3,0.8c1.5,0,2.9-3,2.9-3c0.3-0.8,0.4-1.7,0.4-2.5c0.1-0.2,0.1-0.3,0.3-0.4s0.3-0.2,0.5-0.2
			c6.8-0.9,13.7-0.9,20.6-0.2c0.5,3.7,1.3,3.5,1.3,3.5c1.3,0.1,2.2-1.7,2.2-1.7C183.9,33.3,183.6,31.5,183,29.9L183,29.9z"/>
		<path class="st1" d="M172.2,40.7c0-0.2-0.1-0.4-0.1-0.4c1.5-0.2,4.3-2.2,4.3-2.2c2-0.9,1.4-2.2,1.4-2.2c-0.4-0.6-0.9-1-1.6-1.2
			c-4.1-0.8-8.4-0.6-12.4,0.4c-2.5,1.6-2,3-2,3c1,1,2.9,0.2,2.9,0.2c0.2,1.8,3.5,1.9,3.5,1.9c0.2,0.1,0.4,0.3,0.5,0.5
			c-3.1,0-6.3,0.1-9.4,0.5c-2.1,2.6-1.1,2.9-1.1,2.9c0.4,0.2,0.8,0.4,1.2,0.5c0.4,0.1,0.9,0,1.3-0.1c3.5-0.3,6.4-0.5,8.9-0.6
			c0.6,3.6-4.9,4.3-4.9,4.3c-4.2,1.4-5.2,0.1-5.2,0.1c-1.1-0.2-0.9,0.2-0.9,0.2c-0.6,1.3,2.5,2.5,2.5,2.5c9,1.4,10.6-2.5,10.6-2.5
			c0.8-1,0.9-2.9,0.8-4.7c2.2-0.1,4.3,0.1,6.5,0.4c3.6,0.3,3.4-2.4,3.4-2.4C179,41.2,175.6,40.8,172.2,40.7L172.2,40.7z M166.6,37.3
			c0.5-0.2,0.9-0.5,1.4-0.7c1.7,0.3,3.4,0.5,5.2,0.5c-0.1,0.4-0.4,0.8-0.7,1.1c-0.3,0.3-0.7,0.6-1.1,0.7c0,0-0.9,0.2-1.2-0.2
			c-0.3-0.3-0.7-0.6-1.1-0.6C168.1,38.1,167.3,37.8,166.6,37.3z"/>
		<path class="st1" d="M96.7,43.4c0.7-0.3,1.5-0.4,2.2-0.3c0,0,1.4,0.5,1.2,1.6c-1.2,1.8-2.8,3.4-4.7,4.4c0,0-1.4,1.3-5.7,1.9
			c0,0-1.8-0.3-0.7-0.9c2.8-1.1,5.3-3,7.2-5.4C96.2,44.8,96.2,43.5,96.7,43.4z"/>
		<path class="st1" d="M103.1,44.9c0,0-0.9-1.7,0.1-1.6c2.5,0.8,4.9,2,7.1,3.4c0,0,2.3,1.2,2.8,2.6c0,0,0.2,1.1-1.3,1.7
			c0,0-1.5,0.5-4.9-1.6C106.9,49.5,105,48.5,103.1,44.9z"/>
		<path class="st1" d="M117.3,38.1c-2.1-0.3-4.2-0.5-6.3-0.5c0.9-2.3,0.9-6.7,0.9-6.7c1.4-2.1,0.7-2.7,0.7-2.7
			c-0.2-0.3-0.6-0.6-1-0.7c-0.4-0.1-0.8-0.1-1.2,0.1c0,0-4.3-0.5-7.3-0.6c-0.1-0.8-0.2-1.6-0.4-2.3c-0.1-0.2-0.2-0.3-0.4-0.4
			s-0.3-0.1-0.5-0.1c-0.2,0-0.4,0-0.5,0.1c-0.2,0.1-0.3,0.2-0.4,0.4c-0.3,0.7-0.4,1.4-0.6,2.2c-3,0-7.1,0.3-7.1,0.3
			c-0.2,0-0.5,0-0.7,0c-0.2,0.1-0.5,0.1-0.7,0.3c-0.2,0.1-0.4,0.3-0.5,0.5c-0.1,0.2-0.2,0.4-0.3,0.7c-0.2,1,0,1.9,0.4,2.8
			c0.1,1.4,0.6,5.1,0.8,6.7c-4.1,0.3-6,0.6-6,0.6c-0.1,0.1-0.3,0.2-0.4,0.3c-0.7,1-1.1,2.1-1.2,3.2c0.1,1,1.8,0.6,1.8,0.6
			c4.8-0.8,9.6-1.2,14.4-1.4c3.9,0,7.7,0.2,11.6,0.7c1.2,0.2,2.4,0.1,3.4-0.5c0.8-0.9,1.4-1.9,1.9-3.1
			C117.9,38.2,117.3,38.1,117.3,38.1z M103.6,33.3c0-0.7-0.1-1.6-0.1-2.2c1.7-0.2,3.3-0.2,5,0c0.1,3.7-0.2,5.7-0.6,6.3h-0.8
			c-1.3-0.1-2.7-0.1-4,0C103.4,36.1,103.6,34.7,103.6,33.3z M95.6,31.6c1.4-0.3,2.9-0.4,4.4-0.4c0,1.4,0,2.6,0,2.6
			c0,1.9,0,3.2,0,3.9l-1,0h-0.2c-1.3,0-2.5,0.1-3.6,0.2C95.4,36.6,95.6,31.6,95.6,31.6L95.6,31.6z"/>
		<path class="st1" d="M17.7,4.2c0.1,0.1,0.2,0.2,0.2,0.3s-0.1,0.3-0.5,0.3c-0.2,0.4-0.4,0.9-0.7,1.2l0.2,0.1c0,0,0.1,0.1,0.1,0.1
			c0,0,0,0.1,0,0.1c0,0.1-0.1,0.2-0.3,0.4c0,0.7,0,1.5,0,2.2v2c0,1.3,0,2.6,0.1,3.9h-1.8c0.1-1.5,0.1-3,0.1-4.5V7.9
			c-0.4,0.4-1.1,1-1.8,1.6L12,8.2c1.9-1.1,3.5-2.8,4.4-4.9L17.7,4.2z M17.3,1c0.1,0.1,0.2,0.2,0.2,0.3s-0.3,0.2-0.6,0.2
			c-0.9,1.1-2,2-3.3,2.6l-1.2-1.2c1.5-0.6,2.8-1.6,3.8-2.9L17.3,1z M24.2,5.3c0.8,0,2.2,0,3-0.1v1.6c-1-0.1-2-0.1-2.9-0.1v3.8
			c0,1,0,1.9,0,2.9c0,0.8-0.2,1.3-1,1.4c-0.6,0.1-1.2,0.1-1.8,0l-1-2c0.6,0.1,1.1,0.1,1.7,0.2c0.4,0,0.4-0.2,0.4-1V6.6h-1.8
			c-0.8,0-2.1,0.1-2.9,0.1V5.2c1,0.1,2,0.1,2.9,0.1L24.2,5.3z M24,1c0.8,0,1.6-0.1,2.3-0.2v1.8c-0.7-0.1-1.5-0.1-2.2-0.1h-2.6
			c-0.8,0-1.6,0-2.4,0.1V0.9C20,1,20.8,1,21.7,1L24,1z"/>
		<path class="st1" d="M50.4,1.3c0.1,0.1,0.1,0.2,0.1,0.3c0,0.2-0.2,0.2-0.2,0.2c-0.2,0-0.3-0.1-0.5-0.2c-0.8,0.3-1.6,0.4-2.4,0.5
			v0.9H48c0.6,0,1.8,0,2.8-0.1v1.4c-1-0.1-2.3-0.1-2.8-0.1h-0.6v0.6h0.3c0.6,0,1.8,0,2.4-0.1c0,0.3-0.1,0.9-0.1,1.3v1.7
			c0,0.4,0,1.1,0.1,1.9c-0.8-0.1-1.7-0.1-2.5-0.1h-0.2v0.6h0.4c0.6,0,1.8,0,2.7-0.1v1.4c-1-0.1-2.2-0.1-2.7-0.1h-0.4v0.9
			c0.7-0.1,2.4-0.3,3.1-0.4l-0.1,1.1c2-2.3,2.3-5.1,2.4-7.7h-0.2c-0.4,0-1.1,0-1.7,0.1V3.9c0.5,0.1,1.3,0.1,1.7,0.1h0.2
			c0.1-1.2,0-2.3-0.2-3.5l1.8,0.1c0.1,0,0.3,0.1,0.3,0.2s-0.3,0.3-0.4,0.4c0,0.3,0,2.3,0,2.8h0.3c0.5,0,1.3-0.1,2.2-0.1
			c0.2,3,0,6-0.6,8.9c-0.2,1.1-0.5,1.8-1.8,2c-0.4,0.1-0.7,0.1-1.1,0L52.6,13c0.3,0.1,0.7,0.1,1.1,0.2c0.3,0,0.6,0,1-0.7
			c0.6-2.4,0.9-4.8,0.8-7.2h-1.2c0,2.9-0.8,7.2-3.7,9.6L48.9,14c0.5-0.3,0.9-0.6,1.3-1c-1.7,0.3-5.2,0.8-7.2,1
			c-0.1,0.2-0.2,0.5-0.4,0.5s-0.2-0.1-0.2-0.3l-0.2-1.6c1.3,0,2.6,0,3.9-0.2v-1h-0.9c-0.6,0-1.7,0-2.7,0.1v-1.4
			c1,0.1,2.2,0.1,2.7,0.1h0.9V9.5h-0.4c-0.5,0-1.9,0-2.4,0.1c0-0.5,0.1-1.5,0.1-1.9V6.4c0-0.3,0-1.4-0.1-1.7c0.4,0,1.6,0.1,2.1,0.1
			h0.7V4.2h-0.8c-0.5,0-1.8,0-2.8,0.1V2.9C43.4,3,44.7,3,45.2,3h0.8V2.4c-0.9,0.1-1.8,0.1-2.7,0L42.6,1c0.6,0.1,1.2,0.2,1.9,0.2
			c1.7,0,3.4-0.3,5-0.9L50.4,1.3z M44.7,6.5h1.3V5.9h-1.4L44.7,6.5z M44.7,8.3h1.3V7.5h-1.4L44.7,8.3z M47.4,6.5h1.3V5.9h-1.3V6.5z
			 M47.4,8.3h1.3V7.5h-1.3V8.3z"/>
		<path class="st1" d="M76.9,14.2c0.7-0.3,1.2-0.7,1.7-1.3c0.4-0.6,0.8-1.2,0.9-1.9c-0.4,0.2-0.8,0.4-1.2,0.4c-1.2,0-2.3-1-2.3-2.8
			c0-1.5,1.1-3.1,2.4-3.1c0.3,0,0.7,0,0.9,0.1c0-0.4,0-1,0-1.5c-2.2,0.1-4.4,0.3-6.5,0.6L72.6,3c1.1,0.1,4.1,0,6.7-0.1
			c0-0.9,0-1.8-0.2-2.6l2,0.1c0.2,0,0.3,0.1,0.3,0.2s-0.1,0.3-0.5,0.5c-0.1,0.6-0.1,1.1-0.1,1.7c1.7,0,3.3-0.2,5-0.4L85.8,4
			c-1.7-0.1-3.4-0.1-5.1,0c0,0.7,0,1.7-0.1,2.2c0.5,0.8,0.8,1.7,0.7,2.7c-0.1,2.3-1,4.4-2.6,6L76.9,14.2z M77.4,8.6
			c0,0.9,0.4,1.5,1,1.5c0.8,0,1.2-0.6,1.2-1.7c0-0.9-0.5-1.4-1-1.4S77.4,7.7,77.4,8.6L77.4,8.6z"/>
		<path class="st1" d="M103.1,9.4c2.4-2,4.6-4.3,6.5-6.7c-1.5,0.3-3.1,0.6-4.6,0.7l-0.3-1.6c2.3,0.1,4.6-0.2,6.8-0.8l1,1.1
			c-1.5,1.1-2.9,2.4-4,3.9l0,0c0.6-0.4,1.3-0.5,2.1-0.5c0.5,0,1,0.1,1.5,0.3c0.5,0.2,0.9,0.5,1.3,0.8c0.4,0.4,0.7,0.8,0.9,1.2
			c0.2,0.5,0.3,1,0.3,1.5c0,2.7-2.5,4.8-5.4,4.8c-1.8,0-3.4-0.8-3.4-2.2c0.1-0.6,0.4-1.2,0.8-1.6c0.5-0.4,1.1-0.6,1.7-0.6
			c0.7,0,1.4,0.2,1.9,0.6c0.6,0.4,1.1,0.9,1.4,1.5c0.4-0.2,0.7-0.6,0.9-1c0.2-0.4,0.3-0.8,0.3-1.3c0-0.4,0-0.7-0.1-1.1
			c-0.1-0.3-0.3-0.7-0.6-0.9c-0.3-0.3-0.6-0.5-0.9-0.6c-0.4-0.1-0.7-0.2-1.1-0.1c-1.7,0-3.6,1-5.7,3.6L103.1,9.4z M108.3,11.1
			c-0.8,0-1.2,0.4-1.2,0.8c0,0.5,0.8,0.9,1.9,0.9c0.4,0,0.9-0.1,1.3-0.2c-0.1-0.4-0.4-0.8-0.8-1.1C109.2,11.3,108.7,11.2,108.3,11.1
			L108.3,11.1z"/>
		<path class="st1" d="M135.1,0.8c0.1,0,0.3,0.1,0.3,0.3c0,0.1-0.3,0.3-0.6,0.3c-0.2,0.5-0.4,0.9-0.6,1.4c0.2,0,0.6,0,0.9,0h2.1
			c0.7,0,1.4,0,2.2-0.1v1.5c-0.7-0.1-1.4-0.1-2.2-0.1h-0.4c0.1,0.9,0.1,1.9,0,2.8h0.2c0.9,0,1.9,0,2.8-0.1v1.6
			c-0.7-0.1-2-0.1-2.8-0.1h-0.3c0,0.2,0,0.4-0.1,0.6c0.7,1.6,1.8,3,3.2,4.1l-1,1.2c-1.2-0.8-2.1-1.9-2.8-3.2c-0.7,1.6-1.9,3-3.4,3.9
			l-1.6-1c1.1-0.4,2.1-1.2,2.9-2.2s1.2-2.1,1.3-3.3h-0.9c-0.6,0-2.2,0.1-2.8,0.1V6.7c0.6,0,2.1,0.1,2.8,0.1h1.1
			c0.1-0.9,0.1-1.9-0.1-2.8h-0.1c-0.3,0-0.9,0-1.5,0.1c-0.3,0.6-0.7,1.1-1.2,1.5L131,4.9c1.3-1.2,2.2-2.9,2.5-4.7L135.1,0.8z
			 M144,2.4c0.3,0,1.4,0,1.8-0.1c0,0.7,0,2.1,0,2.9v4c0,1.5,0.1,3.8,0.2,4.8h-1.8c0-0.4,0.1-1,0.1-1.4h-2.7c0,0.5,0.1,1.2,0.1,1.6
			h-1.8c0.2-1.7,0.3-3.3,0.2-5v-4c0-1,0-2-0.1-2.9c0.7,0.1,1.3,0.1,2,0.1L144,2.4z M141.6,3.7v7.7h2.7V3.7H141.6z"/>
		<path class="st1" d="M162.7,3.8c0.1,1.4-0.1,2.8-0.5,4.2l-1.5-0.3c0.5-1.3,0.7-2.6,0.6-4L162.7,3.8z M164.5,0.4
			c0.1,0,0.3,0.1,0.3,0.2s-0.1,0.2-0.3,0.3c0,0.9-0.1,1.8-0.1,2.8l1.2-0.5c0.5,0.8,0.8,1.7,1,2.7c0.7-1.3,1.1-2.8,1.1-4.3l1.8,0.3
			c0.2,0,0.3,0.2,0.3,0.3c0,0.1-0.2,0.2-0.5,0.4c-0.1,0.6-0.3,1.3-0.4,1.9h2V3.9c0-1.1,0-3,0-3.7l1.6,0.2c0.2,0,0.4,0.1,0.4,0.2
			s-0.2,0.3-0.4,0.4c-0.1,0.9-0.1,1.9-0.1,2.9v0.5c0.9,0,2.4,0,3.3-0.1v1.5c-0.8,0-2.3,0-3.3,0v2.7h0.2c0.6,0,1.8,0,2.4-0.1v1.7
			c-0.6-0.1-1.8-0.1-2.4-0.1h-0.2v3.3h0.1c1.1,0,2.3,0,3.4-0.1v1.6c-1.1-0.1-2.3-0.1-3.4-0.1h-3.4c-0.8,0-2.8,0.1-3.5,0.1V13
			c0.7,0,2.6,0.1,3.5,0.1h1.8V9.8h-0.7c-0.6,0-2,0.1-2.4,0.1V8.2c0.6,0.1,1.8,0.1,2.4,0.1h0.7V5.6h-2.4c-0.4,0.9-0.9,1.7-1.6,2.4
			l-1.4-0.8c0.4-0.4,0.8-0.8,1.1-1.3l0,0l-1.3,0.6c-0.1-1-0.4-1.9-0.8-2.8l0,0c0,0.2,0,0.5,0,0.7v6c0,1.5,0,3.8,0.1,4.5H163
			c0-0.6,0.1-3,0.1-4.5v-6c0-1.6,0-2.8,0-4.4L164.5,0.4z"/>
		<path class="st1" d="M188,12.6c0,0.5-0.1,0.9-0.4,1.3c-0.3,0.4-0.6,0.7-1.1,0.9s-0.9,0.2-1.4,0.1c-0.5-0.1-0.9-0.3-1.2-0.7
			c-0.3-0.3-0.6-0.8-0.7-1.2c-0.1-0.5,0-1,0.1-1.4c0.2-0.4,0.5-0.8,0.9-1.1s0.9-0.4,1.3-0.4c0.6,0,1.2,0.3,1.7,0.7
			C187.7,11.3,188,11.9,188,12.6L188,12.6z M183.9,12.6c0,0.3,0.1,0.7,0.3,1c0.2,0.3,0.5,0.5,0.8,0.6s0.7,0.2,1,0.1
			c0.3-0.1,0.6-0.2,0.9-0.5c0.2-0.2,0.4-0.5,0.5-0.9c0.1-0.3,0-0.7-0.1-1c-0.1-0.3-0.4-0.6-0.6-0.8c-0.3-0.2-0.6-0.3-1-0.3
			c-0.4,0-0.9,0.2-1.2,0.5C184.1,11.7,183.9,12.1,183.9,12.6L183.9,12.6z"/>
	</g>
</g>
</svg>
