<svg id="logo" xmlns="http://www.w3.org/2000/svg" xmlns:xlink="http://www.w3.org/1999/xlink" width="141" height="27.457" viewBox="0 0 141 27.457">
  <defs>
    <clipPath id="clip-path">
      <rect id="長方形_2121" data-name="長方形 2121" width="141" height="27.457" fill="none"/>
    </clipPath>
  </defs>
  <path id="パス_465" data-name="パス 465" d="M28.49,0l7.8,13.387L44.094,0Z" transform="translate(-20.634)" fill="#606"/>
  <path id="パス_466" data-name="パス 466" d="M0,48.883,7.8,62.269,15.6,48.883Z" transform="translate(0 -35.403)" fill="#606"/>
  <path id="パス_467" data-name="パス 467" d="M56.679,48.882h15.6l-7.81,13.387Z" transform="translate(-41.05 -35.403)" fill="#606"/>
  <g id="グループ_4480" data-name="グループ 4480" transform="translate(0 0)">
    <g id="グループ_4479" data-name="グループ 4479" clip-path="url(#clip-path)">
      <path id="パス_468" data-name="パス 468" d="M159.46,4.773c-.02.428-.039.985-.039,1.84,0,1.505.1,9.162.1,9.515,0,1.58-.078,2.546-2.869,3.141-.058-.558-.215-1.766-2.264-2.639l.02-.13a22.4,22.4,0,0,0,2.478.149c.293,0,.547-.037.547-.706,0-1.282-.02-11.839-.02-12.061H146.4c0,.725-.019,7.713.02,11.838,0,.353.039,1.914.039,2.23a.935.935,0,0,1-.215.687,1.926,1.926,0,0,1-1.268.427c-.82,0-.858-.446-.858-.78,0-.892.136-2.323.156-3.215.058-1.654.078-3.661.078-7.471,0-3.568,0-3.754-.273-5.129l2.537.966H157.1l.722-.743c.176-.167.215-.2.332-.2a.581.581,0,0,1,.312.167l1.522,1.171a.4.4,0,0,1,.175.3c0,.242-.312.428-.7.65m-3.1,1.989h-6.713a11.917,11.917,0,0,0-2.108.13l-.312-.688c1.171.112,2.556.112,2.771.112H153.8l.741-1.041c.078-.111.215-.242.312-.242a.723.723,0,0,1,.351.2l1.249,1.041c.117.111.2.167.2.3,0,.167-.156.186-.293.186m-1.171,3.42c-.02.632.058,3.4.058,3.959,0,.65-.468.966-1.366.966-.624,0-.663-.3-.6-1.078h-2.947c.058.836.117,1.84-1.269,1.84-.429,0-.761-.167-.761-.65,0-.167.078-.911.078-1.078.059-1.394.039-2.583.039-3.624a17.826,17.826,0,0,0-.137-2.36l2.166.966h2.81l.566-.706a.378.378,0,0,1,.293-.186.612.612,0,0,1,.371.167l1.112.874a.548.548,0,0,1,.215.316c0,.242-.254.372-.625.595m-1.912-.613h-2.947v4.014h2.947Z" transform="translate(-104.352 -1.788)" fill="#1a1311"/>
      <path id="パス_469" data-name="パス 469" d="M234.008,5.528H226.3V8.966h3.083l.9-1.208c.117-.149.215-.242.312-.242a.723.723,0,0,1,.351.2l1.483,1.208a.458.458,0,0,1,.195.3c0,.111-.1.186-.293.186H220.7a11.76,11.76,0,0,0-2.108.13l-.332-.687c1.19.111,2.576.111,2.791.111h3.181V5.528H219.06a12.528,12.528,0,0,0-2.108.111l-.312-.669c1.19.093,2.556.111,2.771.111h4.82c-.058-2.435-.058-2.658-.371-3.624l2.673.595c.254.056.449.13.449.3,0,.186-.234.335-.683.595V5.082h4.664l.917-1.357c.1-.149.176-.242.293-.242s.215.074.371.2l1.581,1.357c.117.093.195.186.195.279,0,.149-.117.2-.312.2M217.791,17.441a1.056,1.056,0,0,1-1.112-1.022c0-.446.156-.595.8-1.32a5.746,5.746,0,0,0,1.483-2.806h.137a5.377,5.377,0,0,1,.527,2.4c0,2.007-1,2.751-1.835,2.751m12.1.093c-.82.613-2.634.613-3.552.613-4.7,0-4.879-.13-4.879-2.714,0-.464.02-2.546,0-2.955-.039-.65-.137-1.264-.2-1.673l2.459.614c.2.056.371.093.371.279,0,.2-.176.353-.547.558a7.588,7.588,0,0,0-.1,1.338c0,2.342.02,2.342.156,2.509a7.686,7.686,0,0,0,2.459.242c1.776,0,1.951-.26,2.146-.613a24.269,24.269,0,0,0,.878-2.472h.117a7.685,7.685,0,0,0,.644,2.565,4.514,4.514,0,0,0,.41.223.37.37,0,0,1,.215.39,1.591,1.591,0,0,1-.585,1.1m-3.2-3.81c-.7,0-.917-.5-1.132-1.1a7.4,7.4,0,0,0-1.464-2.36l.019-.093c2.342.372,3.708,1.357,3.708,2.453a1.122,1.122,0,0,1-1.132,1.1m6.459,2.955c-.781,0-.956-.558-1.21-1.394a11.457,11.457,0,0,0-1.659-3.141l.02-.074c1.776.446,4.02,1.784,4.02,3.382a1.15,1.15,0,0,1-1.171,1.227" transform="translate(-156.902 -1.056)" fill="#1a1311"/>
      <path id="パス_470" data-name="パス 470" d="M298.942,12.066c-.585,0-.839-.483-1.21-1.152a9.959,9.959,0,0,0-1.288-1.784c-.019,3.289-.019,4.107-.019,4.349,0,.576.1,3.2.1,3.736,0,.836-1.054.985-1.385.985-.761,0-.781-.5-.781-.818,0-.521.058-1.375.078-1.9.02-.762.02-1.171.039-4.832a19.633,19.633,0,0,1-3.552,2.3l-.1-.13a23.08,23.08,0,0,0,5.718-7.3h-2.674a10.289,10.289,0,0,0-2.107.13l-.312-.687c1.152.093,2.459.111,2.693.111h.39a10.379,10.379,0,0,0-.468-3.736l2.771.613c.137.037.352.074.352.26,0,.2-.352.39-.683.576-.019.353-.039.725,0,2.286h.215l.566-.595c.117-.13.176-.2.293-.2a.68.68,0,0,1,.351.167l1.366,1.1a.323.323,0,0,1,.156.242c0,.316-.449.427-.956.539A25.725,25.725,0,0,1,296.5,8.758c.566.093,3.415.669,3.415,2.323a1.019,1.019,0,0,1-.976.985m9.913,5.185h-8.508a10.289,10.289,0,0,0-2.108.13l-.312-.688c1.19.111,2.556.111,2.771.111h1.854c0-2.88,0-5.78-.02-8.66h-1.171a12.524,12.524,0,0,0-2.107.111l-.332-.669c1.19.093,2.575.111,2.791.111h.819c-.039-4.981-.039-5.148-.585-6.374l2.83.52c.156.037.507.111.507.353,0,.223-.429.465-.7.613-.019.446-.019,4.014-.019,4.888h1.21l.917-1.264c.078-.111.175-.242.293-.242a1.15,1.15,0,0,1,.351.2l1.425,1.264a.373.373,0,0,1,.175.279c0,.167-.156.2-.293.2h-4.079c0,1.375.019,7.434.019,8.66h1.23l1.132-1.357c.136-.167.215-.242.312-.242a.728.728,0,0,1,.371.2l1.346,1.357c.117.111.176.186.176.279,0,.186-.176.2-.293.2" transform="translate(-210.63 -0.959)" fill="#1a1311"/>
      <path id="パス_471" data-name="パス 471" d="M384.592,18.758c-4.371-2.212-5.523-6.189-6.089-9.571-.976,7.713-7.2,9.162-9.523,9.7l-.078-.149c5.581-2.323,7.162-6.635,7.493-10.854h-4.43a9.776,9.776,0,0,0-2.107.13l-.312-.688c.917.074,1.834.112,2.771.112h4.118a14.212,14.212,0,0,0,.078-1.636,16.069,16.069,0,0,0-.39-3.605l2.966.706c.312.074.371.149.371.26,0,.2-.234.372-.664.632-.019.52-.156,3.066-.175,3.643h4.625L384.3,6.1c.1-.13.195-.223.293-.223a.888.888,0,0,1,.39.2L386.66,7.4a.382.382,0,0,1,.2.279c0,.186-.176.2-.293.2h-7.884c1.346,5.3,4.312,7.676,8.489,8.772v.149a3.431,3.431,0,0,0-2.576,1.951" transform="translate(-267.179 -1.593)" fill="#1a1311"/>
      <path id="パス_472" data-name="パス 472" d="M463.433,12.843h-7.611v3.383c0,.669,0,2.063-2.829,2.379-.273-1.524-1.073-1.933-2.361-2.527l.02-.149c.742.056,1.873.149,2.615.149.546,0,.546-.13.546-.613v-2.62h-5.405a9.921,9.921,0,0,0-2.108.13l-.312-.688c.917.074,1.854.111,2.771.111h5.054a6.621,6.621,0,0,0-.312-2.379l1.971.428c.468-.558.8-.985,1.307-1.673h-4.8a12.421,12.421,0,0,0-2.108.111l-.312-.669c.917.074,1.854.111,2.771.111h4.489l.917-.762c.137-.112.215-.186.332-.186a.548.548,0,0,1,.332.167l1.561,1.375a.319.319,0,0,1,.137.26c0,.334-.39.353-.8.353a1.829,1.829,0,0,0-.722.093,24.965,24.965,0,0,1-2.439.985.19.19,0,0,1,.137.186c0,.26-.273.427-.449.558V12.4h4.332l.956-1.227c.1-.13.2-.279.351-.279a.871.871,0,0,1,.371.186l1.717,1.282c.078.056.195.167.195.279,0,.186-.195.2-.312.2m-.956-5.52a.712.712,0,0,0-.449.167c-.858.483-1.737.855-2.322,1.115l-.117-.111a15.152,15.152,0,0,0,.8-2.286h-11.26c.1,1.71-.741,3.215-1.932,3.215a1.033,1.033,0,0,1-1.093-1c0-.558.312-.8.839-1.245a4.662,4.662,0,0,0,1.717-2.546h.156a5.88,5.88,0,0,1,.273,1.134h7.416a10.136,10.136,0,0,0,1.619-4.237l2.342,1.152c.176.093.254.13.254.279,0,.26-.41.334-.761.372a17.134,17.134,0,0,1-2.908,2.435h3.376l.8-.743c.137-.13.215-.167.273-.167.078,0,.156.056.332.223l1.522,1.505c.136.149.2.186.2.316,0,.353-.312.39-1.074.427M451,5.317c-.605,0-.7-.26-1.015-1.078a4.141,4.141,0,0,0-1.23-2.1l.059-.149c1.717.242,3.239,1.059,3.239,2.3A.983.983,0,0,1,451,5.317m3.766-.167c-.741,0-.917-.576-1.073-1.078a6.046,6.046,0,0,0-1.288-2.3l.078-.13c1.034.242,3.376.948,3.376,2.4a1.037,1.037,0,0,1-1.093,1.115" transform="translate(-323.008 -1.105)" fill="#1a1311"/>
      <path id="パス_473" data-name="パス 473" d="M142.932,76.148V69.631H145.1a4.7,4.7,0,0,1,1.566.216,2.415,2.415,0,0,1,1.032.731,3.234,3.234,0,0,1,.692,2.158,3.613,3.613,0,0,1-.81,2.448,2.544,2.544,0,0,1-1.02.74,4.03,4.03,0,0,1-1.447.224Zm.925-.691h1.185a2.138,2.138,0,0,0,1.8-.682,3.083,3.083,0,0,0,.568-1.951,2.7,2.7,0,0,0-.559-1.806,1.72,1.72,0,0,0-.81-.548,5.072,5.072,0,0,0-1.418-.148h-.762Z" transform="translate(-103.519 -50.431)" fill="#1a1311"/>
      <path id="パス_474" data-name="パス 474" d="M171.7,80.538a2.143,2.143,0,0,1-1.667-.674,3.022,3.022,0,0,1,0-3.653,2.4,2.4,0,0,1,3.334,0,3.022,3.022,0,0,1,0,3.653,2.145,2.145,0,0,1-1.667.674m0-.652a1.171,1.171,0,0,0,1-.484,2.789,2.789,0,0,0,0-2.728,1.28,1.28,0,0,0-2,0,2.806,2.806,0,0,0,0,2.728,1.166,1.166,0,0,0,1,.484" transform="translate(-122.704 -54.71)" fill="#1a1311"/>
      <path id="パス_475" data-name="パス 475" d="M193.517,80.262v-.8a3.427,3.427,0,0,0,1.48.423.947.947,0,0,0,.621-.2.629.629,0,0,0,.247-.506q0-.445-.691-.735l-.507-.216q-1.123-.467-1.123-1.343a1.2,1.2,0,0,1,.443-.984,1.872,1.872,0,0,1,1.213-.359,5.575,5.575,0,0,1,.991.11l.181.035v.722a4.323,4.323,0,0,0-1.158-.216,1,1,0,0,0-.605.165.52.52,0,0,0-.227.443q0,.392.634.661l.418.176a2.814,2.814,0,0,1,1,.632,1.205,1.205,0,0,1,.3.83,1.276,1.276,0,0,1-.5,1.035,1.949,1.949,0,0,1-1.273.405,4.8,4.8,0,0,1-1.444-.277" transform="translate(-140.155 -54.711)" fill="#1a1311"/>
      <path id="パス_476" data-name="パス 476" d="M214.1,75V68.051h.867V71.12a2,2,0,0,1,1.682-1,1.293,1.293,0,0,1,.993.394,1.491,1.491,0,0,1,.368,1.059V75h-.867V71.851a1.386,1.386,0,0,0-.156-.759.584.584,0,0,0-.518-.227,1.919,1.919,0,0,0-1.5,1.044V75Z" transform="translate(-155.062 -49.286)" fill="#1a1311"/>
      <path id="パス_477" data-name="パス 477" d="M237.666,69.631h.867V70.5h-.867Zm0,1.735h.867v4.782h-.867Z" transform="translate(-172.13 -50.431)" fill="#1a1311"/>
      <path id="パス_478" data-name="パス 478" d="M249.752,80.262v-.8a3.426,3.426,0,0,0,1.48.423.945.945,0,0,0,.621-.2.629.629,0,0,0,.247-.506q0-.445-.692-.735l-.506-.216q-1.123-.467-1.123-1.343a1.2,1.2,0,0,1,.442-.984,1.874,1.874,0,0,1,1.214-.359,5.572,5.572,0,0,1,.99.11l.181.035v.722a4.323,4.323,0,0,0-1.158-.216,1.006,1.006,0,0,0-.606.165.52.52,0,0,0-.227.443q0,.392.634.661l.418.176a2.816,2.816,0,0,1,1,.632,1.2,1.2,0,0,1,.295.83,1.276,1.276,0,0,1-.5,1.035,1.95,1.95,0,0,1-1.273.405,4.8,4.8,0,0,1-1.444-.277" transform="translate(-180.884 -54.711)" fill="#1a1311"/>
      <path id="パス_479" data-name="パス 479" d="M270.334,75V68.051h.867V71.12a2,2,0,0,1,1.682-1,1.294,1.294,0,0,1,.994.394,1.493,1.493,0,0,1,.368,1.059V75h-.868V71.851a1.389,1.389,0,0,0-.156-.759.584.584,0,0,0-.517-.227,1.92,1.92,0,0,0-1.5,1.044V75Z" transform="translate(-195.79 -49.286)" fill="#1a1311"/>
      <path id="パス_480" data-name="パス 480" d="M295.281,79.82a2.276,2.276,0,0,1-1.5.718,1.376,1.376,0,0,1-.986-.372,1.24,1.24,0,0,1-.392-.94,1.346,1.346,0,0,1,.658-1.2,3.527,3.527,0,0,1,1.892-.421h.2v-.577q0-.832-.867-.832a3.173,3.173,0,0,0-1.471.423V75.9a4.391,4.391,0,0,1,1.651-.357,1.646,1.646,0,0,1,1.176.363,1.488,1.488,0,0,1,.379,1.121v2.167q0,.745.458.744a1.182,1.182,0,0,0,.167-.018l.062.48a1.5,1.5,0,0,1-.652.141q-.607,0-.775-.718m-.128-.471V78.112l-.277-.009a2.226,2.226,0,0,0-1.165.269.808.808,0,0,0-.443.713.711.711,0,0,0,.22.528.739.739,0,0,0,.537.216,1.806,1.806,0,0,0,1.127-.48" transform="translate(-211.772 -54.71)" fill="#1a1311"/>
      <path id="パス_481" data-name="パス 481" d="M328.565,69.631h.925v4.113a2.266,2.266,0,0,0,.363,1.429,1.4,1.4,0,0,0,1.154.447,1.3,1.3,0,0,0,1.1-.421,2.392,2.392,0,0,0,.323-1.425V69.631h.815v4.131a4,4,0,0,1-.167,1.312,1.834,1.834,0,0,1-.6.806,2.9,2.9,0,0,1-3.322-.194,2.785,2.785,0,0,1-.583-1.951Z" transform="translate(-237.964 -50.431)" fill="#1a1311"/>
      <path id="パス_482" data-name="パス 482" d="M354.783,80.429V75.647h.867v.9a2,2,0,0,1,1.682-1,1.294,1.294,0,0,1,.993.394,1.492,1.492,0,0,1,.368,1.059v3.435h-.867V77.276a1.386,1.386,0,0,0-.156-.759.584.584,0,0,0-.518-.227,1.92,1.92,0,0,0-1.5,1.044v3.1Z" transform="translate(-256.953 -54.711)" fill="#1a1311"/>
      <path id="パス_483" data-name="パス 483" d="M378.352,69.631h.867V70.5h-.867Zm0,1.735h.867v4.782h-.867Z" transform="translate(-274.023 -50.431)" fill="#1a1311"/>
      <path id="パス_484" data-name="パス 484" d="M390,80.706l-1.779-4.782h.869l1.388,3.719,1.469-3.719h.81l-1.889,4.782Z" transform="translate(-281.167 -54.988)" fill="#1a1311"/>
      <path id="パス_485" data-name="パス 485" d="M413.786,80.275a5.286,5.286,0,0,1-1.493.264,2.27,2.27,0,0,1-1.726-.7,2.537,2.537,0,0,1-.665-1.819,2.663,2.663,0,0,1,.588-1.782,1.881,1.881,0,0,1,1.5-.7,1.59,1.59,0,0,1,1.341.619,2.839,2.839,0,0,1,.473,1.755l0,.264h-3.016q.189,1.7,1.669,1.7a3.939,3.939,0,0,0,1.33-.3Zm-2.959-2.748h2.109q0-1.334-1-1.334t-1.114,1.334" transform="translate(-296.873 -54.711)" fill="#1a1311"/>
      <path id="パス_486" data-name="パス 486" d="M432.766,80.429V75.647h.867v.9a1.619,1.619,0,0,1,1.5-1,1.826,1.826,0,0,1,.277.022v.815a1.275,1.275,0,0,0-.4-.075,1.6,1.6,0,0,0-1.378.976v3.15Z" transform="translate(-313.432 -54.711)" fill="#1a1311"/>
      <path id="パス_487" data-name="パス 487" d="M448.779,80.262v-.8a3.428,3.428,0,0,0,1.479.423.946.946,0,0,0,.621-.2.629.629,0,0,0,.247-.506q0-.445-.691-.735l-.507-.216q-1.123-.467-1.123-1.343a1.2,1.2,0,0,1,.442-.984,1.872,1.872,0,0,1,1.213-.359,5.575,5.575,0,0,1,.991.11l.181.035v.722a4.324,4.324,0,0,0-1.158-.216,1,1,0,0,0-.605.165.52.52,0,0,0-.227.443q0,.392.634.661l.418.176a2.811,2.811,0,0,1,1,.632,1.205,1.205,0,0,1,.3.83,1.275,1.275,0,0,1-.5,1.035,1.95,1.95,0,0,1-1.273.405,4.8,4.8,0,0,1-1.444-.277" transform="translate(-325.03 -54.711)" fill="#1a1311"/>
      <path id="パス_488" data-name="パス 488" d="M469.361,69.631h.867V70.5h-.867Zm0,1.735h.867v4.782h-.867Z" transform="translate(-339.936 -50.431)" fill="#1a1311"/>
      <path id="パス_489" data-name="パス 489" d="M482.737,78.208a2.688,2.688,0,0,1-.7.11,1.374,1.374,0,0,1-1.03-.379,1.442,1.442,0,0,1-.37-1.053V74.078h-.6v-.652h.6v-.868l.868-.084v.951h1.251v.652h-1.251v2.651q0,.938.81.938a1.9,1.9,0,0,0,.419-.057Z" transform="translate(-347.672 -52.49)" fill="#1a1311"/>
      <path id="パス_490" data-name="パス 490" d="M495.77,82.446l.778-1.741L494.7,75.924h.94l1.368,3.6,1.46-3.6h.821l-2.611,6.521Z" transform="translate(-358.287 -54.988)" fill="#1a1311"/>
    </g>
  </g>
</svg>
