<?xml version="1.0" encoding="utf-8"?>
<!-- Generator: Adobe Illustrator 23.0.3, SVG Export Plug-In . SVG Version: 6.00 Build 0)  -->
<svg version="1.1" id="レイヤー_1" xmlns="http://www.w3.org/2000/svg" xmlns:xlink="http://www.w3.org/1999/xlink" x="0px"
	 y="0px" viewBox="0 0 228 65.54" style="enable-background:new 0 0 228 65.54;" xml:space="preserve">
<style type="text/css">
	.st0{fill:#313198;}
</style>
<path class="st0" d="M32.77,0C14.67,0,0,14.67,0,32.77c0,18.1,14.67,32.77,32.77,32.77c18.1,0,32.77-14.67,32.77-32.77
	C65.54,14.67,50.87,0,32.77,0 M32.77,64.35C15.33,64.35,1.2,50.21,1.2,32.77C1.2,15.33,15.33,1.2,32.77,1.2
	c17.44,0,31.58,14.14,31.58,31.57C64.35,50.21,50.21,64.35,32.77,64.35"/>
<path class="st0" d="M32.77,12.7c-11.08,0-20.07,8.99-20.07,20.07c0,11.09,8.99,20.08,20.07,20.08c11.09,0,20.08-8.99,20.08-20.08
	C52.85,21.68,43.86,12.7,32.77,12.7 M32.77,51.71c-10.46,0-18.94-8.48-18.94-18.94c0-10.46,8.48-18.94,18.94-18.94
	c10.46,0,18.95,8.48,18.95,18.94C51.72,43.23,43.23,51.71,32.77,51.71"/>
<path class="st0" d="M32.77,52.91c-11.11,0-20.14-9.03-20.14-20.14c0-11.11,9.04-20.14,20.14-20.14s20.15,9.04,20.15,20.14
	C52.92,43.88,43.88,52.91,32.77,52.91 M32.77,12.77c-11.03,0-20,8.97-20,20c0,11.03,8.97,20,20,20s20.01-8.97,20.01-20
	C52.78,21.74,43.8,12.77,32.77,12.77 M32.77,51.79c-10.48,0-19.01-8.53-19.01-19.02c0-10.49,8.53-19.01,19.01-19.01
	c10.49,0,19.02,8.53,19.02,19.01C51.79,43.25,43.26,51.79,32.77,51.79 M32.77,13.9c-10.41,0-18.87,8.47-18.87,18.87
	c0,10.41,8.47,18.88,18.87,18.88c10.41,0,18.88-8.47,18.88-18.88C51.64,22.36,43.18,13.9,32.77,13.9"/>
<path class="st0" d="M26.44,30.3h2.45c0.4,0,0.72-0.33,0.72-0.72c0-0.4-0.32-0.72-0.72-0.72h-1.69v-0.59h1.69
	c0.4,0,0.72-0.32,0.72-0.72c0-0.4-0.32-0.72-0.72-0.72h-1.69v-0.64h1.69c0.4,0,0.72-0.32,0.72-0.72c0-0.4-0.32-0.72-0.72-0.72h-2.41
	c-0.06,0-0.11,0.01-0.17,0.02c-0.35,0.07-0.61,0.37-0.61,0.73v4.07c0,0.15,0.04,0.3,0.13,0.42C25.96,30.17,26.18,30.3,26.44,30.3"/>
<path class="st0" d="M39.68,20.2c-0.14-0.11-0.32-0.18-0.51-0.18h-5.53v-0.65c0-0.43-0.35-0.78-0.78-0.78h0h0
	c-0.43,0-0.78,0.35-0.78,0.78v0.65h-5.53c-0.19,0-0.37,0.07-0.51,0.18c-0.2,0.13-0.33,0.36-0.33,0.62v2.98
	c0,0.41,0.33,0.74,0.74,0.74c0.41,0,0.75-0.33,0.75-0.74v-2.16h2.77v1.97c0,0.41,0.33,0.74,0.74,0.74c0.41,0,0.75-0.33,0.75-0.74
	v-1.97h2.82v1.97c0,0.41,0.33,0.74,0.74,0.74c0.41,0,0.75-0.33,0.75-0.74v-1.97h2.77v2.16c0,0.41,0.34,0.74,0.75,0.74
	c0.41,0,0.75-0.33,0.75-0.74v-2.98C40.02,20.56,39.89,20.33,39.68,20.2"/>
<path class="st0" d="M39.38,30.72c-0.05-0.01-0.11-0.02-0.16-0.02H26.51c-0.06,0-0.11,0.01-0.16,0.02
	c-0.36,0.06-0.63,0.36-0.63,0.74v5.87c0,0.41,0.33,0.74,0.75,0.74c0.41,0,0.75-0.33,0.75-0.74v-5.04h11.31v5.04
	c0,0.41,0.33,0.74,0.75,0.74c0.41,0,0.74-0.33,0.74-0.74v-5.87C40,31.08,39.74,30.78,39.38,30.72"/>
<path class="st0" d="M36.77,35.38h-1.64l1.54-1.62c0.23-0.22,0.32-0.49,0.2-0.78c-0.12-0.29-0.4-0.48-0.72-0.48h-6.58
	c-0.32,0-0.6,0.19-0.72,0.48c-0.12,0.3-0.03,0.56,0.2,0.78l1.55,1.62h-1.64c-0.43,0-0.78,0.35-0.78,0.78c0,0.43,0.35,0.69,0.78,0.69
	h3.16v2.35c0,0.41,0.34,0.74,0.75,0.74h0h0c0.41,0,0.75-0.33,0.75-0.74v-2.35h3.16c0.43,0,0.78-0.26,0.78-0.69
	C37.55,35.73,37.2,35.38,36.77,35.38 M32.94,35.34l-0.08,0.03l-0.08-0.03c-0.19-0.18-0.73-0.82-1.27-1.35h1.19h0.34h1.18
	C33.67,34.52,33.13,35.16,32.94,35.34"/>
<path class="st0" d="M30.7,27.55c0,0.21,0.1,0.41,0.26,0.54l0.79,0.63c-0.42,0.33-0.74,0.58-0.74,0.58
	c-0.17,0.14-0.26,0.34-0.26,0.55c0,0.15,0.05,0.31,0.15,0.44c0.24,0.3,0.68,0.35,0.99,0.11l0.98-0.78l0.98,0.78
	c0.3,0.24,0.74,0.19,0.98-0.11c0.1-0.13,0.15-0.28,0.15-0.44c0-0.2-0.09-0.41-0.26-0.55c0,0-0.32-0.25-0.74-0.58l0.78-0.63
	c0.16-0.13,0.26-0.33,0.26-0.54c0-0.21-0.09-0.41-0.25-0.55l-0.82-0.68c0.44-0.36,0.78-0.63,0.78-0.63
	c0.17-0.14,0.25-0.34,0.25-0.54c0-0.16-0.05-0.32-0.16-0.45c-0.25-0.3-0.69-0.34-0.99-0.09l-0.98,0.81l-0.98-0.81
	c-0.3-0.24-0.74-0.21-0.99,0.09c-0.11,0.13-0.16,0.29-0.16,0.45c0,0.2,0.09,0.4,0.25,0.54c0,0,0.34,0.27,0.78,0.63L30.95,27
	C30.79,27.14,30.7,27.34,30.7,27.55 M33.25,27.53c-0.12,0.09-0.25,0.2-0.39,0.31c-0.14-0.11-0.27-0.22-0.39-0.31
	c0.11-0.1,0.25-0.21,0.39-0.32C33,27.32,33.14,27.43,33.25,27.53"/>
<path class="st0" d="M39.41,24.76c-0.05-0.01-0.11-0.02-0.17-0.02h-2.41c-0.4,0-0.72,0.32-0.72,0.72c0,0.4,0.32,0.72,0.72,0.72h1.69
	v0.64h-1.69c-0.4,0-0.72,0.32-0.72,0.72c0,0.4,0.32,0.72,0.72,0.72h1.69v0.59h-1.69c-0.4,0-0.72,0.33-0.72,0.72
	c0,0.4,0.32,0.72,0.72,0.72h2.45c0.25,0,0.47-0.13,0.61-0.33c0.08-0.12,0.13-0.26,0.13-0.42v-4.07
	C40.02,25.13,39.76,24.82,39.41,24.76"/>
<path class="st0" d="M20.63,34.21c0.02,0.02,0.01,0.02,0.02,0c0.17-0.33,0.86-1.35,1.72-1.89c0.95-0.61,1.21-0.65,1.62-0.77
	c0.41-0.13,1.4-0.21,1.4-0.21v-0.85c0,0-0.64,0.03-1.12,0.16c0,0-0.73,0.19-1.3,0.55c-0.28,0.18-0.62,0.42-0.8,0.59
	c-0.51,0.47-0.81,0.94-0.92,1.11c-0.03,0.04-0.05,0.06-0.06,0.04c-0.01-0.04,0.49-1.18,1.3-1.88c0.62-0.54,1.19-0.84,1.55-0.99
	c0.36-0.16,1.34-0.39,1.34-0.39v-0.73c0,0-0.89,0.14-1.57,0.46c-0.73,0.35-1.24,0.77-1.66,1.2C20.57,32.16,20.61,34.19,20.63,34.21"
	/>
<path class="st0" d="M25.39,29.87c0,0-0.6,0.07-1.17,0.29c-0.57,0.22-1.23,0.69-1.28,0.73c-0.04,0.04-0.08,0.07-0.08,0.1
	c0,0.02,0.03,0,0.03,0s0.15-0.09,0.41-0.22c0.26-0.12,0.54-0.21,0.84-0.3c0.41-0.12,0.93-0.18,1-0.18c0.14-0.01,0.24-0.02,0.24-0.02
	L25.39,29.87z"/>
<path class="st0" d="M20.91,34.49c0,0,0.3-0.24,0.47-0.39c0.17-0.14,0.37-0.32,0.37-0.32s0.7,0.16,1.26,0.45
	c0.56,0.3,0.93,0.51,1.25,0.78C24.6,35.28,25,35.6,25,35.6s-0.07-0.21-0.31-0.51c-0.23-0.3-0.66-0.8-0.98-1.05
	c-0.33-0.26-0.27-0.26-0.65-0.48c-0.38-0.23-0.72-0.4-0.72-0.4l0.29-0.37c0,0,0.17,0.07,0.4,0.19c0.23,0.13,0.83,0.47,1.13,0.77
	c0.3,0.3,0.64,0.67,0.88,1.05c0.24,0.38,0.41,0.74,0.47,0.93c0.06,0.19,0.38,1.1,0.38,1.1s-0.12-0.16-0.5-0.48
	c0,0-0.56-0.42-0.87-0.6c-0.31-0.18-0.74-0.41-1.19-0.59c-0.45-0.18-0.93-0.35-1.34-0.44C21.59,34.61,20.91,34.49,20.91,34.49"/>
<path class="st0" d="M21.9,33.64c0,0,0.17-0.19,0.32-0.34c0.03-0.03,0.43,0.18,0.73,0.39c0.3,0.21,0.54,0.4,0.79,0.6
	c0.25,0.21,0.39,0.38,0.38,0.39c-0.02,0.02-0.46-0.29-0.66-0.39c-0.2-0.1-0.62-0.31-0.84-0.4C22.38,33.8,21.9,33.64,21.9,33.64"/>
<path class="st0" d="M21,34.82c0,0,0.11,1.16,0.37,1.86c0.26,0.71,0.23,0.67,0.48,1.14c0.24,0.46,0.38,0.6,0.38,0.6l0.57-0.16
	c0,0-0.56-0.96-0.8-1.69c-0.3-0.92-0.36-1.63-0.36-1.63L21,34.82z"/>
<path class="st0" d="M21.83,34.97c0,0,0.06,0.84,0.32,1.55c0.26,0.71,0.25,0.69,0.5,1.16c0.25,0.46,0.33,0.54,0.33,0.54l0.48-0.09
	c0,0-0.58-0.85-0.84-1.6c-0.33-0.92-0.37-1.46-0.37-1.46L21.83,34.97z"/>
<path class="st0" d="M22.48,35.16c0,0,0.06,0.65,0.41,1.54c0.29,0.73,0.8,1.41,0.8,1.41l0.78-0.05c0,0-0.26-0.31-0.49-0.67
	c-0.35-0.54-0.46-0.87-0.58-1.18c-0.14-0.36-0.23-0.82-0.23-0.82L22.48,35.16z"/>
<path class="st0" d="M17.65,33.85c0,0,0.82,1.46,1.1,2.18c0.22,0.55,0.83,1.45,1.09,1.82l0.96,1.23l0.56-0.3
	c0,0-0.59-0.52-1.17-1.46c-0.73-1.18-1.5-2.46-1.5-2.46s0.61,0.45,1.08,0.85c0.44,0.36,1.57,1.62,1.57,1.62l-0.37-1.12
	c0,0-1.27-1.24-1.8-1.56c-0.53-0.32-1.45-0.83-1.49-0.83C17.65,33.81,17.65,33.85,17.65,33.85"/>
<path class="st0" d="M19.46,35.66c0,0,0.51,1.05,0.87,1.53c0.36,0.48,1.24,1.49,1.24,1.49l0.43-0.18c0,0-0.4-0.61-0.6-0.84
	c-0.31-0.35-0.7-0.86-0.98-1.14C20.14,36.25,19.46,35.66,19.46,35.66"/>
<path class="st0" d="M26.29,38.63c-1.27-0.31-2.31-0.47-4.49,0.3c-2.4,0.85-3.12,3.2-3.12,3.2s0.27-0.25,0.89-0.64
	c0.62-0.39,1.3-0.81,2.26-1.04c0.97-0.23,1.92-0.34,2.97-0.13c1.04,0.21,1.36,0.38,1.88,0.67c0.52,0.29,0.77,0.46,0.77,0.46
	l0.12-0.84c0,0-1.09-0.63-1.88-0.82c-0.79-0.19-1.7-0.23-2.3-0.23c-0.6,0-1.88,0.36-2.2,0.52c-0.28,0.14-0.67,0.32-0.85,0.39
	c-0.06,0.02-0.08,0.01-0.08,0.01s1.09-1,2.53-1.34c0.97-0.23,1.51-0.3,2.3-0.2c0.79,0.09,0.96,0.09,1.55,0.32
	c0.58,0.23,1.18,0.54,1.18,0.54l0.22-0.46c0,0-1.14-0.61-2.09-0.8"/>
<path class="st0" d="M21.65,39.73c0,0,0.85-0.46,2.05-0.64c0.38-0.06,1.09-0.05,1.57,0c1.35,0.14,2.49,0.87,2.49,0.87l-0.13,0.48
	c0,0-0.63-0.37-1.61-0.7c-0.63-0.21-1.49-0.3-1.83-0.33C23.13,39.35,21.65,39.73,21.65,39.73"/>
<path class="st0" d="M27.74,41.69c0.15-0.15,0.75-0.5,1.41-0.54c0.29-0.02,0.68,0,1.1,0.08c0.85,0.16,1.57,0.7,1.57,0.7
	s0.05-0.95,0.02-1.32c-0.01-0.08-0.63-0.49-1.11-0.73c-0.36-0.18-0.89-0.37-1.36-0.47c-0.31-0.07-0.57-0.1-0.8-0.05
	c-0.23,0.05-0.43,0.34-0.61,0.93C27.73,41.01,27.74,41.69,27.74,41.69"/>
<path class="st0" d="M28.5,41.44c0,0,0.14-0.07,0.39-0.11c0.25-0.04,0.52-0.08,0.89-0.03c0.37,0.06,0.65,0.1,0.93,0.22
	c0.28,0.11,0.45,0.2,0.45,0.2s-0.02,0.06-0.31,0.09c-0.29,0.03-0.62,0.06-0.87,0.04c-0.25-0.02-0.62-0.07-0.89-0.15
	c-0.27-0.08-0.37-0.12-0.43-0.15C28.6,41.53,28.5,41.44,28.5,41.44"/>
<path class="st0" d="M28.26,41.54c0,0,0.62,0.3,1.08,0.37c0.46,0.07,0.67,0.08,0.87,0.08c0.19,0,0.44-0.01,0.67-0.05
	c0.23-0.04,0.51-0.1,0.51-0.1l0.41,0.3c0,0-0.06,0.05-0.31,0.12c-0.25,0.06-0.68,0.17-1.03,0.17c-0.36,0-0.82-0.01-1.2-0.1
	c-0.38-0.09-0.55-0.12-0.88-0.28c-0.34-0.15-0.51-0.26-0.51-0.26L28.26,41.54z"/>
<path class="st0" d="M27.73,41.99c0,0-0.16,0.22-0.32,0.51c-0.16,0.29-0.25,0.56-0.25,0.56s0.75,0.15,1.33,0.15
	c0.57,0,0.98-0.04,1.42-0.13c0.43-0.1,0.62-0.16,0.89-0.26c0.27-0.1,0.68-0.26,0.68-0.29c0-0.03-0.07,0.01-0.3,0.04
	c-0.23,0.03-0.75,0.14-1.35,0.08c-0.6-0.07-1.02-0.17-1.33-0.29C28.18,42.22,27.73,41.99,27.73,41.99"/>
<path class="st0" d="M32.4,42.21c-0.19,0-0.35-0.16-0.35-0.36V40.7c0-0.19,0.16-0.35,0.35-0.35c0.19,0,0.35,0.16,0.35,0.35v1.16
	C32.75,42.05,32.59,42.21,32.4,42.21"/>
<path class="st0" d="M45.08,34.21c-0.02,0.02-0.01,0.02-0.02,0c-0.17-0.33-0.86-1.35-1.72-1.89c-0.95-0.61-1.21-0.65-1.62-0.77
	c-0.41-0.13-1.4-0.21-1.4-0.21v-0.85c0,0,0.64,0.03,1.12,0.16c0,0,0.73,0.19,1.3,0.55c0.28,0.18,0.62,0.42,0.8,0.59
	c0.51,0.47,0.8,0.94,0.93,1.11c0.03,0.04,0.04,0.06,0.06,0.04c0.02-0.04-0.49-1.18-1.31-1.88c-0.62-0.54-1.19-0.84-1.55-0.99
	c-0.36-0.16-1.34-0.39-1.34-0.39v-0.73c0,0,0.89,0.14,1.57,0.46c0.73,0.35,1.24,0.77,1.66,1.2C45.14,32.16,45.1,34.19,45.08,34.21"
	/>
<path class="st0" d="M40.32,29.87c0,0,0.6,0.07,1.17,0.29c0.57,0.22,1.23,0.69,1.28,0.73c0.05,0.04,0.09,0.07,0.09,0.1
	c0,0.02-0.03,0-0.03,0s-0.15-0.09-0.4-0.22c-0.26-0.12-0.54-0.21-0.84-0.3c-0.41-0.12-0.93-0.18-1-0.18
	c-0.14-0.01-0.24-0.02-0.24-0.02L40.32,29.87z"/>
<path class="st0" d="M44.8,34.49c0,0-0.3-0.24-0.47-0.39c-0.17-0.14-0.37-0.32-0.37-0.32s-0.7,0.16-1.25,0.45
	c-0.56,0.3-0.93,0.51-1.26,0.78c-0.33,0.27-0.73,0.59-0.73,0.59s0.08-0.21,0.31-0.51c0.23-0.3,0.65-0.8,0.99-1.05
	c0.33-0.26,0.27-0.26,0.65-0.48c0.38-0.23,0.71-0.4,0.71-0.4l-0.29-0.37c0,0-0.17,0.07-0.4,0.19c-0.23,0.13-0.83,0.47-1.13,0.77
	c-0.3,0.3-0.64,0.67-0.88,1.05c-0.24,0.38-0.41,0.74-0.47,0.93c-0.07,0.19-0.38,1.1-0.38,1.1s0.12-0.16,0.5-0.48
	c0,0,0.56-0.42,0.87-0.6c0.31-0.18,0.74-0.41,1.18-0.59c0.45-0.18,0.93-0.35,1.34-0.44C44.12,34.61,44.8,34.49,44.8,34.49"/>
<path class="st0" d="M43.81,33.64c0,0-0.17-0.19-0.31-0.34c-0.03-0.03-0.43,0.18-0.73,0.39c-0.3,0.21-0.54,0.4-0.79,0.6
	c-0.25,0.21-0.39,0.38-0.38,0.39c0.02,0.02,0.46-0.29,0.66-0.39c0.2-0.1,0.62-0.31,0.84-0.4C43.33,33.8,43.81,33.64,43.81,33.64"/>
<path class="st0" d="M44.71,34.82c0,0-0.12,1.16-0.37,1.86c-0.26,0.71-0.23,0.67-0.48,1.14c-0.24,0.46-0.38,0.6-0.38,0.6l-0.57-0.16
	c0,0,0.57-0.96,0.8-1.69c0.3-0.92,0.36-1.63,0.36-1.63L44.71,34.82z"/>
<path class="st0" d="M43.88,34.97c0,0-0.06,0.84-0.32,1.55c-0.26,0.71-0.25,0.69-0.5,1.16c-0.25,0.46-0.34,0.54-0.34,0.54
	l-0.49-0.09c0,0,0.58-0.85,0.84-1.6c0.33-0.92,0.37-1.46,0.37-1.46L43.88,34.97z"/>
<path class="st0" d="M43.23,35.16c0,0-0.06,0.65-0.41,1.54c-0.29,0.73-0.8,1.41-0.8,1.41l-0.78-0.05c0,0,0.27-0.31,0.49-0.67
	c0.35-0.54,0.46-0.87,0.58-1.18c0.14-0.36,0.23-0.82,0.23-0.82L43.23,35.16z"/>
<path class="st0" d="M48.06,33.85c0,0-0.82,1.46-1.1,2.18c-0.22,0.55-0.83,1.45-1.09,1.82l-0.96,1.23l-0.56-0.3
	c0,0,0.59-0.52,1.17-1.46c0.73-1.18,1.5-2.46,1.5-2.46s-0.6,0.45-1.08,0.85c-0.44,0.36-1.58,1.62-1.58,1.62l0.38-1.12
	c0,0,1.26-1.24,1.79-1.56c0.53-0.32,1.45-0.83,1.49-0.83C48.06,33.81,48.06,33.85,48.06,33.85"/>
<path class="st0" d="M46.25,35.66c0,0-0.51,1.05-0.87,1.53c-0.36,0.48-1.24,1.49-1.24,1.49l-0.43-0.18c0,0,0.4-0.61,0.6-0.84
	c0.31-0.35,0.7-0.86,0.98-1.14C45.57,36.25,46.25,35.66,46.25,35.66"/>
<path class="st0" d="M39.42,38.63c1.27-0.31,2.31-0.47,4.49,0.3c2.4,0.85,3.12,3.2,3.12,3.2s-0.27-0.25-0.89-0.64
	c-0.62-0.39-1.29-0.81-2.26-1.04c-0.97-0.23-1.92-0.34-2.97-0.13c-1.04,0.21-1.36,0.38-1.88,0.67c-0.52,0.29-0.77,0.46-0.77,0.46
	l-0.13-0.84c0,0,1.09-0.63,1.88-0.82c0.79-0.19,1.7-0.23,2.3-0.23c0.6,0,1.88,0.36,2.2,0.52c0.28,0.14,0.67,0.32,0.84,0.39
	c0.06,0.02,0.08,0.01,0.08,0.01s-1.09-1-2.53-1.34c-0.97-0.23-1.51-0.3-2.3-0.2c-0.79,0.09-0.96,0.09-1.55,0.32
	c-0.58,0.23-1.18,0.54-1.18,0.54l-0.22-0.46c0,0,1.14-0.61,2.09-0.8"/>
<path class="st0" d="M44.06,39.73c0,0-0.85-0.46-2.05-0.64c-0.38-0.06-1.09-0.05-1.57,0c-1.35,0.14-2.49,0.87-2.49,0.87l0.13,0.48
	c0,0,0.62-0.37,1.6-0.7c0.63-0.21,1.49-0.3,1.84-0.33C42.58,39.35,44.06,39.73,44.06,39.73"/>
<path class="st0" d="M37.97,41.69c-0.15-0.15-0.75-0.5-1.41-0.54c-0.29-0.02-0.68,0-1.1,0.08c-0.85,0.16-1.57,0.7-1.57,0.7
	s-0.05-0.95-0.03-1.32c0.01-0.08,0.63-0.49,1.11-0.73c0.35-0.18,0.89-0.37,1.36-0.47c0.31-0.07,0.57-0.1,0.8-0.05
	c0.22,0.05,0.43,0.34,0.61,0.93C37.99,41.01,37.97,41.69,37.97,41.69"/>
<path class="st0" d="M37.22,41.44c0,0-0.14-0.07-0.39-0.11c-0.25-0.04-0.52-0.08-0.89-0.03c-0.37,0.06-0.65,0.1-0.93,0.22
	c-0.28,0.11-0.45,0.2-0.45,0.2s0.02,0.06,0.31,0.09c0.29,0.03,0.62,0.06,0.86,0.04c0.24-0.02,0.62-0.07,0.88-0.15
	c0.27-0.08,0.37-0.12,0.44-0.15C37.12,41.53,37.22,41.44,37.22,41.44"/>
<path class="st0" d="M37.45,41.54c0,0-0.62,0.3-1.07,0.37c-0.46,0.07-0.67,0.08-0.87,0.08c-0.2,0-0.44-0.01-0.67-0.05
	c-0.23-0.04-0.51-0.1-0.51-0.1l-0.41,0.3c0,0,0.06,0.05,0.3,0.12c0.25,0.06,0.68,0.17,1.04,0.17c0.35,0,0.82-0.01,1.2-0.1
	c0.38-0.09,0.55-0.12,0.89-0.28c0.33-0.15,0.51-0.26,0.51-0.26L37.45,41.54z"/>
<path class="st0" d="M37.99,41.99c0,0,0.16,0.22,0.32,0.51c0.16,0.29,0.25,0.56,0.25,0.56s-0.75,0.15-1.33,0.15
	c-0.58,0-0.99-0.04-1.42-0.13c-0.43-0.1-0.62-0.16-0.89-0.26c-0.27-0.1-0.68-0.26-0.68-0.29c0-0.03,0.07,0.01,0.3,0.04
	c0.23,0.03,0.75,0.14,1.35,0.08c0.6-0.07,1.02-0.17,1.33-0.29C37.54,42.22,37.99,41.99,37.99,41.99"/>
<path class="st0" d="M33.32,42.21c-0.2,0-0.35-0.16-0.35-0.36V40.7c0-0.19,0.15-0.35,0.35-0.35c0.19,0,0.35,0.16,0.35,0.35v1.16
	C33.67,42.05,33.51,42.21,33.32,42.21"/>
<path class="st0" d="M36.39,5.67l-0.64,0.91c0.37,1.1,0.76,2.17,1.13,3.28l0.36,1.19l-0.01,0.06c-0.12-0.02-0.23-0.06-0.33-0.08
	c-0.12-0.01-0.24,0-0.35-0.01c-0.09-0.38-0.19-0.73-0.3-1.08l-1-3.03c-0.03-0.05-0.09-0.09-0.1-0.05l-0.47,3.94
	c-0.1-0.02-0.18-0.06-0.27-0.07c-0.09-0.01-0.19,0-0.27,0l0.91-7.72c0.08,0.02,0.17,0.05,0.26,0.06c0.08,0.01,0.17,0,0.27,0
	l-0.41,3.49c0,0.07,0.09,0.03,0.16-0.05c0.13-0.14,0.28-0.37,0.39-0.51l1.85-2.69c0.08,0.02,0.16,0.05,0.24,0.06
	c0.07,0.01,0.16,0,0.24,0L36.39,5.67z"/>
<path class="st0" d="M37.33,11.23l-0.12-0.03c-0.05-0.01-0.09-0.02-0.14-0.03c-0.07-0.01-0.13-0.03-0.19-0.04
	c-0.05-0.01-0.1-0.01-0.15-0.01h-0.15h-0.12l-0.02-0.08c-0.11-0.44-0.2-0.77-0.3-1.07L35.23,7.2l-0.44,3.74l-0.13-0.03
	c-0.04-0.01-0.07-0.02-0.11-0.03c-0.05-0.02-0.1-0.03-0.15-0.03c-0.06-0.01-0.11-0.01-0.17,0c-0.03,0-0.06,0-0.09,0h-0.13l0.94-7.98
	l0.13,0.03c0.03,0.01,0.06,0.02,0.08,0.03c0.06,0.01,0.11,0.03,0.17,0.04c0.05,0.01,0.1,0,0.15,0c0.04,0,0.07,0,0.11,0h0.13
	l-0.01,0.13l-0.39,3.27c0.11-0.14,0.23-0.31,0.32-0.43l1.89-2.75l0.08,0.02c0.03,0.01,0.06,0.02,0.08,0.02
	c0.05,0.02,0.1,0.03,0.15,0.04c0.04,0.01,0.08,0,0.13,0c0.03,0,0.07,0,0.1-0.01h0.23l-1.82,2.48l-0.6,0.86
	c0.16,0.48,0.33,0.96,0.49,1.44c0.2,0.58,0.41,1.18,0.61,1.78l0.37,1.21L37.33,11.23z M36.74,10.9c0.06,0,0.12,0,0.18,0
	c0.06,0.01,0.12,0.02,0.18,0.04l-0.32-1.06c-0.2-0.6-0.41-1.2-0.61-1.78c-0.17-0.5-0.35-0.99-0.51-1.5l-0.02-0.06l0.67-0.96
	l1.55-2.11c-0.01,0-0.02,0-0.03,0c-0.07-0.01-0.12-0.03-0.18-0.04l-1.8,2.62c-0.11,0.15-0.27,0.38-0.4,0.52
	c-0.03,0.03-0.12,0.12-0.22,0.12c-0.04,0-0.08-0.01-0.1-0.04c-0.02-0.02-0.04-0.06-0.04-0.11l0.4-3.37c-0.06,0-0.11,0-0.16,0
	c-0.05-0.01-0.11-0.02-0.16-0.03l-0.88,7.45c0.05,0,0.1,0,0.16,0c0.05,0.01,0.1,0.02,0.15,0.03l0.45-3.81
	c0.01-0.07,0.06-0.12,0.13-0.12c0.08,0,0.15,0.07,0.18,0.13l1,3.05c0.1,0.29,0.18,0.6,0.28,1H36.74z"/>
<path class="st0" d="M41.28,8.6l-1.29-0.42l1.53-2.56L41.28,8.6z M42.2,4.28l-0.14-0.04l-4.28,6.96c0.07,0.01,0.14,0.01,0.22,0.04
	c0.07,0.02,0.13,0.06,0.21,0.1c0.49-0.96,1.01-1.85,1.53-2.73l1.49,0.48c-0.08,1.06-0.21,2.17-0.33,3.12
	c0.1,0.02,0.21,0.03,0.32,0.07c0.1,0.03,0.19,0.08,0.3,0.13L42.2,4.28z"/>
<path class="st0" d="M41.61,12.57l-0.15-0.07c-0.04-0.02-0.08-0.03-0.12-0.05c-0.06-0.03-0.11-0.05-0.17-0.07
	c-0.07-0.02-0.13-0.03-0.21-0.05c-0.04-0.01-0.07-0.01-0.1-0.02l-0.1-0.03l0.01-0.1c0.14-1.11,0.25-2.13,0.32-3.02l-1.32-0.43
	L39.7,8.89c-0.46,0.79-0.94,1.62-1.39,2.49l-0.05,0.1l-0.1-0.05c-0.04-0.01-0.06-0.03-0.09-0.05c-0.04-0.02-0.07-0.04-0.1-0.05
	c-0.04-0.01-0.08-0.02-0.13-0.02c-0.02,0-0.05,0-0.07-0.01l-0.17-0.02l4.41-7.19l0.31,0.1L41.61,12.57z M41.03,12.11
	c0.07,0.01,0.15,0.03,0.23,0.05c0.05,0.02,0.11,0.04,0.16,0.06l0.65-7.79l-4.09,6.66c0.02,0,0.04,0.01,0.06,0.01
	c0.05,0.02,0.08,0.04,0.12,0.06c0.43-0.84,0.9-1.63,1.34-2.4l0.18-0.31l1.67,0.54l-0.01,0.09C41.27,9.98,41.17,11,41.03,12.11
	 M41.39,8.76l-1.57-0.51l1.61-2.68l0.21,0.07L41.39,8.76z M40.16,8.12l1.02,0.33l0.19-2.35L40.16,8.12z"/>
<path class="st0" d="M45.03,14.31l-0.16-0.09c0.02-0.17,0.04-0.47,0.05-0.76l0.27-6.04l-0.06-0.03l-2.94,5.37
	c-0.05-0.04-0.09-0.09-0.14-0.11c-0.05-0.03-0.11-0.04-0.17-0.05l3.74-6.81l0.21,0.12l-0.24,6.54l0.06,0.03l2.81-5.13
	c0.04,0.03,0.08,0.08,0.14,0.11c0.05,0.03,0.11,0.03,0.17,0.05L45.03,14.31z"/>
<path class="st0" d="M45.08,14.46l-0.33-0.18l0-0.08c0.02-0.16,0.04-0.46,0.05-0.76l0.26-5.69l-2.83,5.17l-0.11-0.09
	c-0.02-0.02-0.04-0.03-0.06-0.05c-0.02-0.02-0.04-0.04-0.06-0.05c-0.02-0.01-0.05-0.02-0.08-0.03c-0.02-0.01-0.04-0.01-0.06-0.02
	l-0.13-0.04l3.86-7.03l0.37,0.2l-0.23,6.27l2.71-4.94l0.11,0.09c0.01,0.01,0.03,0.03,0.05,0.04c0.02,0.03,0.05,0.04,0.07,0.06
	c0.02,0.01,0.05,0.02,0.08,0.02c0.02,0.01,0.05,0.01,0.07,0.02l0.13,0.04L45.08,14.46z M45.09,7.23l0.22,0.12l-0.28,6.12
	c-0.01,0.25-0.03,0.51-0.04,0.68l3.61-6.58c-0.02,0-0.04-0.01-0.06-0.02c-0.02-0.01-0.03-0.02-0.05-0.03l-2.8,5.1l-0.21-0.12
	l0.24-6.54l-0.04-0.03l-3.61,6.59c0.02,0.01,0.04,0.01,0.05,0.02c0.01,0.01,0.03,0.02,0.05,0.03L45.09,7.23z"/>
<path class="st0" d="M46.42,13.45c-0.25,0.72-0.31,1.25,0.07,1.55c0.39,0.31,1.14-0.08,1.69-0.79c1.29-1.67-0.81-2.12,0.76-4.15
	c0.9-1.16,1.83-1.34,2.42-0.89c0.23,0.18,0.41,0.53,0.37,0.97c-0.24,0.19-0.47,0.42-0.7,0.64l-0.05-0.04c0.27-0.56,0.29-1.03,0-1.25
	c-0.34-0.26-0.93-0.06-1.43,0.58c-1.28,1.65,0.77,2.18-0.7,4.09c-0.99,1.29-2.12,1.63-2.79,1.11c-0.24-0.19-0.48-0.67-0.39-1.13
	c0.25-0.23,0.48-0.48,0.71-0.73L46.42,13.45z"/>
<path class="st0" d="M46.74,15.62c-0.29,0-0.55-0.09-0.76-0.25c-0.29-0.22-0.53-0.76-0.44-1.25l0.01-0.04l0.03-0.03
	c0.25-0.22,0.49-0.48,0.7-0.71l0.07-0.08l0.2,0.15l-0.03,0.08c-0.28,0.78-0.27,1.19,0.03,1.42c0.07,0.05,0.16,0.08,0.26,0.08
	c0.37,0,0.88-0.34,1.27-0.85c0.58-0.75,0.44-1.21,0.28-1.75c-0.18-0.6-0.38-1.28,0.48-2.39c0.58-0.75,1.23-1.16,1.84-1.16
	c0.27,0,0.53,0.09,0.75,0.25c0.23,0.18,0.46,0.56,0.41,1.07l0,0.05l-0.04,0.03c-0.2,0.16-0.39,0.34-0.59,0.53l-0.18,0.17l-0.2-0.15
	l0.04-0.08c0.26-0.53,0.27-0.93,0.03-1.11c-0.07-0.06-0.17-0.09-0.27-0.09c-0.31,0-0.68,0.24-0.99,0.64
	c-0.58,0.75-0.44,1.23-0.27,1.78c0.17,0.59,0.37,1.27-0.43,2.31C48.25,15.12,47.45,15.62,46.74,15.62 M45.76,14.2
	c-0.07,0.41,0.16,0.84,0.36,0.99c0.18,0.13,0.39,0.2,0.62,0.2c0.63,0,1.37-0.48,2.01-1.3c0.73-0.94,0.57-1.51,0.39-2.1
	c-0.16-0.56-0.34-1.14,0.31-1.99c0.35-0.46,0.79-0.73,1.17-0.73c0.15,0,0.3,0.04,0.41,0.14c0.26,0.2,0.32,0.57,0.18,1.03
	c0.13-0.12,0.26-0.24,0.39-0.35c0.03-0.39-0.15-0.68-0.32-0.82c-0.18-0.13-0.38-0.2-0.6-0.2c-0.53,0-1.12,0.38-1.65,1.07
	c-0.79,1.02-0.61,1.61-0.44,2.19c0.16,0.55,0.33,1.11-0.32,1.96c-0.44,0.57-1.01,0.94-1.45,0.94c-0.16,0-0.29-0.04-0.4-0.13
	c-0.39-0.3-0.36-0.81-0.22-1.32C46.06,13.92,45.91,14.06,45.76,14.2"/>
<path class="st0" d="M51.8,15.55l-0.94-0.99l2.57-1.52L51.8,15.55z M54.66,12.18l-0.1-0.1l-7.08,4.09c0.06,0.04,0.12,0.07,0.18,0.13
	c0.05,0.05,0.08,0.12,0.13,0.18c0.89-0.61,1.77-1.14,2.64-1.67l1.08,1.14c-0.58,0.89-1.21,1.81-1.77,2.59
	c0.08,0.07,0.17,0.13,0.25,0.21c0.07,0.08,0.13,0.16,0.2,0.26L54.66,12.18z"/>
<path class="st0" d="M50.2,19.2l-0.1-0.13c-0.03-0.03-0.05-0.07-0.08-0.11c-0.04-0.05-0.07-0.1-0.11-0.14
	c-0.05-0.05-0.11-0.1-0.16-0.14c-0.03-0.02-0.06-0.05-0.08-0.07l-0.08-0.07l0.06-0.09c0.66-0.91,1.23-1.75,1.72-2.5l-0.96-1
	l-0.15,0.09c-0.78,0.48-1.59,0.97-2.4,1.53l-0.09,0.06l-0.06-0.09c-0.02-0.03-0.04-0.06-0.06-0.08c-0.02-0.04-0.04-0.07-0.07-0.09
	c-0.03-0.03-0.06-0.06-0.1-0.08c-0.02-0.01-0.04-0.03-0.06-0.04l-0.14-0.1l7.3-4.22l0.22,0.24L50.2,19.2z M49.9,18.51
	c0.06,0.05,0.12,0.1,0.18,0.16c0.04,0.04,0.08,0.09,0.11,0.13l4.28-6.53l-6.77,3.91c0.01,0.01,0.03,0.03,0.05,0.04
	c0.03,0.04,0.06,0.07,0.08,0.11c0.79-0.53,1.56-1.01,2.32-1.47l0.31-0.18l1.21,1.26l-0.05,0.08C51.13,16.76,50.55,17.6,49.9,18.51
	 M51.81,15.74l-1.13-1.19l2.69-1.59l0.16,0.16L51.81,15.74z M51.04,14.59l0.74,0.78l1.29-1.97L51.04,14.59z"/>
<path class="st0" d="M56.77,14.95c0.04,0.08,0.08,0.17,0.13,0.24c0.05,0.07,0.12,0.13,0.19,0.2l-6.26,4.6
	c-0.05-0.09-0.08-0.17-0.13-0.24c-0.05-0.07-0.13-0.14-0.19-0.2L56.77,14.95z"/>
<path class="st0" d="M50.79,20.15l-0.06-0.12c-0.02-0.03-0.04-0.07-0.05-0.1c-0.02-0.05-0.04-0.09-0.07-0.13
	c-0.03-0.04-0.07-0.08-0.12-0.13c-0.02-0.02-0.04-0.04-0.06-0.07l-0.09-0.09l6.47-4.75l0.06,0.11c0.01,0.03,0.03,0.05,0.04,0.08
	c0.03,0.05,0.05,0.11,0.09,0.15c0.03,0.03,0.06,0.07,0.1,0.11c0.03,0.03,0.05,0.05,0.08,0.08l0.09,0.09L50.79,20.15z M50.68,19.56
	c0.04,0.04,0.07,0.07,0.11,0.12c0.03,0.04,0.06,0.09,0.08,0.14l6.05-4.44c-0.04-0.04-0.07-0.07-0.11-0.12
	c-0.03-0.04-0.06-0.09-0.08-0.14L50.68,19.56z"/>
<path class="st0" d="M55.42,18.97l0.49,0.82c0.1,0.16,0.23,0.29,0.33,0.44c-0.08,0.04-0.18,0.08-0.27,0.14
	c-0.08,0.05-0.16,0.11-0.26,0.18c-0.09-0.17-0.14-0.34-0.23-0.5l-0.49-0.82l-2.85,1.69c0.17,0.34,0.4,0.63,0.61,0.94
	c0.11,0.16,0.23,0.3,0.38,0.44c-0.11,0.06-0.21,0.1-0.3,0.16c-0.1,0.06-0.19,0.12-0.28,0.19l-1.14-1.92l6.66-3.94l1.12,1.88
	c-0.11,0.06-0.2,0.1-0.3,0.16c-0.1,0.06-0.19,0.12-0.28,0.19c-0.04-0.19-0.1-0.37-0.18-0.54l-0.29-0.54l-0.24-0.41L55.42,18.97z"/>
<path class="st0" d="M52.5,22.8l-1.25-2.12l6.85-4.06l1.24,2.09l-0.11,0.06c-0.04,0.02-0.08,0.04-0.12,0.06
	c-0.06,0.03-0.12,0.06-0.18,0.09c-0.06,0.04-0.12,0.08-0.18,0.12c-0.03,0.02-0.07,0.04-0.1,0.07l-0.14,0.1l-0.03-0.17
	c-0.03-0.16-0.08-0.32-0.17-0.51l-0.29-0.54l-0.18-0.31l-2.26,1.34L56,19.74c0.05,0.08,0.11,0.16,0.18,0.24
	c0.05,0.06,0.1,0.13,0.15,0.2l0.07,0.11l-0.19,0.09c-0.06,0.03-0.12,0.06-0.18,0.09c-0.04,0.03-0.09,0.06-0.14,0.1
	c-0.04,0.02-0.08,0.05-0.12,0.08l-0.1,0.07l-0.06-0.12c-0.04-0.07-0.07-0.15-0.1-0.22c-0.04-0.1-0.08-0.18-0.13-0.27l-0.43-0.73
	l-2.66,1.58c0.12,0.21,0.25,0.41,0.39,0.6c0.05,0.08,0.11,0.15,0.16,0.23c0.1,0.15,0.22,0.28,0.36,0.42l0.12,0.11l-0.14,0.07
	c-0.04,0.02-0.08,0.04-0.12,0.06c-0.06,0.03-0.12,0.06-0.18,0.09c-0.06,0.04-0.13,0.08-0.18,0.12c-0.03,0.02-0.06,0.04-0.1,0.06
	L52.5,22.8z M51.56,20.76l1.01,1.72c0.07-0.04,0.13-0.09,0.19-0.13c0.06-0.03,0.11-0.06,0.17-0.09c-0.11-0.11-0.2-0.22-0.28-0.34
	c-0.05-0.08-0.11-0.15-0.16-0.23c-0.16-0.22-0.32-0.46-0.46-0.72l-0.05-0.1l3.05-1.8l0.54,0.92c0.06,0.1,0.1,0.2,0.14,0.3
	c0.01,0.03,0.03,0.06,0.04,0.09c0,0,0,0,0,0c0.05-0.04,0.1-0.07,0.15-0.1c0.05-0.03,0.1-0.05,0.15-0.08
	c-0.02-0.03-0.04-0.05-0.06-0.08c-0.07-0.08-0.14-0.17-0.2-0.27l-0.55-0.92l2.65-1.57l0.3,0.51l0.3,0.55
	c0.07,0.15,0.12,0.28,0.15,0.41c0.05-0.04,0.1-0.07,0.16-0.1c0.06-0.04,0.12-0.07,0.19-0.1c0,0,0.01,0,0.01,0l-0.99-1.68
	L51.56,20.76z"/>
<path class="st0" d="M54.09,26.47l-0.07-0.17c0.12-0.12,0.33-0.34,0.53-0.55l4.09-4.46l-0.02-0.06l-5.71,2.23
	c-0.01-0.06-0.01-0.12-0.03-0.17c-0.02-0.06-0.06-0.1-0.1-0.15l7.24-2.82l0.09,0.23l-4.38,4.86l0.02,0.06l5.45-2.13
	c0.01,0.05,0.01,0.12,0.03,0.17c0.02,0.05,0.06,0.1,0.1,0.15L54.09,26.47z"/>
<path class="st0" d="M54.03,26.62l-0.14-0.35l0.05-0.05c0.12-0.12,0.32-0.33,0.52-0.55l3.85-4.2l-5.49,2.14l-0.03-0.13
	c-0.01-0.02-0.01-0.05-0.01-0.07c0-0.03-0.01-0.06-0.02-0.08c-0.01-0.02-0.03-0.05-0.05-0.07c-0.01-0.02-0.03-0.03-0.04-0.05
	l-0.08-0.12l7.48-2.92l0.15,0.4l-4.2,4.65l5.24-2.05l0.02,0.14c0,0.02,0.01,0.04,0.01,0.06c0.01,0.04,0.01,0.06,0.02,0.09
	c0.01,0.02,0.03,0.04,0.05,0.07c0.01,0.02,0.03,0.04,0.04,0.06l0.07,0.12L54.03,26.62z M58.68,21.08l0.09,0.23l-4.14,4.51
	c-0.17,0.19-0.35,0.37-0.47,0.49l6.99-2.73c-0.01-0.01-0.02-0.03-0.02-0.05c-0.01-0.02-0.02-0.04-0.02-0.06l-5.42,2.12l-0.09-0.23
	l4.38-4.86l-0.02-0.05l-7,2.73c0.01,0.02,0.02,0.04,0.02,0.06C53,23.26,53,23.28,53.01,23.3L58.68,21.08z"/>
<path class="st0" d="M55.75,26.88c-0.66,0.38-1.05,0.75-0.95,1.22c0.1,0.49,0.92,0.68,1.8,0.5c2.07-0.44,0.76-2.13,3.27-2.66
	c1.43-0.3,2.26,0.17,2.42,0.89c0.06,0.29-0.04,0.67-0.35,0.97c-0.31-0.01-0.62,0.01-0.95,0.03l-0.01-0.06
	c0.57-0.25,0.89-0.59,0.81-0.95c-0.09-0.42-0.67-0.65-1.46-0.49c-2.04,0.43-0.82,2.16-3.19,2.66c-1.59,0.33-2.68-0.14-2.85-0.96
	c-0.06-0.3,0.07-0.83,0.44-1.12c0.33-0.01,0.67-0.05,1.01-0.09L55.75,26.88z"/>
<path class="st0" d="M56.15,29.22c-1.07,0-1.83-0.44-1.98-1.16c-0.07-0.36,0.09-0.92,0.48-1.24l0.03-0.02h0.04
	c0.34-0.01,0.68-0.05,1-0.09l0.1-0.01l0.05,0.24l-0.07,0.04c-0.71,0.42-0.97,0.73-0.9,1.1c0.06,0.29,0.47,0.48,1.05,0.48
	c0.2,0,0.41-0.02,0.62-0.07c0.93-0.19,1.12-0.64,1.35-1.15c0.25-0.57,0.54-1.22,1.92-1.51c0.3-0.07,0.59-0.1,0.85-0.1
	c0.92,0,1.56,0.4,1.71,1.08c0.06,0.29-0.01,0.73-0.39,1.09l-0.03,0.03l-0.05,0c-0.25-0.01-0.53,0-0.79,0.02l-0.24,0.01l-0.05-0.25
	l0.08-0.04c0.53-0.23,0.81-0.53,0.75-0.82c-0.06-0.27-0.39-0.45-0.86-0.45c-0.15,0-0.3,0.02-0.46,0.05
	c-0.93,0.2-1.13,0.65-1.37,1.18c-0.25,0.57-0.54,1.21-1.82,1.48C56.8,29.18,56.47,29.22,56.15,29.22 M54.76,27.03
	c-0.32,0.27-0.42,0.74-0.37,0.98c0.13,0.61,0.8,0.98,1.76,0.98c0.29,0,0.62-0.03,0.95-0.1c1.17-0.25,1.41-0.78,1.66-1.35
	c0.24-0.54,0.49-1.09,1.53-1.31c0.17-0.03,0.35-0.06,0.51-0.06c0.59,0,1,0.24,1.09,0.63c0.07,0.32-0.12,0.64-0.53,0.9
	c0.18-0.01,0.36-0.02,0.52-0.01c0.28-0.28,0.33-0.62,0.29-0.84c-0.12-0.56-0.67-0.89-1.48-0.89c-0.25,0-0.52,0.03-0.8,0.09
	c-1.26,0.26-1.51,0.83-1.75,1.38c-0.23,0.52-0.47,1.06-1.52,1.29c-0.22,0.04-0.45,0.07-0.66,0.07c-0.7,0-1.19-0.25-1.27-0.66
	c-0.1-0.48,0.25-0.85,0.68-1.14C55.17,27,54.97,27.02,54.76,27.03"/>
<path class="st0" d="M62.5,29.23c0,0.09-0.01,0.18,0,0.27c0.01,0.09,0.04,0.17,0.06,0.27l-7.72,0.86c0-0.1,0.01-0.19,0-0.27
	c-0.01-0.1-0.04-0.18-0.06-0.27L62.5,29.23z"/>
<path class="st0" d="M54.72,30.76l0-0.13v-0.11c0-0.06,0.01-0.11,0-0.15c0-0.06-0.02-0.11-0.04-0.17c-0.01-0.03-0.02-0.06-0.02-0.09
	l-0.03-0.13l7.98-0.89l-0.01,0.13c0,0.03,0,0.06,0,0.09c0,0.06,0,0.12,0,0.17c0.01,0.05,0.02,0.09,0.03,0.15
	c0.01,0.03,0.02,0.07,0.03,0.11l0.03,0.13L54.72,30.76z M54.92,30.19c0.02,0.05,0.03,0.1,0.03,0.16c0.01,0.05,0.01,0.11,0,0.16
	l7.46-0.83c-0.01-0.05-0.03-0.1-0.03-0.16c-0.01-0.05-0.01-0.11,0-0.16L54.92,30.19z"/>
<path class="st0" d="M56.46,31.51c-0.72,0.25-1.17,0.53-1.17,1.01c0,0.5,0.77,0.85,1.67,0.84c2.11-0.02,1.16-1.94,3.73-1.97
	c1.46-0.01,2.19,0.61,2.19,1.35c0,0.3-0.16,0.66-0.53,0.89c-0.3-0.07-0.62-0.11-0.94-0.16v-0.06c0.61-0.14,0.99-0.41,0.98-0.78
	c-0.01-0.42-0.53-0.77-1.34-0.76c-2.09,0.02-1.23,1.96-3.65,1.98c-1.62,0.01-2.6-0.66-2.6-1.5c0-0.3,0.23-0.8,0.65-1.02
	c0.33,0.06,0.67,0.09,1.01,0.11V31.51z"/>
<path class="st0" d="M57.35,33.97c-1.56,0-2.65-0.66-2.66-1.61c0-0.36,0.27-0.89,0.71-1.12l0.03-0.01l0.04,0
	c0.33,0.06,0.68,0.09,1,0.1l0.11,0.01l0,0.25l-0.08,0.03c-0.78,0.27-1.1,0.53-1.1,0.9c0,0.4,0.69,0.73,1.52,0.73h0.03
	c0.94-0.01,1.22-0.41,1.55-0.87c0.36-0.51,0.77-1.09,2.18-1.1h0.05c1.66,0,2.25,0.79,2.26,1.46c0,0.3-0.15,0.71-0.59,0.99
	l-0.04,0.02l-0.05-0.01c-0.24-0.06-0.5-0.1-0.78-0.14l-0.24-0.03l0-0.25l0.09-0.02c0.57-0.13,0.9-0.37,0.89-0.66
	c0-0.37-0.52-0.65-1.2-0.65h-0.03c-0.95,0.01-1.24,0.41-1.57,0.89c-0.36,0.51-0.76,1.08-2.08,1.1H57.35z M55.47,31.46
	c-0.37,0.2-0.56,0.64-0.55,0.89c0.01,0.82,1.01,1.38,2.43,1.38h0.06c1.2-0.01,1.53-0.49,1.89-1c0.34-0.48,0.69-0.97,1.76-0.99h0.03
	c0.82,0,1.42,0.37,1.42,0.88c0,0.33-0.25,0.61-0.7,0.78c0.17,0.03,0.35,0.05,0.52,0.09c0.33-0.22,0.45-0.54,0.44-0.77
	c-0.01-0.75-0.81-1.24-2.03-1.24l-0.05,0c-1.29,0.01-1.65,0.52-1.99,1.01c-0.33,0.47-0.67,0.95-1.74,0.96h-0.03
	c-0.99,0-1.74-0.41-1.75-0.96c0-0.49,0.41-0.78,0.9-0.99C55.87,31.52,55.67,31.49,55.47,31.46"/>
<path class="st0" d="M59.02,34.64c0.34,0.03,0.61,0.2,0.59,0.39c-0.01,0.18-0.31,0.31-0.65,0.29c-0.35-0.03-0.62-0.21-0.6-0.39
	C58.38,34.74,58.68,34.61,59.02,34.64"/>
<path class="st0" d="M59.05,35.44c-0.03,0-0.07,0-0.1,0c-0.42-0.03-0.73-0.26-0.71-0.51c0.02-0.25,0.36-0.43,0.78-0.4
	c0.41,0.04,0.72,0.26,0.7,0.52C59.71,35.27,59.43,35.44,59.05,35.44 M58.93,34.75c-0.26,0-0.44,0.1-0.45,0.19
	c-0.01,0.09,0.18,0.24,0.5,0.27c0.3,0.02,0.52-0.1,0.52-0.19c0.01-0.09-0.18-0.24-0.49-0.27H58.93z"/>
<path class="st0" d="M61.66,40.94c-2.78-0.43-5.55-0.84-7.7-1.12c0.04-0.11,0.07-0.19,0.09-0.28c0.02-0.1,0.02-0.2,0.02-0.29
	c2.26,0.37,4.68,0.76,5.8,0.91c-2.15-1.19-3.82-2.09-5.28-2.77l0.01-0.07l1.32-0.07c1.55-0.07,3.09-0.19,4.62-0.29
	c-2.14-0.59-4.3-1.22-5.67-1.51c0.03-0.07,0.06-0.14,0.08-0.2c0.02-0.08,0.01-0.15,0.01-0.23c1.76,0.53,6.33,1.88,7.48,2.19
	l-0.03,0.16c-1.87,0.11-4.08,0.25-6.19,0.48c1.78,0.98,3.6,1.94,5.45,2.97L61.66,40.94z"/>
<path class="st0" d="M61.75,41.07l-0.11-0.01c-3.29-0.5-5.81-0.87-7.7-1.12l-0.14-0.02l0.04-0.13c0.02-0.05,0.03-0.09,0.04-0.12
	c0.02-0.05,0.04-0.1,0.05-0.15c0.01-0.05,0.01-0.12,0.02-0.18c0-0.03,0-0.06,0-0.09l0.01-0.12l0.12,0.02
	c1.4,0.23,3.75,0.61,5.18,0.82c-1.86-1.02-3.39-1.84-4.73-2.47l-0.08-0.05l0.05-0.24l1.41-0.07c1.2-0.06,2.42-0.14,3.6-0.22
	l0.35-0.03c-0.22-0.06-0.44-0.12-0.65-0.18c-1.69-0.47-3.28-0.92-4.37-1.15l-0.13-0.03l0.04-0.12c0.01-0.03,0.03-0.06,0.04-0.09
	c0.01-0.04,0.03-0.07,0.04-0.1c0.01-0.04,0.01-0.08,0.01-0.13c0-0.02,0-0.05,0-0.08l0.01-0.15l0.14,0.04
	c1.77,0.54,6.35,1.89,7.47,2.19l0.1,0.03l-0.07,0.35l-0.08,0c-1.78,0.11-3.83,0.23-5.82,0.44c0.65,0.35,1.31,0.71,1.97,1.07
	c1.03,0.56,2.09,1.14,3.16,1.73l0.07,0.04L61.75,41.07z M54.11,39.73c1.82,0.24,4.21,0.59,7.29,1.06c-0.99-0.55-1.97-1.08-2.93-1.6
	c-0.77-0.42-1.53-0.83-2.29-1.25l-0.32-0.17l0.36-0.04c2.03-0.22,4.15-0.35,6-0.46c-1.38-0.38-5.36-1.56-7.13-2.09
	c0,0.03,0,0.07-0.01,0.1c-0.01,0.03-0.02,0.07-0.03,0.1c1.09,0.24,2.62,0.67,4.25,1.12c0.43,0.12,0.86,0.24,1.3,0.36l-0.02,0.23
	l-1.01,0.07c-1.18,0.08-2.39,0.16-3.6,0.22l-1.01,0.05c1.4,0.67,3.02,1.55,5,2.64l-0.07,0.22c-1.24-0.17-4.04-0.62-5.68-0.89
	c0,0.06-0.01,0.12-0.02,0.18C54.15,39.63,54.13,39.68,54.11,39.73"/>
<path class="st0" d="M60.15,43.85c-0.1,0.25-0.17,0.5-0.28,0.73c-0.57,1.26-1.59,1.39-3.78,0.39c-1.26-0.57-2.32-1.3-2.6-2.16
	c-0.22-0.65,0.22-1.29,0.5-1.76L60.15,43.85z M53.75,40.35l-0.5,1.1c-0.27,0.59-0.53,1.23,0.02,2.05c0.49,0.73,1.29,1.44,2.73,2.09
	c0.98,0.45,2.02,0.7,2.86,0.57c0.94-0.14,1.09-0.76,1.36-1.34l0.58-1.28L53.75,40.35z"/>
<path class="st0" d="M58.39,46.31L58.39,46.31c-0.71,0-1.56-0.21-2.45-0.62c-1.3-0.59-2.21-1.29-2.78-2.14
	c-0.6-0.9-0.28-1.6-0.02-2.16l0.55-1.2l7.25,3.29l-0.62,1.38c-0.03,0.06-0.06,0.13-0.09,0.2c-0.23,0.53-0.46,1.08-1.36,1.21
	C58.72,46.3,58.56,46.31,58.39,46.31 M53.8,40.5l-0.45,0.99c-0.24,0.54-0.52,1.15,0.01,1.94c0.55,0.81,1.42,1.48,2.68,2.05
	c0.86,0.39,1.67,0.59,2.35,0.59c0.15,0,0.31-0.01,0.44-0.03c0.77-0.12,0.96-0.56,1.18-1.08c0.03-0.06,0.06-0.13,0.09-0.2l0.53-1.17
	L53.8,40.5z M58.37,45.75c-0.58,0-1.32-0.21-2.33-0.67c-1.51-0.68-2.4-1.43-2.66-2.22c-0.22-0.64,0.16-1.27,0.43-1.73l0.13-0.21
	l6.36,2.89l-0.04,0.1c-0.04,0.1-0.08,0.2-0.11,0.3c-0.05,0.15-0.11,0.29-0.17,0.43C59.63,45.39,59.12,45.75,58.37,45.75 M54.03,41.2
	l-0.02,0.04c-0.26,0.45-0.59,1-0.41,1.54c0.24,0.73,1.1,1.43,2.54,2.09c0.98,0.44,1.69,0.65,2.24,0.65c0.66,0,1.09-0.3,1.39-0.98
	c0.06-0.13,0.11-0.27,0.16-0.42c0.02-0.07,0.05-0.14,0.07-0.2L54.03,41.2z"/>
<path class="st0" d="M50.53,47.02c-0.17-0.59-0.03-1.11,0.24-1.49c0.77-1.12,2.53-0.89,4.58,0.51c2.11,1.45,2.73,3.12,1.99,4.19
	c-0.26,0.37-0.68,0.65-1.18,0.8c-0.2-0.21-0.42-0.41-0.65-0.6l0.02-0.04c0.22,0.04,1.11,0.1,1.47-0.42
	c0.64-0.94-0.44-2.36-2.03-3.45c-1.8-1.24-3.34-1.46-3.89-0.66c-0.38,0.54-0.07,1.39,0.02,1.6L50.53,47.02z"/>
<path class="st0" d="M56.13,51.16l-0.05-0.05c-0.21-0.21-0.44-0.42-0.64-0.59l-0.06-0.05l0.08-0.21l0.1,0.02
	c0.06,0.01,0.18,0.02,0.32,0.02c0.28,0,0.8-0.05,1.03-0.4c0.34-0.5,0.09-1.11-0.18-1.54c-0.37-0.57-1.01-1.2-1.82-1.75
	c-1.04-0.72-2.03-1.11-2.77-1.11c-0.45,0-0.77,0.14-0.96,0.42c-0.35,0.52-0.04,1.33,0.03,1.49l0.17,0.39l-0.94-0.7l-0.01-0.04
	c-0.21-0.71,0.02-1.25,0.25-1.59c0.34-0.5,0.89-0.76,1.58-0.76c0.88,0,1.98,0.43,3.17,1.24c1.02,0.7,1.75,1.49,2.1,2.28
	c0.34,0.76,0.31,1.49-0.08,2.07c-0.26,0.38-0.69,0.68-1.24,0.85L56.13,51.16z M55.8,50.53c0.13,0.12,0.26,0.24,0.39,0.37
	c0.47-0.15,0.83-0.41,1.06-0.73c0.35-0.51,0.37-1.15,0.06-1.84c-0.34-0.75-1.03-1.51-2.02-2.18c-1.15-0.79-2.2-1.2-3.04-1.2
	c-0.62,0-1.08,0.22-1.39,0.66c-0.2,0.29-0.4,0.76-0.23,1.36l0.25,0.19c-0.1-0.37-0.17-0.93,0.12-1.35c0.23-0.34,0.63-0.52,1.15-0.52
	c0.79,0,1.81,0.41,2.89,1.15c0.83,0.57,1.5,1.21,1.88,1.82c0.44,0.69,0.5,1.31,0.18,1.79c-0.3,0.44-0.89,0.5-1.22,0.5H55.8z"/>
<path class="st0" d="M47.98,49.72c-0.08-0.61,0.15-1.09,0.48-1.43c0.94-0.98,2.65-0.48,4.44,1.24c1.85,1.77,2.19,3.51,1.29,4.45
	c-0.31,0.33-0.77,0.53-1.3,0.6c-0.16-0.24-0.35-0.47-0.54-0.7l0.02-0.04c0.21,0.08,1.08,0.28,1.52-0.17
	c0.79-0.82-0.05-2.4-1.44-3.73c-1.58-1.51-3.05-1.99-3.73-1.28c-0.46,0.48-0.29,1.36-0.24,1.58L47.98,49.72z"/>
<path class="st0" d="M52.84,54.7l-0.04-0.06c-0.17-0.25-0.37-0.49-0.53-0.69l-0.05-0.06l0.11-0.19l0.1,0.03
	c0.08,0.03,0.35,0.1,0.65,0.1c0.33,0,0.58-0.09,0.74-0.25c0.42-0.44,0.27-1.08,0.07-1.55c-0.27-0.63-0.81-1.34-1.51-2.02
	c-1.04-1-2.07-1.57-2.83-1.57c-0.31,0-0.55,0.09-0.74,0.28c-0.43,0.45-0.25,1.31-0.21,1.47l0.1,0.42l-0.81-0.85l0-0.04
	c-0.09-0.73,0.23-1.23,0.5-1.53c0.34-0.35,0.77-0.53,1.29-0.53c0.95,0,2.13,0.63,3.32,1.77c1.78,1.7,2.3,3.56,1.29,4.61
	c-0.32,0.33-0.79,0.55-1.36,0.63L52.84,54.7z M52.62,54.02c0.11,0.13,0.22,0.28,0.33,0.43c0.49-0.08,0.88-0.27,1.16-0.55
	c0.92-0.95,0.4-2.68-1.28-4.29c-1.15-1.1-2.27-1.71-3.16-1.71c-0.45,0-0.83,0.15-1.12,0.46c-0.24,0.25-0.51,0.68-0.45,1.3l0.21,0.22
	c-0.04-0.38-0.02-0.95,0.33-1.32c0.23-0.23,0.53-0.35,0.9-0.35c0.82,0,1.91,0.6,2.99,1.63c0.73,0.7,1.28,1.44,1.56,2.1
	c0.32,0.76,0.28,1.37-0.12,1.8c-0.2,0.21-0.52,0.33-0.91,0.33C52.9,54.07,52.75,54.05,52.62,54.02"/>
<path class="st0" d="M45.04,51.95c0.02-0.61,0.32-1.05,0.7-1.33c1.08-0.82,2.68-0.04,4.18,1.95c1.54,2.04,1.59,3.82,0.55,4.6
	c-0.36,0.27-0.85,0.39-1.37,0.38c-0.12-0.26-0.27-0.52-0.42-0.77l0.03-0.04c0.19,0.11,1.02,0.45,1.53,0.07
	c0.91-0.68,0.34-2.37-0.82-3.92c-1.31-1.74-2.69-2.45-3.47-1.87c-0.53,0.4-0.51,1.29-0.5,1.52L45.04,51.95z"/>
<path class="st0" d="M49.17,57.67c-0.03,0-0.05,0-0.08,0h-0.07l-0.03-0.07c-0.13-0.27-0.28-0.54-0.42-0.77l-0.04-0.07l0.14-0.18
	l0.09,0.05c0.1,0.06,0.49,0.23,0.88,0.23c0.21,0,0.39-0.05,0.52-0.15c0.49-0.37,0.44-1.03,0.32-1.52c-0.16-0.66-0.58-1.46-1.17-2.24
	c-0.95-1.27-1.98-2.02-2.75-2.02c-0.22,0-0.4,0.06-0.56,0.18c-0.5,0.37-0.46,1.25-0.45,1.42l0.03,0.43l-0.67-0.97l0-0.04
	c0.03-0.73,0.42-1.18,0.75-1.42c0.3-0.23,0.65-0.35,1.03-0.35c1.02,0,2.19,0.82,3.31,2.31c0.74,0.99,1.18,1.97,1.26,2.83
	c0.08,0.83-0.18,1.52-0.74,1.93C50.19,57.53,49.72,57.67,49.17,57.67 M49.17,57.44L49.17,57.44c0.5,0,0.92-0.12,1.23-0.36
	c0.5-0.37,0.72-0.97,0.65-1.73c-0.08-0.82-0.5-1.76-1.22-2.71c-1.06-1.42-2.2-2.22-3.13-2.22c-0.33,0-0.63,0.1-0.89,0.3
	c-0.28,0.21-0.62,0.59-0.66,1.21l0.17,0.25c0.02-0.38,0.13-0.94,0.54-1.24c0.2-0.15,0.44-0.22,0.7-0.22c0.85,0,1.92,0.77,2.93,2.12
	c0.6,0.8,1.03,1.63,1.2,2.32c0.2,0.8,0.06,1.4-0.41,1.75c-0.17,0.13-0.4,0.2-0.66,0.2c-0.27,0-0.53-0.07-0.72-0.15
	C49,57.11,49.09,57.27,49.17,57.44"/>
<path class="st0" d="M44.08,52.53c-0.34,0.16-0.64,0.38-0.96,0.58c-0.17,0.1-0.31,0.24-0.47,0.37c-0.05-0.11-0.09-0.21-0.15-0.31
	c-0.05-0.1-0.12-0.19-0.18-0.29l1.97-1.08l3.71,6.79c-0.08,0.03-0.17,0.06-0.26,0.1c-0.08,0.04-0.14,0.1-0.22,0.16L44.08,52.53z"/>
<path class="st0" d="M47.5,59.02l-3.46-6.34c-0.21,0.11-0.42,0.24-0.62,0.37c-0.08,0.05-0.15,0.1-0.23,0.15
	c-0.16,0.1-0.29,0.22-0.43,0.34l-0.13,0.12l-0.06-0.14c-0.02-0.04-0.04-0.08-0.06-0.12c-0.03-0.06-0.06-0.12-0.09-0.18
	c-0.04-0.06-0.08-0.12-0.11-0.18c-0.02-0.03-0.04-0.07-0.06-0.1l-0.06-0.1l2.18-1.19l3.82,7l-0.12,0.05
	c-0.03,0.01-0.05,0.02-0.08,0.03c-0.06,0.02-0.11,0.04-0.16,0.07c-0.04,0.02-0.08,0.05-0.12,0.08c-0.03,0.02-0.06,0.04-0.09,0.07
	L47.5,59.02z M44.13,52.38l3.44,6.3c0.04-0.03,0.09-0.07,0.13-0.09c0.05-0.03,0.1-0.04,0.14-0.06l-3.59-6.57l-1.77,0.96
	c0.04,0.06,0.08,0.13,0.12,0.19c0.03,0.06,0.06,0.12,0.08,0.18c0.11-0.1,0.23-0.2,0.37-0.28c0.08-0.05,0.15-0.1,0.23-0.15
	c0.24-0.15,0.48-0.31,0.74-0.43L44.13,52.38z"/>
<path class="st0" d="M41.82,57.25c0.47,0.59,0.93,1.2,1.39,1.78l1.15,1.41c-0.1,0.03-0.22,0.04-0.33,0.08
	c-0.1,0.03-0.19,0.09-0.3,0.14c-0.21-0.26-0.42-0.54-0.63-0.81l-1.31-1.73c0.03,1.05-0.02,2.08,0.05,3.22
	c-0.08,0.01-0.15,0.02-0.23,0.05c-0.07,0.02-0.13,0.07-0.2,0.11c0.01-0.08,0.02-0.16,0.02-0.25l0.07-2.6l0-0.89l-2.79-3.55
	c0.12-0.03,0.23-0.05,0.33-0.08c0.11-0.04,0.21-0.1,0.31-0.15c0.72,1.02,1.44,1.97,2.17,2.89c0-1.18-0.04-2.37-0.11-3.63
	c0.08-0.02,0.15-0.02,0.23-0.04c0.07-0.03,0.14-0.08,0.2-0.11c-0.01,0.74-0.02,1.43-0.03,2.15L41.82,57.25z"/>
<path class="st0" d="M41.27,61.71l0.03-0.23c0.01-0.08,0.02-0.16,0.02-0.23l0.08-2.6l0-0.85l-2.88-3.66l0.17-0.04
	c0.05-0.01,0.09-0.02,0.13-0.03c0.07-0.01,0.13-0.03,0.19-0.05c0.07-0.02,0.13-0.06,0.2-0.09c0.03-0.02,0.07-0.04,0.1-0.05
	l0.09-0.04l0.06,0.08c0.65,0.92,1.29,1.78,1.96,2.63c0-1.04-0.04-2.12-0.11-3.29l0-0.1l0.1-0.02c0.03-0.01,0.06-0.01,0.09-0.01
	c0.04-0.01,0.08-0.01,0.12-0.03c0.04-0.01,0.08-0.04,0.12-0.06c0.02-0.01,0.05-0.03,0.07-0.04l0.17-0.09l0,0.19
	c0,0.33-0.01,0.65-0.01,0.97c-0.01,0.39-0.01,0.78-0.01,1.17l0,1.98c0.2,0.26,0.4,0.52,0.6,0.77c0.26,0.33,0.51,0.66,0.77,0.98
	l1.27,1.55l-0.17,0.04c-0.03,0.01-0.07,0.01-0.1,0.02c-0.07,0.01-0.15,0.03-0.21,0.05c-0.05,0.02-0.11,0.05-0.17,0.08
	c-0.04,0.02-0.08,0.04-0.12,0.06l-0.08,0.04l-0.06-0.07c-0.21-0.27-0.42-0.54-0.63-0.82l-1.1-1.45c0,0.27,0,0.55,0,0.81
	c0,0.65,0,1.33,0.04,2.04l0,0.1l-0.1,0.02c-0.03,0.01-0.05,0.01-0.08,0.01c-0.05,0.01-0.09,0.01-0.13,0.03
	c-0.03,0.02-0.07,0.03-0.11,0.06c-0.03,0.02-0.05,0.03-0.08,0.05L41.27,61.71z M38.93,54.28l2.71,3.44l0,0.93l-0.07,2.6
	c0,0.02,0,0.03,0,0.04c0.01,0,0.02-0.01,0.03-0.01c0.05-0.02,0.1-0.03,0.14-0.03c-0.04-0.68-0.04-1.33-0.04-1.96
	c0-0.38,0-0.77-0.01-1.16l-0.01-0.35l1.53,2.01c0.19,0.25,0.38,0.5,0.57,0.74c0.01,0,0.03-0.01,0.04-0.02
	c0.06-0.04,0.13-0.07,0.2-0.09c0.05-0.02,0.1-0.03,0.16-0.05l-1.04-1.26c-0.25-0.32-0.51-0.65-0.77-0.98
	c-0.21-0.27-0.42-0.54-0.62-0.8l-0.03-0.03l0.01-2.06c0-0.39,0.01-0.78,0.01-1.17c0-0.25,0.01-0.51,0.01-0.77
	c-0.02,0.01-0.04,0.01-0.05,0.02c-0.05,0.02-0.1,0.03-0.15,0.03c0.08,1.27,0.11,2.42,0.11,3.53l0,0.32l-0.2-0.25
	c-0.73-0.91-1.42-1.83-2.12-2.82c0,0-0.01,0-0.01,0c-0.07,0.04-0.14,0.08-0.22,0.1C39.04,54.26,38.99,54.27,38.93,54.28"/>
<path class="st0" d="M37.51,58.43c0.36,0.66,0.71,1.34,1.06,1.99l0.9,1.59c-0.11,0.01-0.23,0-0.33,0.03
	c-0.11,0.01-0.2,0.05-0.32,0.09c-0.16-0.29-0.32-0.6-0.48-0.91l-0.99-1.92c-0.16,1.04-0.38,2.05-0.51,3.18c-0.08,0-0.15-0.01-0.23,0
	c-0.08,0.01-0.14,0.05-0.22,0.08c0.02-0.08,0.05-0.16,0.06-0.24l0.52-2.55l0.16-0.88l-2.14-3.98c0.12-0.01,0.23-0.01,0.34-0.03
	c0.11-0.02,0.22-0.06,0.33-0.09c0.54,1.13,1.07,2.19,1.64,3.22c0.21-1.17,0.37-2.35,0.52-3.59c0.08,0,0.16,0.01,0.23,0
	c0.08-0.02,0.15-0.05,0.22-0.07c-0.13,0.72-0.27,1.41-0.4,2.11L37.51,58.43z"/>
<path class="st0" d="M36.2,62.72l0.07-0.21c0.02-0.07,0.05-0.15,0.06-0.23l0.52-2.54L37,58.9l-2.2-4.1l0.17-0.02
	c0.05,0,0.09-0.01,0.14-0.01c0.07,0,0.13,0,0.19-0.01c0.07-0.01,0.14-0.03,0.21-0.06c0.03-0.01,0.07-0.02,0.11-0.03l0.09-0.03
	l0.04,0.09c0.48,1.02,0.97,1.98,1.48,2.93c0.17-1.02,0.32-2.09,0.46-3.26l0.01-0.1l0.13,0h0.11c0.02,0,0.05,0,0.07,0
	c0.04-0.01,0.08-0.03,0.13-0.05c0.03-0.01,0.05-0.02,0.07-0.03l0.19-0.06l-0.04,0.19c-0.06,0.32-0.12,0.64-0.18,0.95
	c-0.08,0.39-0.15,0.76-0.22,1.15l-0.35,1.95c0.15,0.28,0.31,0.57,0.46,0.86c0.19,0.37,0.39,0.74,0.59,1.1l0.98,1.74l-0.18,0.01
	c-0.03,0-0.07,0-0.1,0c-0.07,0-0.15,0.01-0.22,0.02c-0.06,0.01-0.11,0.03-0.18,0.05c-0.04,0.01-0.09,0.03-0.13,0.04l-0.09,0.02
	l-0.04-0.08c-0.16-0.3-0.32-0.6-0.48-0.91l-0.83-1.62c-0.04,0.27-0.09,0.54-0.14,0.8c-0.12,0.65-0.23,1.32-0.31,2.02l-0.01,0.1
	l-0.1,0l-0.14,0c-0.03,0-0.05,0-0.08,0c-0.04,0.01-0.08,0.02-0.12,0.04c-0.03,0.01-0.06,0.02-0.09,0.03L36.2,62.72z M35.17,55.01
	l2.07,3.85l-0.16,0.92l-0.52,2.55c0,0.01-0.01,0.03-0.01,0.04c0.01,0,0.02-0.01,0.03-0.01c0.04-0.01,0.08-0.01,0.12-0.01h0.03
	c0.08-0.67,0.19-1.32,0.3-1.93c0.06-0.37,0.13-0.76,0.19-1.14l0.05-0.35l1.16,2.24c0.14,0.27,0.29,0.55,0.43,0.83
	c0.01-0.01,0.02-0.01,0.04-0.01c0.07-0.02,0.14-0.04,0.21-0.06c0.06-0.01,0.11-0.01,0.16-0.02l-0.8-1.42
	c-0.2-0.37-0.39-0.73-0.59-1.11c-0.16-0.3-0.32-0.59-0.48-0.89l-0.02-0.04l0.36-2.02c0.07-0.39,0.14-0.77,0.22-1.16
	c0.05-0.25,0.1-0.5,0.14-0.76c-0.02,0-0.04,0.01-0.05,0.01c-0.04,0.01-0.07,0.01-0.11,0.01l-0.04,0c-0.15,1.26-0.31,2.41-0.5,3.5
	l-0.06,0.32l-0.15-0.29c-0.56-1.02-1.08-2.04-1.6-3.13c0,0-0.01,0-0.01,0c-0.08,0.02-0.15,0.05-0.24,0.07
	C35.29,55,35.23,55,35.17,55.01"/>
<path class="st0" d="M33.07,58.85c0.24,0.71,0.47,1.44,0.71,2.15l0.61,1.72c-0.11-0.01-0.22-0.04-0.33-0.04
	c-0.1,0-0.21,0.02-0.33,0.04c-0.1-0.32-0.21-0.65-0.32-0.98l-0.65-2.07c-0.34,1-0.73,1.96-1.04,3.05c-0.08-0.01-0.15-0.04-0.23-0.04
	c-0.07,0-0.15,0.02-0.23,0.04c0.04-0.07,0.07-0.15,0.1-0.23l0.95-2.42l0.3-0.84l-1.43-4.29c0.12,0.01,0.23,0.04,0.34,0.04
	c0.12,0,0.23-0.02,0.34-0.04c0.33,1.21,0.68,2.34,1.07,3.46c0.4-1.11,0.77-2.25,1.12-3.46c0.08,0.01,0.16,0.04,0.23,0.04
	c0.08,0,0.16-0.02,0.23-0.04c-0.25,0.7-0.51,1.34-0.75,2.01L33.07,58.85z"/>
<path class="st0" d="M31.05,62.86l0.11-0.2c0.03-0.06,0.07-0.14,0.1-0.21l0.95-2.42l0.29-0.8l-1.48-4.41l0.18,0.02
	c0.05,0,0.09,0.01,0.14,0.01c0.15,0.02,0.27,0.02,0.41,0c0.04,0,0.07-0.01,0.11-0.01l0.1-0.01l0.02,0.1
	c0.3,1.09,0.61,2.11,0.96,3.13c0.34-0.98,0.68-2.01,1.01-3.14l0.03-0.09l0.1,0.01c0.03,0,0.06,0.01,0.09,0.02
	c0.09,0.02,0.17,0.01,0.25,0c0.02-0.01,0.05-0.01,0.08-0.01l0.19-0.03l-0.07,0.18c-0.11,0.31-0.23,0.61-0.34,0.91
	c-0.14,0.37-0.28,0.73-0.41,1.1l-0.67,1.86c0.11,0.31,0.21,0.62,0.31,0.93c0.13,0.39,0.26,0.79,0.39,1.18l0.67,1.89l-0.18-0.02
	c-0.03-0.01-0.07-0.01-0.1-0.01c-0.14-0.02-0.25-0.02-0.41,0c-0.04,0-0.09,0.01-0.14,0.01l-0.09,0.01l-0.03-0.09
	c-0.1-0.31-0.21-0.64-0.31-0.96l-0.56-1.75c-0.09,0.26-0.18,0.52-0.27,0.77c-0.22,0.62-0.45,1.26-0.65,1.94l-0.03,0.09l-0.1-0.01
	c-0.03-0.01-0.05-0.01-0.08-0.01c-0.09-0.02-0.16-0.02-0.26,0c-0.03,0-0.06,0.01-0.09,0.01L31.05,62.86z M32.76,59.29l0.76,2.4
	c0.1,0.31,0.2,0.6,0.29,0.89c0.02,0,0.03-0.01,0.04-0.01c0.13-0.02,0.25-0.02,0.38-0.01l-0.55-1.54c-0.13-0.39-0.26-0.78-0.39-1.18
	c-0.1-0.32-0.21-0.64-0.32-0.96l-0.01-0.04l0.7-1.93c0.13-0.37,0.27-0.73,0.41-1.1c0.09-0.24,0.18-0.48,0.27-0.72
	c-0.07,0.01-0.14,0-0.2-0.02c-0.36,1.22-0.71,2.32-1.09,3.36l-0.11,0.3l-0.11-0.31c-0.38-1.1-0.72-2.2-1.05-3.36c0,0,0,0-0.01,0
	c-0.13,0.01-0.28,0.02-0.42,0.01l1.39,4.15l-0.31,0.88l-0.95,2.43c-0.01,0.01-0.01,0.02-0.01,0.04c0.06,0,0.12,0,0.18,0.01
	c0.19-0.65,0.41-1.26,0.63-1.85c0.13-0.36,0.26-0.73,0.38-1.09L32.76,59.29z"/>
<path class="st0" d="M27.9,60.22l-0.62,1.83l-0.07,0.17c-0.07-0.02-0.14-0.05-0.22-0.06c-0.07-0.01-0.14,0-0.22,0
	c0.29-0.66,2.43-6.24,2.82-7.46c0.04,0.02,0.08,0.05,0.12,0.05c0.04,0.01,0.09-0.01,0.13-0.02c0.34,2.74,0.66,6.96,0.8,7.96
	c-0.09-0.02-0.19-0.06-0.29-0.07c-0.1-0.01-0.19,0-0.31-0.01c-0.03-0.36-0.06-0.74-0.08-1.12l-0.14-2.02l-0.28-3.51l-0.05-0.01
	c-0.18,0.44-0.37,0.87-0.53,1.31L27.9,60.22z"/>
<path class="st0" d="M30.78,62.84l-0.17-0.04c-0.03-0.01-0.06-0.02-0.09-0.03c-0.06-0.02-0.13-0.04-0.19-0.05c-0.04,0-0.08,0-0.12,0
	h-0.11h-0.07l-0.1-0.01l-0.01-0.1c-0.03-0.36-0.05-0.75-0.08-1.13l-0.14-2.02l-0.25-3.16c-0.02,0.04-0.03,0.07-0.05,0.11
	c-0.12,0.3-0.24,0.58-0.35,0.87l-1.06,2.96l-0.73,2.1l-0.1-0.03c-0.03-0.01-0.05-0.02-0.07-0.02c-0.05-0.02-0.09-0.03-0.13-0.04
	c-0.04-0.01-0.07,0-0.12,0c-0.03,0-0.06,0.01-0.09,0.01l-0.18,0l0.07-0.16c0.26-0.6,2.42-6.19,2.82-7.45l0.04-0.12l0.12,0.05
	c0.02,0.01,0.03,0.02,0.05,0.03c0.01,0.01,0.03,0.02,0.04,0.02c0.02,0,0.04,0,0.05,0c0.02,0,0.04-0.01,0.05-0.01l0.11-0.01
	l0.01,0.12c0.19,1.56,0.38,3.61,0.53,5.26c0.12,1.26,0.21,2.27,0.27,2.69L30.78,62.84z M30.22,62.49c0.05,0,0.1,0,0.15,0.01
	c0.05,0,0.09,0.02,0.14,0.03c-0.06-0.5-0.15-1.41-0.25-2.53c-0.15-1.6-0.33-3.59-0.52-5.13c0,0-0.01,0-0.01,0l-0.03,0
	c-0.01,0-0.02,0-0.03-0.01c-0.46,1.36-2.28,6.1-2.72,7.18c0.02,0,0.05,0,0.07,0.01c0.05,0,0.1,0.02,0.14,0.03l0.03-0.07l0.62-1.83
	l1.06-2.96c0.11-0.3,0.23-0.6,0.35-0.88c0.06-0.15,0.12-0.29,0.18-0.44l0.03-0.08l0.24,0.03l0.29,3.6l0.14,2.03
	c0.02,0.34,0.04,0.69,0.07,1.02L30.22,62.49z"/>
<path class="st0" d="M26,61.92c-0.08-0.03-0.16-0.08-0.25-0.1c-0.08-0.02-0.17-0.02-0.27-0.03l1.84-7.55
	c0.09,0.03,0.17,0.08,0.26,0.1c0.09,0.02,0.18,0.02,0.27,0.03L26,61.92z"/>
<path class="st0" d="M26.08,62.08l-0.12-0.05c-0.03-0.01-0.05-0.02-0.08-0.03c-0.06-0.02-0.11-0.05-0.16-0.06
	c-0.05-0.01-0.09-0.02-0.15-0.02c-0.03,0-0.07-0.01-0.11-0.01l-0.13-0.01l1.9-7.8l0.12,0.05c0.04,0.01,0.07,0.03,0.1,0.04
	c0.05,0.02,0.09,0.04,0.14,0.05c0.05,0.01,0.11,0.01,0.17,0.02c0.03,0,0.06,0.01,0.09,0.01l0.13,0.02L26.08,62.08z M25.62,61.69
	c0.05,0,0.1,0.01,0.15,0.02c0.05,0.01,0.1,0.03,0.15,0.05l1.78-7.29c-0.05,0-0.1-0.01-0.16-0.02c-0.05-0.01-0.1-0.03-0.15-0.05
	L25.62,61.69z"/>
<path class="st0" d="M25.45,58.02c-0.1,0.33-0.33,0.55-0.51,0.49c-0.18-0.05-0.24-0.37-0.14-0.69c0.1-0.33,0.33-0.56,0.51-0.51
	C25.49,57.37,25.55,57.69,25.45,58.02"/>
<path class="st0" d="M25,58.64c-0.03,0-0.06,0-0.09-0.01c-0.24-0.07-0.34-0.44-0.22-0.84c0.12-0.39,0.41-0.65,0.65-0.58
	c0.25,0.07,0.34,0.45,0.22,0.85C25.46,58.4,25.22,58.64,25,58.64 M25.26,57.43c-0.09,0-0.26,0.15-0.35,0.43
	c-0.09,0.29-0.02,0.53,0.07,0.55c0.1,0.03,0.28-0.15,0.37-0.42c0.09-0.3,0.02-0.54-0.07-0.56H25.26z"/>
<path class="st0" d="M25.01,55.17c0.05-0.76-0.04-1.29-0.48-1.47c-0.46-0.19-1.08,0.39-1.42,1.22c-0.79,1.96,1.35,1.82,0.39,4.2
	c-0.55,1.36-1.4,1.79-2.09,1.51c-0.27-0.11-0.54-0.4-0.62-0.84c0.18-0.24,0.34-0.52,0.5-0.8l0.06,0.02c-0.11,0.62,0,1.07,0.34,1.2
	c0.4,0.16,0.92-0.19,1.22-0.94c0.78-1.94-1.33-1.89-0.43-4.13c0.61-1.51,1.6-2.15,2.38-1.83c0.28,0.12,0.65,0.52,0.69,0.99
	c-0.18,0.28-0.34,0.59-0.49,0.89L25.01,55.17z"/>
<path class="st0" d="M21.82,60.82c-0.15,0-0.31-0.03-0.45-0.09c-0.27-0.11-0.6-0.41-0.68-0.92l-0.01-0.05l0.03-0.04
	c0.15-0.2,0.28-0.43,0.42-0.67l0.13-0.21l0.23,0.1l-0.01,0.09c-0.1,0.57,0,0.96,0.27,1.07c0.35,0.14,0.82-0.25,1.07-0.88
	c0.35-0.88,0.09-1.3-0.22-1.79c-0.33-0.52-0.7-1.12-0.21-2.34c0.49-1.22,1.29-1.98,2.09-1.98c0.15,0,0.3,0.03,0.45,0.09
	c0.33,0.13,0.72,0.58,0.76,1.08l0,0.04l-0.02,0.03c-0.18,0.28-0.34,0.59-0.48,0.88l-0.05,0.1l-0.23-0.09l0-0.08
	c0.05-0.83-0.07-1.22-0.41-1.36c-0.38-0.15-0.96,0.38-1.27,1.16c-0.35,0.88-0.1,1.29,0.2,1.76c0.33,0.53,0.71,1.13,0.18,2.44
	C23.18,60.22,22.53,60.82,21.82,60.82 M20.92,59.82c0.08,0.39,0.33,0.62,0.54,0.7c0.12,0.05,0.24,0.07,0.36,0.07
	c0.61,0,1.18-0.56,1.57-1.52c0.48-1.2,0.15-1.72-0.17-2.23c-0.3-0.48-0.62-0.98-0.22-1.97c0.32-0.79,0.86-1.32,1.34-1.32
	c0.08,0,0.16,0.02,0.23,0.05c0.46,0.18,0.57,0.68,0.57,1.2c0.09-0.17,0.19-0.35,0.3-0.53c-0.05-0.42-0.38-0.76-0.61-0.85
	c-0.11-0.04-0.24-0.07-0.36-0.07c-0.7,0-1.42,0.7-1.87,1.84c-0.45,1.11-0.14,1.6,0.2,2.13c0.31,0.5,0.63,1.01,0.24,2
	c-0.25,0.64-0.7,1.05-1.13,1.05c-0.08,0-0.16-0.02-0.24-0.04c-0.31-0.13-0.46-0.46-0.45-0.95C21.11,59.53,21.02,59.68,20.92,59.82"
	/>
<path class="st0" d="M19.23,59.43c-0.07-0.05-0.14-0.11-0.23-0.16c-0.08-0.04-0.16-0.06-0.26-0.09l3.61-6.88
	c0.08,0.05,0.15,0.12,0.22,0.16c0.08,0.04,0.17,0.06,0.25,0.1L19.23,59.43z"/>
<path class="st0" d="M19.27,59.6l-0.11-0.07c-0.02-0.02-0.05-0.04-0.07-0.05c-0.05-0.04-0.09-0.07-0.14-0.1
	c-0.04-0.02-0.09-0.03-0.14-0.05c-0.03-0.01-0.07-0.02-0.1-0.03l-0.12-0.05l3.73-7.11l0.11,0.08c0.03,0.02,0.06,0.04,0.09,0.06
	c0.04,0.03,0.08,0.06,0.13,0.08c0.05,0.03,0.1,0.05,0.16,0.06c0.03,0.01,0.06,0.02,0.08,0.03l0.12,0.05L19.27,59.6z M18.91,59.12
	c0.05,0.01,0.1,0.03,0.15,0.06c0.05,0.02,0.09,0.05,0.13,0.08l3.48-6.64c-0.05-0.02-0.1-0.04-0.15-0.06
	c-0.05-0.03-0.09-0.05-0.13-0.09L18.91,59.12z"/>
<path class="st0" d="M15.07,55.2c-0.13,0.8,0.08,1.4,0.51,1.7c0.86,0.6,2.18-0.02,3.5-1.9c1.29-1.85,1.57-3.35,0.58-4.05
	c-0.28-0.19-0.62-0.29-1.01-0.23l-1.67,2.39c-0.06-0.06-0.13-0.13-0.2-0.18c-0.07-0.05-0.15-0.08-0.24-0.12l1.84-2.64
	c0.64,0.03,1.21,0.21,1.68,0.53c1.28,0.89,0.88,2.71-0.44,4.6c-1.52,2.18-3.17,2.73-4.3,1.94c-0.75-0.52-0.89-1.23-0.91-1.44
	c0.21-0.2,0.41-0.42,0.62-0.64L15.07,55.2z"/>
<path class="st0" d="M16.39,57.7c-0.41,0-0.8-0.12-1.14-0.36c-0.83-0.58-0.95-1.37-0.96-1.53l0-0.06l0.04-0.04
	c0.21-0.2,0.41-0.41,0.61-0.63L15,55.02l0.19,0.14l-0.01,0.07c-0.12,0.72,0.05,1.3,0.46,1.59c0.19,0.13,0.41,0.2,0.64,0.2
	c0.79,0,1.78-0.75,2.7-2.08c1.29-1.84,1.51-3.25,0.6-3.88c-0.26-0.18-0.57-0.26-0.88-0.22l-1.72,2.46l-0.09-0.09
	c-0.02-0.02-0.04-0.04-0.06-0.06c-0.04-0.04-0.08-0.08-0.13-0.12c-0.04-0.03-0.08-0.04-0.13-0.07c-0.03-0.01-0.07-0.03-0.1-0.05
	l-0.12-0.06l1.95-2.79l0.06,0c0.67,0.03,1.25,0.22,1.74,0.55c0.64,0.45,0.92,1.16,0.8,2.04c-0.1,0.8-0.52,1.74-1.21,2.72
	C18.65,56.87,17.48,57.7,16.39,57.7 M14.52,55.84c0.03,0.22,0.18,0.83,0.86,1.3c0.3,0.21,0.64,0.32,1.01,0.32
	c1.01,0,2.12-0.79,3.13-2.23c0.67-0.96,1.08-1.87,1.17-2.63c0.11-0.8-0.13-1.41-0.71-1.82c-0.43-0.3-0.95-0.47-1.55-0.51l-1.73,2.47
	c0.04,0.02,0.09,0.05,0.14,0.08c0.05,0.03,0.08,0.07,0.12,0.1l1.62-2.32l0.05-0.01c0.38-0.06,0.77,0.03,1.09,0.26
	c1.02,0.72,0.82,2.25-0.55,4.21c-0.98,1.4-2,2.18-2.89,2.18c-0.28,0-0.54-0.08-0.77-0.24c-0.44-0.31-0.65-0.87-0.59-1.58
	C14.8,55.57,14.66,55.71,14.52,55.84"/>
<path class="st0" d="M12.74,54.94c-0.05-0.07-0.11-0.15-0.17-0.21c-0.06-0.06-0.14-0.1-0.22-0.16l5.28-5.7
	c0.07,0.07,0.11,0.15,0.18,0.21c0.07,0.06,0.15,0.11,0.23,0.16L12.74,54.94z"/>
<path class="st0" d="M12.74,55.11l-0.08-0.1c-0.02-0.02-0.04-0.05-0.06-0.07c-0.04-0.05-0.07-0.09-0.11-0.13
	c-0.03-0.03-0.07-0.06-0.12-0.09c-0.03-0.02-0.06-0.04-0.09-0.06l-0.1-0.08l5.46-5.89l0.08,0.1c0.03,0.03,0.05,0.06,0.07,0.09
	c0.04,0.04,0.06,0.09,0.1,0.11c0.04,0.04,0.09,0.07,0.14,0.1c0.02,0.02,0.05,0.03,0.07,0.05l0.11,0.07L12.74,55.11z M12.52,54.55
	c0.04,0.03,0.08,0.06,0.12,0.09c0.04,0.04,0.07,0.08,0.1,0.12l5.1-5.5c-0.04-0.03-0.08-0.06-0.12-0.1
	c-0.04-0.04-0.07-0.08-0.11-0.12L12.52,54.55z"/>
<path class="st0" d="M16.12,48.16c-0.23-0.3-0.51-0.54-0.77-0.81c-0.14-0.14-0.3-0.25-0.46-0.37c0.1-0.08,0.18-0.14,0.27-0.21
	c0.08-0.08,0.16-0.16,0.24-0.24l1.48,1.69l-5.8,5.11c-0.05-0.07-0.09-0.16-0.15-0.23c-0.06-0.07-0.13-0.12-0.21-0.18L16.12,48.16z"
	/>
<path class="st0" d="M11.06,53.5l-0.07-0.11c-0.01-0.02-0.03-0.05-0.05-0.08c-0.03-0.05-0.06-0.1-0.1-0.14
	c-0.03-0.03-0.07-0.06-0.11-0.1c-0.03-0.03-0.06-0.05-0.09-0.07l-0.1-0.09l5.41-4.77c-0.15-0.19-0.33-0.36-0.49-0.52
	c-0.07-0.07-0.13-0.13-0.2-0.2c-0.12-0.13-0.27-0.23-0.43-0.35l-0.14-0.1l0.12-0.1c0.04-0.03,0.08-0.06,0.11-0.08
	c0.05-0.04,0.11-0.08,0.16-0.12c0.05-0.05,0.1-0.1,0.16-0.15c0.03-0.03,0.05-0.06,0.08-0.08l0.09-0.08l1.64,1.86L11.06,53.5z
	 M10.89,52.92c0.04,0.03,0.08,0.07,0.11,0.11c0.04,0.04,0.07,0.08,0.09,0.13l5.62-4.95l-1.33-1.51c-0.05,0.05-0.1,0.11-0.16,0.16
	c-0.05,0.04-0.1,0.08-0.15,0.12c0.12,0.09,0.25,0.18,0.36,0.29c0.06,0.07,0.13,0.13,0.19,0.19c0.2,0.19,0.41,0.4,0.59,0.62
	l0.06,0.09L10.89,52.92z"/>
<path class="st0" d="M14.26,45.85c-0.19-0.33-0.44-0.61-0.66-0.9c-0.12-0.16-0.27-0.29-0.41-0.43c0.11-0.07,0.2-0.11,0.29-0.17
	c0.09-0.07,0.18-0.14,0.27-0.21L15.01,46l-6.42,4.32c-0.04-0.08-0.07-0.17-0.12-0.25c-0.05-0.07-0.12-0.13-0.18-0.2L14.26,45.85z"/>
<path class="st0" d="M8.55,50.48l-0.06-0.12c-0.01-0.03-0.02-0.05-0.04-0.08c-0.02-0.05-0.05-0.11-0.07-0.15
	c-0.03-0.04-0.06-0.07-0.1-0.11c-0.03-0.03-0.05-0.05-0.08-0.08l-0.08-0.1l5.99-4.03c-0.13-0.2-0.28-0.39-0.42-0.58
	c-0.06-0.07-0.11-0.15-0.17-0.22c-0.11-0.14-0.24-0.27-0.38-0.4L13,44.5l0.13-0.08c0.04-0.02,0.08-0.04,0.12-0.07
	c0.06-0.03,0.11-0.06,0.17-0.1c0.06-0.04,0.12-0.08,0.17-0.13l0.19-0.14l1.38,2.06L8.55,50.48z M8.46,49.89
	c0.03,0.04,0.07,0.08,0.1,0.12c0.03,0.05,0.06,0.09,0.08,0.14l6.21-4.18l-1.12-1.67c-0.06,0.04-0.12,0.09-0.18,0.14
	c-0.06,0.04-0.11,0.07-0.17,0.1c0.11,0.11,0.22,0.22,0.31,0.34c0.06,0.07,0.11,0.15,0.17,0.22c0.17,0.22,0.35,0.45,0.5,0.7
	l0.05,0.09L8.46,49.89z"/>
<path class="st0" d="M10.19,44.69c1.81-0.84,2.62-1.56,2.18-2.51c-0.41-0.89-1.74-0.66-3.41,0.11l-3.85,1.78
	c-0.01-0.06-0.01-0.11-0.04-0.17C5.05,43.84,5,43.8,4.97,43.75l4.1-1.89c2.04-0.94,3.38-0.77,3.83,0.22
	c0.26,0.55,0.19,1.04-0.16,1.55c-0.42,0.62-1.32,1.09-2.14,1.48l-4.13,1.91c-0.03-0.08-0.04-0.18-0.08-0.26
	c-0.03-0.08-0.09-0.15-0.14-0.23L10.19,44.69z"/>
<path class="st0" d="M6.4,47.17l-0.04-0.13c-0.01-0.03-0.02-0.06-0.02-0.09c-0.02-0.06-0.03-0.11-0.05-0.16
	c-0.02-0.04-0.04-0.08-0.08-0.13c-0.02-0.03-0.04-0.06-0.06-0.09l-0.07-0.11l4.07-1.88c1.9-0.88,2.5-1.54,2.12-2.36
	c-0.16-0.34-0.47-0.51-0.96-0.51c-0.56,0-1.34,0.23-2.3,0.68l-3.97,1.84L5,44.09c0-0.02-0.01-0.04-0.01-0.06
	c-0.01-0.03-0.01-0.06-0.02-0.09c-0.01-0.02-0.03-0.04-0.05-0.07c-0.02-0.02-0.03-0.04-0.05-0.06L4.8,43.71l4.23-1.96
	c0.91-0.42,1.7-0.64,2.36-0.64c0.79,0,1.35,0.32,1.62,0.91c0.27,0.57,0.21,1.1-0.17,1.66c-0.43,0.63-1.31,1.11-2.19,1.52L6.4,47.17z
	 M6.41,46.56c0.03,0.04,0.06,0.09,0.08,0.14c0.02,0.05,0.04,0.1,0.05,0.15l4-1.85c0.85-0.4,1.7-0.85,2.1-1.44
	c0.34-0.5,0.38-0.94,0.15-1.44c-0.24-0.51-0.72-0.77-1.42-0.77c-0.62,0-1.38,0.21-2.26,0.61l-3.98,1.83
	c0.01,0.02,0.02,0.03,0.03,0.05c0.01,0.02,0.01,0.04,0.02,0.05l3.71-1.71c1.97-0.91,3.17-0.92,3.57-0.05
	c0.51,1.11-0.52,1.87-2.24,2.66L6.41,46.56z"/>
<path class="st0" d="M3.31,37.79c2.7-0.8,5.38-1.6,7.45-2.26c0.01,0.11,0.01,0.2,0.03,0.29c0.02,0.1,0.07,0.19,0.1,0.27
	c-2.2,0.62-4.56,1.3-5.63,1.65C7.71,37.9,9.6,38,11.21,38.01l0.02,0.06l-1.17,0.63c-1.37,0.72-2.71,1.48-4.05,2.23
	c2.19-0.37,4.42-0.73,5.78-1.04c0.01,0.08,0,0.15,0.02,0.22c0.02,0.08,0.06,0.14,0.08,0.21c-1.81,0.26-6.52,0.98-7.7,1.2l-0.04-0.16
	c1.65-0.89,3.59-1.96,5.4-3.06c-2.03-0.13-4.08-0.23-6.2-0.37L3.31,37.79z"/>
<path class="st0" d="M4.1,41.64l-0.08-0.34l0.08-0.04c1.57-0.85,3.37-1.84,5.08-2.87c-0.74-0.05-1.48-0.09-2.23-0.13
	c-1.17-0.07-2.39-0.13-3.61-0.22l-0.08,0l-0.07-0.32l0.1-0.03c3.19-0.94,5.62-1.68,7.45-2.26l0.13-0.04l0.02,0.13
	c0.01,0.05,0.01,0.09,0.01,0.13c0,0.05,0.01,0.1,0.02,0.15c0.01,0.06,0.04,0.12,0.06,0.17c0.01,0.03,0.02,0.06,0.03,0.09l0.04,0.11
	l-0.12,0.04c-1.36,0.39-3.65,1.04-5.04,1.46c2.12,0.14,3.86,0.22,5.33,0.22h0.09l0.06,0.24l-1.25,0.66
	c-1.07,0.57-2.13,1.16-3.16,1.73L6.64,40.7c0.23-0.04,0.46-0.08,0.68-0.12c1.73-0.29,3.36-0.56,4.43-0.82l0.13-0.03l0.01,0.13
	c0,0.03,0,0.06,0,0.09c0,0.04,0,0.08,0.01,0.11c0.01,0.04,0.03,0.08,0.05,0.12c0.01,0.03,0.02,0.05,0.03,0.07l0.05,0.14l-0.15,0.02
	c-1.84,0.26-6.51,0.98-7.7,1.2L4.1,41.64z M3.61,37.82c1.13,0.08,2.25,0.14,3.34,0.2c0.87,0.05,1.74,0.1,2.59,0.16l0.36,0.02
	L9.6,38.39c-1.74,1.06-3.6,2.08-5.23,2.97c1.41-0.24,5.51-0.88,7.34-1.14c-0.01-0.03-0.02-0.06-0.03-0.09
	c-0.01-0.04-0.01-0.07-0.01-0.1c-1.08,0.24-2.65,0.51-4.32,0.79c-0.44,0.07-0.89,0.15-1.33,0.22l-0.08-0.21l0.88-0.5
	c1.03-0.57,2.1-1.17,3.17-1.74l0.89-0.48C9.35,38.11,7.5,38,5.25,37.86l-0.03-0.22c1.19-0.38,3.91-1.16,5.51-1.61
	c-0.02-0.06-0.04-0.11-0.06-0.17c-0.01-0.05-0.02-0.11-0.02-0.16C8.9,36.24,6.59,36.94,3.61,37.82"/>
<path class="st0" d="M6.74,35.58c-0.34,0.03-0.63-0.1-0.65-0.28c-0.02-0.18,0.25-0.36,0.59-0.39c0.35-0.03,0.64,0.09,0.66,0.27
	C7.35,35.37,7.08,35.55,6.74,35.58"/>
<path class="st0" d="M6.64,35.7c-0.36,0-0.64-0.17-0.67-0.39c-0.01-0.13,0.06-0.26,0.21-0.36c0.13-0.09,0.3-0.14,0.48-0.16
	c0.43-0.04,0.76,0.13,0.79,0.38c0.02,0.25-0.29,0.49-0.7,0.52C6.71,35.7,6.68,35.7,6.64,35.7 M6.78,35.01c-0.03,0-0.06,0-0.09,0
	c-0.14,0.01-0.28,0.06-0.37,0.12c-0.07,0.05-0.12,0.1-0.11,0.15c0.01,0.1,0.24,0.21,0.53,0.18c0.31-0.03,0.5-0.18,0.49-0.27
	C7.22,35.12,7.05,35.01,6.78,35.01"/>
<path class="st0" d="M7.29,33.37c2,0.06,3.04-0.22,3.07-1.28c0.03-0.98-1.27-1.37-3.11-1.43l-4.24-0.12
	c0.01-0.06,0.04-0.11,0.04-0.18c0-0.05-0.02-0.11-0.03-0.17l4.52,0.13c2.25,0.06,3.36,0.82,3.33,1.9c-0.02,0.61-0.29,1.01-0.83,1.32
	c-0.66,0.37-1.67,0.39-2.58,0.37l-4.54-0.13c0.02-0.08,0.04-0.17,0.04-0.27c0-0.08-0.02-0.17-0.03-0.27L7.29,33.37z"/>
<path class="st0" d="M7.9,34.04c-0.15,0-0.29-0.01-0.43-0.01l-4.67-0.13l0.02-0.13c0.01-0.03,0.01-0.06,0.01-0.09
	c0.01-0.06,0.03-0.11,0.03-0.17c0-0.05-0.01-0.09-0.01-0.15c0-0.03-0.01-0.07-0.01-0.11l-0.01-0.13l4.47,0.13
	c0.16,0.01,0.32,0.01,0.46,0.01c1.75,0,2.47-0.34,2.49-1.17c0.01-0.42-0.24-0.73-0.78-0.95c-0.5-0.21-1.25-0.33-2.21-0.36
	l-4.38-0.12l0.03-0.14c0.01-0.02,0.01-0.04,0.02-0.06c0.01-0.03,0.02-0.06,0.02-0.09c0-0.02-0.01-0.05-0.01-0.08
	c-0.01-0.02-0.01-0.05-0.02-0.07l-0.02-0.14l4.66,0.13c1.12,0.03,1.98,0.23,2.58,0.59c0.59,0.35,0.88,0.84,0.87,1.43
	c-0.02,0.63-0.3,1.08-0.89,1.41C9.49,33.99,8.6,34.04,7.9,34.04 M3.06,33.67l4.41,0.13c0.14,0,0.28,0,0.43,0
	c0.67,0,1.52-0.04,2.09-0.36c0.52-0.29,0.76-0.67,0.77-1.22c0.01-0.51-0.24-0.92-0.76-1.23c-0.56-0.34-1.39-0.52-2.46-0.55
	l-4.37-0.12c0,0.01,0,0.04,0,0.06c0,0.02,0,0.04-0.01,0.06l4.09,0.12c0.99,0.03,1.76,0.16,2.29,0.37c0.63,0.26,0.94,0.65,0.93,1.17
	c-0.04,1.23-1.39,1.39-2.72,1.39c-0.15,0-0.31,0-0.47-0.01l-4.21-0.12c0.01,0.05,0.01,0.1,0.01,0.16
	C3.08,33.57,3.07,33.62,3.06,33.67"/>
<path class="st0" d="M11.55,26.61l-0.04,0.18c-0.17,0.03-0.46,0.1-0.74,0.18l-5.86,1.52L4.9,28.55l6,1.23
	c-0.02,0.06-0.06,0.11-0.07,0.16c-0.01,0.06,0,0.12,0,0.18l-7.61-1.56l0.05-0.23l6.32-1.7l0.01-0.06l-5.73-1.17
	c0.02-0.05,0.06-0.1,0.07-0.16c0.01-0.06,0-0.12,0-0.18L11.55,26.61z"/>
<path class="st0" d="M10.94,30.26l-7.86-1.61l0.08-0.41l6.06-1.63l-5.52-1.13l0.06-0.13c0.01-0.02,0.02-0.04,0.02-0.06
	c0.02-0.03,0.03-0.06,0.03-0.09c0.01-0.02,0.01-0.04,0-0.08c0-0.02,0-0.05,0-0.07l0-0.14l7.86,1.61l-0.08,0.37l-0.07,0.02
	c-0.16,0.03-0.45,0.1-0.74,0.17l-5.51,1.43l5.77,1.18L11,29.82c-0.01,0.02-0.02,0.05-0.03,0.07c-0.02,0.03-0.03,0.05-0.03,0.07
	c0,0.03,0,0.06,0,0.09c0,0.02,0,0.04,0,0.06V30.26z M3.35,28.47l7.36,1.51c0-0.02,0-0.04,0.01-0.06c0-0.02,0.01-0.04,0.02-0.06
	l-5.97-1.22l0.05-0.24l5.92-1.54c0.25-0.06,0.5-0.12,0.66-0.16l-7.35-1.51c0,0.02,0,0.04-0.01,0.06c0,0.02-0.01,0.04-0.02,0.05
	l5.7,1.17l-0.05,0.24l-6.32,1.7L3.35,28.47z"/>
<path class="st0" d="M4.52,23.31c0.04-0.08,0.09-0.16,0.12-0.24c0.03-0.08,0.04-0.17,0.06-0.27l7.34,2.54
	c-0.04,0.09-0.09,0.16-0.12,0.24c-0.03,0.09-0.04,0.18-0.06,0.27L4.52,23.31z"/>
<path class="st0" d="M11.94,26.01l-7.59-2.63l0.06-0.12c0.01-0.03,0.03-0.05,0.04-0.08c0.03-0.05,0.06-0.1,0.07-0.15
	c0.01-0.04,0.02-0.09,0.03-0.15c0.01-0.03,0.01-0.07,0.02-0.11l0.03-0.12l7.58,2.62l-0.06,0.11c-0.01,0.04-0.03,0.07-0.05,0.1
	c-0.03,0.05-0.05,0.09-0.06,0.13C12,25.68,12,25.73,11.98,25.79c0,0.03-0.01,0.06-0.01,0.09L11.94,26.01z M4.68,23.25l7.09,2.45
	c0.01-0.05,0.02-0.1,0.04-0.15c0.02-0.05,0.04-0.1,0.07-0.14l-7.09-2.46C4.77,23,4.76,23.05,4.74,23.1
	C4.73,23.15,4.7,23.2,4.68,23.25"/>
<path class="st0" d="M8.15,19.99L6.6,18.85l-0.14-0.12c0.04-0.06,0.09-0.12,0.13-0.19c0.03-0.07,0.04-0.14,0.06-0.22
	c0.54,0.48,5.23,4.18,6.27,4.92c-0.03,0.03-0.07,0.06-0.08,0.1c-0.02,0.04-0.02,0.09-0.03,0.13c-2.71-0.5-6.84-1.44-7.83-1.61
	c0.05-0.08,0.12-0.16,0.16-0.25c0.04-0.09,0.06-0.18,0.1-0.29c0.35,0.08,0.72,0.17,1.09,0.26l1.97,0.47l3.44,0.78l0.02-0.05
	c-0.37-0.3-0.72-0.61-1.1-0.9L8.15,19.99z"/>
<path class="st0" d="M12.9,23.61l-0.11-0.02c-1.55-0.29-3.56-0.71-5.18-1.06c-1.2-0.25-2.23-0.47-2.65-0.55l-0.17-0.03l0.09-0.15
	c0.02-0.03,0.04-0.05,0.05-0.08c0.04-0.05,0.07-0.11,0.1-0.16c0.02-0.05,0.04-0.1,0.05-0.16c0.01-0.04,0.02-0.08,0.04-0.12l0.03-0.1
	l0.1,0.02c0.35,0.08,0.73,0.17,1.1,0.26l1.98,0.47l3.09,0.7c-0.03-0.03-0.06-0.05-0.09-0.08c-0.25-0.21-0.48-0.4-0.73-0.59
	l-2.51-1.89L6.3,18.76l0.06-0.09c0.01-0.02,0.03-0.04,0.05-0.07c0.03-0.03,0.06-0.07,0.07-0.11c0.01-0.03,0.02-0.07,0.04-0.11
	c0-0.03,0.01-0.06,0.02-0.09l0.05-0.17l0.13,0.11c0.49,0.43,5.19,4.16,6.26,4.91l0.1,0.07L13,23.32c-0.01,0.02-0.02,0.03-0.04,0.04
	c-0.01,0.01-0.02,0.02-0.03,0.03c0,0.01-0.01,0.03-0.01,0.05c0,0.02-0.01,0.04-0.01,0.06L12.9,23.61z M5.17,21.78
	c0.49,0.09,1.39,0.28,2.49,0.52c1.58,0.33,3.53,0.75,5.05,1.03c0-0.02,0.01-0.03,0.02-0.05c0-0.01,0.01-0.02,0.02-0.03
	c-1.17-0.84-5.14-3.99-6.04-4.74c0,0.02-0.01,0.04-0.02,0.06c-0.02,0.05-0.05,0.09-0.08,0.12l0.06,0.05l1.55,1.14l2.51,1.9
	c0.25,0.19,0.5,0.4,0.74,0.6c0.12,0.1,0.24,0.2,0.36,0.3l0.07,0.05l-0.1,0.22l-3.53-0.8L6.3,21.7c-0.33-0.08-0.67-0.17-0.99-0.24
	c0,0,0,0.01,0,0.01c-0.02,0.06-0.04,0.13-0.07,0.19C5.22,21.7,5.19,21.74,5.17,21.78"/>
<path class="st0" d="M10.26,18.96l0.52-0.81c0.1-0.16,0.16-0.33,0.25-0.49c0.07,0.05,0.15,0.12,0.24,0.17
	c0.08,0.05,0.17,0.09,0.28,0.16c-0.11,0.15-0.24,0.28-0.34,0.43l-0.52,0.81l2.79,1.79c0.22-0.31,0.39-0.64,0.56-0.97
	c0.1-0.17,0.17-0.34,0.22-0.54c0.1,0.07,0.18,0.14,0.28,0.2c0.1,0.06,0.2,0.11,0.3,0.17l-1.2,1.88l-6.52-4.17l1.18-1.84
	c0.1,0.07,0.18,0.14,0.28,0.2c0.09,0.06,0.2,0.11,0.3,0.17c-0.16,0.12-0.28,0.26-0.4,0.4l-0.35,0.51l-0.26,0.4L10.26,18.96z"/>
<path class="st0" d="M13.67,21.92l-6.71-4.29l1.31-2.04l0.1,0.07c0.04,0.03,0.07,0.06,0.11,0.08c0.05,0.04,0.1,0.08,0.16,0.12
	c0.06,0.04,0.13,0.08,0.19,0.11c0.03,0.02,0.07,0.04,0.1,0.06l0.15,0.08l-0.14,0.11c-0.13,0.1-0.25,0.22-0.39,0.38l-0.34,0.5
	l-0.19,0.3l2.21,1.41l0.45-0.71c0.05-0.08,0.09-0.17,0.13-0.27c0.03-0.07,0.07-0.15,0.11-0.22l0.06-0.12l0.17,0.13
	c0.05,0.04,0.11,0.08,0.16,0.12c0.04,0.03,0.09,0.05,0.15,0.09c0.04,0.02,0.08,0.04,0.13,0.07l0.11,0.06l-0.07,0.1
	c-0.05,0.07-0.1,0.13-0.16,0.19c-0.07,0.08-0.13,0.15-0.18,0.23l-0.45,0.71l2.61,1.67c0.13-0.2,0.25-0.41,0.36-0.62
	c0.04-0.08,0.09-0.16,0.13-0.25c0.09-0.16,0.16-0.32,0.21-0.51l0.04-0.15l0.13,0.1c0.04,0.03,0.07,0.05,0.11,0.08
	c0.06,0.04,0.11,0.08,0.16,0.12c0.06,0.04,0.13,0.07,0.19,0.11c0.03,0.02,0.07,0.04,0.1,0.06L15,19.84L13.67,21.92z M7.28,17.56
	l6.32,4.04l1.07-1.68c-0.07-0.04-0.13-0.08-0.19-0.11c-0.05-0.04-0.11-0.07-0.16-0.11c-0.05,0.14-0.11,0.27-0.18,0.4
	c-0.04,0.08-0.09,0.16-0.13,0.24c-0.13,0.24-0.27,0.5-0.44,0.74l-0.06,0.09l-2.98-1.9l0.58-0.9c0.06-0.1,0.13-0.18,0.2-0.26
	c0.02-0.03,0.04-0.05,0.06-0.08h-0.01c-0.06-0.03-0.11-0.06-0.16-0.09c-0.05-0.03-0.09-0.07-0.14-0.1
	c-0.01,0.03-0.03,0.06-0.04,0.09c-0.05,0.1-0.09,0.2-0.15,0.29l-0.58,0.9l-2.6-1.66l0.32-0.5l0.36-0.51c0.1-0.13,0.2-0.23,0.29-0.31
	c-0.06-0.03-0.1-0.06-0.16-0.09c-0.06-0.04-0.12-0.08-0.17-0.12c-0.01,0-0.01,0-0.01,0L7.28,17.56z"/>
<path class="st0" d="M9.95,14.28c0.15-0.21,0.4-0.55,0.6-0.68c0.41-0.26,0.94-0.1,1.53,0.42c0.67,0.58,0.88,1.21,0.72,1.66
	c-0.12,0.31-0.41,0.58-0.47,0.64L9.95,14.28z M15.18,19.47c0.05-0.07,0.09-0.16,0.15-0.23c0.06-0.07,0.13-0.12,0.2-0.18l-2.88-2.47
	l0.15-0.18l1.13,0.32l1.79,0.58c0.32,0.11,0.65,0.22,1,0.35c0.07-0.09,0.13-0.2,0.2-0.29c0.08-0.09,0.16-0.16,0.26-0.25l-0.29-0.1
	l-0.67-0.19l-3.08-0.97c0.25-0.6,0.18-1.51-0.82-2.36c-0.87-0.75-1.59-0.8-2.2-0.09l-0.85,1L15.18,19.47z"/>
<path class="st0" d="M15.21,19.64l-6.09-5.21l0.93-1.08c0.64-0.76,1.42-0.74,2.36,0.07c1.16,0.99,1.02,1.97,0.89,2.38l2.97,0.93
	l0.67,0.19l0.48,0.16l-0.14,0.13c-0.04,0.03-0.07,0.06-0.1,0.1c-0.06,0.05-0.1,0.09-0.15,0.14c-0.04,0.06-0.09,0.12-0.13,0.19
	c-0.02,0.03-0.04,0.06-0.06,0.09l-0.05,0.07l-0.08-0.03c-0.36-0.13-0.68-0.24-1-0.35l-1.79-0.58l-1.06-0.3l-0.03,0.03l2.89,2.48
	l-0.09,0.09c-0.03,0.03-0.06,0.05-0.09,0.07c-0.04,0.04-0.08,0.07-0.11,0.1c-0.04,0.04-0.07,0.09-0.1,0.14
	c-0.01,0.03-0.03,0.05-0.04,0.07L15.21,19.64z M9.44,14.4l5.71,4.89c0.03-0.04,0.06-0.09,0.09-0.13c0.03-0.04,0.07-0.07,0.11-0.11
	l-2.86-2.46l0.27-0.32l1.2,0.34l1.8,0.58c0.3,0.1,0.6,0.21,0.92,0.32c0,0,0.01-0.01,0.01-0.01c0.04-0.07,0.1-0.15,0.15-0.21
	c0.04-0.05,0.08-0.09,0.13-0.13l-0.11-0.03l-0.67-0.19l-3.2-1l0.05-0.12c0.14-0.35,0.35-1.26-0.79-2.23
	c-0.84-0.73-1.47-0.76-2.04-0.09L9.44,14.4z M12.33,16.46L9.8,14.29l0.06-0.08c0.14-0.2,0.4-0.57,0.63-0.71
	c0.44-0.28,1.01-0.14,1.67,0.42c0.67,0.57,0.95,1.24,0.75,1.78c-0.12,0.32-0.4,0.59-0.5,0.69L12.33,16.46z M10.11,14.26l2.22,1.9
	c0.11-0.11,0.29-0.31,0.37-0.53c0.16-0.44-0.1-1.03-0.68-1.53c-0.57-0.49-1.04-0.63-1.39-0.41C10.45,13.79,10.24,14.07,10.11,14.26"
	/>
<path class="st0" d="M16.56,15.66c0.66,0.39,1.16,0.55,1.53,0.24c0.38-0.32,0.15-1.14-0.44-1.82c-1.38-1.6-2.23,0.37-3.91-1.57
	c-0.96-1.11-0.95-2.06-0.39-2.55c0.22-0.19,0.6-0.3,1.02-0.16c0.14,0.27,0.31,0.54,0.48,0.81l-0.05,0.04
	c-0.5-0.38-0.95-0.49-1.23-0.25c-0.32,0.28-0.25,0.9,0.28,1.51c1.37,1.58,2.29-0.32,3.87,1.5c1.06,1.23,1.18,2.41,0.54,2.96
	c-0.23,0.2-0.76,0.34-1.19,0.16c-0.17-0.29-0.37-0.57-0.57-0.84L16.56,15.66z"/>
<path class="st0" d="M17.52,16.74c-0.17,0-0.33-0.03-0.48-0.09l-0.04-0.02l-0.02-0.03c-0.17-0.29-0.37-0.57-0.57-0.83l-0.06-0.09
	l0.19-0.16l0.07,0.04c0.71,0.42,1.11,0.5,1.4,0.25c0.31-0.27,0.11-1.01-0.45-1.65c-0.49-0.57-0.9-0.65-1.26-0.65
	c-0.13,0-0.26,0.01-0.4,0.02c-0.14,0.01-0.29,0.02-0.44,0.02c-0.48,0-1.07-0.11-1.81-0.97c-0.46-0.54-0.74-1.08-0.79-1.57
	c-0.05-0.46,0.1-0.87,0.41-1.14c0.28-0.24,0.73-0.32,1.13-0.19l0.04,0.01l0.02,0.04c0.12,0.22,0.25,0.44,0.4,0.68l0.13,0.21
	l-0.19,0.17l-0.07-0.06c-0.46-0.35-0.86-0.44-1.08-0.25c-0.13,0.11-0.18,0.3-0.14,0.53c0.04,0.26,0.2,0.55,0.44,0.82
	c0.49,0.57,0.9,0.65,1.28,0.65c0.13,0,0.27-0.01,0.41-0.02c0.15-0.01,0.3-0.03,0.45-0.03c0.47,0,1.04,0.11,1.73,0.9
	c0.52,0.6,0.84,1.22,0.93,1.79c0.09,0.56-0.06,1.03-0.41,1.33C18.17,16.63,17.84,16.74,17.52,16.74 M17.17,16.45
	c0.11,0.04,0.23,0.06,0.36,0.06c0.3,0,0.56-0.11,0.68-0.21c0.29-0.25,0.4-0.64,0.33-1.12c-0.08-0.53-0.39-1.11-0.88-1.68
	c-0.63-0.72-1.14-0.82-1.56-0.82c-0.14,0-0.29,0.01-0.43,0.03c-0.14,0.01-0.29,0.03-0.43,0.03c-0.41,0-0.9-0.09-1.45-0.73
	c-0.26-0.31-0.43-0.63-0.48-0.94c-0.05-0.31,0.02-0.57,0.21-0.74c0.25-0.21,0.62-0.2,1.05,0.03c-0.1-0.15-0.19-0.3-0.27-0.45
	c-0.32-0.09-0.66-0.03-0.87,0.15c-0.26,0.23-0.38,0.55-0.34,0.94c0.05,0.44,0.3,0.94,0.74,1.45c0.68,0.79,1.21,0.89,1.64,0.89
	c0.14,0,0.28-0.01,0.42-0.03c0.14-0.01,0.28-0.02,0.42-0.02c0.4,0,0.88,0.08,1.44,0.73c0.66,0.76,0.84,1.61,0.42,1.98
	c-0.15,0.13-0.33,0.2-0.53,0.2c-0.22,0-0.48-0.07-0.8-0.24C16.95,16.11,17.06,16.27,17.17,16.45"/>
<path class="st0" d="M15.41,8.57c0.08-0.04,0.16-0.08,0.24-0.13c0.07-0.05,0.13-0.12,0.2-0.19l4.48,6.35
	c-0.09,0.05-0.17,0.08-0.24,0.13c-0.08,0.05-0.14,0.12-0.2,0.18L15.41,8.57z"/>
<path class="st0" d="M19.87,15.09l-4.63-6.56l0.12-0.06c0.02-0.01,0.05-0.02,0.08-0.04c0.05-0.03,0.11-0.05,0.15-0.08
	c0.04-0.03,0.07-0.06,0.11-0.1c0.02-0.03,0.05-0.05,0.08-0.08l0.1-0.08l4.63,6.56l-0.11,0.06c-0.03,0.02-0.07,0.04-0.1,0.05
	c-0.05,0.02-0.09,0.05-0.13,0.07c-0.05,0.03-0.09,0.07-0.13,0.11c-0.02,0.02-0.04,0.04-0.06,0.06L19.87,15.09z M15.58,8.61
	l4.32,6.13c0.04-0.03,0.08-0.07,0.12-0.1c0.04-0.03,0.09-0.06,0.14-0.08l-4.33-6.13c-0.04,0.04-0.08,0.07-0.12,0.1
	C15.67,8.56,15.62,8.59,15.58,8.61"/>
<path class="st0" d="M22.13,13.52c-0.09,0.04-0.18,0.06-0.25,0.11c-0.08,0.04-0.15,0.11-0.22,0.16L18.05,7.5
	c-0.54,0.31-0.83,0.56-1.1,0.79c-0.05-0.1-0.1-0.2-0.16-0.3c-0.06-0.1-0.12-0.18-0.18-0.29l2.76-1.59c0.06,0.11,0.09,0.21,0.15,0.31
	c0.06,0.1,0.13,0.19,0.19,0.29c-0.3,0.1-0.71,0.25-1.18,0.52L22.13,13.52z"/>
<path class="st0" d="M21.62,13.96l-3.61-6.3c-0.49,0.29-0.76,0.53-0.99,0.72l-0.11,0.1l-0.07-0.13c-0.02-0.03-0.03-0.07-0.05-0.1
	c-0.03-0.06-0.07-0.13-0.1-0.19c-0.04-0.06-0.07-0.11-0.11-0.17c-0.03-0.03-0.05-0.07-0.07-0.11l-0.06-0.1l2.97-1.71l0.05,0.11
	c0.02,0.04,0.04,0.08,0.06,0.12c0.03,0.06,0.06,0.12,0.09,0.18c0.04,0.06,0.08,0.12,0.12,0.18c0.02,0.03,0.04,0.07,0.06,0.1
	l0.08,0.13l-0.14,0.05c-0.36,0.11-0.72,0.27-1.06,0.46l3.61,6.3l-0.12,0.05c-0.03,0.02-0.07,0.03-0.1,0.04
	c-0.05,0.02-0.1,0.04-0.14,0.06c-0.05,0.03-0.09,0.06-0.14,0.1c-0.02,0.02-0.05,0.04-0.07,0.05L21.62,13.96z M18.1,7.34l3.59,6.27
	c0.04-0.03,0.08-0.07,0.13-0.09c0.05-0.02,0.1-0.05,0.14-0.06l-3.6-6.27l0.1-0.06c0.35-0.2,0.71-0.36,1.06-0.49
	c-0.04-0.06-0.07-0.11-0.1-0.17c-0.04-0.06-0.07-0.13-0.1-0.19c0,0-0.01,0-0.01-0.01l-2.55,1.46c0,0,0,0.01,0.01,0.01
	c0.04,0.06,0.08,0.12,0.12,0.18c0.03,0.06,0.06,0.12,0.09,0.17c0.26-0.22,0.55-0.44,1.01-0.7L18.1,7.34z"/>
<path class="st0" d="M23.56,8.91l-1.25,0.52l-0.49-2.95L23.56,8.91z M21.45,5.02l-0.13,0.06l1.26,8.08
	c0.05-0.04,0.11-0.09,0.19-0.12c0.07-0.03,0.14-0.03,0.22-0.06c-0.24-1.05-0.42-2.06-0.61-3.07l1.45-0.6
	c0.62,0.86,1.25,1.78,1.77,2.59c0.09-0.05,0.18-0.11,0.29-0.16c0.1-0.04,0.2-0.05,0.31-0.09L21.45,5.02z"/>
<path class="st0" d="M22.49,13.34l-1.3-8.33l0.3-0.12l4.89,6.83l-0.15,0.05c-0.04,0.01-0.08,0.02-0.12,0.03
	c-0.06,0.01-0.12,0.03-0.18,0.05c-0.07,0.03-0.12,0.06-0.19,0.1c-0.03,0.01-0.06,0.04-0.09,0.05l-0.09,0.05l-0.06-0.09
	c-0.61-0.94-1.19-1.79-1.71-2.51l-1.28,0.53l0.03,0.18c0.16,0.9,0.33,1.84,0.56,2.79l0.03,0.11l-0.11,0.02
	c-0.04,0.01-0.07,0.02-0.1,0.03c-0.04,0.01-0.08,0.01-0.11,0.03c-0.04,0.02-0.07,0.04-0.11,0.07c-0.02,0.01-0.04,0.03-0.06,0.04
	L22.49,13.34z M21.46,5.23l1.2,7.73c0.02-0.01,0.04-0.02,0.06-0.03c0.05-0.02,0.09-0.03,0.13-0.04c-0.21-0.92-0.38-1.82-0.53-2.7
	l-0.06-0.36l1.62-0.67l0.05,0.07c0.52,0.72,1.1,1.56,1.71,2.5c0.06-0.04,0.13-0.08,0.21-0.11c0.06-0.02,0.11-0.04,0.16-0.05
	L21.46,5.23z M22.22,9.59l-0.51-3.08l0.21-0.09l1.83,2.54L22.22,9.59z M22.01,6.95l0.39,2.32l0.99-0.41L22.01,6.95z"/>
<path class="st0" d="M27.36,11.44c-0.1,0.02-0.19,0.02-0.27,0.04c-0.09,0.03-0.17,0.07-0.25,0.11l-1.89-7
	c-0.6,0.16-0.95,0.33-1.27,0.49c-0.02-0.11-0.04-0.22-0.07-0.34c-0.03-0.11-0.07-0.2-0.11-0.33l3.08-0.83
	c0.03,0.12,0.04,0.22,0.07,0.33c0.03,0.11,0.07,0.21,0.11,0.32C26.44,4.25,26,4.3,25.47,4.44L27.36,11.44z"/>
<path class="st0" d="M26.76,11.74l-1.89-7.01c-0.55,0.16-0.87,0.32-1.14,0.45l-0.13,0.07l-0.03-0.14c-0.01-0.04-0.02-0.08-0.02-0.11
	c-0.01-0.07-0.03-0.14-0.05-0.22c-0.02-0.06-0.04-0.13-0.06-0.19c-0.01-0.04-0.03-0.08-0.04-0.13l-0.04-0.11l3.31-0.89l0.03,0.12
	c0.01,0.05,0.02,0.09,0.03,0.13c0.01,0.07,0.02,0.13,0.04,0.2c0.02,0.07,0.04,0.14,0.07,0.21l0.09,0.25l-0.15,0.01
	C26.38,4.37,26,4.42,25.61,4.52l1.89,7.01l-0.13,0.02c-0.04,0.01-0.07,0.01-0.11,0.01c-0.06,0-0.11,0.01-0.15,0.02
	c-0.05,0.01-0.1,0.04-0.16,0.06c-0.03,0.01-0.05,0.03-0.08,0.04L26.76,11.74z M25.02,4.44l1.89,6.98c0.05-0.02,0.09-0.04,0.15-0.06
	c0.05-0.01,0.1-0.02,0.16-0.03l-1.89-6.98l0.11-0.03c0.39-0.1,0.77-0.17,1.15-0.2c-0.02-0.06-0.04-0.12-0.06-0.19
	c-0.02-0.07-0.03-0.14-0.04-0.21c0,0,0,0,0-0.01l-2.84,0.77c0,0,0,0.01,0,0.01c0.02,0.07,0.05,0.14,0.07,0.21
	c0.02,0.07,0.03,0.13,0.04,0.2c0.31-0.15,0.64-0.29,1.16-0.43L25.02,4.44z"/>
<path class="st0" d="M27.42,3.45c0.09,0,0.18,0,0.27-0.01c0.08-0.02,0.17-0.05,0.26-0.08l1.33,7.65c-0.1,0.01-0.19,0-0.27,0.02
	c-0.09,0.02-0.18,0.05-0.26,0.08L27.42,3.45z"/>
<path class="st0" d="M28.66,11.25l-1.38-7.91l0.13,0h0.09c0.06,0,0.12,0,0.17-0.01c0.04-0.01,0.09-0.02,0.14-0.04
	c0.04-0.02,0.07-0.03,0.11-0.04l0.12-0.04l1.38,7.91l-0.13,0.01h-0.11c-0.06,0-0.1,0-0.15,0.01c-0.05,0.01-0.11,0.03-0.16,0.05
	c-0.03,0.01-0.06,0.02-0.08,0.03L28.66,11.25z M27.56,3.56l1.28,7.4c0.05-0.02,0.1-0.04,0.15-0.04c0.05-0.01,0.11-0.01,0.16-0.01
	l-1.29-7.39c-0.05,0.02-0.1,0.03-0.15,0.04C27.66,3.56,27.61,3.56,27.56,3.56"/>
<path class="st0" d="M29.94,9.35c0.3,0.71,0.6,1.14,1.09,1.1c0.5-0.04,0.8-0.83,0.73-1.72c-0.16-2.11-2.02-1.03-2.21-3.59
	c-0.11-1.46,0.46-2.22,1.2-2.28c0.3-0.02,0.66,0.12,0.92,0.47c-0.05,0.3-0.07,0.62-0.1,0.94l-0.06,0.01
	c-0.18-0.6-0.48-0.95-0.84-0.93C30.25,3.39,29.94,3.94,30,4.74c0.16,2.08,2.03,1.1,2.22,3.51c0.12,1.62-0.49,2.63-1.32,2.7
	c-0.3,0.02-0.81-0.18-1.05-0.58c0.04-0.33,0.04-0.67,0.04-1.01L29.94,9.35z"/>
<path class="st0" d="M30.84,11.07c-0.35,0-0.86-0.22-1.1-0.64l-0.02-0.03l0.01-0.04c0.04-0.33,0.04-0.68,0.04-1V9.25l0.25-0.02
	l0.03,0.08c0.32,0.76,0.6,1.06,0.97,1.03c0.26-0.02,0.41-0.3,0.48-0.47c0.13-0.3,0.17-0.7,0.14-1.13c-0.07-0.94-0.48-1.2-0.96-1.49
	c-0.54-0.33-1.14-0.7-1.25-2.1c-0.05-0.71,0.05-1.31,0.3-1.73c0.23-0.4,0.59-0.64,1.01-0.67c0.37-0.03,0.77,0.17,1.02,0.52
	l0.03,0.04l-0.01,0.05c-0.04,0.25-0.06,0.51-0.08,0.79l-0.02,0.24l-0.25,0.02L31.4,4.32c-0.16-0.56-0.42-0.87-0.72-0.84
	c-0.38,0.03-0.62,0.57-0.57,1.26c0.07,0.95,0.5,1.21,0.99,1.51c0.53,0.32,1.12,0.69,1.23,2c0.12,1.59-0.47,2.75-1.43,2.82H30.84z
	 M29.95,10.34c0.24,0.36,0.69,0.51,0.93,0.49c0.83-0.06,1.33-1.12,1.22-2.57c-0.09-1.19-0.59-1.5-1.12-1.83
	c-0.5-0.31-1.02-0.62-1.1-1.69c-0.07-0.83,0.26-1.46,0.78-1.51c0.34-0.02,0.62,0.2,0.82,0.65c0.02-0.18,0.03-0.35,0.06-0.52
	c-0.2-0.27-0.51-0.41-0.79-0.39C30.41,3,30.12,3.19,29.92,3.53c-0.22,0.39-0.31,0.94-0.27,1.6c0.1,1.28,0.63,1.61,1.14,1.92
	c0.49,0.3,0.99,0.61,1.07,1.67c0.04,0.46-0.02,0.9-0.16,1.23c-0.15,0.37-0.39,0.59-0.67,0.61c-0.49,0.04-0.81-0.36-1.05-0.83
	C29.98,9.94,29.98,10.14,29.95,10.34"/>
<path class="st0" d="M32.9,6.59c0-0.34,0.16-0.62,0.35-0.62c0.18,0,0.34,0.29,0.33,0.63c-0.01,0.35-0.16,0.63-0.35,0.62
	C33.04,7.23,32.89,6.94,32.9,6.59"/>
<path class="st0" d="M33.23,7.34L33.23,7.34c-0.14,0-0.26-0.09-0.34-0.25c-0.07-0.14-0.11-0.32-0.11-0.5
	c0.01-0.41,0.21-0.73,0.47-0.73c0.14,0,0.26,0.09,0.34,0.25c0.07,0.13,0.11,0.31,0.11,0.5C33.68,7.02,33.48,7.34,33.23,7.34
	 M33.25,6.09c-0.09,0-0.23,0.19-0.24,0.5c0,0.15,0.03,0.29,0.08,0.39c0.04,0.08,0.09,0.13,0.14,0.13v0.11V7.12
	c0.09,0,0.23-0.2,0.23-0.51c0-0.15-0.03-0.28-0.08-0.39C33.34,6.14,33.29,6.09,33.25,6.09"/>
<polygon class="st0" points="18.14,53.97 16.51,52.83 16.92,52.24 18.55,53.38 "/>
<path class="st0" d="M18.17,54.13l-1.81-1.28l0.54-0.77l1.81,1.28L18.17,54.13z M16.67,52.8l1.44,1.02l0.28-0.4l-1.44-1.01
	L16.67,52.8z"/>
<path d="M81.28,7h10.38v12.6H81.28v21.29h-4.06V7h2.6H81.28z M87.74,9.89h-6.47V12h6.47V9.89z M81.28,16.7h6.47v-2.22h-6.47V16.7z
	 M102.75,36.22l-0.79,1.09c0.82,0.07,1.81,0.07,2.14,0.04c0.64-0.04,0.79-0.34,0.79-0.9V19.6H94.29V7h10.61h2.26H109v29.98
	c0,2.22-0.56,3.38-2.52,3.76c-0.9,0.19-2.78,0.19-4.21,0.11l-0.6-3.08l-1.01,1.47c-3.01-0.86-5.49-2.37-7.22-4.82
	c-1.35,1.92-3.76,3.69-7.6,5.3l-2.74-2.86c4.51-1.47,6.77-3.16,7.6-5.11h-7.6v-2.9h7.97v-2.41h-7.22v-2.9h3.5
	c-0.34-0.9-0.87-1.88-1.43-2.75l3.08-1.13c0.9,1.32,1.58,2.75,1.88,3.88h4.18c0.79-1.35,1.51-2.82,1.96-3.88l3.61,0.94
	c-0.49,0.86-1.17,1.92-1.88,2.94h3.54v2.9h-7.41v2.41h8.16v2.9h-7.37C97.22,34.19,99.82,35.62,102.75,36.22 M104.9,9.89h-6.66V12
	h6.66V9.89z M98.24,16.7h6.66v-2.22h-6.66V16.7z"/>
<path d="M149.44,11.55V7.79H114.8v3.76h11.47v4.85h-9.22v24.49h3.99v-1.58h22.56v1.58h4.1V16.4h-10.63v-4.85H149.44z M130.03,11.55
	h3.27v4.85h-3.27V11.55z M121.04,35.55V20.2h5.23v0.08c0,4.14-1.09,7.52-4.97,10.42l3.24,2.3c4.21-3.5,5.49-7.82,5.49-12.68V20.2
	h3.27v4.55c0,4.93,0.75,5.87,4.17,5.98h6.12v4.81H121.04z M143.6,20.2v5v1.77h-5.71c-0.68-0.04-0.83-0.23-0.83-2.22V20.2H143.6z"/>
<path d="M189.21,37.13l-3.05,3.69c-6.88-2.78-11.66-7.79-14.56-15.65c-2.07,6.58-6.17,12.04-14.22,15.65l-3.2-3.35
	c9.4-3.72,13.02-9.85,14.41-17.42h-14.14V16.1h14.71c0.3-3.16,0.03-6.51,0.07-10h4.32c-0.07,3.46,0.12,6.81-0.18,10h15.5v3.95
	h-14.52C176.57,29.3,181.54,34.61,189.21,37.13"/>
<path d="M208.63,28.25v-2.52h1.62c1.17-0.87,2.41-1.92,3.53-2.93h-12.75v-3.46h15.8h1.13h0.71l2.56,1.54
	c-2.18,2.18-5.3,4.66-8.39,6.81v0.56H228v3.57h-15.16v5.27c0,2.15-0.68,3.35-2.63,3.69c-1.17,0.19-4.14,0.15-6.09,0.08l-0.79-3.76
	c1.54,0.11,3.8,0.11,4.47,0.04c0.64-0.04,0.83-0.34,0.83-0.87v-4.44h-15.27v-3.57H208.63z M199.97,13.58
	c-0.68-1.73-1.69-3.54-3.08-5.38l3.35-1.66c1.77,2.15,3.05,4.14,3.88,6.02l-2.3,1.02h7.15c-0.56-1.92-1.55-3.91-2.93-6.02l3.38-1.62
	c1.69,2.26,2.86,4.29,3.57,6.24l-3.31,1.39h5.91c2.07-2.56,4.06-5.45,5.12-7.49l4.1,1.88c-1.13,1.66-2.63,3.65-4.32,5.61h6.54v8.31
	h-4.33v-4.85h-24.15v4.85h-4.18v-8.31H199.97z"/>
<polygon points="86.04,59.21 83.23,59.21 79.34,53.98 79.34,59.21 77.23,59.21 77.23,48.3 79.34,48.3 79.34,53.67 83.1,48.3 
	85.73,48.3 81.5,53.68 "/>
<path d="M90.8,48.3h1.95l4.19,10.9H94.6l-0.95-2.63h-3.98l-0.92,2.63h-2.13L90.8,48.3z M93.18,54.95l-1.48-4.33l-1.5,4.33H93.18z"/>
<polygon points="100.54,59.21 98.56,59.21 98.56,48.3 101.37,48.3 105.45,56 105.45,48.3 107.44,48.3 107.44,59.21 105.02,59.21 
	100.54,50.69 "/>
<path d="M115.54,50.5c-0.65-0.31-1.51-0.55-2.16-0.55c-0.67,0-1.59,0.18-1.59,1.22c0,0.68,0.74,1.05,1.68,1.51
	c1.55,0.75,2.94,1.48,2.94,3.44c0,2.51-1.7,3.28-3.51,3.28c-1.24,0-2.73-0.3-3.48-0.65l0.53-1.92c0.81,0.38,1.96,0.71,2.85,0.71
	c0.67,0,1.46-0.28,1.46-1.29c0-0.75-0.6-1.22-1.99-1.85c-1.52-0.67-2.57-1.29-2.57-3.1c0-2.56,2.07-3.17,3.45-3.17
	c1.22,0,2.3,0.26,2.95,0.55L115.54,50.5z"/>
<path d="M121.4,48.3h1.95l4.19,10.9h-2.33l-0.95-2.63h-3.98l-0.92,2.63h-2.13L121.4,48.3z M123.79,54.95l-1.48-4.33l-1.51,4.33
	H123.79z"/>
<rect x="129.28" y="48.3" width="2.11" height="10.9"/>
<path d="M142.74,59.45c-2.34,0-4.4-1.15-4.4-3.81V48.3h2.11v6.6c0,1.62,0.48,2.73,2.31,2.73c1.85,0,2.33-1.11,2.33-2.73v-6.6h2.12
	v7.34c0,2.65-2.06,3.81-4.46,3.81H142.74z"/>
<polygon points="151.5,59.21 149.53,59.21 149.53,48.3 152.34,48.3 156.41,56 156.41,48.3 158.4,48.3 158.4,59.21 155.98,59.21 
	151.5,50.69 "/>
<rect x="161.41" y="48.3" width="2.12" height="10.9"/>
<polygon points="173.45,48.3 175.72,48.3 171.61,59.21 169.71,59.21 165.58,48.3 167.92,48.3 170.72,56.59 "/>
<polygon points="179.01,52.77 182.49,52.77 182.49,54.52 179.01,54.52 179.01,57.37 183.27,57.37 183.27,59.2 176.94,59.2 
	176.94,48.3 183,48.3 183,50.13 179.01,50.13 "/>
<path d="M190.96,56.39c-0.52-1.14-0.89-1.49-1.68-1.49h-1.32v4.3h-1.99V48.3h2.7c2.53,0,4.57,0.44,4.57,3.04
	c0,1.53-0.75,2.36-1.82,2.71c0.58,0.26,0.94,0.71,1.15,1.17c0.41,0.84,1.31,2.82,1.77,3.99h-2.26
	C191.86,58.47,191.33,57.2,190.96,56.39 M191.18,51.58c0-1.26-0.98-1.5-2.27-1.5h-0.94v3.15h1.82
	C190.64,53.13,191.18,52.53,191.18,51.58"/>
<path d="M201.63,50.5c-0.65-0.31-1.51-0.55-2.16-0.55c-0.67,0-1.59,0.18-1.59,1.22c0,0.68,0.74,1.05,1.68,1.51
	c1.55,0.75,2.94,1.48,2.94,3.44c0,2.51-1.7,3.28-3.51,3.28c-1.24,0-2.73-0.3-3.48-0.65l0.53-1.92c0.81,0.38,1.96,0.71,2.85,0.71
	c0.67,0,1.46-0.28,1.46-1.29c0-0.75-0.6-1.22-1.99-1.85c-1.52-0.67-2.57-1.29-2.57-3.1c0-2.56,2.07-3.17,3.45-3.17
	c1.22,0,2.3,0.26,2.95,0.55L201.63,50.5z"/>
<rect x="204.66" y="48.3" width="2.12" height="10.9"/>
<polygon points="211.46,59.21 211.46,50.13 208.58,50.13 208.58,48.3 216.47,48.3 216.47,50.13 213.58,50.13 213.58,59.21 "/>
<polygon points="217.82,48.3 220.35,48.3 222.98,52.84 225.53,48.3 227.99,48.3 223.94,54.53 223.94,59.21 221.83,59.21 
	221.83,54.53 "/>
</svg>
