<?xml version="1.0" encoding="UTF-8"?>
<svg id="_レイヤー_2" data-name="レイヤー 2" xmlns="http://www.w3.org/2000/svg" viewBox="0 0 136.06 54.29">
  <g id="hover前">
    <g>
      <path d="M2.87,48.76v2.96c0,1.21,1.32,1.21,2.35,1.21,1.15,0,3.45-.05,4.53-.23-.24.59-.32.79-.42,1.31h-3.65c-1.32,0-2.67,0-3.38-.98-.16.09-1.02.72-1.25.91,0,.08,0,.2-.11.2-.05,0-.09-.02-.15-.13l-.57-1.02c.16-.1.85-.46.98-.54.19-.12.33-.21.44-.29v-2.29H.37v-1.11h2.5ZM1.18,45.01c.38.22.95.56,1.9,1.4-.32.36-.6.68-.75.98-.47-.49-.95-.92-1.86-1.47l.71-.91ZM9.46,47.68v1.15h-1.62v3.73h-1.19v-3.73h-1.5c-.05,1.29-.25,2.61-.98,3.68-.5-.36-.76-.47-1.06-.54.62-1.02.84-1.76.84-3.47v-3.02l.95.19c.32,0,1.72-.24,2.14-.33.8-.18,1.16-.31,1.45-.42l.81.89c.06.06.07.11.07.14,0,.07-.05.1-.12.1-.04,0-.17-.03-.22-.04-1.69.47-2.97.58-3.86.61v1.06h4.29Z"/>
      <path d="M14.45,45.86c.07.03.15.07.15.15,0,.14-.25.12-.32.11-.54.76-1.07,1.36-1.3,1.63.43-.02.59-.03.76-.05-.07-.22-.1-.31-.18-.51l.81-.21c.25.68.4,1.17.53,1.8-.19.03-.39.06-.85.19,0-.14-.03-.28-.08-.48-1.96.19-2.18.21-2.63.23-.04.12-.1.23-.18.23-.12,0-.15-.11-.16-.21l-.14-.93c.16,0,.84,0,.98-.02.22-.24.31-.34.4-.45-.18-.18-.7-.64-1.32-1.08l.57-.76c.16.11.25.18.42.3.05-.07.35-.48.59-.96l.76.36c.1.05.18.09.18.17,0,.11-.15.1-.27.1-.33.54-.37.6-.59.9.08.07.19.18.25.25.53-.69.68-.95.81-1.15l.81.39ZM19.39,45.73c.08.04.18.1.18.17,0,.09-.09.11-.18.11-.05,0-.11-.01-.16-.02-.51.67-.61.8-1.28,1.62.24,0,.55-.04.83-.07-.1-.28-.16-.42-.22-.56l.82-.29c.53,1.2.63,1.65.69,1.91-.33.06-.63.16-.91.27-.02-.14-.04-.25-.14-.58-.16.02-.84.08-.98.09.3.17.56.33.77.5l-.33.14h1.56v.94h-3.58c.27.87.6,1.33.72,1.5.12-.16.55-.73.89-1.49l1.02.53c.07.04.16.09.16.17,0,.13-.16.15-.36.15-.41.7-.63,1.04-.99,1.48.27.26.58.57.75.57.29,0,.39-.44.52-1.05.39.33.84.52.99.58-.1.5-.4,1.84-1.19,1.84-.55,0-1.31-.56-1.85-1.11-.07.07-.7.66-1.52,1.17-.25-.27-.58-.55-.85-.72h-.36v-.33h-2.11v.7h-.99v-3.72h3.99v2.98c.64-.44,1-.77,1.15-.92-.66-.96-.88-1.78-1.03-2.33h-4.44v-.94h4.24c-.11-.65-.3-1.8-.23-4.06l1.08.06c.09,0,.23.01.23.13,0,.1-.12.16-.23.2-.02.2-.04.44-.04,1.04l.51-.74c.16.11.25.17.34.23.14-.21.39-.57.58-1.02l.72.33s.14.08.14.14c0,.11-.13.14-.26.15-.14.25-.28.48-.56.86.14.11.18.15.25.21.53-.71.73-1.06.84-1.26l.82.44ZM12.94,51.4v-.45h-.66v.45h.66ZM12.28,52.03v.47h.66v-.47h-.66ZM14.39,51.4v-.45h-.68v.45h.68ZM13.71,52.03v.47h.68v-.47h-.68ZM16.19,47.66c.17,0,.6,0,.7,0,.07-.08.15-.18.31-.4-.4-.34-.7-.54-1.19-.84,0,.45.02,1.55.21,2.61h1.39c-.07-.04-.34-.21-.66-.39l.43-.2c-.32.03-.66.06-.78.06-.02.06-.07.17-.18.17s-.13-.13-.14-.21l-.09-.79Z"/>
      <path d="M21.45,48.7v-1.22h3.92v-2.56l1.31.07c.15,0,.22.05.22.13,0,.09-.11.13-.22.16v2.2h3.86v1.22h-3.83c.45,1.47,1.37,3.28,3.97,4.59-.59.45-.76.64-.97.99-1.07-.48-2.78-1.95-3.67-3.94-1.15,2.47-2.83,3.4-3.99,3.96-.1-.23-.26-.54-.89-1.11.84-.33,3.43-1.37,4.07-4.49h-3.78Z"/>
      <path d="M40.97,50.76v1.03h-3.81v1.36c0,1.05-.74,1.09-2.36,1.07-.06-.29-.19-.85-.39-1.19.17,0,.94.04,1.09.04.43,0,.43-.06.43-.58v-.7h-3.92v-1.03h3.92v-.73l.52.07c.33-.25.72-.56.89-.7h-3.53v-1.01h4.98l.36.71c-.37.4-1.21,1.1-1.99,1.66h3.81ZM36.08,46.81c-.17-.39-.57-1.01-.99-1.47l1.07-.49c.3.32.81,1.05,1,1.46-.11.06-.9.47-.94.5h1.48c.52-.66.8-1.05,1.17-1.75l1.19.39c.06.02.16.06.16.15,0,.12-.16.14-.34.16-.35.55-.59.87-.72,1.05h1.72v2.54h-1.19v-1.58h-6.4v1.58h-1.17v-2.54h1.52c-.17-.29-.57-.92-.85-1.22l1.01-.52c.38.37.79,1.01.98,1.39-.36.17-.57.29-.65.35h1.95Z"/>
      <path d="M46.71,47.57c1.12.76,1.45,1.09,1.63,1.27-.17.18-.58.72-.69.87-.75-.65-1.17-.96-1.63-1.25l.69-.89ZM46.02,53.39c.53-.69,1.26-2.16,1.6-3.21.52.53.79.62.96.67-.33.98-.84,2.07-1.33,3,.02.05.03.09.03.14,0,.08-.05.14-.11.14-.03,0-.11-.02-.19-.07l-.96-.67ZM47.39,45.04c.55.35,1.2.91,1.59,1.35-.42.45-.47.5-.8.9-.34-.38-.95-1-1.56-1.42l.77-.83ZM53.55,50.43c1.12,1.28,1.86,2.69,2.04,3.1-.72.4-.8.44-1.07.67-.09-.17-.45-.92-.53-1.07-.84.19-2.4.54-4.58.72-.05.12-.09.2-.21.2-.08,0-.13-.06-.17-.23l-.26-1.15c.2,0,.39,0,1.09-.03.61-1.17,1.04-2.22,1.15-2.54h-2.26v-1.1h2.68v-1.34h-2.2v-1.09h2.2v-1.56l1.28.06c.12,0,.2.06.2.12,0,.09-.09.15-.2.19v1.19h2.37v1.09h-2.37v1.34h2.74v1.1h-2.83s.05.05.05.1c0,.14-.26.19-.39.21-.23.56-.59,1.27-1.03,2.11,1.13-.12,1.86-.27,2.16-.33-.51-.79-.7-.99-.83-1.13l.97-.63Z"/>
      <path d="M62,45.1c.18,0,.24.08.24.15s-.11.14-.24.19c-.06,2.82-.13,5.7,4.02,7.65-.45.36-.65.57-.91,1.06-1.15-.56-1.99-1.41-2.19-1.62-.82-.82-1.2-1.52-1.54-2.29-.68,1.81-2.11,3.1-3.73,3.9-.37-.5-.59-.73-1.04-1.02,2.44-.9,3.32-2.62,3.61-3.47.42-1.24.48-2.28.45-4.65l1.33.1Z"/>
      <path d="M72.87,45.19l1.42.08c.09,0,.16.03.16.1,0,.11-.11.16-.16.18v1.7h1.82v1.32h-1.82c0,2.1-.51,2.92-.76,3.34-.6.99-1.51,1.76-2.59,2.19-.25-.41-.58-.73-1.04-1.06,1.67-.58,2.35-1.63,2.56-2.06.35-.72.39-1.53.41-2.41h-2.07v2.36h-1.37v-2.36h-1.94v-1.32h1.94v-2l1.32.08c.09,0,.21,0,.21.12,0,.07-.07.11-.16.16v1.64h2.07v-2.06Z"/>
      <path d="M83.18,53.97h-1.44v-4.75c-1.73,1.03-2.63,1.37-3.06,1.53-.25-.44-.61-.86-1.02-1.2,3.19-.92,5.61-2.96,6.94-4.67l1.2.92c.06.05.09.09.09.14,0,.09-.1.13-.18.13-.05,0-.13,0-.18-.03-.69.82-1.51,1.51-2.35,2.18v5.75Z"/>
      <path d="M90.4,47.81c1.4.7,2.77,1.59,3.61,2.42-.39.41-.53.58-.96,1.09-1.22-1.17-2.46-1.87-3.16-2.24v4.88h-1.42v-8.77l1.42.08c.1,0,.19.02.19.11,0,.11-.13.14-.19.15v3l.51-.72Z"/>
      <path d="M98.44,49.95c.08.05.13.1.13.16,0,.11-.13.11-.26.1-.76,1.2-1.1,1.62-2.07,2.61-.32-.29-.73-.6-1.15-.85,1.08-.83,1.75-1.81,2.19-2.7l1.16.68ZM99.07,45.23l1.33.05c.13,0,.22.03.22.12,0,.08-.08.11-.17.15v1.82h3.36v1.22h-3.36v3.78c0,.69,0,1.51-1.61,1.51-.18,0-.48-.02-.68-.04-.03-.22-.07-.59-.43-1.34.26.04.64.09.91.09.43,0,.43-.15.43-.78v-3.22h-3.37v-1.22h3.37v-2.14ZM102.19,49.21c.8.75,1.77,2.02,2.06,2.56-.34.26-.82.71-1.03.91-.48-.88-1.42-2.09-2.03-2.68l1-.79Z"/>
      <path d="M114.62,48.91v1.42h-8.62v-1.42h8.62Z"/>
      <path d="M122.75,48.55c1.05,1.21,2.22,3.07,2.54,3.99-.06.04-.86.64-1.14.89-.23-.61-.42-1-.52-1.21-3.98.69-4.07.7-6.64,1.01-.04.14-.08.18-.16.18-.07,0-.12-.1-.14-.18l-.32-1.3c.17,0,.92-.07,1.08-.09.66-1.21,1.84-4.15,2.37-6.57l1.45.38c.11.03.18.07.18.14,0,.12-.11.17-.24.19-.16.44-.84,2.37-.99,2.75-.39,1.01-.82,2.01-1.29,2.98.92-.09,2.81-.34,4.08-.57-.89-1.32-1.2-1.65-1.44-1.9l1.18-.69Z"/>
      <path d="M126.4,50.3c.26-.19,1.1-.8,2.22-2.31.84-1.15,1.08-1.47,1.67-1.47.65,0,.87.27,2.17,1.86.68.83,2.11,2.41,3.61,3.44-.43.45-.86,1.13-.96,1.28-1.27-1.07-2.41-2.28-3.46-3.57-.38-.46-1-1.22-1.17-1.34-.07-.06-.13-.09-.22-.09-.13,0-.22.04-.52.46-1.25,1.76-1.43,2.01-2.21,2.84l-1.13-1.1Z"/>
    </g>
    <path d="M45.38,13.16l1.92-2,6.06,8.57h5.32l-8.5-11.6L58.24.07h-5.32l-7.54,8.13V.07h-4.07v19.66h4.07v-6.58Z"/>
    <path d="M66.23.07h-4.07v19.66h4.07V.07Z"/>
    <path d="M75.17,5.77l7.98,13.97h4.14V.07h-3.84v13.67L75.61.07h-4.29v19.66h3.84V5.77Z"/>
    <path d="M107.4,16.04c1.03-1.85,1.55-3.99,1.55-6.65s-.15-2.14-.37-3.25c-.22-1.11-.74-2.22-1.4-3.18-.89-1.18-2-2.07-3.33-2.51C103.04.15,102,0,100.82,0h-8.5v19.73h8.5c2.96,0,5.17-1.26,6.58-3.7ZM104.14,13.45c-.74,1.92-2.14,2.88-4.06,2.88h-3.77V3.47h3.77c1.85,0,3.1.52,3.77,1.63.59,1.03.96,2.59.96,4.58s-.22,2.73-.59,3.77h-.07Z"/>
    <path d="M124.32,19.73h4.44L121.81.07h-4.66l-7.02,19.66h4.29l1.33-4.07h7.24l1.33,4.07ZM116.93,12.34l2.51-7.76,2.51,7.76h-5.03Z"/>
    <path d="M136,.07h-4.07v19.66h4.07V.07Z"/>
    <path d="M46.64,30.3c0,.59,0,1.11-.22,1.33-.22.52-.74.74-1.48.74s-1.26-.22-1.48-.74c-.15-.3-.22-.74-.22-1.33v-5.54h-1.92v5.54c0,.96.15,1.7.44,2.22.59.96,1.63,1.48,3.18,1.48s2.66-.52,3.18-1.48c.3-.52.44-1.26.44-2.22v-5.54h-1.92v5.54Z"/>
    <path d="M58.1,31.04l-3.62-6.28h-1.92v9.02h1.7v-6.36l3.7,6.36h1.92v-9.02h-1.77v6.28Z"/>
    <path d="M66,24.76h-1.85v9.02h1.85v-9.02Z"/>
    <path d="M73.47,31.63l-2-6.87h-2l3.03,9.02h1.85l3.03-9.02h-1.92l-2,6.87Z"/>
    <path d="M82.27,29.86h4.43v-1.55h-4.43v-1.92h4.8v-1.63h-6.65v9.02h6.87v-1.63h-5.03v-2.29Z"/>
    <path d="M98.03,32.92c0-.18-.02-.41-.02-.69v-.59c0-.67-.07-1.11-.3-1.4-.15-.3-.44-.52-.89-.74.52-.15.89-.44,1.11-.89.11-.22.18-.42.23-.62.02-.08.07-.31.07-.63,0-.32,0-.76-.23-1.24-.07-.15-.31-.63-.84-.96-.43-.27-.85-.32-1.15-.36-.24-.03-.44-.03-.58-.02h-4.36v9.02h1.85v-3.55h1.85c.52,0,.89.07,1.11.3.22.22.3.59.3,1.18v.81c0,.13,0,.26,0,.41,0,.14.02.28.04.4,0,.07.02.15.05.25.04.12.08.21.13.28h2.07v-.22c-.11-.06-.28-.17-.37-.38-.04-.09-.05-.17-.05-.34ZM95.79,28.6c-.22.07-.52.15-.89.15h-2.07v-2.44h2.07c.37,0,.67,0,.89.15.37.22.52.59.52,1.11s-.15.81-.52,1.03Z"/>
    <path d="M106.83,28.63c-.45-.11-.9-.22-1.36-.32-.59-.15-1.03-.3-1.18-.37-.29-.15-.44-.37-.44-.74s.15-.59.44-.81c.3-.22.67-.3,1.18-.3s.81.07,1.11.22c.44.22.67.59.74,1.18h1.85c0-.96-.37-1.7-1.11-2.22-.66-.52-1.48-.74-2.44-.74s-2.07.3-2.66.81c-.59.52-.89,1.18-.89,2s.3,1.55.89,1.92c.37.22,1.04.52,2,.67l.96.22c.59.15.96.3,1.26.44.29.15.37.37.37.67,0,.52-.29.89-.81,1.03-.3.07-.67.15-1.11.15-.74,0-1.33-.22-1.63-.59-.15-.22-.3-.52-.37-.96h-1.77c0,.96.37,1.7,1.04,2.22.67.52,1.63.81,2.81.81s2.07-.3,2.73-.81c.22-.17.39-.36.53-.57.41-.61.44-1.24.43-1.5,0-.2-.02-.53-.19-.91-.2-.44-.51-.68-.66-.8-.25-.2-.47-.29-.71-.4-.24-.11-.58-.23-1-.3Z"/>
    <path d="M114.86,24.76h-1.85v9.02h1.85v-9.02Z"/>
    <path d="M118.11,26.39h2.74v7.39h1.92v-7.39h2.74v-1.63h-7.39v1.63Z"/>
    <path d="M133.86,24.76l-1.77,3.92-1.92-3.92h-2.22l3.11,5.69v3.33h1.92v-3.33l3.03-5.69h-2.14Z"/>
    <path d="M17.5.01c3.68.3,4.41,4.22,4,7.22-.38,2.82-1.42,5.58-3.34,7.7.24.21,1.74.92,1.93.8.12-.07.48-1.06.59-1.28,1.28-2.52,4.3-6.67,6.99-7.7s5.38.12,6.13,2.91c1.2,4.47-4.7,7.32-8.28,7.83-1.53.22-3.03.11-4.55-.07-.32,1.02-.51,2.08-.59,3.15l.04.07c2.91.31,5.51,1.7,7.66,3.62s3.77,4.55,2.14,7.31c-1.95,3.3-5.9,2.05-8.07-.29-2.28-2.47-3.03-6.14-3.21-9.39-.12-.13-3.4-.1-3.5.06.02,4.03-1.13,9.14-4.89,11.3-4.39,2.53-8.3-1.9-6.06-6.13,1.05-1.98,4.04-4.44,6.06-5.37,1.06-.49,2.18-.83,3.33-1.02.11-.08-.04-.94-.07-1.13-.05-.25-.51-2.09-.62-2.12-3.33.67-6.85.43-9.82-1.34C1.38,14.95-.3,13.16.04,10.65c.18-1.32,1.33-2.92,2.59-3.39,3.21-1.19,5.87,1.09,7.85,3.33,1.39,1.57,2.59,3.31,3.52,5.19l.12.05c.14,0,1.42-.56,1.6-.67.28-.17-.29-.53-.45-.72-1.92-2.23-3.1-5.08-3.09-8.04h1.33c.11.73.13,1.48.29,2.21.35,1.62,1.22,3.37,2.27,4.64.11.14.81.93.9.9,1.87-1.86,2.91-4.66,3.19-7.26.17-1.59.18-3.58-1.09-4.75-2.12-1.95-5.04.37-4.82,2.86h-1.4c-.02-.9.19-1.8.63-2.59C14.12,1.24,15.55.14,16.9.01c.17-.02.43-.01.6,0ZM31.58,8.48c-1.02-.96-2.56-.86-3.75-.3-1.87.88-4.1,3.85-5.17,5.6-.14.23-1.29,2.22-1.17,2.32,3.17.49,6.7-.11,9.24-2.17,1.73-1.4,2.75-3.67.85-5.46ZM9.35,11.42c-1.46-1.61-3.53-3.77-5.98-2.97-2.19.71-2.56,3.41-1.1,5.07,2.27,2.58,6.5,3.36,9.75,2.79.12-.02.6-.08.62-.18-.86-1.75-2-3.28-3.3-4.71ZM19.03,20.49l.53-3.42c-.88-.27-1.71-.67-2.49-1.14-.77.51-1.61.91-2.49,1.18.29,1.13.69,2.28.73,3.45,1.24-.09,2.48-.19,3.72-.07ZM27.04,25.25c-1.95-1.75-4.02-2.91-6.67-3.23.07.63.06,1.26.14,1.88.36,2.83,1.63,6.2,4.18,7.72,3.29,1.95,6.02-1.23,4.21-4.34-.47-.81-1.18-1.41-1.86-2.03ZM14.04,22.15c-2.47.31-4.8,1.75-6.55,3.45-1.47,1.44-2.95,3.33-1.95,5.48s3.4,1.84,4.97.6c2.7-2.14,3.6-6.25,3.53-9.53Z"/>
  </g>
</svg>