<svg xmlns="http://www.w3.org/2000/svg" width="340" height="58.619" viewbox="0 0 340 58.619"><defs><style>.prefix__cls-1{fill:#fff}</style></defs><g id="prefix__グループ_716" data-name="グループ 716" transform="translate(-1121.586 -349.01)"><g id="prefix__グループ_714" data-name="グループ 714" transform="translate(1197.794 368.663)"><path id="prefix__パス_596" d="M1179.625 357.565c-3.856.074-6.292 1.236-7.877 3.205a9.993 9.993 0 00-2.193 6.287 9.789 9.789 0 002.25 6.818 9.9 9.9 0 007.353 2.939c3.364.069 5.974-.807 7.84-2.879a10.131 10.131 0 002.47-6.733c.046-2.509-.342-4.407-1.654-6.059a10.058 10.058 0 00-8.189-3.578zm4.386 15.857a5.243 5.243 0 01-4.292 2.222 5.947 5.947 0 01-4.811-2.576 9.994 9.994 0 01-1.549-5.818 10.631 10.631 0 011.8-6.291 5.529 5.529 0 019.106.354 11.063 11.063 0 011.558 6.078 9.157 9.157 0 01-1.812 6.031z" class="prefix__cls-1" data-name="パス 596" transform="translate(-1135.544 -357.563)"/><path id="prefix__パス_597" d="M1196.269 357.565c-3.858.074-6.289 1.236-7.882 3.205a9.945 9.945 0 00-2.165 6.287 9.689 9.689 0 002.229 6.818 9.9 9.9 0 007.353 2.939c3.364.069 5.974-.807 7.84-2.879a10.061 10.061 0 002.465-6.733c.051-2.509-.335-4.407-1.654-6.059a10.008 10.008 0 00-8.186-3.578zm4.386 15.857a5.231 5.231 0 01-4.292 2.222 5.976 5.976 0 01-4.812-2.576 10.032 10.032 0 01-1.546-5.818 10.507 10.507 0 011.8-6.291 5.531 5.531 0 019.109.354 10.987 10.987 0 011.546 6.078 9.082 9.082 0 01-1.804 6.031z" class="prefix__cls-1" data-name="パス 597" transform="translate(-1113.916 -357.563)"/><path id="prefix__パス_598" d="M1276.781 357.918c-1.5 0-2.994-.113-2.994-.113v.2a2.6 2.6 0 011.3.506c.494.437.326.921-.055 1.774a28.359 28.359 0 01-2.277 3.729 15.385 15.385 0 01-1.457 2.029s-.841-1.186-2.268-3.4c-1.055-1.643-2.183-3.272-1.88-4 .255-.6 1.268-.637 1.268-.637v-.2a29.072 29.072 0 01-3.465.113 15.491 15.491 0 01-3-.113l-.019.2a2.229 2.229 0 011.029.4 4.284 4.284 0 011.123 1.42c1.151 1.866 4.6 7.845 4.6 7.845s0 1.6.016 1.88c0 1.05-.03 2.482-.087 3.483a3.009 3.009 0 01-.581 2.121 1.762 1.762 0 01-1.14.643v.2a29.7 29.7 0 013.532-.113 24.5 24.5 0 013.366.113v-.2a1.733 1.733 0 01-1.135-.643 2.969 2.969 0 01-.59-2.121c-.055-1-.071-2.433-.071-3.483h.012v-1.916s4.986-7.787 5.622-8.546a2.6 2.6 0 011.806-1.085v-.2a24.421 24.421 0 01-2.655.114z" class="prefix__cls-1" data-name="パス 598" transform="translate(-1015.646 -357.249)"/><path id="prefix__パス_599" d="M1180.04 357.8a24.189 24.189 0 01-2.654.113c-1.5 0-3-.113-3-.113v.2a2.6 2.6 0 011.305.506c.5.437.319.921-.053 1.774a27.764 27.764 0 01-2.277 3.729 13.3 13.3 0 01-1.459 2.029s-.846-1.186-2.268-3.4c-1.053-1.643-2.176-3.272-1.877-4 .253-.6 1.257-.637 1.257-.637v-.2a28.453 28.453 0 01-3.451.113 15.255 15.255 0 01-2.99-.113l-.032.2a2.25 2.25 0 011.032.4 4.184 4.184 0 011.126 1.42c1.149 1.866 4.6 7.845 4.6 7.845v1.88c0 1.05-.014 2.482-.067 3.483a2.988 2.988 0 01-.586 2.121 1.739 1.739 0 01-1.14.643v.2a29.759 29.759 0 013.525-.113 24.673 24.673 0 013.373.113v-.2a1.765 1.765 0 01-1.142-.643 3.067 3.067 0 01-.584-2.121c-.046-1-.071-2.433-.071-3.483h.025v-1.916s4.979-7.787 5.6-8.546a2.611 2.611 0 011.811-1.085z" class="prefix__cls-1" data-name="パス 599" transform="translate(-1144.647 -357.249)"/><path id="prefix__パス_600" d="M1234.485 357.8v.2a2.425 2.425 0 011.241.574c.674.637.244 1.592.1 2.091s-2.353 6.48-2.353 6.48l-2.261 6.14-2.867-7.427-2.479-5.956c-.591-1.62.531-1.9.531-1.9v-.2a25.682 25.682 0 01-2.776.113c-1.847 0-3.313-.113-3.313-.113v.2a2.281 2.281 0 011.928 1.625l6.45 16.372h3.437l5.864-15.777a3.657 3.657 0 01.857-1.542 2.149 2.149 0 011.317-.678v-.2a28.079 28.079 0 01-2.849.113 27.431 27.431 0 01-2.827-.115z" class="prefix__cls-1" data-name="パス 600" transform="translate(-1069.674 -357.249)"/><path id="prefix__パス_601" d="M1213.44 357.8v.2a1.5 1.5 0 011.016.641 3.277 3.277 0 01.508 2.123c.06.995.062 2.431.062 3.481v3.148c0 1.287.032 3.651-.859 5.106-1.312 2.091-3.637 2.082-5.1 2.011a4.627 4.627 0 01-3.9-2.44 11.282 11.282 0 01-.669-4.674v-3.15c0-1.05 0-2.486.046-3.481a3.343 3.343 0 01.529-2.123 1.462 1.462 0 011-.641v-.2s-.991.108-3.468.108a21.084 21.084 0 01-3.017-.108v.2a1.486 1.486 0 011.009.641 3.325 3.325 0 01.517 2.123c.055.995.06 2.431.06 3.486v3.849a9.871 9.871 0 001.031 5.071 6.177 6.177 0 002.576 2.374 10.2 10.2 0 005 1.011 7.823 7.823 0 004.173-1.229 5.467 5.467 0 002-2.174 11.306 11.306 0 00.91-5.129v-3.771c0-1.05.007-2.486.069-3.481a3.232 3.232 0 01.505-2.123 1.49 1.49 0 011.008-.641v-.2s-1.114.113-2.516.113-2.49-.121-2.49-.121z" class="prefix__cls-1" data-name="パス 601" transform="translate(-1096.572 -357.249)"/><path id="prefix__パス_602" d="M1217.053 357.8v.2a1.673 1.673 0 011.1.641 3.1 3.1 0 01.565 2.123c.053.995.064 2.431.064 3.481v5.154c0 1.055 0 2.629-.06 3.63a3.092 3.092 0 01-.558 2.121 1.661 1.661 0 01-1.1.643v.2a27.589 27.589 0 013.387-.113 22.362 22.362 0 013.219.113v-.2a1.692 1.692 0 01-1.1-.643 3.065 3.065 0 01-.543-2.121c-.074-1-.094-2.576-.094-3.63v-5.154c0-1.05.03-2.486.094-3.481a3.012 3.012 0 01.574-2.123 1.6 1.6 0 011.078-.641v-.2a25.962 25.962 0 01-3.348.113 23.944 23.944 0 01-3.278-.113z" class="prefix__cls-1" data-name="パス 602" transform="translate(-1073.898 -357.249)"/><path id="prefix__パス_603" d="M1251.049 357.8v.2a1.647 1.647 0 011.087.641 3.125 3.125 0 01.57 2.123c.048.995.067 2.431.067 3.481v5.154c0 1.055 0 2.629-.062 3.63a3.071 3.071 0 01-.558 2.121 1.662 1.662 0 01-1.092.643v.2a27.193 27.193 0 013.378-.113 22.518 22.518 0 013.226.113v-.2a1.678 1.678 0 01-1.108-.643 3.168 3.168 0 01-.561-2.121c-.051-1-.078-2.576-.078-3.63v-5.154c0-1.05.032-2.486.088-3.481a3.108 3.108 0 01.563-2.123 1.7 1.7 0 011.1-.641v-.2a26.058 26.058 0 01-3.348.113 23.436 23.436 0 01-3.272-.113z" class="prefix__cls-1" data-name="パス 603" transform="translate(-1029.778 -357.249)"/><path id="prefix__パス_604" d="M1195.138 357.729s-.386.294-2.337.294h-11.671c-1.96 0-2.344-.294-2.344-.294h-.143a10.365 10.365 0 01.081 2.05c-.028 1-.081 1.907-.081 1.907h.143a6.592 6.592 0 011.179-1.88 3.12 3.12 0 012.061-.489c.487-.028 1.448-.028 2.408-.023h.949v10.354c0 1.05-.012 2.482-.064 3.483a3.154 3.154 0 01-.561 2.121 1.666 1.666 0 01-1.1.643v.2a27.64 27.64 0 013.4-.113 23.8 23.8 0 013.279.113v-.2a1.649 1.649 0 01-1.094-.643 3.073 3.073 0 01-.568-2.121c-.055-1-.078-2.433-.078-3.483 0-.894.006-1.579.006-1.579l.021-8.775h.864s1.921 0 2.408.023a3.133 3.133 0 012.068.489 6.684 6.684 0 011.172 1.88h.152s-.062-.91-.083-1.907a10.693 10.693 0 01.083-2.05z" class="prefix__cls-1" data-name="パス 604" transform="translate(-1123.743 -357.348)"/><path id="prefix__パス_605" d="M1270.957 357.631s-.386.519-2.342.519h-11.666c-1.96 0-2.344-.519-2.344-.519h-.136a15.347 15.347 0 01.066 2.275c-.023 1-.066 1.907-.066 1.907h.136a6.6 6.6 0 011.169-1.88 3.146 3.146 0 012.068-.489c.487-.028 1.454-.028 2.411-.023h.944v10.358c0 1.05-.012 2.482-.065 3.483a3.081 3.081 0 01-.563 2.121 1.676 1.676 0 01-1.1.643v.2a27.862 27.862 0 013.413-.113 23.607 23.607 0 013.265.113v-.2a1.7 1.7 0 01-1.1-.643 3.128 3.128 0 01-.561-2.121c-.055-1-.067-2.433-.067-3.483V368.2l.021-8.775h.862s1.921 0 2.408.023a3.149 3.149 0 012.073.489 6.771 6.771 0 011.17 1.88h.149s-.053-.91-.073-1.907a12.879 12.879 0 01.073-2.275z" class="prefix__cls-1" data-name="パス 605" transform="translate(-1025.338 -357.475)"/><path id="prefix__パス_606" d="M1221.478 357.8v.2a1.493 1.493 0 011.016.641 3.306 3.306 0 01.519 2.123c.048.995.074 3.194.074 4.249v5.4l-10.117-12.585a16.55 16.55 0 01-1.946.083c-.4 0-.781-.014-1.124-.023a32.986 32.986 0 01-1.392-.09v.2a1.482 1.482 0 011 .641 3.442 3.442 0 01.54 2.123c.027.995.053 2.449.053 3.5v5.25c0 1.055-.011 2.509-.053 3.511a3.4 3.4 0 01-.524 2.121 1.513 1.513 0 01-1.009.643v.2a17.713 17.713 0 012.5-.113c1.395 0 2.525.113 2.525.113v-.2a1.492 1.492 0 01-1.006-.643 3.361 3.361 0 01-.526-2.121c-.042-1-.071-2.456-.071-3.511v-5.26c0-.655.009-1.822.03-2.576l11.57 14.324h1.5a33.728 33.728 0 01-.122-4.506v-6.474c0-1.055.011-3.254.069-4.249a3.275 3.275 0 01.51-2.123 1.513 1.513 0 011.022-.641v-.2a22.855 22.855 0 01-2.527.113 20.665 20.665 0 01-2.511-.12z" class="prefix__cls-1" data-name="パス 606" transform="translate(-1084.987 -357.249)"/><path id="prefix__パス_607" d="M1244.421 371.869a4.155 4.155 0 01-1.4 1.884 4.089 4.089 0 01-2.057.489c-.5.028-2.422.023-2.422.023h-4.157v-6.87c1.073 0 2.992.014 3.973.062a3.329 3.329 0 012.132.522 1.526 1.526 0 01.639 1.009h.2a21.636 21.636 0 01-.117-2.516 19.959 19.959 0 01.117-2.514h-.2a1.531 1.531 0 01-.639 1.013 3.357 3.357 0 01-2.132.522c-.981.044-2.9.071-3.973.071v-6.211h3.456s1.926-.009 2.41.018a4.048 4.048 0 012.078.494 4.506 4.506 0 011.383 1.88h.154s-.087-1.018-.087-2.015a18.607 18.607 0 01.087-1.944h-.154a11.41 11.41 0 01-2.114.073c-.763 0-1.854.048-2.665.048-.023 0-5.752.046-6.418.046a23.82 23.82 0 01-3.281-.113v.2a1.7 1.7 0 011.11.641 3.238 3.238 0 01.574 2.123c.032.995.046 2.431.046 3.481v5.154c0 1.055 0 2.629-.046 3.631a3.143 3.143 0 01-.567 2.121 1.652 1.652 0 01-1.1.643v.2a27.685 27.685 0 013.387-.113l6.126.009h.855c.818 0 1.916.048 2.688.048a11.109 11.109 0 012.107.076h.149a15.9 15.9 0 01-.085-2.036c0-1 .085-2.151.085-2.151z" class="prefix__cls-1" data-name="パス 607" transform="translate(-1058.085 -357.28)"/><path id="prefix__パス_608" d="M1254.515 366.924c-.616-.315-2.854-1.45-4.033-2.181-2.011-1.248-2.357-1.967-2.424-2.918a2.511 2.511 0 012.585-2.684 4.965 4.965 0 013.329 1.05 8.653 8.653 0 012.291 2.551h.282a16.829 16.829 0 01-.085-2.07c0-1.48.085-2.328.085-2.328h-.138s-.212.623-.6.623c-.547 0-1.328-.616-2.7-.951a7.923 7.923 0 00-5.866.517 4.317 4.317 0 00-2.245 4.29 4.271 4.271 0 001.56 2.881 38.405 38.405 0 004.57 2.746c2.449 1.383 3.215 2.059 3.026 3.681-.106.972-1.045 2.677-4.012 2.436a5.987 5.987 0 01-5.14-4.258h-.342a23.112 23.112 0 01.122 2.675c0 1.737-.122 3.159-.122 3.159h.342a1.369 1.369 0 011.1-.639 4.9 4.9 0 012.079.5 9.723 9.723 0 005.429.051 5.175 5.175 0 003.833-4.269 4.8 4.8 0 00-2.926-4.862z" class="prefix__cls-1" data-name="パス 608" transform="translate(-1038.076 -357.388)"/><path id="prefix__パス_609" d="M1251.264 373.938c-.448-.528-3.734-5.156-4.283-5.937.154-.035.312-.071.476-.113 2.44-.6 4.4-2.252 4.4-5.191a4.561 4.561 0 00-3.472-4.579c-1.289-.335-5.924-.184-8.536-.223-2.229-.037-3.029-.09-3.029-.09v.2a1.7 1.7 0 011.112.641 3.164 3.164 0 01.552 2.123c.053.995.074 2.431.074 3.481v5.154c0 1.055-.009 2.629-.051 3.63a3.222 3.222 0 01-.568 2.121 1.68 1.68 0 01-1.1.643v.2a27.492 27.492 0 013.391-.113 23.8 23.8 0 013.265.113v-.2a1.687 1.687 0 01-1.11-.643 3.177 3.177 0 01-.558-2.121c-.048-1-.055-4.506-.055-4.506l1.774-.06 5.055 7.33a.464.464 0 00.382.2h5v-.2a3.01 3.01 0 01-1.355-.494 7.266 7.266 0 01-1.364-1.366zm-9.5-7.208v-7.624s.733-.023 3.082-.023 4.253 1.055 4.317 3.667a3.553 3.553 0 01-2.5 3.686 15.711 15.711 0 01-4.896.294z" class="prefix__cls-1" data-name="パス 609" transform="translate(-1048.251 -357.249)"/><path id="prefix__パス_610" d="M1171.618 375.185a26.245 26.245 0 01-2.861-2.737l-6.195-6.958s6.413-5.558 7.668-6.56a4.71 4.71 0 011.528-.924v-.2c-.87.057-2.008.067-2.911.067-1.994 0-3.159-.067-3.159-.067v.2a3.862 3.862 0 011.075.223c1.675.611-.551 2.325-1.257 2.953 0 0-.82.673-2.194 1.806-1.459 1.2-3.321 2.6-3.615 2.79v-1.526c0-1.05.012-2.486.071-3.481a3.107 3.107 0 01.556-2.123 1.666 1.666 0 011.1-.641v-.2a27.37 27.37 0 01-3.394.113 23.792 23.792 0 01-3.282-.113v.2a1.66 1.66 0 011.1.641 3.124 3.124 0 01.568 2.123c.048.995.071 2.431.071 3.481l.011 5.3v.2c0 1.055 0 2.289-.06 3.281a3.023 3.023 0 01-.57 2.126 1.692 1.692 0 01-1.1.648v.2a27.672 27.672 0 013.4-.113 22.754 22.754 0 013.256.113v-.2a1.7 1.7 0 01-1.1-.648 3.06 3.06 0 01-.556-2.126c-.06-.993-.073-2.227-.073-3.281v-2.613l3.3 3.578 4.69 5.071a.418.418 0 00.324.147h4.9v-.2s-.423.071-1.291-.55z" class="prefix__cls-1" data-name="パス 610" transform="translate(-1154.752 -357.249)"/></g><g id="prefix__グループ_715" data-name="グループ 715" transform="translate(1121.586 349.01)"><path id="prefix__パス_611" d="M1129.437 363.825c-.3.041-.661.31-.59.616.027.221.437.4.68.381a.5.5 0 10-.09-.997z" class="prefix__cls-1" data-name="パス 611" transform="translate(-1112.174 -329.79)"/><path id="prefix__パス_612" d="M1129.8 365.228h-.588l-.7 1.086v-1.086h-.548v2.7h.548v-.794l.2-.314.547 1.108h.608l-.808-1.539z" class="prefix__cls-1" data-name="パス 612" transform="translate(-1113.317 -327.962)"/><path id="prefix__パス_613" d="M1129.874 366.279l-.357-1.05h-.615l.7 1.643v1.059h.545v-1.059l.7-1.643h-.595z" class="prefix__cls-1" data-name="パス 613" transform="translate(-1112.096 -327.962)"/><path id="prefix__パス_614" d="M1131.551 365.6a.752.752 0 00-.287-.283.906.906 0 00-.48-.108 1 1 0 00-.488.108.627.627 0 00-.278.283 1.285 1.285 0 00-.126.457 4.177 4.177 0 00-.035.565 4.037 4.037 0 00.035.556 1.289 1.289 0 00.126.45.641.641 0 00.278.278 1.061 1.061 0 00.488.1.96.96 0 00.48-.1.775.775 0 00.287-.278 1.406 1.406 0 00.124-.45c.016-.156.023-.359.023-.556s-.007-.4-.023-.565a1.4 1.4 0 00-.124-.457zm-.409 1.475a1.462 1.462 0 01-.05.31.356.356 0 01-.11.177.347.347 0 01-.2.058.32.32 0 01-.191-.058.289.289 0 01-.117-.177.9.9 0 01-.053-.31 3.311 3.311 0 01-.018-.453 3.44 3.44 0 01.018-.467 1.007 1.007 0 01.053-.317.346.346 0 01.117-.177.319.319 0 01.191-.044.347.347 0 01.2.044.451.451 0 01.11.177 1.688 1.688 0 01.05.317c0 .126.025.273.025.467s-.022.327-.025.451z" class="prefix__cls-1" data-name="パス 614" transform="translate(-1110.851 -327.99)"/><path id="prefix__パス_615" d="M1130.781 365.682h.6v2.248h.547v-2.248h.586v-.453h-1.73z" class="prefix__cls-1" data-name="パス 615" transform="translate(-1109.652 -327.962)"/><path id="prefix__パス_616" d="M1133.311 365.6a.678.678 0 00-.274-.283.97.97 0 00-.485-.108 1.06 1.06 0 00-.508.108.732.732 0 00-.264.283 1.164 1.164 0 00-.122.457 3.3 3.3 0 00-.032.565 3.192 3.192 0 00.032.556 1.163 1.163 0 00.122.45.754.754 0 00.264.278 1.125 1.125 0 00.508.1 1.028 1.028 0 00.485-.1.7.7 0 00.274-.278 1.349 1.349 0 00.124-.45 2.8 2.8 0 00.034-.556 2.9 2.9 0 00-.034-.565 1.343 1.343 0 00-.124-.457zm-.4 1.475a1.087 1.087 0 01-.058.31.273.273 0 01-.126.177.258.258 0 01-.177.058.346.346 0 01-.207-.058.524.524 0 01-.113-.177 2.454 2.454 0 01-.051-.31c0-.124-.014-.273-.014-.453s.014-.34.014-.467a3.043 3.043 0 01.051-.317.773.773 0 01.113-.177.351.351 0 01.207-.044.259.259 0 01.177.044.322.322 0 01.126.177 1.233 1.233 0 01.058.317v.919z" class="prefix__cls-1" data-name="パス 616" transform="translate(-1108.556 -327.99)"/><path id="prefix__パス_617" d="M1137.4 367.161a.866.866 0 01-.055.324.188.188 0 01-.193.1.2.2 0 01-.2-.1.84.84 0 01-.048-.324v-.081h-.482v.117a1.582 1.582 0 00.019.3.526.526 0 00.108.255.584.584 0 00.218.161.938.938 0 00.354.06.9.9 0 00.618-.184.834.834 0 00.193-.616v-1.946h-.533z" class="prefix__cls-1" data-name="パス 617" transform="translate(-1102.324 -327.961)"/><path id="prefix__パス_618" d="M1137.946 365.229l-.719 2.7h.565l.12-.565h.728l.122.565h.563l-.717-2.7zm.062 1.691l.264-1.22h.009l.266 1.22z" class="prefix__cls-1" data-name="パス 618" transform="translate(-1101.287 -327.961)"/><path id="prefix__パス_619" d="M1139.929 365.739a.453.453 0 00-.12-.255.718.718 0 00-.225-.188.9.9 0 00-.354-.067h-.961v2.7h.556v-1.071h.287a1.218 1.218 0 00.352-.046.888.888 0 00.278-.152.762.762 0 00.175-.253.882.882 0 00.055-.363.745.745 0 00-.043-.305zm-.609.62a.323.323 0 01-.257.1h-.237v-.827h.23a.34.34 0 01.287.108.492.492 0 01.08.315.376.376 0 01-.103.305z" class="prefix__cls-1" data-name="パス 619" transform="translate(-1099.934 -327.961)"/><path id="prefix__パス_620" d="M1139.726 365.229l-.715 2.7h.575l.117-.565h.719l.131.565h.567l-.728-2.7zm.08 1.691l.259-1.22.264 1.22z" class="prefix__cls-1" data-name="パス 620" transform="translate(-1098.972 -327.961)"/><path id="prefix__パス_621" d="M1141.351 367.086l-.673-1.858h-.626v2.7h.5v-1.885l.644 1.885h.644v-2.7h-.5z" class="prefix__cls-1" data-name="パス 621" transform="translate(-1097.621 -327.962)"/><path id="prefix__パス_622" d="M1133.349 368.22a.183.183 0 00.186-.188v-1.682h1.42v1.682a.188.188 0 00.188.188.191.191 0 00.2-.188v-1.682h1.638v1.682a.2.2 0 00.2.188.187.187 0 00.186-.188v-1.682h1.416v1.682a.186.186 0 00.188.188.19.19 0 00.2-.188v-1.875a.2.2 0 00-.2-.2h-2.615v-.83a.2.2 0 00-.188-.193.2.2 0 00-.193.193v.83h-2.633a.2.2 0 00-.193.2v1.875a.186.186 0 00.2.188z" class="prefix__cls-1" data-name="パス 622" transform="translate(-1106.57 -328.346)"/><path id="prefix__パス_623" d="M1133.338 369.083h1.165a.186.186 0 00.193-.184.193.193 0 00-.193-.184h-.972v-.43h.972a.2.2 0 00.193-.188.194.194 0 00-.193-.193h-.972v-.466h.972a.2.2 0 00.193-.2.2.2 0 00-.193-.186h-.972v-.308a.191.191 0 00-.193-.193.2.2 0 00-.191.193v2.156a.183.183 0 00.191.183z" class="prefix__cls-1" data-name="パス 623" transform="translate(-1106.583 -326.243)"/><path id="prefix__パス_624" d="M1136.465 366.553a.192.192 0 00-.2.193v.308h-.965a.189.189 0 00-.188.186.191.191 0 00.188.2h.965v.466h-.965a.186.186 0 00-.188.193.191.191 0 00.188.188h.965v.43h-.965a.184.184 0 00-.188.184.179.179 0 00.188.184h1.163a.18.18 0 00.184-.184v-2.153a.194.194 0 00-.182-.195z" class="prefix__cls-1" data-name="パス 624" transform="translate(-1104.03 -326.243)"/><path id="prefix__パス_625" d="M1136.066 367.864a.2.2 0 00-.092-.161l-.595-.413.595-.416a.19.19 0 00-.207-.319l-.715.5-.728-.5a.193.193 0 00-.218.319l.588.416-.588.413a.206.206 0 00-.085.161.178.178 0 00.085.154l.6.425-.6.414a.2.2 0 00-.051.26.177.177 0 00.168.09.2.2 0 00.1-.025l.728-.5.715.5a.177.177 0 00.094.025.17.17 0 00.168-.09.188.188 0 00-.055-.26l-.595-.414.595-.425a.174.174 0 00.093-.154zm-1.014.342l-.487-.342.487-.345.485.345z" class="prefix__cls-1" data-name="パス 625" transform="translate(-1105.448 -326.281)"/><path id="prefix__パス_626" d="M1138.978 367.916h-5.629a.2.2 0 00-.193.2v3.235a.186.186 0 00.193.188.183.183 0 00.186-.188V368.3h5.255v3.008a.186.186 0 00.188.188.19.19 0 00.2-.188v-3.192a.2.2 0 00-.2-.2z" class="prefix__cls-1" data-name="パス 626" transform="translate(-1106.57 -324.474)"/><path id="prefix__パス_627" d="M1137.86 368.232a.185.185 0 00-.184.186v1.489h-1.689v-.453h1.108a.181.181 0 00.2-.188v-.848a.182.182 0 00-.2-.186h-2.617a.194.194 0 00-.2.186v.848a.193.193 0 00.2.188h1.121v.453h-1.7v-1.489a.187.187 0 00-.193-.186.194.194 0 00-.189.186v1.682a.2.2 0 00.189.188h1.889v.453h-1.962a.2.2 0 00-.191.193.186.186 0 00.191.188h2.162a.192.192 0 00.188-.188v-.646h1.873a.191.191 0 00.188-.188v-1.687a.186.186 0 00-.184-.181zm-3.205.841v-.464h2.256v.464z" class="prefix__cls-1" data-name="パス 627" transform="translate(-1106.194 -324.064)"/><path id="prefix__パス_628" d="M1150.9 349.01a29.31 29.31 0 1029.306 29.311 29.322 29.322 0 00-29.306-29.311zm20.257 49.563a28.633 28.633 0 118.392-20.253 28.572 28.572 0 01-8.388 20.253z" class="prefix__cls-1" data-name="パス 628" transform="translate(-1121.586 -349.01)"/><path id="prefix__パス_629" d="M1150.021 349.686a27.762 27.762 0 1027.771 27.757 27.755 27.755 0 00-27.771-27.757zm19.339 47.086a27.349 27.349 0 118-19.329 27.281 27.281 0 01-8.001 19.329z" class="prefix__cls-1" data-name="パス 629" transform="translate(-1120.71 -348.133)"/><path id="prefix__パス_630" d="M1127.618 363.4l-1.526-.13-.637-.781 2.363-1.4.06-.785-2.8 1.714-1.642-2.042-.074.839 1.992 2.4-2.172-.175-.038.592 4.429.368z" class="prefix__cls-1" data-name="パス 630" transform="translate(-1119.562 -334.79)"/><path id="prefix__パス_631" d="M1128.144 361.186l.177-.579-1.725-.507-2.06-2.383-.2.682 1.678 1.835-2.412.61-.213.673 3.036-.848z" class="prefix__cls-1" data-name="パス 631" transform="translate(-1119.249 -337.71)"/><path id="prefix__パス_632" d="M1125.751 359.935a2.507 2.507 0 001.689.354 2.259 2.259 0 001.574-2.93 2.79 2.79 0 00-1.22-1.252 2.375 2.375 0 00-1.528-.368 2.009 2.009 0 00-1.516 1.149 1.98 1.98 0 00-.131 1.893 2.609 2.609 0 001.132 1.154zm-.517-2.81a1.367 1.367 0 01.97-.745 1.876 1.876 0 011.3.269 2.434 2.434 0 01.967.956 1.236 1.236 0 01-.078 1.289 1.385 1.385 0 01-1.036.8 2.373 2.373 0 01-2.27-1.36 1.456 1.456 0 01.146-1.209z" class="prefix__cls-1" data-name="パス 632" transform="translate(-1117.888 -340.3)"/><path id="prefix__パス_633" d="M1126.926 355.61l2.9 2.634.417-.462-2.922-2.625 1.005-1.113-.375-.355-2.432 2.679.393.355z" class="prefix__cls-1" data-name="パス 633" transform="translate(-1116.478 -342.937)"/><path id="prefix__パス_634" d="M1129.322 357.159a2.084 2.084 0 001.707-.386 2.023 2.023 0 00.915-1.629 2.853 2.853 0 00-1.776-2.615 2.045 2.045 0 00-1.875.4 1.974 1.974 0 00-.91 1.666 2.752 2.752 0 00.537 1.521 2.568 2.568 0 001.402 1.043zm-.687-3.819a1.421 1.421 0 011.19-.269 1.948 1.948 0 011.071.8 2.439 2.439 0 01.474 1.278 1.237 1.237 0 01-.607 1.14 1.354 1.354 0 01-1.268.287 1.992 1.992 0 01-1.043-.79 2.15 2.15 0 01-.466-1.39 1.471 1.471 0 01.649-1.056z" class="prefix__cls-1" data-name="パス 634" transform="translate(-1114.063 -344.554)"/><path id="prefix__パス_635" d="M1131.693 355.394a1.561 1.561 0 001.7.342 1.6 1.6 0 001.248-1.225 3.242 3.242 0 00-.143-1.275l-.747-2.4-.588.179.811 2.638a1.675 1.675 0 01.076.772 1.08 1.08 0 01-.864.813.965.965 0 01-1.016-.2 1.759 1.759 0 01-.4-.719l-.79-2.638-.6.175.729 2.4a2.752 2.752 0 00.584 1.138z" class="prefix__cls-1" data-name="パス 635" transform="translate(-1110.165 -346.635)"/><path id="prefix__パス_636" d="M1133.812 355.173l-.206-3.6 2.441 3.478.685-.04-.24-4.447-.566.027.184 3.6-2.412-3.478-.718.036.24 4.452z" class="prefix__cls-1" data-name="パス 636" transform="translate(-1106.8 -346.992)"/><path id="prefix__パス_637" d="M1136.52 350.732l-.6-.072-.554 4.425.6.072z" class="prefix__cls-1" data-name="パス 637" transform="translate(-1103.707 -346.868)"/><path id="prefix__パス_638" d="M1137.646 355.732l2.818-3.8-.641-.2-2.3 3.281-.146-4-.639-.193.28 4.73z" class="prefix__cls-1" data-name="パス 638" transform="translate(-1101.917 -346.663)"/><path id="prefix__パス_639" d="M1141.121 357.154l.247-.462-2.347-1.306.732-1.319 2.141 1.189.249-.449-2.136-1.189.644-1.189 2.323 1.284.26-.476-2.823-1.566-2.166 3.9z" class="prefix__cls-1" data-name="パス 639" transform="translate(-1099.967 -345.558)"/><path id="prefix__パス_640" d="M1140.481 356.712l1.278-1.413 1.011.892a1.468 1.468 0 01.313.418.634.634 0 01-.151.65l-.483.57a2.527 2.527 0 00-.213.28c-.023.053-.039.1-.062.142l.547.508.067-.08a.405.405 0 01.041-.333 1.916 1.916 0 01.23-.306l.382-.453a1.039 1.039 0 00.264-.512.858.858 0 00-.092-.48 1.117 1.117 0 00.613.014 1.183 1.183 0 00.574-.377 1.091 1.091 0 00.241-1.19 2.1 2.1 0 00-.505-.666l-1.5-1.365-3.005 3.293zm2.649-2.911l1.069.963a1.666 1.666 0 01.294.386.64.64 0 01-.2.71.651.651 0 01-.591.292 1.049 1.049 0 01-.6-.315l-.995-.91z" class="prefix__cls-1" data-name="パス 640" transform="translate(-1097.654 -343.819)"/><path id="prefix__パス_641" d="M1142.57 358.246a1.123 1.123 0 01-.2-1.087 1.265 1.265 0 01.411-.494l-.317-.466a1.441 1.441 0 00-.69 1.011 1.772 1.772 0 00.36 1.291 2.413 2.413 0 00.945.827 1.141 1.141 0 001.179-.159 1.033 1.033 0 00.512-.852 1.814 1.814 0 00-.131-.721l-.234-.574a3.661 3.661 0 01-.239-.8.553.553 0 01.246-.485.679.679 0 01.56-.1 1.063 1.063 0 01.6.471 1.107 1.107 0 01.223.947 1.309 1.309 0 01-.356.457l.312.473a1.19 1.19 0 00.628-1.011 1.815 1.815 0 00-.372-1.135 1.473 1.473 0 00-.958-.726 1.3 1.3 0 00-1.048.209.96.96 0 00-.457.813 2.378 2.378 0 00.22.834l.214.556a2.406 2.406 0 01.189.733.6.6 0 01-.322.471.666.666 0 01-.834-.051 1.556 1.556 0 01-.441-.432z" class="prefix__cls-1" data-name="パス 641" transform="translate(-1095.413 -341.125)"/><path id="prefix__パス_642" d="M1142.954 359.418l4.042-1.867-.242-.561-4.062 1.872z" class="prefix__cls-1" data-name="パス 642" transform="translate(-1094.195 -338.653)"/><path id="prefix__パス_643" d="M1143.22 360.658l.152.583 3.774-1.059.413 1.45.516-.144-.985-3.483-.5.139.4 1.45z" class="prefix__cls-1" data-name="パス 643" transform="translate(-1093.51 -337.335)"/><path id="prefix__パス_644" d="M1143.562 362.129l.036.6 1.8-.121 2.773 1.495-.038-.7-2.235-1.135 2.053-1.418-.061-.709-2.524 1.872z" class="prefix__cls-1" data-name="パス 644" transform="translate(-1093.066 -334.57)"/><path id="prefix__パス_645" d="M1127.368 368.441l-.915-1.992 1.225-.556 1.051 2.257.487-.229-1.295-2.81-4.037 1.863.242.556 1.842-.844.917 1.979z" class="prefix__cls-1" data-name="パス 645" transform="translate(-1118.605 -328.114)"/><path id="prefix__パス_646" d="M1129.393 367.887a1.922 1.922 0 00-1.682-.848 2.789 2.789 0 00-1.514.593 2.671 2.671 0 00-.991 1.418 2.126 2.126 0 00.453 1.7 2.023 2.023 0 001.647.871 2.712 2.712 0 001.631-.618 2.5 2.5 0 00.935-1.271 2.087 2.087 0 00-.479-1.845zm-.087 1.544a1.923 1.923 0 01-.751 1.091 2.44 2.44 0 01-1.266.524 1.227 1.227 0 01-1.156-.565 1.362 1.362 0 01-.336-1.271 1.976 1.976 0 01.749-1.059 2.086 2.086 0 011.386-.515 1.432 1.432 0 011.059.607 1.357 1.357 0 01.315 1.188z" class="prefix__cls-1" data-name="パス 646" transform="translate(-1116.928 -325.616)"/><path id="prefix__パス_647" d="M1131.466 370.377l-1.728 2.148a1.611 1.611 0 01-.6.512 1.091 1.091 0 01-1.151-.257 1.014 1.014 0 01-.413-.951 1.9 1.9 0 01.363-.749l1.737-2.144-.494-.377-1.551 1.946a2.824 2.824 0 00-.623 1.119 1.874 1.874 0 002.392 1.942 2.679 2.679 0 00.972-.853l1.572-1.955z" class="prefix__cls-1" data-name="パス 647" transform="translate(-1114.591 -323.639)"/><path id="prefix__パス_648" d="M1131.841 374.343l-.46-4.2-.644-.3-1.914 4.026.525.247 1.544-3.254.489 4.218.61.3 1.919-4.035-.531-.242z" class="prefix__cls-1" data-name="パス 648" transform="translate(-1112.194 -321.975)"/><path id="prefix__パス_649" d="M1133.913 371.068l-1.74-.363-.926 4.354 1.746.377a1.615 1.615 0 001.755-.669 2.675 2.675 0 00.528-1.19 2.445 2.445 0 00-.122-1.572 1.69 1.69 0 00-1.241-.937zm.74 2.47a2.038 2.038 0 01-.143.448 1.869 1.869 0 01-.4.632 1.129 1.129 0 01-.632.329 1.682 1.682 0 01-.505-.051l-1.027-.214.71-3.348 1.032.214a1.191 1.191 0 01.912.669 2.213 2.213 0 01.053 1.321z" class="prefix__cls-1" data-name="パス 649" transform="translate(-1109.047 -320.854)"/><path id="prefix__パス_650" d="M1134.455 375.016l-.034-1.512 2.455-.027-.016-.521-2.439.036-.013-1.351 2.639-.04v-.539l-3.236.036.056 4.457 3.283-.049-.009-.525z" class="prefix__cls-1" data-name="パス 650" transform="translate(-1105.72 -320.39)"/><path id="prefix__パス_651" d="M1139.061 371.139a1.657 1.657 0 00-1.516-.306l-1.723.425 1.052 4.336 1.723-.43a1.6 1.6 0 001.307-1.356 3.038 3.038 0 00-.05-1.312 2.377 2.377 0 00-.793-1.357zm.2 2.8a1.069 1.069 0 01-.444.584 2.355 2.355 0 01-.451.177l-1.036.246-.807-3.325 1.023-.253a1.2 1.2 0 011.112.2 2.192 2.192 0 01.614 1.172 2.938 2.938 0 01.074.466 1.642 1.642 0 01-.088.732z" class="prefix__cls-1" data-name="パス 651" transform="translate(-1103.112 -320.767)"/><path id="prefix__パス_652" d="M1139.776 369.728a1.014 1.014 0 01.051.726 2.339 2.339 0 01-.593.625l.223.34.864-.551 1.675 2.576.5-.324-2.369-3.626z" class="prefix__cls-1" data-name="パス 652" transform="translate(-1098.682 -322.426)"/><path id="prefix__パス_653" d="M1143.573 369.576a1.157 1.157 0 00-.5.094 1.22 1.22 0 00.062-.46.875.875 0 00-.3-.609 1 1 0 00-.8-.306 1.323 1.323 0 00-.926.444 1.264 1.264 0 00-.473.937 1.113 1.113 0 00.322.841.826.826 0 00.6.287.85.85 0 00.418-.085 1.276 1.276 0 00-.1.7 1.02 1.02 0 00.317.607 1.228 1.228 0 001.016.418 1.625 1.625 0 001.009-.5 1.5 1.5 0 00.531-1.05 1.33 1.33 0 00-.425-.961 1.063 1.063 0 00-.751-.357zm-1.714.74a.579.579 0 01-.5-.193.727.727 0 01-.2-.466.779.779 0 01.26-.545.816.816 0 01.574-.264.723.723 0 01.462.184.765.765 0 01.184.49.713.713 0 01-.269.54.907.907 0 01-.511.253zm2.031 1.271a.873.873 0 01-.675.3.808.808 0 01-.568-.264.8.8 0 01-.255-.623.9.9 0 01.3-.6 1 1 0 01.634-.306.826.826 0 01.634.273.81.81 0 01.244.63.909.909 0 01-.314.589z" class="prefix__cls-1" data-name="パス 653" transform="translate(-1096.863 -323.983)"/><path id="prefix__パス_654" d="M1144.681 367.424a3 3 0 00-1.069-.515 1.316 1.316 0 00-1.454.6 1.257 1.257 0 00-.244 1.119 1.542 1.542 0 00.667.887 1.321 1.321 0 002.126-.848.8.8 0 00-.065-.6 2.541 2.541 0 01.876 1.075.8.8 0 01-.129.728.624.624 0 01-.285.26.674.674 0 01-.7-.062l-.322.443a1.115 1.115 0 00.866.207 1.225 1.225 0 00.827-.6 1.369 1.369 0 00-.069-1.7 3.754 3.754 0 00-1.025-.994zm-.549 1.441a.791.791 0 01-.584.4 1.037 1.037 0 01-.671-.207 1.13 1.13 0 01-.455-.6.928.928 0 01.687-1.05.971.971 0 01.735.209.873.873 0 01.459.648.958.958 0 01-.172.599z" class="prefix__cls-1" data-name="パス 654" transform="translate(-1095.264 -325.827)"/><path id="prefix__パス_655" d="M1145.5 366.946a6.119 6.119 0 01-.763-.993 5.023 5.023 0 01-.413-.8l-.439-.193-1.218 2.764.492.216.981-2.194a9.04 9.04 0 00.786 1.31 7.534 7.534 0 001.9 1.827l.244-.552a9.069 9.069 0 01-.781-.593 5.71 5.71 0 01-.789-.792z" class="prefix__cls-1" data-name="パス 655" transform="translate(-1094.234 -328.306)"/><path id="prefix__パス_656" d="M1165 370.307c-.083-.455-.14-.917-.225-1.369a.221.221 0 01-.016-.076 23.832 23.832 0 00-.46-1.751 19.7 19.7 0 00-38.525 5.781c0 .3.023.609.037.91a19.69 19.69 0 0039.359-.91c0-.418-.039-.836-.067-1.252a3.893 3.893 0 00-.025-.494c-.024-.283-.068-.552-.078-.839zm-.526.825c.3.1.193.4.053.508a.284.284 0 01-.418-.244.251.251 0 01.361-.264zm-.31-1.121c.519.754-.69.211-.853-.1-.15-.311.543-.342.849.1zm-.1 2.415c.1.237-.393.368-.533 0s.246-.683.533 0zm-.784-.862a.4.4 0 01-.629-.388c.073-.29.372-.694.629-.444.432.414.335.611 0 .832zm.487-2.415c-.368.034-.611-.207-.719-.719s.422-.421.719-.1c.278.293.375.782 0 .819zm-.9-4.35c.3.1.184.4.062.508a.286.286 0 01-.42-.248c-.003-.228.121-.336.355-.259zm-.006 1.742c.08-.432.2-.6.455-.188s.542.489.271.924c-.216.356-.589.352-.954.149s.16-.458.224-.885zm-.517 1.422a1.122 1.122 0 01-.011.715.928.928 0 00.143.717c.145.287-.108.418-.225.269a1.413 1.413 0 00-.384-.25.455.455 0 01-.087-.508.769.769 0 00-.082-.655.421.421 0 01.266-.533c.16-.042.296.015.376.245zm.051 2.679c-.062.23-.241.315-.529.221-.4-.108-.489-.687-.156-.79s.738.342.681.569zm-.29-4.393c-.163.381-.623.175-.882.152-.244-.03-.292-.386-.142-.641a.5.5 0 01.607-.292.549.549 0 01.412.781zm-1.749 3.118c-.432.182-.526-.067-.515-.779.014-.733.733-.49.923-.126.266.494.025.731-.411.905zm.271.921c-.172.08-.623.188-.6-.14a.432.432 0 01.6-.381c.443.179.162.455-.003.522zm-9.883.1a2.7 2.7 0 01-1.057-.333 1.656 1.656 0 01-.512-1.252c-.016-.485.042-.977.042-1.342v-.021a.583.583 0 01.489-.356.413.413 0 01.528.386 1.461 1.461 0 00.14.432.789.789 0 00-.216.871c.11.207.381.2.6-.168a.848.848 0 00.117-.448c.025 0 .055.014.06 0 .521-.108.641-.246.88.156s.453.473.784.409a.83.83 0 01.3-.009c-.057.122-.14.234-.188.356-.285.712-.4.774-.71 1a2.463 2.463 0 01-1.26.318zm1.144.781c.058.175-.241.193-.363.26s-.182.237-.483.211-.276-.4-.241-.531a.394.394 0 01.483-.184s.546.081.601.244zm-8.424-1.082a.332.332 0 010 .427c-.083.087-.223.264-.159.372a.31.31 0 01.014.349.275.275 0 00.105.386c.152.076.2.517-.02.584s-.331.381-.2.5a.3.3 0 010 .43c-.126.1-.106.207-.06.381s.1.65-.2.6-.2-.4-.439-.579-.457-.156-.6-.386a.562.562 0 01.08-.813c.328-.26.552-.138.57-.48 0-.345-.2-.5-.4-.393s-.584-.338-.866-.037a.6.6 0 01-1.032-.315c-.237-.811.453-1.238.666-1.073 0 0 .289.253.533.186a.57.57 0 01.643.085.431.431 0 00.7-.31c0-.315.188-.444.152-.8-.011-.349.249-.453.425-.368a.5.5 0 01.159.678c-.128.274-.193.454-.074.575zm-4.768.161c.172-.4.487-.462.653-.358.145.09.159.26-.044.526-.246.326.041.669-.28.726-.308.058-.476-.5-.331-.895zm-.05-1.652c.128-.11.262-.007.411.113.26.243-.064.485-.211.365s-.336-.353-.203-.474zm.538-.529a4.209 4.209 0 00-1.117.09.338.338 0 00-.092.526 1.021 1.021 0 01.241.487 1.9 1.9 0 01-.628-.264 11.394 11.394 0 01-.51-.223 1.325 1.325 0 00.041-.193c.026-.377-.115-.97.166-1.285s.673-.448.809-.237a.64.64 0 01.06.11c-.032.014-.06.023-.1.041-.368.211-.579.758-.235.825a.828.828 0 00.756-.391.846.846 0 00.556.172 1.356 1.356 0 001.124-.531.492.492 0 01.74-.048c.009.025.041.048.076.076a1.776 1.776 0 01.1.42c-.023.257.016.4.188.5a.611.611 0 00.653-.076s.324-.264.4 0a4.13 4.13 0 01-.05.579v.211h-.019c-.06.411-.161.588-.565.637a4.988 4.988 0 01-1.516-.386 1.043 1.043 0 01-.579-.4c-.174-.277-.309-.578-.502-.64zm-1.284 2.433c-.159 0-.595-.074-.616-.278 0-.2.165-.276.487-.2.647.168.424.487.129.478zm-4.832-1.422a2.4 2.4 0 00-.31.561.242.242 0 01-.377-.037c-.032-.1-.1-.131-.333-.14s-.273-.03-.361-.161a.384.384 0 01.053-.434c.094-.131.3-.136.469-.131a.981.981 0 00.558-.2c.184-.113.372-.165.5 0 .103.158-.021.346-.2.542zm.023 1.829a.471.471 0 01-.669 0c-.191-.2.08-.57.315-.641.214-.076.354-.071.483.085s.016.404-.131.556zm-3.4-3.6c.053.108-.062.211-.159.246a.574.574 0 00-.243.211.308.308 0 01-.285.149c-.122-.014-.122-.108-.241-.253a.394.394 0 010-.462c.081-.152.212-.143.356-.143a.992.992 0 01.572.253zm.014-.928a.227.227 0 01-.23.377c-.281-.041-.287-.292-.352-.455s.166-.371.577.079zm-.6 2.181a.72.72 0 00.528-.269c.2-.175.338-.009.257.115a1.677 1.677 0 00-.115.352.336.336 0 01-.365.17.669.669 0 00-.5.211.332.332 0 01-.459-.08c-.076-.122-.062-.244.094-.361a1.037 1.037 0 01.555-.137zm.267 1.346a.436.436 0 01-.448.306c-.161-.023-.3-.159-.184-.347s.232-.218.459-.207a.189.189 0 01.168.249zm-.821 2.123a.645.645 0 01.354-.239c.2-.048.3-.023.358.055a.371.371 0 01-.071.43.7.7 0 01-.547.136c-.184-.041-.188-.273-.098-.381zm.563-.823c-.143.018-.393-.032-.43-.138a.251.251 0 01.1-.329c.126-.085.328-.08.467-.147a1.087 1.087 0 00.305-.253.578.578 0 01.409-.1c.088.018.168.122.133.292a.846.846 0 01-.306.441 1.2 1.2 0 01-.682.236zm.726.356a.41.41 0 01.42-.154c.237.009.305-.048.336-.09a.143.143 0 01.248.09c.016.2-.209.349-.372.427s-.39.218-.574.094c-.173-.11-.087-.289-.062-.365zm.721-1.737c-.3.09-.441-.083-.593-.216a.27.27 0 01.051-.427c.138-.085.207-.232.322-.336a.512.512 0 01.505-.1c.163.044.181.287.191.538a.58.58 0 01-.48.543zm-.28-2.613c-.028-.2.1-.283.266-.269a2.818 2.818 0 01.758.26c.168.145.14.34 0 .593-.159.25-.384.147-.669.179s-.248-.2-.228-.381-.092-.187-.131-.38zm1.052-.921c-.089.234-.37.113-.506.1-.151-.018-.188-.23-.089-.379a.3.3 0 01.349-.165.308.308 0 01.242.446zm-.391-2.737a.33.33 0 01-.469-.345c.021-.239.165-.432.469-.333.424.156.284.572-.003.68zm-.347 1.2c-.014.129.08.156.032.34s-.219.08-.418 0a.57.57 0 01-.25-.682c.06-.25.216-.17.365-.131a.516.516 0 01.268.474zm.319 5.7a.651.651 0 01.515-.508c.26-.048.354.09.376.211a.843.843 0 01-.491.719c-.309.104-.49-.135-.403-.422zm1.013-4.736c-.046-.156.135-.379.4-.062s.333.57.593.763a.388.388 0 01-.166.65c-.239.032-.49.009-.6-.227a4.855 4.855 0 00-.218-.347.436.436 0 01-.057-.358c.039-.175.094-.274.045-.419zm1.142-1.333a3.527 3.527 0 01.56.221c.251.126.184.368-.06.611s-.186.448-.358.542-.3-.207-.26-.363a1.119 1.119 0 00-.147-.6c-.133-.266.096-.468.263-.41zm-1.172 3.516a4.762 4.762 0 00.556-.225c.184-.071.292-.032.333.113s-.113.221-.28.221-.242.108-.333.2a.269.269 0 01-.441.021.207.207 0 01.163-.331zm1.516-.4a.657.657 0 00.386-.434c.014-.122.088-.386.336-.267.356.179-.03.719-.03.719-.076.188-.032.485-.225.5a.837.837 0 01-.558-.11c-.145-.093-.184-.265.089-.409zm1.356-1.351c-.186.143-.492 0-.492 0-.239-.067-.347-.17-.342-.287s.05-.211.243-.3.283-.184.381.028.38.409.208.559zm.3.9c.191.115.1.584-.158.6-.273.009-.259-.29-.186-.485a.214.214 0 01.338-.116zm-1.238 2.252a.675.675 0 01.556-.048c.179.094.265.142.244.237 0 .108-.331.108-.432.184s-.17.154-.3.163-.267-.041-.244-.182c.045-.144.045-.289.17-.356zm.5-1.027a.527.527 0 01.393-.126.8.8 0 01.6.358c.019.154-.1.2-.6.2-.49.001-.49-.339-.398-.434zm.8-3.187a.348.348 0 01.436-.165s.485.067.552.221-.216.17-.319.232c-.12.067-.166.221-.453.188s-.254-.356-.222-.478zm.128-3.155c.092-.255.228-.211.4-.1s.2.705.17.947a.362.362 0 01-.6.193c-.297-.207-.072-.773.025-1.041zm.446 5.372c.2-.126.43-.1.444.053a.437.437 0 010 .234c-.009.207-.03.386-.246.485s-.368.094-.432 0c-.046-.094.025-.225.016-.363a.363.363 0 01.213-.414zm.051 1.647a.781.781 0 00.432-.512c.021-.156.234-.255.308-.08a.982.982 0 01-.055.669.531.531 0 01-.505.34c-.23 0-.4.074-.494-.057s.065-.248.308-.361zm.453-2.452a.422.422 0 01-.478-.2c-.073-.119-.025-.227.069-.372a.247.247 0 01.34-.119l.485.179c.159.034.131.2-.05.241s-.175.195-.375.271zm-.2-2.181c.03-.416.246-.712.609-.632.57.113.5.471.237.731s-.861.328-.855-.099zm.774-2.962c.287.076.287.441 0 .74-.255.306-.409-.044-.381-.391s.175-.416.375-.349zm.122-1.54c.3-.391.921.14 1.165.462.232.283-.03.565-.786.584s-.672-.655-.384-1.045zm.74 2.514c.4.023.232.444.166.82-.287 1.3-.623.108-.623.108-.581-.505.049-.959.451-.928zm-.356 3.693c.092-.214.234-.2.388-.138.26.1.327.377.062.533s-.539-.193-.456-.395zm2.36-4.545a.474.474 0 01-.752.175c-.294-.221-.02-.574.062-.781s.391-.175.583.014a.447.447 0 01.101.592zm.064 3.585c-.034.432-.393.45-.632.267s-.1-.9-.071-1.218c.044-.308.253-.317.476-.129.301.268.26.65.221 1.079zm-.466-2.679a.322.322 0 01.168.545c-.152.193-.4.264-.568.014-.268-.381.106-.644.394-.56zm-.094 4.01a.387.387 0 01.526.407c0 .278-.209.377-.425.466a.453.453 0 01-.554-.308c-.057-.279.166-.447.446-.566zm1.346-3.605c-.363.062-.39-.623-.266-1.041.14-.418.505-.471.692-.1a.76.76 0 01-.432 1.14zm-.1 2.5a.434.434 0 01.048-.616c.161-.053.292.014.342.221.088.276-.2.55-.4.398zm3.989-3.488c.434.657-.319 1-.708.974s-.021-.57.05-.933c.079-.35.421-.396.648-.038zm-.365-1.857c.29-.234.5.2.628.551.158.386.11.427-.338.466s-.412-.122-.439-.4-.153-.377.139-.614zm-.409 3.189a.283.283 0 01.2.365c-.06.175-.232.193-.439.175a.273.273 0 01-.168-.423c.093-.157.254-.138.393-.113zm-1.172-1.631c-.528.062.044-.894.237-1.181s.43-.152.547.25c.201.79-.245.866-.794.934zm.529 1.268c-.151.319-.485.292-.848-.156s.526-.731.8-.634.219.403.038.794zm-.225 1.925a.338.338 0 01-.478-.368c.007-.25.174-.457.478-.349.447.165.297.604-.01.721zm-.848 1.243c.4.131.253.521.083.659a.381.381 0 01-.563-.312c-.01-.31.162-.45.47-.342zm-.368-1.691c.147-.055.271.018.333.216.087.278-.207.551-.4.407a.431.431 0 01.057-.619zm.361-.74a.242.242 0 01-.315-.243c.014-.156.1-.221.315-.221.232 0 .335.186.292.3-.022.104-.135.127-.302.168zm-.039-3.977c-.676-.147-.574-.409-.372-.781s.579-.542.843-.322c.7.636.201 1.256-.481 1.107zm-.232.476c.2 0 .345.122.423.372a.426.426 0 01-.285.545.5.5 0 01-.584-.211.493.493 0 01.115-.57.541.541 0 01.32-.132zm1.877 8.208c-.165.145-.271-.076-.3-.2-.016-.12.085-.345.223-.3.288.085.242.361.067.503zm.03-1.937c-.055-.207-.027-.563.212-.414a.547.547 0 01.135.777c-.157.084-.297-.158-.357-.36zm.331-1.034c-.478.092-.483-.29-.386-.59.055-.3.209-.441.448-.356a3.138 3.138 0 01.393.23c.219.138.01.625-.465.719zm.712-2.031a.354.354 0 01.641-.046c.232.517-.283.894-.724.825-.435-.059-.116-.436.073-.776zm3.5-2.181a.788.788 0 01-.267.882c-.152.126-.257-.152-.315-.466v.009a.372.372 0 00-.533-.3c-.462.166-.554-.494-.512-.928.051-.418.232-.637.512-.561.4.113.3.618.363.786s.294.1.294.1v.009s.367-.125.452.472zm11.048 2.031c.186.239.234.414.081.611-.154.225-.469.17-.692.067a.58.58 0 01-.241-.786c.159-.295.669-.104.846.112zm-.482-1.7c.124-.1.342-.1.361.117.076.218 0 .317-.177.462 0 0-.184.147-.29-.046a.424.424 0 01.099-.525zm-.106 4.164c.154-.17.305-.214.411.051.177.466 0 .758-.356.632-.385-.117-.224-.517-.061-.676zm-.223-.6c-.517.349-.726-.032-.747-.494s.23-.485.563-.4c.472.134.677.541.177.897zm-.363-2.989c-.14.49-.4.156-.758 0s-.2-.453 0-.8c.232-.4.643-.51.956-.124.349.405-.071.437-.204.927zm-1.055-1.243c-.209.085-.5-.117-.441-.315s.232-.232.441-.09c.16.102.198.327-.006.41zm-.046 1.85c.333.025.427.147.515.443a.282.282 0 01-.258.363.584.584 0 01-.652-.381.328.328 0 01.389-.423zm-1.032 3c-.228-.223-.025-.57.2-.492a.945.945 0 01.636 1.4c-.264.607-.641.48-.577.117a1.274 1.274 0 00-.264-1.026zm-.264 2.569c.1-.1.329-.149.386-.009.12.283-.122.421-.343.372s-.118-.266-.049-.364zm-.113-.46c-.2-.11-.053-.3.067-.349.117-.076.349-.046.361.1.024.312-.25.361-.434.248zm1.062-3.683c.039.377-.281.547-.871.358s.055-.97.384-1.041c.283-.088.398.224.481.682zm-1.042 2.029a.694.694 0 01-.5 1.112c-.54.122-.579-.315-.37-.476s.179-.211.37-.565.403-.249.5-.071zm-.8-1.558c0 .255-.228.368-.616.161a.8.8 0 01-.467-.88.449.449 0 01.6-.377c.639.196.497.835.486 1.095zm-1.112-1.8c-.129.113-.384.138-.535.237a1.689 1.689 0 00-.326.333.642.642 0 01-.469.179.271.271 0 01-.214-.324 1.092 1.092 0 01.312-.574 1.582 1.582 0 01.777-.363c.177-.044.469-.018.545.108a.3.3 0 01-.088.403zm-1.3-2.128c.239-.2.411-.023.469.246a.73.73 0 01-.23.938c-.537.333-.384-.191-.384-.191.174-.476-.088-.814.144-.993zm-.163-.71c-.409-.287-.032-.588.246-.749a.472.472 0 01.643.108c.606.556-.488.928-.89.637zm.188-1.174c-.643.053-.567-.262-.282-.836.3-.574.669-.278.905-.08.441.35.01.856-.623.916zm-.267 7.27c.375.34-.115.905-.437.825s-.26-.542-.1-.777c.176-.23.321-.248.537-.048zm-2 .43c-.393-.358.59-1.027.9-1.342s.6 0 .317.253c-.26.255-.377.354-.342.659.084.744-.475.793-.875.429zm-.244-3.89c-.271-.315.069-.542.349-.646a.737.737 0 01.733.161c.177.147.2.43-.131.664a.675.675 0 01-.95-.18zm.972 1.776c-.329.085-.494-.377-.4-.669a.657.657 0 01.558-.391c.363-.062.267.046.577.239s.322.669 0 .669a2.22 2.22 0 00-.733.152zm.793-2.808c-.187.147-.412-.108-.533-.225s.062-.319.152-.489a.3.3 0 01.558.046.615.615 0 01-.175.668zm-.887-3.412c-.474-.057-.37-.646-.235-.956.152-.31.356-.368.721-.225.317.117.425.267.4.678-.048.417-.43.558-.885.507zm.094.809c.4-.028.726-.244.574.529s-.418.6-.793.354c-.356-.246-.661-.466-.595-.749s.441-.116.816-.139zm-.575 1.2s.294.08.317.547a.786.786 0 01-.476.841c-.312.133-.312-.57-.312-.921.018-.349.145-.498.473-.472zm-.694-1.489c-.29.039-.5-.1-.3-.526.223-.425.519-.439.584-.255.412.826-.282.777-.282.777zm-.255 1.305c-.034.3-.055.574-.407.5s-.533-.135-.533-.386.269-.269.31-.522.018-.6.342-.457.306.731.29.862zm-.1 2.137c-.246.221-.519-.287-.462-.71s.289-.519.462-.381a.874.874 0 01.005 1.087zm-.905-3.527a.606.606 0 01-.225-.852c.182-.159.358-.117.556.11.258.311.007.837-.33.738zm-.14 5.2c-.255.145-.3.4-.659.522s-.161-.683.078-1.064c.218-.377.505-.184.646-.028a.359.359 0 01-.06.562zm-1.443-1.059c.136-.124.25-.071.3.078 0 0 .071.1-.085.453a.647.647 0 01-.689.494c-.322-.051-.182-.476.032-.6.247-.128.314-.297.447-.434zm-1.243-.09c-.43-.012-.421-.519-.193-.784.211-.257.34-.253.685-.145a.5.5 0 01.386.542c.005.321-.432.383-.873.379zm-.055-2.957c.211-.2.386-.147.487-.053a.888.888 0 01.06.974.344.344 0 01-.646-.1.776.776 0 01.104-.829zm-.129-.618c-.485.232-.565-.188-.4-.735.186-.549.26-.45.767-.526.437-.058.473.108.542.526s-.417.497-.904.728zm-.65 7.392c0-.182.117-.154.269-.126.124.023.2.165.218.466s-.175.517-.326.508a.223.223 0 01-.191-.324 1.943 1.943 0 00.035-.533zm.312-1.634c-.177-.188.129-.324.368-.441s.278-.094.459.055c.368.3.368.462.308.6-.044.154-.232.078-.59.207s-.354-.232-.54-.429zm.731 1.367c.018-.2.117-.218.26-.3.248-.133.335.023.409.145a.747.747 0 00.365.358c.191.067.3.032.312.269s-.386.292-.551.319a1.121 1.121 0 01-.646-.179c-.213-.144-.165-.418-.144-.62zm.935-.857c-.158-.331-.048-.682.335-.584.331.083.331.262.664.253s.386.184.3.331-.177.08-.524.278a.5.5 0 01-.77-.286zm1.087 1.468c.26-.315.092-.735.448-.862.478-.188.62.108.7.457s.211.535-.393.9-1.016-.179-.75-.503zm.837-1.648a.652.652 0 01-.108-.965c.207-.232.333-.053.418.145 0 0 .076.306.181.655.111.323-.112.449-.486.158zm.427-2.332c.255-.276.531.147.614.4a3.959 3.959 0 01.149.772c.011.315-.122.457-.457.108s-.568-1.014-.301-1.288zm.269 2.812a1.079 1.079 0 00.3-.5c.048-.2.246-.34.342-.2.246.368-.078.754-.365.938s-.401-.105-.272-.245zm3.605 4.92c.212.028.384.227.2.425s-.581.131-.618-.108.101-.352.423-.325zm-.46-2.459c-.142-.225-.115-.409 0-.846s.365-.682.671-.345c.322.328.119 1.036.119 1.036a.487.487 0 01-.785.148zm.2-2.72c.025-.439.191-.65.476-.556.738.246.634.721.259 1.094s-.753-.102-.725-.546zm1.162.485c.147-.253.292-.225.386-.14.717.655-.016 1-.423.9-.38-.099-.092-.513.048-.768zm.051 1.1c.285.08.239.356.06.5-.163.145-.271-.071-.3-.2s.089-.349.25-.31zm-.131 3.722a6.471 6.471 0 01.6-1.441.3.3 0 01.066-.108 3.6 3.6 0 00.46-.06c.535-.108.673-.227.875.168a1.045 1.045 0 001.211.637c-.092.034-.179.062-.278.1a8.738 8.738 0 01-1.464.494 3.186 3.186 0 01-1.294.2c-.048 0-.124 0-.189.012zm2.758-1.721a.512.512 0 01.827-.184.463.463 0 010 .45c-.119.242-.94.081-.817-.275zm.745-1.259c-.3.119-.48-.113-.48-.365.016-.25.184-.466.48-.354.471.156.333.597.009.71zm.145-1.487c-.221-.237.027-.682.409-.328.841.777.375 1.321.115 1.167-.182-.124-.278-.614-.515-.848zm.784 1.464c.347-.188.34-.485.653-.418.218.055.333.23.48.471.163.253-.009.441-.425.414-.444-.023-.786.165-.986 0s-.067-.287.282-.476zm1.062 1.112c.434.113.489.579 0 .561-.519-.014-1 .046-.931-.232s.459-.461.939-.338zm-.253 1.032s.446-.1.581.182c.152.278-.135.453-.57.386s-.203-.518-.003-.578zm.607-7.125c.03-.338-.073-.988.338-.625.434.356 1.011 1.558.1 1.252a.515.515 0 01-.43-.637zm.623 3.573c.427.551.358 1.2-.058 1.255-.388.074-.464-.632-.531-1.094s.381-.442.597-.173zm-.09-1.227c.184-.152.37-.11.558.117.257.319.012.843-.32.74a.6.6 0 01-.23-.867zm.671 2.392c-.018-.453.234-.3.453-.241.333.085.31.485 0 .717s-.417-.026-.445-.486zm.933-4.968c.288.154.329.508 0 .643s-.795-.188-.68-.5c.106-.332.331-.376.687-.152zm.49 1.831c.191.319 0 .54-.538.3a2.564 2.564 0 00-1.156-.113c-.625.009-.574-.453-.31-.528.31-.094.489-.149.779-.234a.943.943 0 011.232.565zm-1.693-3c.151-.053.271.018.342.216.073.278-.225.554-.416.4a.436.436 0 01.081-.629zm-2.443-1.942c.726-.131.8.09.774.322s-.5.108-.48.319c0 .216.437.565.68.324s.7-.347.852 0c.191.363-.384.788-.852.614-.248-.094-.306-.188-.974-.444s-.73-1.019.007-1.147zm-1.517-.588a1.6 1.6 0 00.1-.462.573.573 0 01.416-.363c.168-.037.313.165.455.393a.593.593 0 01-.149.733c-.214.241-.434.165-.636.122a.278.278 0 01-.178-.433zm-.549 3.419c-.4-.053-.756-.363-.512-.524a.7.7 0 01.885-.09c.563.36.05.67-.366.601zm.062-2.907a1.75 1.75 0 00.211.377.38.38 0 01-.115.48.784.784 0 00-.184.609.409.409 0 01-.443.372.291.291 0 01-.237-.372 1.014 1.014 0 01.294-.623.864.864 0 00.151-.692c-.001-.326.268-.336.33-.163zm-.885-1.985c.221-.43.554-.636.641-.4.207.478-.363 1.2-.363 1.2-.292.614-.482-.376-.27-.813zm.354 5.269a.452.452 0 01-.168.866c-.505.032-.777-.505-.565-.786s.355-.306.741-.093zm-.96-6.16a.563.563 0 010 .853c-.375.292-.71.009-.71-.4s.35-.733.717-.466zm-.4 1.8a.329.329 0 01.5.1 1.072 1.072 0 01-.214 1.059c-.308.246-.634.053-.644-.329a.82.82 0 01.361-.844zm.193 2.67c.225.551-.26.588-.5.866s-.666.2-.545-.076a.984.984 0 00.071-.8c-.083-.25-.1-.485.083-.574.329-.188.641.028.89.568zm-1.519-5.246c.342-.211.542-.06.636.1a1.207 1.207 0 01-.31 1.259.462.462 0 01-.788-.372.987.987 0 01.465-1.001zm-1.252-.579a.489.489 0 01.3-.126.4.4 0 01.372.338.387.387 0 01-.25.48.472.472 0 01-.535-.182.449.449 0 01.115-.524zm-.285.924c.134.108.188.287-.018.4s-.3.071-.487-.057c0 0-.193-.149-.037-.3a.433.433 0 01.545-.058zm-1.1-1.4c.379.014.685-.014.724.31a.564.564 0 01-.267.65c-.3.223-.7.506-.818.113s0-1.1.361-1.088zm-.388 1.753c.306.441.092.687-.252 1.011-.361.326-.492-.108-.678-.432s-.163-.494.244-.7c.429-.237.493-.17.685.108zm-.986-2.059c.241 0 .3.062.5.251s.051.427-.129.377c-.211-.057-.437.154-.639.168s-.189-.09-.315-.329.344-.476.583-.476zm-.467 1.248a.306.306 0 01.159.382 3.123 3.123 0 01-.306.508 1.684 1.684 0 00-.078.466.566.566 0 01-.278.416.277.277 0 01-.358-.156.934.934 0 01-.06-.637 1.388 1.388 0 01.411-.745c.115-.153.37-.3.506-.247zm-1.064-1.36c.143-.1.315-.1.375.117s-.016.319-.193.462a.183.183 0 01-.292-.046.435.435 0 01.11-.547zm-.2 4.506c.067-.354.312-.533.561-.349a.581.581 0 01-.156 1.055c-.395.075-.487-.366-.407-.72zm-1.4-2.537s.818-.43.487-.581-.2-.983-.1-1.365a.318.318 0 01.561-.161c.177.124.11.655.085.951a.837.837 0 01-.14.591c-.14.211-.14.191.241.315s-.1.655-.305.813-.372.708-.754.4a.637.637 0 01-.081-.976zm-.825-2.1a.315.315 0 01.593.1.7.7 0 01-.115.756c-.186.191-.344.142-.448.048a.888.888 0 01-.036-.913zm0 1.487a.655.655 0 01-.145.627 1.173 1.173 0 00-.142.983c.067.512-.073.9-.478.547-.436-.354-.533-.749-.375-.995s.244-.611.43-.951.555-.535.695-.22zm-1.188-1.539c.365-.188.423.324.471.6.071.287-.048.363-.2.363-.975-.031-.656-.771-.281-.977zm.32 4.182c.432.517.358.758-.175.692s-1.023-.292-.664-.692a.5.5 0 01.828-.01zm-.977-1.032a6.232 6.232 0 00-.384.655c-.12.2-.258.248-.423.145s-.062-.31.117-.441a.6.6 0 00.182-.466c.023-.31.266-.43.439-.354a.262.262 0 01.058.451zm-.306-2.916c.186.12.207.228.193.462 0 0-.027.237-.241.17a.39.39 0 01-.29-.448c.009-.182.128-.315.328-.193zm-.3 1.448c.4.113.342.489.1.682s-.372-.1-.409-.269.098-.476.303-.423zm-.519 1.6a.278.278 0 01-.416-.244c0-.232.129-.335.361-.26a.278.278 0 01.048.494zm-.652-2.617c.135-.17.459-.358.574.071.039.184.227.616 0 .692a.409.409 0 01-.5-.131.654.654 0 01-.081-.643zm-1.032-.009c.28-.232.5.207.542.462a3.187 3.187 0 01.039.767c-.025.3-.177.414-.439.032-.285-.396-.422-1.051-.149-1.272zm.439 2.59s.062.17.49.453-.131.662-.386.62c-.269-.057-.381-.136-.678.067-.338.2-.818.349-.79-.232s.478-.664.653-.832.628-.402.704-.087zm-1.075-1.884c.628 1.31-.193 1.565-.236 1.193a10.676 10.676 0 00-.276-1.282c-.093-.371.268-.387.504.077zm-.931 4.577c.064-.418.23-.4.411-.48a1.052 1.052 0 011.172.071c.347.239-.055.418-.278.772s-.352-.023-.816.131c-.445.136-.57-.096-.496-.505zm-.147 5.3c-.333.515-.822.179-.965-.117a.548.548 0 01.632-.678c.434.088.586.38.326.78zm-.425-9.573c.057-.154.223-.257.377-.094s.147.269.088.49c0 0-.083.223-.276.115a.427.427 0 01-.196-.525zm-.126 1.45c.152-.168.319-.078.425.085a3.16 3.16 0 01.2.866c-.012.255-.223.345-.547.358-.347.023-.382-.257-.568-.5-.216-.246.027-.358.214-.448.163-.107.107-.219.268-.376zm-.457-1.154a.669.669 0 01-.135.788c-.216.184-.609-.331-.588-.547-.004-.23.545-.517.715-.255zm-.416 2.58c.48.133.65.476.289.807s-.471-.152-.581-.345-.063-.57.284-.476zm-1.165-1.882a.708.708 0 01.676 1.055c-.266.306-.623.391-.793.037-.151-.315-.541-.966.109-1.106zm-.087 3.9a.877.877 0 01-.609.779c-.356.1-.283-.209-.331-.561a1.345 1.345 0 01.161-.825.342.342 0 01.381-.244c.627-.036.436.492.39.835zm-.758-2.909c.315.423.515.937-.03.965s-.6-.315-.588-.593c.044-.689.281-.811.605-.388zm-.446 5.786c.26.156.308.83-.09.68-.342-.133-.558.09-.77-.034-.23-.126-.092-.306.251-.565s.522-.132.601-.098zm-.326-.963c.016.207-.03.37-.464.432s-.145-.512-.051-.871.324-.232.384-.1a1.31 1.31 0 01.123.523zm-1.089-3.7c.143-.246.375-.283.671-.094.418.264.338.951-.074.96s-.762-.641-.606-.884zm.652 1.675a.575.575 0 010 .875c-.386.3-.742 0-.744-.4s.35-.771.74-.493zm-1.149-1.069a.283.283 0 01.053.508.3.3 0 01-.43-.248c-.008-.245.13-.354.369-.278zm-.48 3.3a1.322 1.322 0 00.14-.873c-.094-.4-.053-.512.243-.234a1.4 1.4 0 01.377.593c.14.349.094.556-.345.682-.43.092-.478-.011-.423-.188zm-.142 1.142c.193-.046.23.223.23.5s-.108.273-.374.512-.317-.156-.382-.345a.462.462 0 01.115-.5c.085-.139.189-.139.402-.187zm-1.271-2.842c.126-.216.324-.241.586-.08.368.23.287.829-.071.834a.635.635 0 01-.523-.775zm-.786.993c.182-.26.338-.239.538-.113a.619.619 0 01.225.434c.041.3-.12.375-.375.347s-.372.129-.574.028c-.249-.156.003-.467.178-.717zm-.335 1.4c.241.154.3.489 0 .611s-.751-.17-.657-.471.316-.355.648-.157zm-1.177 1.22c.126-.071.308-.03.476.168a5.933 5.933 0 00.717.65c.237.193.315.221.319.4.025.165-.271.2-.441-.064a.5.5 0 00-.572-.223.643.643 0 01-.577-.347.417.417 0 01.07-.601zm-.7 1.544c.122-.227.416-.193.7 0s.379.526.138.574-.2.352-.354.437-.462-.154-.569-.324a.958.958 0 01.078-.704zm-.126 4.991c-.2-.067-.3-.184-.2-.51a1.219 1.219 0 01.471-.63.163.163 0 01.281.051 2.039 2.039 0 01.1.264.668.668 0 01-.087.363c-.094.138-.026.184-.044.358s-.307.168-.528.087zm.266 1.271c-.115.225-.455.409-.62.584-.182.156-.522.368-.694.211a.432.432 0 01.241-.657c.276-.085.336-.4.556-.542.313-.234.681-.018.513.391zm-.737-4.681c-.025-.207.145-.269.388-.028a4.139 4.139 0 00.349.31c.076.1.154.25.076.345a.489.489 0 01-.425.188c-.243.023-.464-.076-.5-.3-.047-.247.153-.32.105-.532zm-.409 1.6c.156-.138.248-.136.508-.131s.289.253.14.329c-.191.09-.209.354-.333.48s-.163.057-.425-.023c-.248-.096-.058-.525.103-.67zm-.319 1.893c.078-.165.092-.209.271-.232s.161.08.2.188c.016.108.053.1.1.188s-.009.152-.066.207a.332.332 0 01-.317.067.32.32 0 01-.195-.433zm38.4 2.279a19.265 19.265 0 01-38.5.531v-.09a2.77 2.77 0 001.052-.476c.575-.462.807-.453 1.214-.363a1.056 1.056 0 00.958-.193 1.163 1.163 0 01.676-.3 1.792 1.792 0 00.9-.471c.276-.248.625-.545.993-.441a1.626 1.626 0 00.949.073 1.686 1.686 0 00.768-.607 1.589 1.589 0 01.816-.767c.172-.055.492-.09.816-.154.531.154.882.593 1.454.866.616.283 1.177.6 1.776.809a13.955 13.955 0 011.606.588c.5.26.264.09.574.345 0 0 .386.23.342.4a2.473 2.473 0 000 .448c-.087.54-.08.979-.156 1.2a2.548 2.548 0 00-.131.641c-.042.3-.062.444-.1.687a1.739 1.739 0 01-.237.538c-.1.149-.117.512-.278.611a2.018 2.018 0 01-.705.2 2.169 2.169 0 00-.717.161 2.433 2.433 0 01-.749.273c-.273.032-.607.055-.949.09a3 3 0 01-.726.083c-.365-.014-.687-.136-.9-.154a.986.986 0 00-.646.08.322.322 0 00-.147.423.772.772 0 00.581.349 5.029 5.029 0 00.834.064h1.073a5.55 5.55 0 001.224-.083 8.429 8.429 0 011.062-.283 1.808 1.808 0 01.584-.039 3.522 3.522 0 01.653.179c.129.032.733.085 1.055.108a8.048 8.048 0 001 .025l1.39-.138c.713 0 .6-.565.262-.655-.147-.055-.482.067-.682.1a1.48 1.48 0 01-1.022-.264c-.12-.159-.131-.347-.019-.719a1.2 1.2 0 000-.942 1.442 1.442 0 01-.069-.5 1.11 1.11 0 01.193-.471.626.626 0 01.784-.2.391.391 0 01.172.427c-.078.269-.232.3-.259.483s.027.216.108.4.151.329-.039.54c-.266.292-.092.542.163.574a2.486 2.486 0 00.717-.131.564.564 0 00.29-.584c-.016-.237-.271-.292 0-.57s.188-.6.188-.848c-.016-.246.069-.239.145-.512.092-.274-.163-.5-.315-.3-.136.2-.232-.609-.119-.758a1.309 1.309 0 00.273-.48c.085-.241.134-.138.048-.453s-.221-.124-.333-.175c-.274-.117-.177-.683-.083-1.087s.31.023.579.386.267-.476.172-.793.094-.97-.011-1.261a1.169 1.169 0 010-.988 4.194 4.194 0 00.129-1.229.766.766 0 01.836-.283 1.667 1.667 0 01-.03.4 1.551 1.551 0 01-.216.678.591.591 0 00.117.678c.129.053.057.179-.039.34s-.108.324 0 .414c.131.085-.03.057 0 .386s.064.165 0 .5c-.048.352-.1.653.168.648.237 0 .423-.108.5.085s.172.637.361.547a.634.634 0 00.331-.632 10.877 10.877 0 01-.17-1.149 3.368 3.368 0 01.062-.965 1.452 1.452 0 000-.853c-.037-.211-.08-.368-.1-.522a1.35 1.35 0 00.94.273.233.233 0 01-.051.136.64.64 0 00-.1.7c.094.221.476.333.177.666-.225.255-.083.641.287.579.446-.06.607.021.533.336-.094.338.2.4.381.4a.617.617 0 01.361 1.172 2.57 2.57 0 00-.836.308.734.734 0 00-.216.862c.124.193.251.361.078.6a.585.585 0 00-.078.664.606.606 0 01.03.715 1.18 1.18 0 00-.147 1.064c.168.308.358.694.147.857s-.218.1-.565.039-.54.06-.662-.255.243-.243.22-.6-.034 0-.034-.358.294-.692.179-1.121.232-.531.062-.866-.483-.409-.521-.742-.113-.57-.471-.551-.076 1.611-.151 2.16a2.767 2.767 0 00-.046 1.055 1.163 1.163 0 01.085.609c-.035.48-.232.5-.112.735.1.234.007.375-.281.4s-.618.154-.669.4c-.071.257.28.269.485.221.3-.09.761-.221.951-.09a2.177 2.177 0 00.834.326c.381.041.963.126 1.287.149a10.081 10.081 0 002.006-.122 4.543 4.543 0 011.808-.152 5.648 5.648 0 001.285.391 13.235 13.235 0 011.539 0 11.168 11.168 0 001.675.133c.329-.025.689-.062.554-.3s-.34-.207-.767-.377a1.84 1.84 0 00-1.207-.3c-.763.032-.868.168-1.208.126a2.851 2.851 0 01-1.038-.457 2.411 2.411 0 00-1.31-.368 7.531 7.531 0 01-1.666.124 1.746 1.746 0 01-1.135-.721 2.4 2.4 0 01-.168-1.068 4.511 4.511 0 000-1.728 1.825 1.825 0 01.1-.533c.069-.14.232-.565.407-.664a1.841 1.841 0 01.846-.271c.393-.025.816-.156 1.255-.2a18.349 18.349 0 002.767-.565c.558-.216.976-.409 1.388-.568a8.477 8.477 0 011.241-.308c.14.308.618.588 1.477.246 1-.414 1.22-.34 1.595.2a1.581 1.581 0 001.225.777c.533.085.848.032 1.013.425s.319.8.871.71a1.51 1.51 0 01.871.179z" class="prefix__cls-1" data-name="パス 656" transform="translate(-1116.155 -343.581)"/></g></g></svg>
