<?xml version="1.0" encoding="UTF-8"?>
<svg id="_レイヤー_1" data-name="レイヤー_1" xmlns="http://www.w3.org/2000/svg" version="1.1" viewBox="0 0 81.16 81.46">
  <!-- Generator: Adobe Illustrator 30.2.1, SVG Export Plug-In . SVG Version: 2.1.1 Build 1)  -->
  <defs>
    <style>
      .st0 {
        fill: #fff;
      }
    </style>
  </defs>
  <path class="st0" d="M15.41,27.5c.04-.07.09-.07.13,0l.47.96c.04.07.13.14.21.15l1.06.15c.08.01.1.07.04.12l-.77.75c-.06.05-.1.17-.08.25l.18,1.06c.02.08-.04.11-.1.07l-.95-.5c-.07-.04-.19-.04-.26,0l-.95.5c-.07.04-.12,0-.11-.07l.18-1.06c.01-.08-.02-.19-.08-.25l-.77-.75c-.06-.05-.04-.11.04-.12l1.06-.15c.08,0,.18-.08.21-.15l.47-.96Z"/>
  <path class="st0" d="M9.1,25.88c.04-.09.11-.09.15,0l.59,1.12c.04.08.16.16.25.17l1.26.15c.1,0,.12.07.05.14l-.88.91c-.06.07-.1.2-.09.3l.25,1.24c.02.09-.04.13-.12.09l-1.14-.56c-.08-.04-.22-.04-.31,0l-1.1.62c-.09.05-.14,0-.13-.08l.18-1.25c.01-.1-.04-.23-.1-.29l-.93-.86c-.07-.06-.05-.13.04-.15l1.25-.22c.09-.02.2-.1.24-.19l.53-1.15Z"/>
  <path class="st0" d="M16.04,14.97c.04-.07.1-.06.13,0l.4.99c.03.08.12.15.2.17l1.05.22c.08.02.09.08.03.13l-.82.69c-.07.05-.11.16-.1.24l.11,1.07c0,.08-.04.11-.11.07l-.91-.57c-.07-.04-.19-.05-.26-.02l-.98.43c-.07.03-.12,0-.1-.08l.26-1.04c.02-.08-.01-.19-.06-.25l-.72-.8c-.05-.06-.03-.11.05-.12l1.07-.08c.08,0,.18-.07.22-.14l.54-.93Z"/>
  <path class="st0" d="M17.57,4.88c.04-.09.11-.1.16,0l.63,1.16c.05.09.17.17.27.18l1.31.14c.1,0,.12.08.06.15l-.9.96c-.07.07-.11.21-.09.31l.28,1.29c.02.1-.04.14-.13.1l-1.19-.57c-.09-.04-.23-.04-.32.01l-1.14.66c-.08.05-.14,0-.13-.09l.17-1.3c.01-.1-.04-.23-.11-.3l-.98-.88c-.07-.07-.06-.13.04-.15l1.3-.24c.1-.02.21-.11.25-.2l.53-1.2Z"/>
  <path class="st0" d="M30.45,4.84c.04-.06.1-.06.12.02l.35.97c.03.07.11.15.18.17l1,.26c.08.02.08.08.02.12l-.82.63c-.06.05-.11.15-.11.23l.06,1.03c0,.08-.05.11-.11.06l-.85-.58c-.07-.04-.18-.06-.25-.03l-.96.37c-.07.03-.12,0-.09-.08l.29-.99c.02-.07,0-.19-.05-.25l-.66-.8c-.05-.06-.02-.12.05-.12l1.04-.03c.08,0,.17-.06.21-.12l.56-.87Z"/>
  <path class="st0" d="M45,14.56c.06-.07.12-.06.14.03l.29,1.14c.02.09.11.18.19.21l1.11.41c.08.03.09.09.01.14l-1,.63c-.08.05-.14.16-.14.25l-.05,1.18c0,.09-.06.11-.13.06l-.9-.75c-.07-.06-.2-.08-.28-.06l-1.13.32c-.09.02-.13-.02-.1-.11l.44-1.09c.03-.08.02-.21-.03-.28l-.65-.98c-.05-.08-.02-.13.07-.12l1.18.08c.09,0,.21-.05.26-.12l.73-.92Z"/>
  <path class="st0" d="M31.89.05c.07-.08.14-.06.16.04l.24,1.29c.01.1.11.21.2.25l1.2.53c.09.04.09.11,0,.16l-1.15.63c-.08.05-.17.17-.17.26l-.13,1.3c-.01.1-.08.12-.15.06l-.96-.9c-.07-.07-.21-.11-.3-.09l-1.28.28c-.1.02-.14-.03-.1-.12l.56-1.19c.04-.09.04-.23-.02-.31l-.66-1.13c-.05-.08,0-.14.09-.13l1.3.17c.1,0,.23-.04.3-.12l.87-.97Z"/>
  <path class="st0" d="M11.22,28.75c-.14,0-.25.13-.24.28,0,.14.13.25.27.24,0,0,.95,0,1.73.12.14.02.27-.07.3-.21.02-.14-.07-.27-.21-.29-.84-.14-1.82-.13-1.85-.13"/>
  <path class="st0" d="M8.59,24.31s-.1,1.05-.1,1.08c.02.14.14.23.28.21.14-.01.24-.15.23-.29v.03c0-.07.05-.57.1-.97.01-.14-.09-.27-.23-.29-.14-.02-.27.09-.29.23"/>
  <path class="st0" d="M14.03,17.12c-1.2.45-2.34,1.41-2.38,1.45-.1.1-.1.27,0,.37.1.1.27.1.37,0,0,0,1.11-.92,2.2-1.33.13-.05.2-.2.15-.33-.05-.13-.2-.2-.33-.15"/>
  <path class="st0" d="M17.5,9.36c-.03.15-1,4.6-1.09,5.17-.02.14.07.27.21.3.14.02.27-.07.3-.21.09-.56,1.08-5.11,1.09-5.14.03-.14-.06-.28-.2-.31-.14-.03-.28.06-.31.2"/>
  <path class="st0" d="M10.83,5.93c-.07.12-.03.28.09.35.07.04,1.79,1.02,4.03,1.08.14,0,.26-.11.26-.25,0-.14-.11-.26-.25-.27-2.1-.05-3.76-1-3.78-1.01-.13-.07-.28-.03-.35.1"/>
  <path class="st0" d="M23.42,6.48c-.27.07-.51.12-.68.15-.76.13-2.2.1-2.22.1-.14,0-.26.11-.26.25,0,.14.11.26.25.26.06,0,1.51.03,2.32-.11.19-.04.44-.09.72-.16.9-.22,2.97-.49,4.34-.37.14.01.27-.1.28-.24.02-.14-.09-.27-.24-.28-1.46-.12-3.57.16-4.51.39"/>
  <path class="st0" d="M29.84,8.47s-.2,1.15-.85,2.57c-.06.13,0,.28.13.34.13.06.28,0,.34-.13.68-1.48.88-2.65.89-2.7.02-.14-.07-.27-.21-.3-.14-.02-.28.08-.3.21"/>
  <path class="st0" d="M32.3,6.95c-.08.12-.05.28.06.36.03.02,3.6,1.71,5.13,4.77.07.13.22.18.35.12.13-.07.18-.22.12-.35-1.6-3.18-5.18-4.88-5.3-4.96-.12-.08-.28-.05-.36.06"/>
  <path class="st0" d="M10.19,17.79c.05-.06.12-.05.16.02l.75,1.44c.04.07.13.14.21.15l1.61.22c.08.01.11.08.06.14l-.88,1.37c-.04.07-.05.18-.02.26l.61,1.51c.03.08-.01.13-.09.13l-1.63-.08c-.08,0-.19.04-.24.11l-1,1.29c-.05.06-.12.06-.16-.02l-.75-1.44c-.04-.07-.13-.14-.21-.15l-1.61-.22c-.08,0-.11-.07-.07-.14l.88-1.37c.04-.07.06-.18.03-.26l-.62-1.51c-.03-.07,0-.14.09-.13l1.63.07c.08,0,.19-.05.24-.11l1-1.29Z"/>
  <path class="st0" d="M38.99,11.63s.09-.05.12,0l.63,1.08c.03.06.11.1.17.11l1.25.11c.06,0,.09.05.06.11l-.62,1.09c-.03.05-.03.14-.01.2l.54,1.14c.02.05,0,.1-.06.1h-1.26c-.06.01-.14.05-.18.1l-.71,1.03c-.03.05-.09.05-.12,0l-.63-1.08c-.03-.06-.11-.1-.17-.1l-1.25-.11c-.06,0-.09-.05-.06-.11l.62-1.09c.03-.05.03-.15,0-.2l-.53-1.13c-.03-.06,0-.1.06-.1h1.26c.06,0,.14-.05.18-.1l.71-1.03Z"/>
  <path class="st0" d="M41.35,14.74c-.08.12-.06.28.06.36.15.11.45.25.8.31.18.03.32-.05.35-.2.04-.19-.11-.29-.27-.31-.19-.02-.41-.1-.58-.22-.12-.09-.28-.05-.36.06"/>
  <path class="st0" d="M41.16,36.96l20.16-20.11h-8.51l-15.9,15.85-2.08-2.08v4.25s-4.38,4.3-4.6,4.46c-.55.45-1.23.73-2,.73-1.72,0-3.11-1.39-3.11-3.11,0-.96.44-1.82,1.12-2.39v-6.51c-4.08.91-7.13,4.55-7.14,8.9,0,5.04,4.09,9.12,9.13,9.12,2.32,0,4.47-.88,6.07-2.31l2.6-2.55,16.02,16.04h8.49l-20.25-20.28Z"/>
  <path class="st0" d="M33.54,16.85h-6.01v21.95c.21.08.43.12.67.12.67,0,1.13-.32,1.4-.58l3.94-3.96v-17.53Z"/>
  <path class="st0" d="M27.54,47.33v9.91h6.01v-11.33c-1.59.94-3.42,1.45-5.31,1.45,0,0-.47-.01-.7-.03"/>
  <path class="st0" d="M66.52,71.29c-.58,0-1.01.02-1.36.07v-1.24c.38.06.82.08,1.35.08h3.03v-.08c0-.22-.01-.42-.03-.61h.48c.48-.25.85-.49,1.31-.9h-3.06c-.46,0-.76.01-1.12.04v-1.11c.33.05.65.06,1.13.06h3.69c.43,0,.65-.01.85-.05l.61.68q-.19.16-.4.33c-.79.68-1.36,1.09-2.23,1.63h0s2.91.01,2.91.01c.55,0,1.04-.02,1.37-.08v1.24c-.32-.04-.8-.07-1.38-.07h-2.9v1.95c0,.39-.03.55-.14.7-.19.28-.57.37-1.57.37-.15,0-.52-.01-1.09-.04-.12-.59-.18-.78-.37-1.18.54.08,1.04.11,1.38.11.49,0,.57-.03.57-.26v-1.65h-3.02ZM67.09,65.78c-.26-.49-.4-.71-.84-1.26l1.12-.33c.39.48.65.88,1.02,1.59h1.18c-.19-.52-.37-.91-.68-1.4l1.16-.32c.46.86.52,1.01.77,1.73h.95c.34-.44.72-1.15.91-1.67l1.2.33c-.26.48-.58.99-.84,1.34h.5c.76,0,.97-.01,1.37-.04-.03.28-.04.5-.04.93v1.04c0,.3.02.58.06.85h-1.21v-1.73h-7.27v1.73h-1.22c.05-.26.06-.51.06-.86v-1.02c0-.4-.01-.64-.04-.93.5.04.57.04,1.32.04h.52Z"/>
  <path class="st0" d="M9.59,71.1c-.85,1.34-1.4,1.92-2.69,2.88-.26-.42-.43-.65-.79-.97.72-.44,1.04-.69,1.46-1.13.41-.42.62-.72.98-1.37l1.04.59ZM10.56,64.89c0-.3-.02-.58-.07-.83h1.38c-.04.22-.07.49-.07.82v.33h3.19c.58,0,.96-.02,1.3-.08v1.26c-.31-.06-.61-.07-1.23-.07h-7.57c-.6,0-.88.01-1.2.07v-1.26c.32.06.74.08,1.34.08h2.92v-.32ZM8.56,70.32c-.49,0-.7.01-1,.03.03-.28.04-.49.04-.88v-1.59c0-.38-.01-.58-.01-.6,0-.01-.01-.07-.02-.16,0-.03,0-.08-.01-.14q.09.01.27.02c.1,0,.46.02.74.02h5.36q.77-.01,1.01-.04c-.03.27-.04.5-.04.9v1.59c0,.39,0,.58.03.88-.26-.02-.58-.03-1.01-.03h-1.95v2.93c0,.86-.37,1.1-1.68,1.1-.18,0-.29,0-.9-.01-.06-.49-.13-.78-.32-1.19.47.07.82.1,1.21.1s.46-.04.46-.23v-2.69h-2.16ZM8.78,69.22h4.93v-1.15h-4.93v1.15ZM13.82,70.52c.43.65.66.92,1.1,1.33.46.42.8.66,1.54,1.06-.34.36-.55.64-.79,1.07-.77-.52-1.09-.8-1.66-1.38-.46-.49-.69-.78-1.16-1.45l.97-.63Z"/>
  <path class="st0" d="M19.13,68.37c-.57,0-.86.01-1.18.07v-1.17c.31.06.58.07,1.18.07h.9v-1.07h-.58c-.46,0-.72.01-1.05.06v-1.15c.3.04.53.05,1.05.05h.58v-.27c0-.35-.02-.6-.06-.9h1.29c-.05.26-.07.5-.07.9v.27h.23c.39,0,.57-.01.8-.05v.86c.38-.66.6-1.14.72-1.53l.99.59c-.01-.33-.01-.43-.04-.71.3.02.52.03.98.03h1.78c.47,0,.68-.01.92-.06l.52.77c-.1.22-.11.25-.18.45-.07.16-.38.91-.5,1.22-.02.06-.13.3-.31.69-.07.15-.18.4-.31.72.51.65.71.97.95,1.53.21.5.31.97.31,1.4,0,.85-.3,1.39-.9,1.63-.35.14-.66.18-1.52.18-.04-.63-.1-.86-.3-1.24.34.02.46.03.59.03.63,0,.89-.18.89-.61,0-.37-.06-.76-.16-1.08-.21-.66-.5-1.12-1.11-1.74.49-.95.85-1.84,1.15-2.82h-1.57v7.38c0,.6.02,1.07.07,1.47h-1.32c.05-.31.07-.73.07-1.49v-7.59c-.09.14-.1.17-.19.33-.36.66-.76,1.27-1.14,1.76h.1c.34,0,.64-.02.9-.05v1.12c-.29-.03-.59-.04-1.08-.04h-.8c-.34.37-.53.56-.83.84h1.32c.43,0,.68-.01.91-.05-.02.3-.03.52-.03,1.19v2.65c0,.51.01,1.02.04,1.32h-1.17v-.56h-1.88v.58h-1.2c.04-.28.07-.68.07-1.24v-2.31c-.27.2-.41.29-.77.53-.19-.5-.32-.74-.63-1.08.97-.47,1.84-1.07,2.72-1.87h-1.17ZM20.1,70.99h1.89v-.87h-1.89v.87ZM20.1,72.8h1.89v-.91h-1.89v.91ZM21.3,67.33c.33-.39.6-.75.79-1.05-.2-.02-.32-.02-.53-.02h-.35v1.07h.09Z"/>
  <path class="st0" d="M32.68,70.94c-.18.23-.28.36-.58.68-.22-.32-.39-.52-.64-.77-.2,1.63-.5,2.57-1.09,3.49-.37-.56-.52-.75-.89-1.09.34-.57.49-.91.64-1.47.22-.87.35-2.12.35-3.71,0-.45-.02-.86-.06-1.23.43.05.77.06,1.27.06h1.15c-.11-.41-.17-.55-.38-.95h-.95c-.59,0-.82.01-1.14.04v-1.2c.3.04.65.07,1.21.07h2.73v-.11c0-.23-.02-.45-.06-.7h1.37c-.04.23-.07.43-.07.7v.11h2.73c.58,0,.94-.02,1.26-.07v1.2c-.32-.03-.6-.04-1.19-.04h-.86c-.22.49-.28.61-.47.95h1.47c.6,0,.93-.01,1.25-.06v1.14c-.36-.04-.67-.06-1.25-.06h-6.89c0,1.29-.02,1.75-.1,2.6.31-.31.54-.6.78-1.05.26-.47.36-.71.58-1.43l1.12.26q-.11.28-.24.6h1.25c0-.35-.01-.52-.04-.71h1.27c-.03.23-.05.39-.05.71h2.01c.55,0,.79,0,1.07-.06v1.18c-.32-.03-.57-.04-1.08-.04h-1.99v.88h1.67c.52,0,.72-.01,1-.04v1.09c-.32-.03-.51-.04-1-.04h-1.67v1.08h2.52c.45,0,.78-.02,1.06-.06v1.19c-.33-.04-.67-.07-1.09-.07h-6.18c-.38,0-.68.01-1.07.06v-1.18c.28.05.57.06,1.05.06h2.55v-1.08h-1.29c-.4,0-.71.01-1.02.04v-.97ZM33.26,69.98c-.19.36-.3.56-.51.85.22.02.48.03.95.03h1.3v-.88h-1.74ZM35.79,66.9c.2-.37.28-.55.42-.95h-2.5c.18.38.25.56.38.95h1.69Z"/>
  <path class="st0" d="M43.14,68.47c-.51,0-.8.01-1.15.06v-1.06c.31.03.6.04,1.15.04h1.35c-.17-.36-.29-.61-.41-.83h-1.2c-.55,0-.97.02-1.33.06v-1.12c.34.04.7.07,1.27.07h.36c-.21-.39-.35-.57-.76-1.04l1.11-.42c.38.52.53.79.86,1.46h.64v-.79c0-.34-.02-.65-.06-.87h1.21c-.02.2-.03.45-.03.82v.84h.79v-.84c0-.36-.01-.61-.03-.82h1.22c-.03.21-.06.51-.06.87v.79h.7c.39-.56.6-.95.8-1.49l1.15.42c-.27.45-.45.73-.69,1.07h.31c.58,0,.92-.02,1.26-.07v1.12c-.35-.03-.78-.06-1.33-.06h-1.11c-.21.45-.26.55-.41.83h1.29c.55,0,.82-.01,1.15-.04v1.06c-.34-.04-.62-.06-1.15-.06h-2.91v.54h2.33c.5,0,.84-.01,1.15-.06v1c-.31-.05-.66-.06-1.15-.06h-2.33v.56h3.11c.64,0,1.02-.02,1.35-.07v1.11c-.41-.04-.82-.07-1.34-.07h-2.24c.38.32.88.62,1.52.89.71.3,1.29.46,2.32.63-.31.42-.45.67-.63,1.14-1.87-.51-3.13-1.19-4.14-2.21.03.42.03.52.03.79v.55c0,.47.02.79.08,1.11h-1.31c.04-.32.07-.67.07-1.12v-.53c0-.26,0-.3.03-.76-.52.54-.93.86-1.6,1.23-.71.39-1.39.68-2.27.94-.18-.39-.39-.72-.68-1.07,1.63-.35,2.75-.84,3.65-1.58h-2.07c-.52,0-.93.02-1.35.07v-1.11c.36.05.74.07,1.34.07h2.95v-.56h-2.21c-.49,0-.82.01-1.14.06v-1c.31.04.64.06,1.14.06h2.21v-.54h-2.79ZM47.51,67.51c.17-.32.26-.52.37-.83h-2.54c.16.34.22.5.34.83h1.84Z"/>
  <path class="st0" d="M59.05,67.94c.28,1.01.87,2.11,1.6,2.96.82.95,1.75,1.59,3.08,2.14-.38.45-.54.69-.82,1.3-1.19-.62-1.96-1.2-2.75-2.07-.73-.78-1.27-1.68-1.68-2.73-.33,1.16-.92,2.13-1.82,3.03-.76.76-1.56,1.29-2.66,1.77-.19-.43-.42-.78-.78-1.18.8-.33,1.25-.57,1.8-.96,1.49-1.07,2.24-2.34,2.51-4.25h-2.63c-.7,0-1.03.02-1.39.08v-1.43c.35.06.75.08,1.4.08h2.73c.02-.56.03-.75.03-1.33,0-.47-.03-.96-.08-1.27h1.47c-.06.4-.07.71-.08,1.46,0,.46-.01.72-.02,1.14h2.95c.63,0,1.02-.02,1.4-.08v1.43c-.44-.06-.78-.08-1.39-.08h-2.89Z"/>
  <polygon class="st0" points="8.18 79.32 7.45 78.06 7.03 78.48 7.03 79.32 6.43 79.32 6.43 76.55 7.03 76.55 7.03 77.71 8.1 76.55 8.92 76.55 7.87 77.64 8.96 79.32 8.18 79.32"/>
  <polygon class="st0" points="10.54 79.32 10.54 78.16 9.52 76.55 10.23 76.55 10.85 77.6 11.46 76.55 12.16 76.55 11.14 78.15 11.14 79.32 10.54 79.32"/>
  <path class="st0" d="M13.11,78.99c-.24-.25-.37-.6-.36-1.04,0-.28.04-.52.13-.71.06-.14.15-.27.26-.38.11-.11.23-.19.36-.25.17-.07.37-.11.6-.11.41,0,.74.13.98.38.25.25.37.61.37,1.05s-.12.8-.37,1.05c-.24.25-.57.38-.98.38s-.74-.13-.99-.38M13.58,78.62c.14.15.31.23.52.23s.38-.08.52-.23c.14-.15.2-.38.2-.69s-.07-.54-.2-.68c-.13-.15-.3-.22-.52-.22s-.39.07-.53.22c-.13.15-.2.38-.2.68s.07.53.21.68"/>
  <polygon class="st0" points="17.09 79.32 17.09 77.06 16.28 77.06 16.28 76.55 18.49 76.55 18.49 77.06 17.69 77.06 17.69 79.32 17.09 79.32"/>
  <path class="st0" d="M20.54,79.37c-.41,0-.74-.12-.99-.38-.24-.25-.37-.6-.37-1.04,0-.28.04-.52.13-.71.06-.14.15-.27.26-.38.11-.11.23-.2.36-.25.17-.07.37-.11.6-.11.41,0,.74.13.98.38.25.25.37.61.37,1.06s-.12.8-.37,1.05c-.24.25-.57.38-.97.38h0ZM20.01,78.62c.14.15.31.23.52.23.21,0,.38-.08.52-.23.13-.15.2-.38.2-.69s-.07-.54-.2-.68c-.13-.15-.31-.22-.52-.22s-.39.07-.53.22c-.13.15-.2.38-.2.69s.07.53.21.68"/>
  <path class="st0" d="M24.44,79.13c-.19-.16-.3-.4-.34-.71v-.03s.58-.06.58-.06v.02c.04.18.1.3.19.38.09.08.22.12.38.12.17,0,.3-.04.38-.11.08-.07.12-.15.12-.24,0-.06-.02-.11-.05-.15-.03-.04-.09-.08-.19-.11-.06-.02-.21-.06-.44-.12-.3-.07-.51-.16-.63-.28-.17-.15-.26-.34-.26-.57,0-.14.04-.28.12-.4.08-.13.2-.22.35-.29.15-.07.34-.1.55-.1.34,0,.61.08.79.23.18.15.27.36.28.62v.03l-.6.03v-.02c-.03-.14-.07-.23-.14-.29-.07-.06-.18-.09-.33-.09s-.28.03-.36.09c-.05.04-.08.08-.08.15,0,.06.02.1.07.14.06.05.23.11.49.18.27.06.47.13.6.2.13.07.24.17.31.29.08.12.11.27.11.45,0,.16-.05.31-.13.45-.09.14-.22.25-.38.31-.16.07-.37.1-.6.1-.35,0-.62-.08-.81-.24"/>
  <path class="st0" d="M29.29,79.32l-.24-.62h-1.05l-.22.62h-.64l1.08-2.78h.62l1.11,2.78h-.66ZM28.19,78.19h.67l-.34-.91-.33.91Z"/>
  <polygon class="st0" points="32.38 79.32 31.32 77.61 31.32 79.32 30.76 79.32 30.76 76.55 31.34 76.55 32.41 78.3 32.41 76.55 32.97 76.55 32.97 79.32 32.38 79.32"/>
  <path class="st0" d="M34.71,79.19c-.22-.12-.38-.3-.49-.53-.11-.23-.16-.47-.16-.73,0-.29.06-.54.18-.77.12-.22.3-.4.53-.52.18-.09.4-.14.66-.14.34,0,.61.07.81.22.2.15.32.35.38.6v.03s-.59.11-.59.11v-.02c-.04-.13-.11-.23-.21-.3-.1-.07-.23-.11-.38-.11-.23,0-.42.07-.55.22-.14.15-.21.36-.21.66,0,.32.07.56.21.71.14.16.32.23.54.23.11,0,.22-.02.34-.07.11-.04.2-.09.28-.15v-.31h-.63v-.51h1.24v1.12h0c-.12.12-.29.22-.51.31-.22.09-.45.13-.67.13-.29,0-.54-.06-.76-.18"/>
  <polygon class="st0" points="38.48 79.32 38.48 78.16 37.46 76.55 38.17 76.55 38.8 77.6 39.41 76.55 40.11 76.55 39.08 78.15 39.08 79.32 38.48 79.32"/>
  <path class="st0" d="M41.13,78.99c-.24-.25-.37-.6-.37-1.04,0-.28.04-.52.13-.71.06-.14.15-.27.26-.38.11-.11.23-.19.36-.25.17-.07.37-.11.6-.11.41,0,.74.13.98.38.25.25.37.61.37,1.06s-.12.8-.37,1.05c-.24.25-.57.38-.98.38s-.74-.13-.99-.38M41.6,78.62c.14.15.31.23.52.23s.38-.08.52-.23c.14-.15.2-.38.2-.69s-.07-.54-.2-.68c-.13-.15-.31-.22-.53-.22-.22,0-.39.08-.53.22-.13.15-.2.38-.2.68s.07.53.21.68"/>
  <path class="st0" d="M46.28,79.28c-.14-.06-.25-.14-.33-.24-.08-.1-.13-.2-.16-.31-.04-.16-.06-.39-.06-.7v-1.48h.6v1.5c0,.23,0,.38.02.45.02.11.07.19.16.25.08.06.2.1.35.1.15,0,.26-.03.34-.09.07-.06.12-.13.13-.22.02-.09.02-.24.02-.46v-1.53h.6v1.46c0,.33-.02.56-.05.7-.03.14-.09.26-.17.35-.08.1-.19.17-.33.23-.14.06-.31.08-.53.08-.26,0-.46-.03-.6-.09"/>
  <polygon class="st0" points="50.69 79.32 49.64 77.61 49.64 79.32 49.08 79.32 49.08 76.55 49.65 76.55 50.72 78.3 50.72 76.55 51.29 76.55 51.29 79.32 50.69 79.32"/>
  <rect class="st0" x="52.45" y="76.55" width=".6" height="2.78"/>
  <polygon class="st0" points="55.03 79.32 54.04 76.55 54.7 76.55 55.37 78.5 56.01 76.55 56.65 76.55 55.66 79.32 55.03 79.32"/>
  <polygon class="st0" points="57.6 79.32 57.6 76.55 59.67 76.55 59.67 77.06 58.2 77.06 58.2 77.61 59.57 77.61 59.57 78.12 58.2 78.12 58.2 78.81 59.72 78.81 59.72 79.32 57.6 79.32"/>
  <path class="st0" d="M62.59,79.32l-.41-.6c-.14-.21-.24-.34-.29-.4-.05-.05-.1-.09-.15-.11-.05-.02-.14-.03-.27-.03h-.08v1.14h-.6v-2.78h1.18c.29,0,.51.02.64.08.14.05.25.14.33.27.08.13.12.28.12.44,0,.21-.06.39-.19.52-.11.13-.27.21-.48.25.09.06.17.13.24.2.08.08.19.23.32.45l.36.57h-.72ZM61.77,77.7c.26,0,.43-.01.48-.03.06-.02.11-.05.14-.11.03-.05.05-.11.05-.19,0-.09-.02-.15-.07-.21-.04-.05-.11-.08-.19-.1-.04,0-.17,0-.4,0h-.4v.64h.38Z"/>
  <path class="st0" d="M64.31,79.13c-.19-.16-.3-.4-.34-.71v-.03s.58-.06.58-.06v.02c.04.18.1.3.19.38.09.08.22.12.38.12.17,0,.3-.04.38-.11.09-.07.13-.15.13-.24,0-.06-.02-.11-.05-.15-.03-.04-.09-.08-.19-.11-.06-.02-.21-.06-.44-.12-.3-.07-.51-.16-.63-.28-.17-.15-.26-.34-.26-.57,0-.14.04-.28.12-.4.08-.13.2-.22.35-.29.15-.07.34-.1.55-.1.35,0,.61.08.79.23.18.15.27.36.28.62v.03s-.6.03-.6.03v-.02c-.03-.14-.07-.23-.14-.29-.07-.05-.18-.08-.33-.08s-.28.03-.36.09c-.05.04-.08.09-.08.15,0,.06.02.1.07.14.06.05.23.11.49.18.27.06.47.13.6.2.13.07.24.17.31.29.08.12.11.27.11.45,0,.16-.05.31-.14.45-.09.14-.22.25-.38.31-.16.07-.36.1-.6.1-.35,0-.62-.08-.81-.24"/>
  <rect class="st0" x="67.29" y="76.55" width=".6" height="2.78"/>
  <polygon class="st0" points="69.86 79.32 69.86 77.06 69.05 77.06 69.05 76.55 71.26 76.55 71.26 77.06 70.46 77.06 70.46 79.32 69.86 79.32"/>
  <polygon class="st0" points="73.16 79.32 73.17 78.16 72.14 76.55 72.85 76.55 73.48 77.6 74.09 76.55 74.79 76.55 73.76 78.15 73.76 79.32 73.16 79.32"/>
</svg>