<svg xmlns="http://www.w3.org/2000/svg" width="212.208" height="47.175" viewBox="0 0 212.208 47.175"><defs><style>.a{fill:#251e1c;}.b{fill:#fefefe;}.c{fill:#2e654b;}</style></defs><path class="a" d="M305.877,17.147a1.287,1.287,0,0,0,1.3,1.012,1.62,1.62,0,0,0,1.535-1.749c0-.919-1.012-2.547-3.994-3.146-.444-.084-.51-.071-.564.031s.044.2.164.368a7.327,7.327,0,0,1,1.562,3.484m-5.09.275a1.269,1.269,0,0,0,1.278.994,1.593,1.593,0,0,0,1.5-1.717c0-.888-.994-2.5-3.928-3.08-.417-.084-.5-.075-.55.027s.044.2.16.359a7.151,7.151,0,0,1,1.536,3.417m-86.77,8.139c-1.269-1.061-1.5-1.092-1.833-1.092-.235,0-.32.129-1.047,1.123-.515.7-.6.8-1.052.8H203.18c-.373,0-.391-.093-.138-.288a52.5,52.5,0,0,0,7.331-6.617,2.277,2.277,0,0,1,1.078-.666c.683-.249.785-.364.865-.586s.035-.715-1.243-1.864C209.641,15.083,209.419,15,209.22,15s-.346.155-.99.914c-.444.533-.626.59-1.038.59h-4.114c-.324,0-.364-.08-.213-.257a7.417,7.417,0,0,1,.63-.741c.311-.28.386-.266.857-.32.337-.036.528-.186.568-.413s-.133-.55-1.837-1.172-1.9-.568-2.028-.413-.222.617-.51,1.123a35.807,35.807,0,0,1-7.589,9.049c-.249.217-.266.377-.231.444s.235.111.493,0a28.2,28.2,0,0,0,5.512-3.5c.133-.107.182-.08.266.049a8.579,8.579,0,0,1,1.447,2.942,1.158,1.158,0,0,0,1.163.941c.133,0,.115.111.049.164a43.19,43.19,0,0,1-9.253,5.925c-.444.222-.506.249-.47.4s.2.2.67.067a54.8,54.8,0,0,0,5.743-1.895c.382-.151.493-.2.493.266v6.453c0,1.185.151,1.3,1.589,1.056,1.158-.2,1.331-.484,1.331-1.016v-.08c0-.444.111-.728.572-.728h8.206c.6,0,.683.173.683.555v.444c0,.936.186,1.025,1.607.808,1.3-.2,1.331-.51,1.331-1.482V28.419a.723.723,0,0,1,.311-.7c.533-.444.6-.577.6-.759,0-.257-.089-.6-1.038-1.4m-14.295-5.929c-.1-.027-.142-.058,0-.173.723-.635,1.22-1.118,1.775-1.686a.8.8,0,0,1,.7-.3h5.13c.444,0,.857-.075.444.475a38.164,38.164,0,0,1-4.309,4.735c-.053.049-.124.058-.115-.036a1.1,1.1,0,0,0,0-.173c0-.852-1.136-2.183-3.63-2.84m11.49,13.607c0,.626-.244.666-.63.666h-8.21c-.484,0-.626-.244-.626-.652V28.046c0-.528.124-.688.55-.688h8.237c.573,0,.679.058.679.688Zm97.377-4.247c0-.173.075-.266.262-.266h9.173c.621,0,.834-.142.919-.359s.049-.555-1.26-1.726c-1.163-1.047-1.234-1.052-1.469-1.052s-.28.036-.954,1.105c-.63.99-.692,1.078-1.2,1.078h-5.2a.231.231,0,0,1-.262-.257v-.706c0-.142,0-.2.111-.266.8-.519.888-.959.888-1.154a.2.2,0,0,0-.058-.16c-.071-.044-.071-.084,0-.115a30.737,30.737,0,0,0,3.4-1.553,1.269,1.269,0,0,1,.985-.249c.55.067.857-.031.95-.262s0-.324-.4-.741c-.16-.164-.16-.213-.035-.293.985-.564,1.283-.79,2.281-1.42a1.718,1.718,0,0,1,1.141-.382c.475,0,.692-.031.8-.32s.027-.612-1.5-1.842c-1.012-.821-1.389-1.007-1.58-1.007s-.271.031-.843.888-.688.843-1.2.843H311.19c-.213,0-.2-.067.062-.257a37.184,37.184,0,0,0,3.107-2.494,1.043,1.043,0,0,1,.737-.306c.617-.1.772-.173.825-.475.075-.444-.324-.7-1.722-1.154-1.172-.386-1.4-.4-1.8-.515s-.644-.058-.781.324c-.5,1.411-1.078,3.107-1.749,4.531-.138.284-.2.346-.444.346h-9.657c-.249,0-.355-.049-.4-.24a7.183,7.183,0,0,0-.377-1.172c-.12-.284-.2-.444-.32-.444s-.244.16-.306.386c-.79,2.916-1.5,2.45-2.219,3.515a1.655,1.655,0,0,0-.1,1.886,1.8,1.8,0,0,0,2.578.328,4.147,4.147,0,0,0,.914-2.929c0-.315.08-.391.311-.391h14.405c.244,0,.226.067.186.2a8.216,8.216,0,0,1-.572,1.5c-.089.164-.169.178-.382,0-.058-.049-.12-.093-.186-.142-.985-.741-1.385-.941-1.58-.941s-.3.027-.945.794c-.564.688-.71.8-1.212.8h-4.336a23.166,23.166,0,0,1-4.482-.284c-.4-.062-.444-.062-.51,0s-.075.155.324.8.488.643.99.612c1.638-.1,1.975-.151,3.359-.151h4.584c.568,0,.586.08.506.2a14.12,14.12,0,0,1-1.376,1.775c-.1.12-.169.142-.271.124-1-.133-1.775-.209-2.428-.266-.444-.044-.541.062-.5.444.062.6.107,1.58.129,2.348,0,.169-.067.262-.253.262h-5.543a21.745,21.745,0,0,1-3.652-.3c-.488-.075-.555-.062-.586-.022s-.075.173.244.732.413.59.91.586c.839,0,1.611-.04,2.7-.04h5.92c.169,0,.253.1.253.28v3.817c0,.306-.169.408-.493.395-1.558-.075-2.392-.111-3.852-.2-.28,0-.413,0-.444.133s.093.191.377.262c2.046.515,3.013,1.1,3.253,2.791.067.444.271.595.759.528,2.885-.373,3.435-.852,3.435-2.84Zm-16.46,3.994c-5.41-2.219-8.507-4.624-10.185-11.095-.036-.213.027-.3.266-.3H291.2c.621,0,.852-.155.945-.4.124-.315.053-.621-1.407-1.935-1.3-1.172-1.385-1.172-1.647-1.172s-.315.04-1.065,1.229c-.706,1.114-.8,1.331-1.309,1.331H281.7c-.217,0-.342-.089-.319-.3.133-1.4.151-2.871.151-4.22,0-.488.067-.444.6-1.021.377-.408.4-.541.4-.759s-.12-.328-1.891-.6a11.822,11.822,0,0,0-1.944-.231c-.315,0-.444.053-.382.8.058.657.093,1.877.093,3.142,0,1-.031,1.957-.1,2.871,0,.222-.151.315-.368.315h-4.882a20.415,20.415,0,0,1-3.275-.222c-.488-.062-.555-.058-.586,0s-.062.142.244.648.391.572.888.568h7.544c.24,0,.333.107.3.359-.8,6.3-3.515,10.513-8.818,13.806-.47.293-.644.444-.541.661s.315.155.71,0c8.374-3.426,10.553-8.09,11.618-13.789.031-.16.231-.213.275.053.888,5.507,2.871,9.763,7.806,13.66.253.2.7.24.768-.328s.324-1.234,2.192-2.534c.368-.257.288-.408-.058-.546M252.032,22.73c.346,0,.4.093.324.444a19.985,19.985,0,0,1-.675,2.281.408.408,0,0,1-.422.32h-1.287a8.013,8.013,0,0,0-1.216,0c-.093.058-.124.253.32,1.842.4,1.433.488,1.531.785,1.544.2,0,.346-.16.51-.479s.191-.444.644-.519a79.663,79.663,0,0,0,9.484-1.913.275.275,0,0,1,.382.164c.124.257.217.524.355.888a1.575,1.575,0,0,0,1.482,1.092c.8,0,1.4-.5,1.4-1.66s-1.225-2.663-5.17-3.288c-.564-.089-.657-.084-.732,0s.036.231.213.386c.75.621,1.252,1.078,1.611,1.442.089.124.1.213-.071.235-2.663.169-4.234.209-6.568.244-.209,0-.262-.107-.089-.293.71-.763,1.425-1.629,2-2.334a.763.763,0,0,1,.719-.386h8.317c.932,0,1.087-.138,1.172-.386s.1-.519-1.212-1.389c-.488-.328-.759-.493-.888-.568s-.138-.16.044-.209c.848-.222.959-.475.959-1.092V16.916c0-.6.022-.666.337-.888a.888.888,0,0,0,.444-.679c0-.382-.115-.444-1.283-1.331-.976-.759-1.181-.848-1.438-.848s-.319.08-.812.63c-.781.888-.825,1.043-1.212,1.043H249.5c-.728,0-.8-.244-2.5-1.012-1.274-.572-1.491-.612-1.624-.528s-.155.1-.115.413a16.619,16.619,0,0,1,.253,2.365v5.325a38.424,38.424,0,0,1-2.428,14.357c-.169.444-.337.683-.213.768s.391-.08.768-.51c3.253-3.723,4.522-7.522,4.7-12.848,0-.306.142-.444.506-.444Zm-3.062-.959c-.568,0-.6-.169-.6-.683v-.936c0-.417.115-.666.541-.666H260.97c.466,0,.51.027.51.191a.916.916,0,0,0,.661.63c.226.058.231.124.164.2s-.146.16-.422.5c-.617.75-.786.781-1.3.781Zm-.6-5.454c0-.342-.062-.639.533-.639h11.982c.444,0,.595.129.595.639V17.9c0,.382-.191.6-.652.6H248.912c-.444,0-.541-.217-.541-.732Zm1.278,18.724a20.982,20.982,0,0,1-3.275-.217c-.488-.062-.555-.062-.586-.022s-.062.142.244.652.386.568.888.564h17.951c.621,0,.834-.146.919-.359.111-.284.049-.55-1.26-1.624-1.167-.963-1.234-.967-1.469-.967s-.28.036-.954,1.012-.692.981-1.2.981h-3.439a.333.333,0,0,1-.364-.359V32.165a.333.333,0,0,1,.364-.351h6.213c.621,0,.834-.133.919-.328s.049-.51-1.26-1.58c-1.167-.959-1.234-.959-1.469-.959s-.275.036-.954,1.007c-.617.888-.688.888-1.2.888h-2.259c-.226,0-.364-.111-.364-.32v-.515c0-.169,0-.24.1-.311.706-.608.79-.857.79-1.083s-.1-.315-.639-.4c-1.007-.155-1.882-.257-2.636-.333-.413-.044-.484.058-.444.408.058.564.115,2.037.115,2.219s-.075.333-.386.333h-2.126a20.414,20.414,0,0,1-3.275-.222c-.488-.062-.555-.058-.586,0s-.062.142.244.648.386.572.888.568H254a.36.36,0,0,1,.386.337V34.69c0,.235-.1.368-.386.368ZM230.486,20.5c0-.382.182-.541.444-.541h8.716c.617,0,.83-.146.914-.359.111-.284.049-.555-1.256-1.726-1.167-1.052-1.238-1.052-1.473-1.052s-.28.036-.954,1.1c-.63.994-.688,1.078-1.2,1.078H230.93a.484.484,0,0,1-.444-.537V15.492c0-.182,0-.257.107-.333.768-.657.888-.972.857-1.172s-.111-.342-.692-.444c-1.087-.173-2.033-.28-2.845-.364-.444-.044-.524.067-.488.444a21.158,21.158,0,0,1,.129,2.885v1.935c0,.377-.173.55-.493.55H221.5a20.925,20.925,0,0,1-3.271-.217c-.493-.062-.555-.062-.586-.022s-.067.142.244.648.386.572.888.568h8.277a.488.488,0,0,1,.493.528v4.713c0,.595-.107.71-.6.71h-2.219A3.774,3.774,0,0,1,222.7,25.2a5.775,5.775,0,0,0-1.993-.759c-.24.142.075.706.075,2.712v8.534c0,1.1.151,1.234,1.589.994,1.2-.2,1.309-.444,1.309-1.012v-.084c0-.444.129-.732.59-.732h9.488c.6,0,.71.178.71.559v.586c0,.763.146.888,1.5.692s1.447-.413,1.447-1.371V28.064c0-.444.031-.533.328-.732.51-.333.643-.533.643-.768s-.2-.6-1.172-1.451c-1.052-.919-1.238-1.047-1.5-1.047s-.444.191-1.07,1.087c-.444.657-.533.768-1.1.768H231.1c-.5,0-.59-.107-.59-.63Zm3.138,6.368c.675,0,.834.155.834.781v5.463c0,.63-.24.786-.626.786H224.3c-.484,0-.63-.253-.63-.661V27.563c0-.528.071-.692.679-.692Z" transform="translate(-106.767 -7.281)"/><path class="a" d="M319.2,80.292c0,1.62.732,2.592,2.294,2.592a2.151,2.151,0,0,0,2.405-2.419V76.7c0-1.141.075-1.367-.754-1.389-.146,0-.373,0-.373-.271s.173-.3.337-.3c.333,0,.759.071,1.185.071s.79-.071,1.083-.071c.124,0,.324,0,.324.28s-.266.271-.444.3c-.71.027-.639.444-.666,1.149V80.46c0,1.642-.71,3.107-3.4,3.107-2.809,0-3.47-1.367-3.47-3.186V76.475c0-.994,0-1.141-.8-1.149-.16,0-.4,0-.4-.271s.142-.3.28-.3c.47,0,1,.071,1.642.071s1.247-.071,1.686-.071a.266.266,0,0,1,.3.3c0,.28-.257.271-.417.271-.8,0-.8.155-.8,1.331Z" transform="translate(-176.07 -41.571)"/><path class="a" d="M387.283,79.2c0-.812,0-.954-.67-.967-.147,0-.333,0-.333-.209s.12-.262.231-.262c.315,0,1.642.062,1.944.062.537,0,2.467-.044,2.991-.044.213,0,.222.071.222.506v.994c0,.146,0,.3-.173.3a.275.275,0,0,1-.222-.178c-.067-.111-.12-.244-.186-.368-.28-.568-.351-.759-1.589-.759-.537,0-.746,0-.857.089s-.111.213-.111.444v1.331c0,.559.093.639.541.639,1.149,0,1.331.058,1.42-.639.044-.249.08-.3.324-.3.173,0,.231.146.231.271,0,.288-.04.577-.04.888s.04.67.04,1c0,.178-.058.257-.231.257s-.271-.28-.337-.5c-.12-.444-.355-.479-1.425-.479-.444,0-.524,0-.524.377v1.82c0,.914.391.945,1.256.945.959,0,1.46-.133,1.828-.976.1-.24.169-.444.351-.444s.182.067.142.444-.111.683-.142,1.194c-.027.244-.049.257-.182.257H388.06c-.324,0-1.265.058-1.465.058s-.306-.075-.306-.257.058-.231.333-.231c.67,0,.67-.155.67-.99Z" transform="translate(-214.871 -43.251)"/><path class="a" d="M434.716,83.507c0,.825,0,.972.71.972.133,0,.3.036.3.24s-.124.231-.235.231c-.342,0-.688-.058-1.331-.058s-1.065.075-1.456.075c-.111,0-.235-.031-.235-.231s.169-.24.324-.24c.67,0,.67-.138.67-.972V79.2c0-.834,0-.954-.67-.967-.133,0-.324,0-.324-.222s.111-.249.235-.249c.368,0,.848.062,1.4.062s1.007-.062,1.371-.062c.111,0,.235.044.235.249s-.209.222-.337.222c-.666,0-.675.133-.675.967Z" transform="translate(-240.562 -43.251)"/><path class="a" d="M360.533,83.507c0,.825,0,.972.715.972.133,0,.3.036.3.24s-.124.231-.235.231c-.342,0-.692-.058-1.331-.058s-1.061.058-1.438.058c-.111,0-.235-.031-.235-.231s.169-.24.324-.24c.67,0,.67-.138.67-.972V79.2c0-.834,0-.954-.67-.967-.133,0-.324,0-.324-.222s.111-.249.235-.249c.364,0,.843.062,1.4.062s1-.062,1.371-.062c.111,0,.235.044.235.249s-.213.222-.333.222c-.67,0-.683.133-.683.967Z" transform="translate(-199.313 -43.251)"/><path class="a" d="M339.462,79.111c0-.715.062-.919-.595-.919-.146,0-.346,0-.346-.226s.178-.266.359-.266.59.031.936.031.515-.031.67-.031.222,0,.59.488c1.078,1.487,2.281,3.2,3.431,4.686.089.12.124.093.124-.142v-3.75c0-.759.089-.79-.6-.8-.12,0-.315-.027-.315-.213a.235.235,0,0,1,.249-.266c.3,0,.626.062,1,.062s.657-.062.941-.062c.182,0,.266.067.266.249s-.093.253-.368.253c-.639,0-.577.129-.577.808v5.725c0,.191-.027.3-.262.3a.533.533,0,0,1-.493-.244c-.186-.24-2.947-3.994-4.26-5.738-.115-.151-.173-.111-.173,0v4.518c0,.812.049.888.715.888.12,0,.244.044.244.217a.226.226,0,0,1-.257.257c-.288,0-.679-.058-1.07-.058s-.67.058-.95.058c-.1,0-.231-.04-.231-.257s.12-.217.355-.217c.444,0,.617-.049.617-.852Z" transform="translate(-188.289 -43.217)"/><path class="a" d="M403.6,83.568c0,.728,0,.861.679.888.146,0,.289.044.289.231s-.111.231-.342.231c-.373,0-.861-.058-1.229-.058s-1.012.058-1.4.058a.2.2,0,0,1-.235-.231c0-.217.178-.231.337-.231.666,0,.666-.138.666-.972V79.17c0-.848,0-.967-.666-.981-.138,0-.337,0-.337-.213s.124-.266.249-.266c.333,0,.71.062,1.234.062.746,0,1.358-.062,2.121-.062a2.007,2.007,0,0,1,2.219,1.864,1.686,1.686,0,0,1-1.513,1.673,11.212,11.212,0,0,1,.577,1.03c.293.568.444.794.754,1.38.5.95.621,1.065,1.118,1.207.311.084.528.2.5.351s-.244.169-.981.093a2.113,2.113,0,0,1-1.638-.888,17.652,17.652,0,0,1-1.141-2.166c-.364-.715-.275-.777-1-.777-.244,0-.253.075-.253.444Zm0-2.814c0,.191.12.244.311.244,1.442,0,1.922-.546,1.922-1.482a1.371,1.371,0,0,0-1.451-1.331c-.759,0-.781.222-.781.559Z" transform="translate(-223.256 -43.223)"/><path class="a" d="M423.539,82.434c0,1.234-.768,2.334-2.694,2.334a4.526,4.526,0,0,1-1.868-.444.5.5,0,0,1-.2-.479c0-.333,0-.786.027-1.1,0-.142.04-.333.244-.333s.253.444.333.781a1.451,1.451,0,0,0,1.536,1.145A1.371,1.371,0,0,0,422.4,83.01c0-.812-.475-1.163-1.775-1.717-1.145-.5-1.775-.994-1.775-1.953a2.125,2.125,0,0,1,2.4-2.05,5.653,5.653,0,0,1,1.62.235c.2.075.2.186.2.386,0,.288.035.675.049.963,0,.124-.049.244-.2.244s-.209-.164-.266-.3a1.331,1.331,0,0,0-1.371-1.114c-.67,0-1.3.355-1.3,1.078,0,.888,1.047,1.216,1.9,1.571s1.682.888,1.682,2.028Z" transform="translate(-232.94 -42.989)"/><path class="a" d="M444.807,78.266c0-.3-.058-.346-.244-.346-1.141,0-1.487.058-1.984.888-.115.164-.2.355-.368.355s-.222-.071-.1-.444c.138-.47.271-.914.413-1.362.031-.133.093-.249.209-.249s.115,0,.177.115.107.182.541.182h4.132c.444,0,.626,0,.692-.107.133-.16.2-.209.288-.209s.151.107.146.231-.027,1.061-.058,1.5c0,.146-.04.28-.209.28s-.169-.111-.213-.244c-.244-.737-.324-.95-1.123-.95h-.67c-.391,0-.391.036-.391.524v4.7c0,.848,0,.972.7.972.133,0,.315.035.315.24a.209.209,0,0,1-.24.231c-.364,0-.759-.058-1.367-.058-.484,0-1.052.058-1.42.058a.2.2,0,0,1-.231-.231c0-.217.177-.24.337-.24.666,0,.666-.138.666-.972Z" transform="translate(-245.887 -42.878)"/><path class="a" d="M370.893,77.951c0,.191-.133.231-.266.24s-.5.036-.5.222a1.492,1.492,0,0,0,.133.47l1.331,3.186a11.055,11.055,0,0,0,.395,1.065c.044,0,.3-.834.444-1.2l1.225-3.009a2.249,2.249,0,0,0,.155-.559c0-.155-.24-.16-.541-.173-.133,0-.32,0-.32-.209s.155-.262.288-.262c.275,0,.635.062.967.062s.661-.062.928-.062a.2.2,0,0,1,.2.231c0,.217-.169.24-.444.262-.359,0-.55.444-.8,1.083-.715,1.749-1.429,3.652-2.144,5.414-.053.16-.111.337-.32.337s-.293-.124-.368-.337c-.759-1.859-1.531-3.879-2.3-5.738-.155-.377-.28-.737-.67-.759-.288,0-.444-.044-.444-.244a.258.258,0,0,1,.293-.249c.311,0,.914.062,1.358.062.368,0,.936-.062,1.18-.062.138,0,.244,0,.244.217Z" transform="translate(-204.614 -43.229)"/><path class="a" d="M461.836,82.262a1.207,1.207,0,0,0-.3-.888c-.493-.759-.786-1.229-1.651-2.512-.386-.573-.444-.621-1.012-.63-.169,0-.3,0-.3-.235s.146-.249.28-.249c.324,0,.612.062,1.234.062s1.185-.062,1.642-.062a.213.213,0,0,1,.231.217c0,.249-.164.253-.377.253s-.444,0-.444.235c0,.12.049.217.741,1.283.808,1.251.812,1.331.914,1.331s.155-.191.945-1.385c.612-.928.728-.95.728-1.2s-.182-.262-.475-.262c-.129,0-.311,0-.311-.191a.3.3,0,0,1,.333-.28c.293,0,.635.062,1.016.062s.7-.062,1-.062c.231,0,.28.062.28.249s-.075.2-.391.235c-.577.058-.994.723-1.274,1.127-.444.71-.888,1.358-1.358,2.068a1.221,1.221,0,0,0-.257.928v1.225c0,.759,0,.888.706.888.129,0,.311.031.311.231a.2.2,0,0,1-.235.231c-.391,0-.981-.058-1.358-.058s-1.007.058-1.393.058a.2.2,0,0,1-.235-.231c0-.217.178-.231.333-.231.648,0,.67-.124.67-.888Z" transform="translate(-255.079 -43.244)"/><path class="a" d="M198.139,76.169c0-.857.08-1.105-.71-1.105-.173,0-.413,0-.413-.271s.213-.315.444-.315c.28,0,.71.036,1.123.036s.626-.036.812-.036.262,0,.7.581c1.3,1.775,2.738,3.843,4.118,5.623.106.146.146.111.146-.169v-4.5c0-.888.111-.95-.719-.963-.151,0-.377-.031-.377-.257a.275.275,0,0,1,.3-.315c.359,0,.746.071,1.2.071s.794-.071,1.127-.071c.222,0,.32.075.32.293s-.106.306-.444.306c-.763,0-.688.155-.688.972v6.87c0,.226-.04.355-.32.355a.63.63,0,0,1-.586-.3c-.226-.28-3.55-4.8-5.112-6.879-.142-.186-.209-.138-.209,0v5.414c0,.981.058,1.043.852,1.043.151,0,.293.049.293.257a.3.3,0,0,1-.306.315c-.346,0-.812-.071-1.283-.071-.4,0-.8.071-1.136.071-.12,0-.28-.053-.28-.315s.146-.257.444-.257c.524,0,.737-.062.737-1.025Z" transform="translate(-109.586 -41.425)"/><path class="a" d="M293.465,82.083c-.244,0-.3,0-.422.346a4.477,4.477,0,0,0-.386,1.3c0,.382.413.4.648.444.133,0,.28.049.28.249s-.177.222-.293.222-.71-.058-.954-.058-.967.058-1.149.058c-.1,0-.248-.031-.248-.222s.075-.226.351-.262c.484-.058.55-.093.888-1.007.643-1.678,1.251-3.373,1.895-5.064.32-.848.355-.914.648-.914.191,0,.244,0,.355.288.857,2.1,1.713,4.212,2.365,5.823.151.382.359.888.834.888.111,0,.324,0,.324.257a.2.2,0,0,1-.222.2c-.444,0-1.025-.058-1.576-.058-.386,0-.976.058-1.367.058-.084,0-.293-.044-.293-.2a.294.294,0,0,1,.315-.266c.59,0,.714-.1.714-.3s-.049-.222-.422-1.216c-.2-.533-.289-.55-.533-.55Zm1.651-.55c.129,0,.2-.031.133-.2-.293-.763-.528-1.394-.808-2.095-.08-.213-.146-.222-.222,0-.311.843-.581,1.646-.754,2.112-.053.142,0,.191.2.191Z" transform="translate(-161.842 -42.923)"/><path class="a" d="M221.4,82.083c-.249,0-.3,0-.444.346a4.3,4.3,0,0,0-.386,1.3c0,.382.408.4.643.444.138,0,.284.049.284.249s-.178.222-.293.222c-.182,0-.71-.058-.954-.058s-.972.058-1.149.058c-.1,0-.249-.031-.249-.222s.075-.226.351-.262c.484-.058.55-.093.888-1.007.643-1.678,1.252-3.373,1.895-5.064.32-.848.355-.914.648-.914.191,0,.244,0,.359.288l2.361,5.823c.151.382.359.888.834.888.115,0,.324,0,.324.257a.2.2,0,0,1-.222.2c-.444,0-1.025-.058-1.58-.058-.382,0-.972.058-1.367.058-.075,0-.284-.044-.284-.2a.29.29,0,0,1,.311-.266c.59,0,.71-.1.71-.3s-.044-.222-.417-1.216c-.2-.533-.288-.55-.533-.55Zm1.651-.55c.124,0,.191-.031.124-.2-.288-.763-.524-1.394-.8-2.095-.08-.213-.146-.222-.222,0-.311.843-.581,1.646-.754,2.112-.053.142,0,.191.2.191Z" transform="translate(-121.745 -42.923)"/><path class="a" d="M244.406,83.546a.524.524,0,0,1-.244.5,3.821,3.821,0,0,1-2.428.759c-2.836,0-3.994-1.682-3.994-3.612,0-2.308,1.562-3.87,4.3-3.87a4.336,4.336,0,0,1,1.811.386c.311.16.3.444.3.746s.022.342.036.564c0,.142-.044.288-.231.288s-.266-.235-.51-.595a1.669,1.669,0,0,0-1.62-.843c-2.144,0-2.7,2.033-2.7,3.191,0,1.46.777,3.2,2.8,3.2a1.966,1.966,0,0,0,1.105-.266c.142-.115.186-.213.186-.63V82.228c0-.617-.111-.71-.763-.71-.151,0-.306,0-.306-.226s.209-.24.328-.24c.386,0,.732.058,1.283.058s.95-.058,1.291-.058c.178,0,.253.027.266.231s-.08.2-.444.249-.444.089-.444.768Z" transform="translate(-132.251 -43.006)"/><path class="a" d="M256.94,81.1a3.956,3.956,0,1,1,3.967,3.772,3.79,3.79,0,0,1-3.967-3.759Zm6.51.146c0-2.006-1.069-3.4-2.587-3.4s-2.53,1.18-2.53,3.178c0,1.873.981,3.382,2.632,3.382,1.367,0,2.485-1.158,2.485-3.142Z" transform="translate(-142.931 -43.039)"/><path class="a" d="M278.646,82.262a1.207,1.207,0,0,0-.3-.888c-.488-.759-.785-1.229-1.646-2.512-.391-.568-.444-.621-1.016-.63-.169,0-.3,0-.3-.235s.146-.249.28-.249c.324,0,.612.062,1.238.062s1.181-.062,1.638-.062a.217.217,0,0,1,.235.217c0,.249-.169.253-.377.253s-.444,0-.444.235c0,.124.053.217.737,1.283.817,1.251.817,1.331.919,1.331s.16-.186.95-1.385c.608-.928.723-.95.723-1.2s-.182-.262-.47-.262c-.138,0-.315,0-.315-.191s.169-.28.337-.28c.289,0,.635.062,1.012.062s.706-.062,1-.062.28.062.28.249-.071.2-.391.235c-.577.058-.99.723-1.269,1.127-.444.71-.888,1.358-1.362,2.073a1.207,1.207,0,0,0-.253.928v1.225c0,.754,0,.888.7.888.129,0,.311.031.311.231a.209.209,0,0,1-.235.235c-.386,0-.976-.058-1.358-.058s-1,.075-1.394.075a.209.209,0,0,1-.235-.235c0-.213.177-.231.333-.231.648,0,.67-.12.67-.888Z" transform="translate(-153.187 -43.244)"/><path class="b" d="M77.771,27.737H70.759l4.4-16.491H44.682A18.138,18.138,0,0,0,45.2,7.42C45.2,2.45,41.957,0,37.208,0a16.44,16.44,0,0,0-9.071,2.969A7.29,7.29,0,0,0,21.929,0C17.841,0,13.009,1.078.183,19.993c-.226.328-.182.444.142.444l7.394.075C6.658,24.466,3.09,37.82,3.09,37.82H35.362a14.646,14.646,0,0,0-.231,2.405c0,4.655,3.107,6.95,7.611,6.95a15.994,15.994,0,0,0,8.632-2.809,6.849,6.849,0,0,0,5.871,2.791c4.775,0,9.151-2.312,20.721-19.048.173-.249.124-.373-.2-.377" transform="translate(-0.042)"/><path class="c" d="M77.771,27.737H70.759l4.4-16.491H44.682A18.138,18.138,0,0,0,45.2,7.42C45.2,2.45,41.957,0,37.208,0a16.44,16.44,0,0,0-9.071,2.969A7.29,7.29,0,0,0,21.929,0C17.841,0,13.009,1.074.183,19.971c-.226.328-.182.444.142.444l7.394.075C6.658,24.444,3.09,37.8,3.09,37.8H35.362a14.646,14.646,0,0,0-.231,2.405c0,4.655,3.107,6.95,7.611,6.95a15.994,15.994,0,0,0,8.632-2.809,6.849,6.849,0,0,0,5.871,2.791c4.775,0,9.151-2.312,20.721-19.048.173-.249.129-.373-.2-.377M35.8,35.552H22.461l.959-3.763H20.438l-.954,3.763H6.032l4.642-17.268H4.155c10.58-15.022,14.388-16,17.774-16,2.712,0,4.638,1.229,5.166,4.043,4.633-3.284,7.42-4.056,10.1-4.056,4.234,0,6.794,2.663,5.326,8.432Zm21.444,9.355c-2.574,0-4.394-1.2-4.882-3.879-3.55,2.6-6.475,3.892-9.613,3.892-4.021,0-6.466-2.521-5.046-7.913l6.36-23.6H56.7l-.959,3.55h3.075l.95-3.462H72.188L67.75,29.916h6.213c-8.454,11.8-12.253,14.991-16.718,14.991" transform="translate(-0.042)"/><path class="c" d="M105.371,51.584c.155-.572.533-.643,1.034-.643h1.868c.444,0,.63.142.479.692s-2.37,8.831-2.37,8.831c-.16.6.271,1.056,1.167,1.056a1.672,1.672,0,0,0,1.735-1.056l2.365-8.8a.825.825,0,0,1,.888-.719H113.8c.493,0,.652.191.5.741s-2.357,8.787-2.357,8.787c-.16.6.3,1.056,1.167,1.056a1.7,1.7,0,0,0,1.735-1.056l2.871-10.718c.226-.843.155-1.207-1.2-1.207h-6.364c-.5,0-.595-.2-.47-.652s.821-3.107.821-3.107c.186-.7-.226-1.105-1.269-1.105s-1.713.4-1.9,1.105l-.812,3.058a.91.91,0,0,1-.888.679H99.07a1.673,1.673,0,0,0-1.66,1.243l-2.867,10.7c-.16.6.071,1.056,1.167,1.056s1.562-.422,1.74-1.07L99.8,51.682a.888.888,0,0,1,.888-.741h1.4c.364,0,.524.213.395.692l-2.37,8.831c-.164.6.027,1.056,1.167,1.056s1.571-.444,1.735-1.056Z" transform="translate(-52.579 -24.295)"/><path class="c" d="M39.65,26.5H31.724a.994.994,0,0,0-.967.675L30.2,29.349c-.129.484,0,.848.675.848h7.953c.359,0,.6-.213.754-.763l.559-2.188c.12-.444.142-.746-.493-.746m2.325-8.561H37.014a.617.617,0,0,0-.644.444l-.5,1.833c-.084.32.049.444.413.444h4.962a.586.586,0,0,0,.652-.475l.444-1.726c.093-.351-.062-.515-.391-.515m3.99-9.524c-3.32,0-6.213,1.487-10.975,5.1-.577-4.212-2.028-5.081-4.291-5.081-2.192,0-5.45,0-14.907,13.025l5.539.049s-3.825,14.3-4.615,17.25H27.1L28.054,35h6.013l-.954,3.763H43.423c.537-1.984,6.408-23.747,6.408-23.747,1.283-4.855-1.4-6.595-3.888-6.595M42.912,26.145,41.79,30.423A2.272,2.272,0,0,1,39.5,32.265h-10.8c-1.269,0-1.589-.444-1.283-1.6l1.176-4.487a2.019,2.019,0,0,1,2.219-1.6H41.736c1.456,0,1.469.484,1.176,1.558m2.454-8.978-1.092,4.114a1.6,1.6,0,0,1-1.629,1.394H28.09c-.626,0-.834.351-.99.923l-2.13,7.948c-.169.635-.666,1-1.571,1s-1.158-.364-.99-1l2.6-9.719a1.722,1.722,0,0,1,1.607-1.154h5.831c.444,0,.67-.146.768-.5l.444-1.624c.12-.444-.164-.595-.51-.595H26.834c-.666,0-.888-.306-.675-1.021a1.158,1.158,0,0,1,1.212-.985H44.51c.888,0,1.078.382.857,1.22" transform="translate(-8.79 -4.683)"/></svg>