<?xml version="1.0" encoding="utf-8"?>
<!-- Generator: Adobe Illustrator 28.3.0, SVG Export Plug-In . SVG Version: 6.00 Build 0)  -->
<svg version="1.1" id="レイヤー_1" xmlns="http://www.w3.org/2000/svg" xmlns:xlink="http://www.w3.org/1999/xlink" x="0px"
	 y="0px" viewBox="0 0 233 57.19" style="enable-background:new 0 0 233 57.19;" xml:space="preserve">
<style type="text/css">
	.st0{fill:#FFFFFF;}
</style>
<g>
	<g>
		<path class="st0" d="M97.1,25.92c-2.57-3.41-3.88-7.56-4.44-11.16h14.78v-3.71H92.32c-0.01-0.24-0.01-0.47-0.01-0.7V0.13h-4.62
			v10.23c0,0.22-0.01,0.45-0.01,0.7H72.56v3.71h14.77c-0.56,3.6-1.87,7.75-4.44,11.16c-2.89,3.87-6.42,6.13-9.23,7.43
			c-0.58,0.27-1.13,0.5-1.64,0.69v4.25c3.33-1.04,9.36-3.68,14.09-9.97c1.42-1.9,2.5-3.93,3.31-5.96v0
			c0.11-0.21,0.33-0.35,0.58-0.35c0.25,0,0.46,0.14,0.57,0.34v0c0.81,2.03,1.89,4.06,3.31,5.97c4.73,6.28,10.77,8.92,14.09,9.97
			v-4.25C105.03,32.93,100.57,30.59,97.1,25.92z"/>
		<path class="st0" d="M180.33,25.92c-2.57-3.41-3.88-7.56-4.44-11.16h14.78v-3.71h-15.12c-0.01-0.24-0.01-0.47-0.01-0.7V0.13h-4.62
			v10.23c0,0.22,0,0.45-0.01,0.7H155.8v3.71h14.77c-0.56,3.6-1.87,7.75-4.44,11.16c-2.89,3.87-6.42,6.13-9.23,7.43
			c-0.58,0.27-1.13,0.5-1.64,0.69v4.25c3.33-1.04,9.37-3.68,14.09-9.97c1.42-1.9,2.49-3.93,3.31-5.96v0
			c0.11-0.21,0.33-0.35,0.58-0.35c0.25,0,0.46,0.14,0.57,0.34v0c0.81,2.03,1.89,4.06,3.31,5.97c4.73,6.28,10.76,8.92,14.09,9.97
			v-4.25C188.26,32.93,183.8,30.59,180.33,25.92z"/>
		<path class="st0" d="M122.18,5.08c0.03-0.07,0.05-0.15,0.05-0.23c0-0.36-0.3-0.65-0.65-0.65h-1.21h-2.77v34.02h-3.76V1.4h12.33
			v3.42l-2.88,7.78c0.16,0.22,0.33,0.44,0.5,0.68c1.08,1.56,2.24,3.71,2.26,6.26c0.02,4.09-1.39,6.73-2.95,8.19
			c-0.55,0.53-1.1,0.9-1.58,1.17l-1-3.23c0.11-0.09,0.23-0.18,0.34-0.29c0.89-0.87,1.92-2.44,1.94-5.83
			c0.01-1.48-0.78-3.13-1.67-4.39c-0.88-1.27-1.81-2.12-1.84-2.15l0.01-0.01l-0.01-0.01l2.62-7.07L122.18,5.08z M150.49,34.03v3.71
			c-3.33-1.22-5.95-2.95-8.22-5.01c-0.68-0.62-1.32-1.26-1.94-1.91c-0.8,0.95-1.66,1.85-2.57,2.68c-1.78,1.62-3.94,3.38-6.53,4.65
			v-3.93c1.53-0.95,2.94-2.1,4.22-3.27c0.92-0.83,1.79-1.78,2.6-2.77c-1.05-1.34-1.99-2.69-2.84-4.05
			c-1.15-1.84-2.05-3.85-2.81-5.94c-0.03,1.69-0.11,3.66-0.35,5.48c-0.42,3.43-1.53,6.53-4.5,9.58c-1.3,1.34-2.71,2.2-3.83,2.74
			l-1.04-3.34c0.76-0.41,1.63-0.99,2.39-1.79c2.47-2.62,3.14-4.57,3.57-7.64c0.3-2.24,0.34-4.99,0.34-6.86c0-0.73,0-1.33,0-1.73
			V1.39h19.99v3.66h-15.69v6.27h15.58c-0.99,4.67-2.18,8.77-4.04,12.64c-0.65,1.35-1.45,2.73-2.36,4.08
			c0.67,0.73,1.37,1.44,2.14,2.13C146.32,31.74,148.16,33.03,150.49,34.03z M144.3,15.46c0.02-0.06,0.03-0.11,0.03-0.18
			c0-0.36-0.3-0.65-0.65-0.65h-1.66h-7.16c0.87,2.87,1.89,5.48,3.27,7.67c0.63,1,1.3,1.99,2.03,2.96c0.59-0.93,1.12-1.87,1.56-2.79
			c0.9-1.87,1.63-3.81,2.27-5.9L144.3,15.46z"/>
		<path class="st0" d="M205.79,0.13h-3.4V5.4h3.4V0.13z M214.71,0.13h-3.41V5.4h3.41V0.13z M200.76,10.59h26.15
			c0.67,0,1.21,0.54,1.21,1.2v4.83h4.1V7.31h-8.38c0.43-0.41,0.96-0.98,1.55-1.76c1.64-2.16,2.62-4.5,2.97-5.43h-3.98
			c-0.31,0.81-1.08,2.55-2.37,4.24c-1.03,1.36-2.22,2.32-3.13,2.94h-22.23v9.32h4.1V10.59z M233,26.56v-3.28h-16.18v-1.81
			c0,0,2.24-0.91,4.04-2.06c1.91-1.22,3.45-2.66,3.45-2.66v-3h-20.26v3h15.08c0,0-1.18,0.9-2.94,1.77c-1.75,0.87-3.46,1.2-3.46,1.2
			v3.56h-16.65v3.28h16.65v3.92c0,0,0.05,2.14-1.1,3.09c-1.38,1.13-2.51,1.2-3.29,1.31c-0.77,0.11-1.48,0.13-1.48,0.13v3.28
			c0,0,4.1-0.09,6.45-1.26c2.13-1.05,2.87-2.54,3.16-3.71c0.36-1.44,0.35-2.84,0.35-2.84v-3.92H233z"/>
	</g>
	<g>
		<path class="st0" d="M57.79,24.17C56.26,12.51,47.81,3.04,36.7,0l-7.67,7.67c9.79,0,17.97,6.93,19.89,16.16
			c-8.12,0.93-15.22,5.2-19.89,11.41c-4.66-6.21-11.77-10.49-19.89-11.41c1.92-9.23,10.09-16.16,19.89-16.16L21.35,0
			C10.24,3.04,1.79,12.51,0.25,24.17C0.09,25.42,0,26.69,0,27.99c0,1.73,0.16,3.42,0.45,5.07c1.71-0.47,3.5-0.72,5.35-0.72
			c1.18,0,2.32,0.1,3.45,0.3c6.8,1.16,12.45,5.7,15.15,11.83c0.5,1.13,0.89,2.31,1.18,3.54c0.35,1.49,0.54,3.05,0.54,4.65
			c0,1.42-0.15,2.81-0.43,4.16c-0.02,0.07-0.03,0.13-0.05,0.2h6.75c-0.01-0.06-0.03-0.13-0.05-0.2c-0.28-1.34-0.43-2.73-0.43-4.16
			c0-1.6,0.19-3.15,0.54-4.65c0.29-1.23,0.68-2.41,1.18-3.54C36.35,38.34,42,33.8,48.8,32.64c1.12-0.19,2.27-0.3,3.44-0.3
			c1.85,0,3.65,0.25,5.35,0.72c0.29-1.65,0.45-3.34,0.45-5.07C58.04,26.69,57.96,25.42,57.79,24.17z"/>
	</g>
	<g>
		<path class="st0" d="M107.06,53.46c0,2.46-1.39,3.74-3.57,3.74c-2.19,0-3.4-1.23-3.4-3.74v-6.73h1.44v6.7c0,1.68,0.74,2.4,2,2.4
			c1.24,0,2-0.72,2-2.4v-6.7h1.54V53.46z"/>
		<path class="st0" d="M79.29,48.17h-2.82v8.84h-1.66v-8.84h-2.79v-1.44h7.26V48.17z"/>
		<path class="st0" d="M87.42,57.01h-1.63v-4.64h-3.94v4.64h-1.63V46.73h1.63v4.19h3.94v-4.19h1.63V57.01z"/>
		<path class="st0" d="M95.3,48.15h-4.6v2.72h3.76v1.42h-3.76v3.31h4.69v1.42h-6.34V46.73h6.24V48.15z"/>
		<path class="st0" d="M119.47,57.01h-1.66V46.73h1.66V57.01z"/>
		<path class="st0" d="M135.86,48.15h-4.6v2.72h3.76v1.42h-3.76v3.31h4.69v1.42h-6.34V46.73h6.24V48.15z"/>
		<path class="st0" d="M140.52,46.73c2.3,0,3.35,1.01,3.35,2.8c0,1.27-0.66,2.21-1.88,2.61l2.18,4.88h-1.77l-1.91-4.61
			c-0.13,0-0.27,0.01-0.43,0.01h-1.34v4.6h-1.61V46.73H140.52z M138.73,51.09h1.65c1.29,0,1.85-0.58,1.85-1.54
			c0-0.91-0.48-1.48-1.78-1.48h-1.72V51.09z"/>
		<path class="st0" d="M154.79,57.01h-1.66V46.73h1.66V57.01z"/>
		<path class="st0" d="M163.32,48.17h-2.82v8.84h-1.66v-8.84h-2.79v-1.44h7.26V48.17z"/>
		<path class="st0" d="M168.84,52.76v4.25h-1.66v-4.25l-3.05-6.03h1.83l1.88,3.83c0.12,0.24,0.18,0.38,0.29,0.62
			c0.11-0.25,0.17-0.38,0.3-0.64l1.82-3.82h1.68L168.84,52.76z"/>
		<path class="st0" d="M189.55,48.15h-4.57v2.77h3.75v1.42h-3.75v4.68h-1.66V46.73h6.23V48.15z"/>
		<path class="st0" d="M123.6,57.01l-2.98-10.28h1.71l2.25,8.38l2.32-8.38h1.65l-3.04,10.28H123.6z"/>
		<path class="st0" d="M200.31,50.55c-0.03-2.12-1.6-3.82-3.76-3.82s-3.69,1.7-3.75,3.82c-0.03,1.01-0.03,1.61,0,2.63
			c0.06,2.12,1.57,3.83,3.75,3.83s3.74-1.71,3.76-3.83C200.32,52.18,200.33,51.56,200.31,50.55z M198.64,53.37
			c-0.03,1.18-0.88,2.18-2.09,2.19h0c0,0,0,0,0,0c-1.21,0-2.06-1-2.09-2.19c-0.03-1.16-0.03-1.88,0-3.05
			c0.03-1.18,0.89-2.13,2.09-2.13c0,0,0,0,0,0h0c1.2,0,2.06,0.95,2.09,2.13C198.67,51.49,198.67,52.2,198.64,53.37z"/>
		<path class="st0" d="M220.77,50.82l3.56,6.19h-1.86l-2.75-4.94l-1.11,1.35v3.59h-1.62V46.73h1.62v4.69l3.57-4.69h1.88
			L220.77,50.82z"/>
		<path class="st0" d="M231.29,57.01H233l-3.27-10.28h-0.25h-1.23h-0.13l-3.27,10.28h1.6l0.9-3.04h3.05L231.29,57.01z M227.73,52.64
			l1.13-3.84l1.13,3.84H227.73z"/>
		<path class="st0" d="M214.39,57.01h1.71l-3.27-10.28h-0.25h-1.23h-0.13l-3.27,10.28h1.6l0.9-3.04h3.05L214.39,57.01z
			 M210.83,52.64l1.13-3.84l1.13,3.84H210.83z"/>
		<path class="st0" d="M182.15,50.55c-0.03-2.12-1.6-3.82-3.76-3.82s-3.69,1.7-3.75,3.82c-0.03,1.01-0.03,1.61,0,2.63
			c0.06,2.12,1.57,3.83,3.75,3.83s3.74-1.71,3.76-3.83C182.16,52.18,182.17,51.56,182.15,50.55z M180.48,53.37
			c-0.03,1.18-0.88,2.18-2.09,2.19h0c0,0,0,0,0,0c-1.21,0-2.06-1-2.09-2.19c-0.03-1.16-0.03-1.88,0-3.05
			c0.03-1.18,0.89-2.13,2.09-2.13c0,0,0,0,0,0h0c1.2,0,2.06,0.95,2.09,2.13C180.52,51.49,180.52,52.2,180.48,53.37z"/>
		<path class="st0" d="M206.01,49.66c-0.24-1.07-0.78-1.62-1.62-1.62c-0.96,0-1.52,0.5-1.52,1.29c0,0.87,0.35,1.27,1.67,1.66
			l0.48,0.15c2.08,0.61,2.67,1.47,2.67,2.93c0,1.74-1.11,2.94-3.29,2.94c-1.78,0-3.01-0.84-3.45-2.57l1.52-0.52
			c0.24,1.15,0.93,1.79,1.89,1.79c1.2,0,1.74-0.56,1.74-1.42c0-0.86-0.28-1.25-1.78-1.71l-0.47-0.15c-1.94-0.63-2.56-1.46-2.56-2.98
			c0-1.5,1.08-2.71,3.05-2.71c1.6,0,2.73,0.82,3.21,2.47L206.01,49.66z"/>
		<path class="st0" d="M149.99,49.66c-0.24-1.07-0.78-1.62-1.62-1.62c-0.96,0-1.52,0.5-1.52,1.29c0,0.87,0.35,1.27,1.67,1.66
			l0.48,0.15c2.08,0.61,2.67,1.47,2.67,2.93c0,1.74-1.11,2.94-3.29,2.94c-1.78,0-3.01-0.84-3.45-2.57l1.52-0.52
			c0.24,1.15,0.93,1.79,1.89,1.79c1.2,0,1.74-0.56,1.74-1.42c0-0.86-0.28-1.25-1.78-1.71l-0.47-0.15c-1.94-0.63-2.56-1.46-2.56-2.98
			c0-1.5,1.08-2.71,3.05-2.71c1.6,0,2.73,0.82,3.21,2.47L149.99,49.66z"/>
		<polygon class="st0" points="114.32,46.73 114.32,53.84 110.39,46.73 110.11,46.73 110.11,46.73 108.63,46.73 108.63,57.01 
			110.11,57.01 110.11,49.16 114.37,56.81 114.47,57.01 115.8,57.01 115.8,46.73 		"/>
	</g>
</g>
</svg>
