<?xml version="1.0" encoding="UTF-8"?><svg id="_レイヤー_2" xmlns="http://www.w3.org/2000/svg" viewBox="0 0 119.24 120"><defs><style>.cls-1{fill:#fff;}.cls-2{fill:#f50000;}</style></defs><g id="_レイヤー_1-2"><rect class="cls-1" width="119.24" height="120"/><path class="cls-2" d="m67.13,37.32h0c-10.34,4.81-16.79,8.15-18.84,16.04-.15.57-.27,1.15-.37,1.75,2.92-4.85,8.17-7.03,19.7-12.57,9.75-4.68,13.99-7.74,14.55-18.04-3.92,7.81-12.11,11.45-15.04,12.81Z"/><path class="cls-2" d="m71.49,43.56v11.14c0,3.46-.64,6.12-2.72,8.5-2.09,2.39-5.28,4.47-9.47,5.8l-.22.07-.22-.07c-4.16-1.32-7.35-3.4-9.48-5.81-.55-.62-1.33-1.69-1.93-3.23-.19,5.83.78,11.85,1.27,14.92.04.26.08.49.11.7,2.46,1.42,5.37,2.6,8.96,3.61l1.29.35,1.29-.35c19.14-5.47,21.35-17.87,21.35-24.3v-20.08c-1.84,3.8-5.12,6.15-10.23,8.75Z"/><path class="cls-2" d="m45.77,52.71c2.46-9.48,10.71-13.31,20.26-17.75h0c12.88-5.98,14.93-13.66,15.41-16.52-2.44,3.78-7.39,7.7-18.6,12.84-6.34,2.91-12.89,5.27-16.18,10.07v-11.65c0-2.99-.79-4.55-3.28-5.87l-7.58-3.73c.19,2.06.5,7.4.5,15.64.09,6.32.12,17.87.13,19.12v.02c0,6.08,1.76,10.91,5.54,15.21,1.13,1.29,2.45,2.51,3.92,3.6-.78-5-1.93-14.04-.12-20.99Z"/><path class="cls-2" d="m38.68,93.06h-1.87c-.12-.21-.17-.48-.18-.84l-.03-.86c-.03-.92-.44-1.12-1.13-1.12h-1.48v2.81h-1.82v-7.65h3.62c1.92,0,2.77.98,2.77,2.21,0,.81-.4,1.48-1.24,1.82.88.29,1.05.91,1.09,1.72l.05,1.07c.01.32.09.62.21.83Zm-3.09-4.18c.7,0,1.11-.35,1.11-1.02s-.41-1-1.14-1h-1.57v2.02h1.6Z"/><path class="cls-2" d="m46.6,85.41l-2.84,4.67v2.98h-1.82v-2.98l-2.87-4.67h2.05l.67,1.11c.37.64.74,1.28,1.1,1.9.34-.63.71-1.3,1.06-1.91l.64-1.1h2Z"/><path class="cls-2" d="m47.28,90.15v-4.74h1.82v4.76c0,1,.58,1.49,1.5,1.49s1.52-.49,1.52-1.49v-4.76h1.82v4.74c0,2.03-1.33,3.08-3.33,3.08s-3.32-1.05-3.32-3.08Z"/><path class="cls-2" d="m59.32,88.54l3.07,4.52h-2.15l-2.2-3.31-1.03,1.02v2.29h-1.82v-7.65h1.82v3.31l3.17-3.31h2.21l-3.07,3.13Z"/><path class="cls-2" d="m62.66,89.23c0-2.42,1.58-4,3.92-4s3.92,1.58,3.92,4-1.59,4-3.92,4-3.92-1.58-3.92-4Zm5.96,0c0-1.51-.82-2.42-2.04-2.42s-2.03.9-2.03,2.42.81,2.42,2.03,2.42,2.04-.9,2.04-2.42Z"/><path class="cls-2" d="m75.89,88.54l3.07,4.52h-2.15l-2.2-3.31-1.03,1.02v2.29h-1.82v-7.65h1.82v3.31l3.17-3.31h2.21l-3.07,3.13Z"/><path class="cls-2" d="m79.66,90.15v-4.74h1.82v4.76c0,1,.58,1.49,1.5,1.49s1.52-.49,1.52-1.49v-4.76h1.82v4.74c0,2.03-1.33,3.08-3.33,3.08s-3.32-1.05-3.32-3.08Z"/><path class="cls-2" d="m32.2,99.21v-3.62h1.39v3.64c0,.76.44,1.14,1.15,1.14s1.16-.38,1.16-1.14v-3.64h1.39v3.62c0,1.55-1.02,2.36-2.55,2.36s-2.54-.8-2.54-2.36Z"/><path class="cls-2" d="m43.49,95.59v5.85h-1.49l-1.43-2.33c-.33-.54-.64-1.06-.91-1.59.02.95.03,1.81.03,2.7v1.22h-1.32v-5.85h1.5l1.43,2.33c.28.46.64,1.07.91,1.61-.02-.96-.03-1.82-.03-2.72v-1.22h1.32Z"/><path class="cls-2" d="m44.99,95.59h1.39v5.85h-1.39v-5.85Z"/><path class="cls-2" d="m53.23,95.59l-2.05,5.85h-1.64l-2.11-5.85h1.49l.85,2.57c.2.62.41,1.32.6,2.05.18-.73.39-1.44.58-2.05l.85-2.57h1.43Z"/><path class="cls-2" d="m55.66,96.83v1.06h2.8v1.17h-2.8v1.14h3.07v1.24h-4.46v-5.85h4.47v1.24h-3.08Z"/><path class="cls-2" d="m64.98,101.44h-1.43c-.09-.16-.13-.37-.14-.64l-.02-.66c-.02-.71-.34-.85-.86-.85h-1.13v2.15h-1.39v-5.85h2.77c1.47,0,2.12.75,2.12,1.69,0,.62-.3,1.13-.94,1.39.67.22.8.7.83,1.31l.04.82c0,.25.07.48.16.63Zm-2.37-3.2c.53,0,.85-.27.85-.78s-.31-.76-.87-.76h-1.2v1.54h1.22Z"/><path class="cls-2" d="m65.88,99.51h1.35c.02.8.54.97,1.26.97.66,0,.99-.24.99-.67,0-.39-.25-.55-1.05-.7l-.48-.09c-1.23-.21-1.96-.77-1.96-1.83,0-.99.76-1.73,2.28-1.73s2.39.71,2.44,1.91h-1.31c-.03-.54-.32-.82-1.1-.82-.61,0-.9.22-.9.59,0,.41.27.57.99.71l.49.09c1.4.25,2.02.79,2.02,1.78,0,1.23-.99,1.85-2.48,1.85-1.67,0-2.56-.79-2.56-2.05Z"/><path class="cls-2" d="m72.11,95.59h1.39v5.85h-1.39v-5.85Z"/><path class="cls-2" d="m79.65,96.83h-1.8v4.61h-1.4v-4.61h-1.79v-1.24h4.99v1.24Z"/><path class="cls-2" d="m86.1,95.59l-2.17,3.57v2.28h-1.39v-2.28l-2.19-3.57h1.57l.51.85c.28.49.57.98.84,1.45.26-.48.54-.99.81-1.46l.49-.84h1.53Z"/></g></svg>