<svg xmlns="http://www.w3.org/2000/svg" width="132" height="132"><defs><clipPath id="a"><path data-name="長方形 252" transform="translate(0 7.111)" fill="none" d="M0 0h132v132H0z"/></clipPath><clipPath id="b"><path data-name="長方形 251" transform="translate(6.72)" fill="none" d="M0 0h163.42v163.408H0z"/></clipPath><clipPath id="c"><path data-name="長方形 21" fill="none" d="M0 0h98.576v40H0z"/></clipPath></defs><path data-name="長方形 227" fill="#9a003d" d="M0 0h132v132H0z"/><g data-name="グループ 265" clip-path="url(#a)" transform="translate(0 -7.111)"><g data-name="グループ 264"><g data-name="グループ 263"><g data-name="グループ 262" clip-path="url(#b)" fill="#87002e"><path data-name="パス 232" d="M43.4 134.654a2.185 2.185 0 11.348 3.073 2.2 2.2 0 01-.348-3.073"/><path data-name="パス 233" d="M33.728 119.3c-.657.258-1.288.693-4.882 3.493-1.654 1.314-1.543 1.448-.8 2.576.17.294.17.294-.087.505-.34.225-.41.134-.534-.051a87.28 87.28 0 01-1.36-1.858c-.41-.533-.914-1.074-1.2-1.429-.1-.16-.062-.232.152-.41.293-.232.363-.17.523-.044.814.809 1.226.516 3.24-1.015 2.72-2.044 3.544-2.667 4.72-3.067 2.293-.791 4.228.843 5.253 2.185 1.484 1.9 1.994 4 .471 5.652a36.247 36.247 0 01-4.065 3.295c-1.141.9-1.551 1.226-1.862 1.52-.644.577-.364.932-.008 1.494.106.193.049.221-.193.407-.227.178-.327.178-.431.064l-1.581-2.143c-.541-.693-1.093-1.342-1.652-2.035-.17-.214-.141-.291.062-.451.343-.268.4-.268.6-.021.595.632.868.954 1.476.632.533-.276 3.084-2.239 3.769-2.762 1.62-1.262 2.344-1.948 2.514-2.826a3.343 3.343 0 00-.79-2.383c-.286-.389-1.626-1.981-3.334-1.332"/><path data-name="パス 234" d="M22.261 107.97a13.111 13.111 0 00-2.519 1.43c-.3.293-.3.631.108 1.564.051.213.051.213-.286.381-.2.1-.333.1-.425-.106-.16-.345-.822-1.839-.943-2.123-.168-.363-.866-1.785-1.025-2.06-.08-.17-.031-.2.3-.348.27-.116.319-.16.392 0 .615.932.865 1.316 2.475.7.817-.355 4.483-1.919 6.551-2.872.387-.186 1.373-.657 1.783-.887l.111-.036c.118-.054.252.1.814.552.113.051.044.149-.01.3a52.586 52.586 0 00-2.257 4.941c-.219.479-1.669 3.767-2.195 4.949a8.806 8.806 0 01-.508 1.128c.755-.311 2.1-.932 2.587-1.172 4.39-2.017 4.7-2.187 4.557-2.916-.033-.186-.381-.933-.381-1.118 0-.09.16-.152.286-.224.216-.106.319-.114.425.072.16.348.577 1.378.992 2.249.129.312.84 1.749.973 1.981.044.116.044.222-.164.327-.286.134-.433.2-.513.021-.559-.953-.773-1.165-2.491-.544-.907.312-5.923 2.532-6.173 2.638-1.326.624-1.429 1.149-1.074 2.223.062.132.09.266-.221.41-.32.124-.472.051-.526-.1-.121-.276-.392-1.015-.644-1.5-.227-.54-.533-1.03-.716-1.393-.077-.178-.168-.345-.039-.505a18.537 18.537 0 001.742-3.467c.417-.959 2.218-5.279 2.6-6.147z"/><path data-name="パス 235" d="M17.432 102.185c-.453.283-.41.464-.2 1.574.044.247.021.265-.36.363-.317.1-.369.044-.448-.214-.1-.406-.348-1.491-.66-2.681-.24-.907-.569-1.974-.708-2.481l-.091-.356c-.067-.195.024-.231.189-.283.468-.124.51-.124.646.283.32.881.58 1.129 1.533 1.015.582-.1 2.741-.659 3.56-.873 2.357-.665 4.029-1.128 4.673-1.386.5-.214.8-.443.626-1.164l-.141-.523c-.057-.17-.013-.214.252-.284.35-.079.433-.1.461.052.134.525.544 2.133.819 3.189.258.989.516 1.734.683 2.453.028.126 0 .188-.337.286-.3.072-.346.036-.5-.428-.337-.915-.842-1.03-1.988-.737-1.355.268-3.751.907-5.129 1.3a18.511 18.511 0 00-2.878.9"/><path data-name="パス 236" d="M16.6 86.253a8.027 8.027 0 00-2.045-.363c-.42.044-.523.363-.426 1.342.006.229.006.265-.3.291-.4.054-.458.036-.494-.142-.031-.257-.073-1.128-.178-2.1-.116-1.215-.2-1.571-.24-1.875-.018-.124.062-.124.276-.167.348-.018.4-.037.479.141.356.719.356.719 3.527 1.8.734.249 5.492 1.821 7.36 2.372.824.232 1.025.222 1.046.33.116.389.348 1.146.36 1.278 0 .1-.025.134-.324.26-.559.229-2.633 1.2-4.506 2.148-4.047 2-4.258 2.115-4.913 2.489-1.172.621-1.262.987-1.246 1.458 0 .178-.1.178-.361.193-.286.036-.374.036-.392-.159-.036-.382-.154-1.652-.257-2.62s-.248-2.133-.281-2.329c-.013-.116.033-.2.343-.222.355-.036.383 0 .445.32.114.507.186.932.66.87a14.758 14.758 0 002.426-1.03c1.515-.693 3.924-1.785 5.449-2.507a217.13 217.13 0 00-6.412-1.785"/><path data-name="パス 237" d="M14.846 79.722c-.817.01-.969.374-1.03 1.056-.037.294-.037.294-.431.258s-.384-.062-.342-.371c.038-.33.116-1.208.167-2.064.1-.852.16-1.749.2-2.017.072-.9.1-1.811.134-2.62.072-.878.134-1.669.178-2.372 0-.222.159-.2.35-.2.232.018.747.16 1.589.294.312.036.763.116 1 .134.208.018.216.1.208.425 0 .275-.095.355-.255.355-1.638.072-1.963.072-2.161 2.754-.023.358-.095 1.422.082 1.592a1.679 1.679 0 00.783.2c1.057.1 2.283.185 3.349.258.294-3.342.134-3.556-.754-3.733-.48-.1-.48-.1-.48-.49.008-.167.088-.345.23-.327.273.018 1.414.134 1.672.16.309.036 1.78.087 2.071.123.247.011.276.116.265.338s-.044.373-.293.373c-.693.036-1.067.055-1.307.578a11.914 11.914 0 00-.4 3.065c.667.065 3.1.242 3.7.232.665.01 1.03 0 1.128-1.378.191-2.86-.293-3.048-2.115-3.839-.178-.08-.159-.309-.072-.5.08-.159.206-.311.33-.293a22.029 22.029 0 012.968.9.321.321 0 01.249.348c-.01.3-.115 1.324-.213 2.471-.08 1.117-.206 2.38-.258 3.207-.072.729-.072 1.368-.134 1.893a11.736 11.736 0 01-.054 1.27c0 .212-.044.186-.363.168-.356-.018-.41-.052-.41-.479 0-.933-.492-1.031-1.177-1.147-.894-.141-3.277-.312-4.4-.409a37.253 37.253 0 00-4-.2"/><path data-name="パス 238" d="M22.515 61.685a25.185 25.185 0 004.38-1.342c1.424-.693 1.6-1.376 1.7-1.706.054-.159.062-.195.343-.115s.343.09.368.311a5.2 5.2 0 01-.123 1.438 4.175 4.175 0 01-2.7 2.738 15.28 15.28 0 01-4.042.933c-.126.641-.232.979-.373 1.494 1.02.239 1.5.373 2.172.549 1.955.518 2.194.481 2.555-.781.07-.232.173-.232.471-.17.212.054.328.09.284.268-.049.232-.582 2.133-.755 2.736-.281 1.113-.562 2.195-.641 2.506-.052.134-.24.088-.425.037-.258-.073-.338-.134-.258-.544.118-.994-.606-1.244-1.384-1.476-1.443-.461-3.625-1.046-5.087-1.438a21.73 21.73 0 00-3.007-.641c-.533.021-.6.232-.857.961-.122.25-.15.221-.477.134-.358-.1-.3-.25-.247-.436l.471-1.723c.505-1.832.776-3.4.951-4.045.631-2.416 2.331-3.276 4.07-2.808a3.368 3.368 0 012.612 3.12m-1.36 3.5a6.429 6.429 0 00.294-.817c.293-1.146.533-2.408-1.8-3.029-2.674-.7-3.1.932-3.331 1.785-.188.639-.062.7.4.835z"/><path data-name="パス 239" d="M23.563 46.455c.639.294 1.3.5 1.422.567.265.134.137.561.044.721-.088.186-.16.178-.765.036a2.27 2.27 0 00-2.816 1.474 1.658 1.658 0 00.675 2.434 2.437 2.437 0 002.6-.719c1.884-1.556 2.409-2 3.4-2.292a3.215 3.215 0 012.2.232 3.552 3.552 0 012 2.522 4.547 4.547 0 01-.525 3.029 23.259 23.259 0 01-1.193 2c-.574.78-.574.8-.618.914a.341.341 0 00-.067.3c0 .16.021.206-.031.319-.088.178-.17.188-.631.036-.606-.214-2.607-.986-2.834-1.084a.582.582 0 01-.237-.835c.09-.185.17-.178.68-.08a4.042 4.042 0 001.914.062 3.325 3.325 0 001.873-1.767 1.938 1.938 0 00-.775-2.8 2.263 2.263 0 00-2.5.561c-1.938 1.6-2.4 2-3.342 2.257a2.952 2.952 0 01-2.256-.232c-1.654-.791-2.612-2.623-1.227-5.5a12.353 12.353 0 011.209-1.945 1.571 1.571 0 00.2-.34.39.39 0 00.077-.2 1.392 1.392 0 00.052-.185c.064-.126.095-.16.224-.1z"/><path data-name="パス 240" d="M26.149 41.914c-.526-.134-.626 0-1.288.9-.188.195-.188.177-.5-.026-.33-.186-.294-.248-.16-.461.222-.366.878-1.245 1.59-2.293.484-.773 1.1-1.724 1.38-2.177l.2-.286c.1-.16.178-.124.343-.044.376.276.412.312.216.657-.461.819-.461 1.19.281 1.832.405.363 2.288 1.636 2.963 2.079 2.045 1.36 3.493 2.311 4.14 2.622.489.23.837.3 1.259-.311l.315-.444c.134-.144.146-.144.391 0 .3.212.345.23.24.408-.286.4-1.25 1.785-1.84 2.692-.551.837-.95 1.52-1.38 2.14-.08.1-.145.134-.423-.061-.294-.186-.276-.23-.046-.675.487-.853.232-1.306-.742-1.989-1.095-.819-3.148-2.187-4.357-2.986a22.426 22.426 0 00-2.586-1.574"/><path data-name="パス 241" d="M37.024 33.02a302.917 302.917 0 003.656 3.323c1.409 1.263 1.507 1.278 2.635.116.2-.188.325-.08.446.054.211.175.273.3.167.469-.167.134-.391.366-.742.722-.324.363-.786.824-1.378 1.491-.461.472-.817.9-1.157 1.28-.312.374-.615.719-.845 1.013-.126.116-.239 0-.417-.186-.157-.144-.25-.224-.17-.373.737-.979 1.012-1.306.2-2.187-.552-.559-3.084-2.888-3.733-3.491-.536-.446-2.213-1.955-2.834-2.481-2.022 2.311-2.159 2.561-1.36 3.787.312.461.324.5.126.7-.224.268-.34.384-.5.25a93.706 93.706 0 00-1.793-2.177c-.3-.348-.42-.482-.224-.66.1-.159.224-.131.41-.257a35.276 35.276 0 003.025-3.113c.294-.33 3.738-4.107 3.885-4.568a1.848 1.848 0 01.168-.312.17.17 0 01.268-.018c.1.072.842 1.219 1.136 1.538a8.286 8.286 0 01.87 1.139c.08.16.062.24-.167.479-.178.186-.245.258-.472.1-1.1-.943-1.187-1.023-1.574-.809a15.2 15.2 0 00-2.035 2z"/><path data-name="パス 242" d="M57.941 14.448c.33.606.729 1.172.819 1.334.114.255-.263.516-.4.6-.183.087-.24.015-.647-.428a2.239 2.239 0 00-3.125-.523 1.626 1.626 0 00-.917 2.344 2.414 2.414 0 002.507 1c2.426-.1 3.127-.144 4.06.2a3.16 3.16 0 011.651 1.52 3.665 3.665 0 01.054 3.225 4.538 4.538 0 01-2.25 2.08 13.575 13.575 0 01-2.159.871 4.388 4.388 0 00-1.031.363c-.144.062-.224.16-.224.222-.1.118-.1.152-.221.213-.186.1-.25.073-.523-.337-.379-.533-1.476-2.344-1.61-2.576a.564.564 0 01.311-.8c.173-.088.235-.052.554.34a3.74 3.74 0 001.513 1.2A3.3 3.3 0 0058.874 25a1.9 1.9 0 001.066-2.674 2.255 2.255 0 00-2.34-1.079c-2.515.1-3.133.141-4.037-.214A3.047 3.047 0 0151.9 19.5c-.832-1.618-.479-3.671 2.373-5.145a12.337 12.337 0 012.086-.819 2.721 2.721 0 00.4-.141c.02-.018.1-.073.157-.116a.714.714 0 00.152-.132c.118-.062.2-.062.252.08z"/><path data-name="パス 243" d="M74.429 9.206a14.554 14.554 0 00.448 1.476c.067.291-.348.451-.515.479-.2.07-.258-.01-.538-.551A2.257 2.257 0 0070.9 9.358a1.632 1.632 0 00-1.438 2.061c.248 1.092 1.332 1.4 2.185 1.556 2.427.479 3.091.6 3.949 1.162a3.536 3.536 0 011.232 1.849 3.769 3.769 0 01-.693 3.164 4.65 4.65 0 01-2.705 1.5 16.636 16.636 0 01-2.28.345c-.959.08-.974.08-1.093.1a.94.94 0 00-.283.152c-.131.142-.131.16-.25.178-.224.062-.268 0-.446-.464-.229-.585-.888-2.62-.963-2.877a.571.571 0 01.484-.694c.222-.046.25 0 .5.462a4.065 4.065 0 001.19 1.527 3.359 3.359 0 002.527.32 1.921 1.921 0 001.662-2.388c-.23-.979-1.031-1.361-2.007-1.556-2.453-.508-3.053-.624-3.857-1.154a3.016 3.016 0 01-1.27-1.876c-.44-1.777.371-3.686 3.476-4.452a13.218 13.218 0 012.264-.329 2.7 2.7 0 00.4-.018c.044-.018.124-.062.2-.1l.16-.08c.159-.034.214-.018.232.116z"/><path data-name="パス 244" d="M79.9 8.566c-.142-.79-.533-.913-1.237-.87-.255.018-.255.018-.3-.373-.023-.374 0-.374.361-.407.294-.021 1.172-.054 2.032-.119.881-.033 1.734-.052 2.028-.095.876-.054 1.8-.134 2.633-.232.837-.036 1.659-.116 2.344-.178.222 0 .222.152.247.356s-.044.737-.044 1.607a8.338 8.338 0 000 1.013c.019.2-.1.25-.383.268-.294 0-.382-.044-.4-.214-.312-1.608-.376-1.937-3.055-1.76a4.694 4.694 0 00-1.559.3 1.722 1.722 0 00-.08.819c.049 1.074.152 2.293.25 3.359 3.313-.213 3.514-.366 3.553-1.28.018-.526.018-.526.417-.541.17-.021.366.015.366.167.013.275.054 1.43.054 1.654.054.335.172 1.8.185 2.1 0 .24-.044.291-.283.3s-.366.007-.412-.222c-.137-.693-.214-1.066-.763-1.2a11.571 11.571 0 00-3.1.017c.054.658.2 3.084.314 3.7.062.667.134 1 1.5.917 2.867-.2 2.991-.739 3.511-2.666.065-.152.294-.17.5-.09.167.036.332.144.332.25a20.3 20.3 0 01-.466 3.073.3.3 0 01-.3.3c-.3.03-1.332.074-2.468.146-1.118.051-2.417.13-3.226.2-.711.033-1.378.1-1.893.13-.518.054-.943.117-1.252.117-.24.018-.24 0-.24-.328-.043-.373 0-.391.443-.446.907-.149.943-.649.951-1.349 0-.907-.142-3.3-.229-4.427-.191-2.666-.263-3.508-.33-4"/><path data-name="パス 245" d="M99.15 19.132a13.808 13.808 0 01-3.532-.08c-.793-.116-2.347-.356-2.934-.446-.66-.08-1.914-.211-2.185-.265-.2-.028-.17-.178-.147-.374.042-.329.042-.363.369-.363.845-.028 1.262-.046 1.509-1.556.268-1.44.57-3.7.765-5.209a17.537 17.537 0 00.276-2.7c.026-.852-.276-.932-1.115-1.128-.235-.052-.235-.1-.173-.443.041-.214.041-.41.222-.392.118.026.249.062.517.116.222.044.549.1 1.064.175.562.083 1.618.214 2.595.3.968.131 1.893.229 2.212.273 3.805.5 6 2.738 5.464 6.6-.62 4.756-4.152 5.413-4.907 5.493m1.136-10.123a4.456 4.456 0 00-2.785-1.2c-1.278-.18-1.448.175-1.589.8-.127.559-.678 4.523-.809 5.474a29.7 29.7 0 00-.278 3.179c.077.569.669.8 1.458.9a4 4 0 002.462-.348c1.456-.718 2.288-2.238 2.587-4.389.116-.977.229-3.11-1.046-4.416"/><path data-name="パス 246" d="M109.175 10.761c0-.541-.16-.6-1.182-1.005-.256-.1-.256-.131-.142-.487.093-.347.18-.347.409-.26.41.126 1.461.49 2.649.863.878.266 1.955.577 2.46.737l.335.116c.209.054.172.134.144.312-.157.445-.167.479-.577.381-.891-.214-1.247-.116-1.669.747-.25.559-.907 2.674-1.147 3.475a47.6 47.6 0 00-1.36 4.7c-.08.544-.036.889.642 1.147l.553.159c.165.054.165.1.049.384-.1.327-.118.4-.265.327-.507-.131-2.081-.675-3.138-1.012-.94-.294-1.723-.5-2.426-.693-.124-.062-.176-.116-.062-.472.085-.311.141-.311.623-.2.953.2 1.306-.15 1.706-1.26.5-1.317 1.216-3.671 1.623-5.031a17.129 17.129 0 00.775-2.932"/><path data-name="パス 247" d="M123.393 16.687c-.276.577-.5 1.28-.569 1.414-.132.273-.559.124-.717.062-.19-.1-.172-.178-.059-.773a2.249 2.249 0 00-1.471-2.818 1.649 1.649 0 00-2.426.675c-.49 1.012.172 1.922.729 2.6 1.558 1.884 2.009 2.409 2.3 3.378a3.2 3.2 0 01-.216 2.2 3.591 3.591 0 01-2.52 2.036 4.669 4.669 0 01-3.022-.552 14.813 14.813 0 01-2.009-1.164 6.208 6.208 0 00-.9-.613.429.429 0 00-.325-.052c-.168.008-.2.026-.3-.046-.206-.08-.206-.16-.085-.631.255-.6 1-2.594 1.115-2.852a.536.536 0 01.8-.214c.211.08.188.152.09.667a3.907 3.907 0 00-.044 1.92 3.269 3.269 0 001.8 1.865 1.921 1.921 0 002.79-.817 2.2 2.2 0 00-.6-2.442c-1.6-1.966-2-2.435-2.252-3.367a2.968 2.968 0 01.191-2.231c.791-1.654 2.666-2.623 5.513-1.255a12.926 12.926 0 011.973 1.175 1.193 1.193 0 00.325.211c.018.029.111.047.191.062a1.8 1.8 0 01.239.083c.077.015.121.1.059.211z"/><path data-name="パス 248" d="M137.53 26.595c-.41.526-.773 1.11-.9 1.252-.17.214-.556-.033-.692-.131-.171-.134-.116-.2.136-.755a2.274 2.274 0 00-.8-3.084 1.659 1.659 0 00-2.514.088 2.4 2.4 0 00.121 2.7c1.051 2.211 1.383 2.824 1.437 3.828a3.216 3.216 0 01-.718 2.1 3.619 3.619 0 01-2.927 1.379 4.539 4.539 0 01-2.818-1.237 13.355 13.355 0 01-1.68-1.589c-.631-.729-.67-.729-.724-.827a.5.5 0 00-.322-.106.487.487 0 01-.276-.108c-.157-.132-.141-.2.1-.639a89.416 89.416 0 011.7-2.5.544.544 0 01.847-.021c.175.116.144.181-.07.642a3.931 3.931 0 00-.484 1.883 3.362 3.362 0 001.281 2.213 1.934 1.934 0 002.918-.116 2.322 2.322 0 00.043-2.567c-1.131-2.257-1.4-2.8-1.451-3.769a2.964 2.964 0 01.739-2.149c1.108-1.432 3.154-1.929 5.642.088a11.551 11.551 0 011.608 1.582 2.8 2.8 0 00.275.3c.011.018.111.054.168.1.1.046.188.1.188.1.124.072.124.134.057.25z"/><path data-name="パス 249" d="M44.106 30.533c.659 3.127.835 3.792.337 4.353-.118.15-.007.3.152.5s.248.206.392.072c.232-.17.817-.639 1.226-.968.606-.446 1.18-.871 1.816-1.314.142-.1.049-.26-.061-.41-.245-.337-.245-.337-.575-.09-.425.294-.953.551-1.288.126a19.561 19.561 0 01-1-2.72c.621-.49 2.545-1.945 3.341-2.5a21.417 21.417 0 012.373 1.677c.3.42 0 .765-.41 1.139-.183.149-.1.247.106.523.116.151.183.231.435.064.685-.515 1.306-1.049 1.832-1.44.675-.508 1.3-.951 1.994-1.458.139-.116.074-.214-.093-.436-.16-.185-.232-.3-.4-.213a1.508 1.508 0 01-1.7-.186c-1.613-.969-2.355-1.4-4.588-2.818-1.476-.915-3.3-2.025-4.408-2.852-.188-.16-.3-.24-.417-.16s-.472.446-.8.719c-.319.242-.675.5-.976.7a4.845 4.845 0 00-.747.508c-.124.087-.044.309.183.577.118.178.216.131.518-.018.407-.222.961-.428 1.218.425zm.765-1.317c-.356-1.324-1.01-3.483-1.36-4.815.595.4 2.524 1.626 4.176 2.692a42.428 42.428 0 01-2.816 2.123"/><path data-name="パス 250" d="M121.365 64.7c7.528-4.3 14.272-12.873 16.282-17.948.141-.25 0-.41-.189-.284-4.74 2.834-13.821 5.936-21.217 7.257-2.156.366-6.381.9-8.913 1.183a3.985 3.985 0 00-2.342 1.128 3.822 3.822 0 00-.971 2.721v6.316l-6.044-1.146S94.72 46.791 94.72 46.694c-.051-.116 0-.16.106-.23a9.514 9.514 0 003.47-5.909c.067-.214-.085-.266-.209-.134a5.822 5.822 0 01-2.133 1.179 9.211 9.211 0 01-2.257.232h-6.316c-2.587 0-3.432.16-4.187.646a2.672 2.672 0 00-1.208 2.1v.641h-2.331c-2.334 0-3.7 1-3.88 2.674a3.509 3.509 0 002.592 3.6c.093.018.2-.1.064-.24a.945.945 0 01.456-1.447 1.862 1.862 0 01.768-.1h1.95c-.026.113-2.715 14.215-2.715 14.215l-6.028 1.146v-6.314a3.829 3.829 0 00-.961-2.721 3.973 3.973 0 00-2.363-1.132c-2.524-.284-6.754-.817-8.877-1.183-7.425-1.317-16.508-4.417-21.246-7.253-.213-.126-.311.034-.195.284C41.237 51.823 47.991 60.4 55.488 64.7c.211.1.18.25 0 .232a54.045 54.045 0 01-13.532-2.7c-.369-.113-.426.062-.209.356 3.849 5.234 11.358 10.557 15.112 12 .048.044.056.1-.08.1A39.757 39.757 0 0144.542 72.1c-.276-.1-.389.016-.16.346 2.685 4.044 9.756 9.516 13.834 11.105.108.065.108.145-.08.134a42.082 42.082 0 01-10.554-2.231c-.188-.051-.348 0-.09.392 3.05 4.176 7.926 8.123 13.107 11.418.142.082.124.188-.054.195a37.38 37.38 0 01-8.316-1.411c-.232-.1-.268.105-.062.4a33.051 33.051 0 0011.493 10.011c.164.055.226.222 0 .214a34.3 34.3 0 01-6.881-.878c-.276-.044-.4.131-.129.443 2.553 3.047 7.12 7.818 12.17 9.908a2.545 2.545 0 011.375 1.226c.472.641 3.12 4.194 3.962 5.3a.335.335 0 01.1.425c-.167.34-1.18 2.205-1.43 2.622-.126.24-.167.294-.417.178-.435-.188-2.98-1.538-3.514-1.788a3.426 3.426 0 00-2.973-.229 2.512 2.512 0 00-1.244 2.6 3.162 3.162 0 001.288 2.231c.049.018.065.036.065-.008a2.687 2.687 0 01.4-1.814 1.173 1.173 0 011.041-.453 6.159 6.159 0 011.742.641 2.94 2.94 0 00.757 3.651c0 .046.059.036.059-.018-.044-.969.116-1.626.894-1.981a1.443 1.443 0 01.982-.054 19.561 19.561 0 013.562 1.821 1.286 1.286 0 01.74 1.146 1.987 1.987 0 01-1.257 1.556.06.06 0 000 .1 3.582 3.582 0 001.829.054 2.526 2.526 0 001.888-2.674c-.051-1.193-1.342-2.079-2.19-2.55a13.981 13.981 0 00-.973-.562c-.142-.08-.134-.229 0-.389.231-.428 1.272-2.409 1.44-2.694a.682.682 0 01.4-.353c.2-.054 5.446-1.3 5.518-1.3-.247 1.147-3.589 13.072-3.97 15.416 0 0 0 .044.07.018a24.03 24.03 0 004.621-2.576 12.572 12.572 0 004.867 5.394 12.531 12.531 0 004.853-5.394 23.8 23.8 0 004.655 2.576c.018.026.036 0 .018-.018-.378-2.346-3.737-14.271-3.978-15.418.093 0 5.354 1.245 5.549 1.3a.732.732 0 01.41.353c.131.285 1.2 2.266 1.455 2.694.1.16.1.309-.054.389-.2.116-.744.417-.976.562-.817.471-2.115 1.357-2.177 2.55a2.553 2.553 0 001.883 2.674 3.625 3.625 0 001.84-.054c.007-.018.046-.08 0-.1a1.972 1.972 0 01-1.255-1.556 1.292 1.292 0 01.752-1.146 19.035 19.035 0 013.563-1.821 1.443 1.443 0 01.979.054c.763.355.915 1.012.915 1.981 0 .054.023.064.056.018a2.982 2.982 0 00.747-3.651 5.714 5.714 0 011.742-.641 1.232 1.232 0 011.03.453 2.548 2.548 0 01.392 1.814c0 .044.018.026.062.008a3.29 3.29 0 001.3-2.231 2.519 2.519 0 00-1.249-2.584 3.333 3.333 0 00-2.963.211c-.569.25-3.076 1.6-3.511 1.788-.266.116-.32.062-.448-.178a606.42 606.42 0 01-1.412-2.622.331.331 0 01.1-.425c.834-1.1 3.5-4.656 3.944-5.3a2.584 2.584 0 011.4-1.226c5.044-2.09 9.594-6.861 12.16-9.908.252-.312.149-.487-.114-.443a34.521 34.521 0 01-6.881.878c-.252.008-.18-.159 0-.214A32.679 32.679 0 00124.7 92.446c.206-.294.188-.5-.08-.4a37.181 37.181 0 01-8.277 1.411c-.219-.007-.24-.113-.062-.195 5.194-3.295 10.042-7.242 13.1-11.418.268-.392.088-.443-.08-.392a42.292 42.292 0 01-10.533 2.231c-.227.011-.227-.069-.111-.134 4.073-1.589 11.17-7.061 13.826-11.105.232-.33.116-.443-.134-.346a39.9 39.9 0 01-12.237 2.584c-.167 0-.167-.061-.069-.1 3.722-1.44 11.252-6.763 15.083-12 .227-.294.188-.469-.209-.356a53.825 53.825 0 01-13.506 2.7c-.2.018-.232-.134-.047-.232M91.036 44.98l-3.194 1.866c-.969.551-1.618.293-1.989-.382a14.768 14.768 0 01-.665-1.484zm16.212 34.227c-1.919 4.1-2.643 6.716-2.643 9.64a22.193 22.193 0 00.515 4.6 16.44 16.44 0 01.461 4.132c-.19 6.832-6.139 8.841-8.079 9.534a23.151 23.151 0 00-7.545 4.016l-1.512 1.227-1.528-1.227a23.338 23.338 0 00-7.551-4.016c-1.937-.693-7.883-2.7-8.063-9.534a16.162 16.162 0 01.43-4.132 20.545 20.545 0 00.515-4.6c0-2.924-.711-5.544-2.63-9.64l-.551-1.19L72 73.228h1.373c4.825 0 10.474-1.984 13.411-4.727l1.657-1.513L90.1 68.5c2.939 2.743 8.589 4.727 13.421 4.727h1.35l2.924 4.789z"/><path data-name="パス 251" d="M103.525 74.934c-5.229 0-11.368-2.179-14.614-5.155l-.467-.443-.479.443c-3.243 2.976-9.4 5.155-14.589 5.155h-.409l-1.955 3.19.188.345c2.032 4.346 2.777 7.164 2.777 10.379a23.6 23.6 0 01-.544 4.941 15.047 15.047 0 00-.422 3.73c.162 5 3.763 6.9 6.914 7.945a24.743 24.743 0 018.058 4.31l.461.356.436-.356a24.619 24.619 0 018.079-4.31c3.127-1.048 6.762-2.949 6.911-7.945a15.381 15.381 0 00-.425-3.73 22.6 22.6 0 01-.561-4.941c0-3.215.757-6.033 2.8-10.379l.178-.345-1.95-3.19zm-2.035 13.914a23.025 23.025 0 00.577 5.2 16.329 16.329 0 01.392 3.411c-.129 3.305-1.889 5.27-5.954 6.664a26.825 26.825 0 00-8.061 4.212 26.616 26.616 0 00-8.066-4.212c-4.078-1.394-5.847-3.359-5.95-6.664a13.109 13.109 0 01.386-3.411 23.711 23.711 0 00.587-5.2c0-3.349-.755-6.265-2.8-10.637l1.164-1.865c5.253-.09 11.153-2.151 14.679-5.1 3.519 2.95 9.385 5.011 14.653 5.1l1.165 1.865c-2.035 4.372-2.772 7.288-2.772 10.637"/><path data-name="パス 252" d="M99.856 78.194c-.384.088-.876.232-1.164.33a2.84 2.84 0 00-2.061 2.7 26.369 26.369 0 00.8 4.212 20.188 20.188 0 01.526 6.646c-.294 3.668-1.4 6.567-3.839 6.86-1.842.168-3.1-1.128-2.952-4.317.16-3.787 1.463-7.52 1.566-11.863-.046-1.69 0-4-1.29-5.173-.657-.523-1.482-.168-1.335.587a8.19 8.19 0 01-.832 5.188 4.382 4.382 0 01-2.653 2.383A3.393 3.393 0 0184 85.392a3.517 3.517 0 003.1 1.811c1.685-.052 2.728-.763 4.1-2.62 0 1.759-1.648 7.793-2.123 11.167-.484 3.458 1.6 6.2 5.122 6 3.524-.213 5.848-3.529 5.567-8.939-.325-6.3-2.306-10.049-.964-10.966.652-.389 1.245-.276 1.67-1.129.384-.77.09-1.527.178-2.017.072-.425.4-.523.231-.871a2.437 2.437 0 01-1.012.366"/><path data-name="パス 253" d="M85.6 101.332c-1.574-.417-2.141-1.945-5.892-1.618.719-2.506 1.894-5.5 1.453-9.516-.386-3.4-1.692-4.452-1.834-7.88a4.556 4.556 0 014.15-5.039c1.518.043 2.02.783 1.963 1.669-.054.623-.757 2.854 2.754 2.764.3-1.244-.994-5.554-4.735-5.428-4.05.124-7.164 4.238-6.78 7.891-.021 2.993 2.682 7.6 2.478 11.247a13.566 13.566 0 01-1.471 5.768 5.391 5.391 0 014.191-.134c1.021.428 2.443 1.866 3.308 2.363 1.417.8 2.61.747 3.365.046 1.244-1.226.711-3.475-1-5.188.49 2.061-.355 3.472-1.955 3.055"/><path data-name="パス 254" d="M170.14 81.713A81.71 81.71 0 1188.445 0a81.707 81.707 0 0181.695 81.713M88.445 2a79.7 79.7 0 1079.683 79.714A79.721 79.721 0 0088.445 2"/></g></g></g></g><g data-name="グループ 261"><g data-name="グループ 34" transform="translate(17 79)" clip-path="url(#c)" fill="#fff"><path data-name="パス 87" d="M8.699 30.532a3.28 3.28 0 00-3.26 3.48 3.151 3.151 0 003.208 3.304 3.392 3.392 0 00.052-6.784m2.21 3.432c0 1.474-.789 3.038-2.262 3.038-1.439 0-2.094-1.531-2.094-2.951 0-2.214 1.109-3.206 2.206-3.206.7 0 2.151.761 2.151 3.119"/><path data-name="パス 88" d="M15.484 30.597c-.889 0-1.808 0-2.683.022h-.053v.312h.057c.46 0 .63.039.63.463v5.016c0 .423-.109.464-.613.464h-.058v.315h2.543v-.315h-.062c-.523 0-.755-.069-.755-.464v-1.973h.775c1.222 0 2.524-.486 2.524-1.855 0-1.464-1.194-1.985-2.305-1.985m-.994.8c0-.463.148-.485.775-.485 1.15 0 1.394.855 1.394 1.569 0 1.57-.7 1.643-1.921 1.643h-.247z"/><path data-name="パス 89" d="M22.745 30.93h.054c.533 0 .767.067.767.463v2.283h-3.29v-2.283c0-.4.245-.463.829-.463h.055v-.316h-2.621v.311h.051c.4 0 .633.078.633.463v5.026c0 .389-.232.463-.658.463h-.058v.316h2.553v-.316h-.056c-.58 0-.728-.054-.728-.463v-2.367h3.289v2.367c0 .393-.234.463-.767.463h-.054v.316h2.569v-.316h-.062c-.435 0-.636-.045-.636-.463v-5.021c0-.389.229-.463.655-.463h.062v-.316h-2.587z"/><path data-name="パス 90" d="M26.413 30.93h.057c.552 0 .783.063.783.463v5.021c0 .4-.232.463-.783.463h-.057v.316h2.76v-.316h-.06c-.568 0-.806-.065-.806-.463v-5.021c0-.4.238-.463.806-.463h.058v-.316h-2.758z"/><path data-name="パス 91" d="M35.201 36.048L32.99 30.38l-.089.115a2.673 2.673 0 01-.709.679l-.05.028.182.311-1.887 4.953a.637.637 0 01-.546.407h-.053v.314h1.8v-.309l-.049-.007c-.035 0-.076-.013-.115-.018-.323-.032-.589-.08-.589-.329a7.164 7.164 0 01.383-1.148c.1-.267.193-.5.236-.64h2.133c.055.159.149.4.247.657a6.439 6.439 0 01.381 1.162c0 .289-.372.315-.724.315h-.058v.316h2.546v-.309l-.057-.007c-.464-.069-.563-.288-.771-.825m-1.707-1.683H31.65l.882-2.426z"/><path data-name="パス 92" d="M42.977 30.927h.056c.653.039.916.079.916.657v3.4c0 1.374-.585 2.016-1.838 2.016a1.512 1.512 0 01-1.725-1.664v-3.75c0-.466.1-.657.719-.657h.094v-.315h-2.535v.309h.053c.569.026.615.079.615.657v3.5c0 1.018.426 2.229 2.492 2.229 1.7 0 2.489-.741 2.489-2.329v-3.4c0-.446.24-.657.733-.657h.059v-.309h-2.128z"/><path data-name="パス 93" d="M50.691 30.927h.052c.57.055.764.111.764.54v4.093l-4.436-4.946h-1.468v.311h.059c.288.007.493.226.725.483l.022.023v4.93c0 .02-.007.032 0 .039-.033.393-.274.417-.672.461l-.137.013v.309h2.035v-.309h-.054c-.712-.022-.8-.258-.8-.463v-4.574l4.849 5.409.021.013h.223v-5.8c0-.245.133-.422.8-.528l.05-.008v-.3h-2.03z"/><path data-name="パス 94" d="M53.278 30.93h.056c.558 0 .787.063.787.463v5.021c0 .4-.23.463-.787.463h-.056v.316h2.763v-.316h-.061c-.565 0-.8-.065-.8-.463v-5.021c0-.4.237-.463.8-.463h.061v-.316h-2.763z"/><path data-name="パス 95" d="M60.72 30.927h.1c.267.009.759.023.759.333a4.183 4.183 0 01-.3 1.063l-1.3 3.419-1.584-3.944a.508.508 0 01-.039-.082 3.162 3.162 0 01-.17-.5c0-.22.4-.256.647-.276l.113-.012.05-.008v-.3h-2.523v.311h.059c.171 0 .356.012.417.127l.031.068c.142.288.29.577.474 1.047l2.041 5.141h.237l1.982-5.22.042-.1c.146-.409.372-1.03.811-1.061h.057v-.319h-1.9z"/><path data-name="パス 96" d="M68.693 35.373a5.328 5.328 0 01-.837 1.064 1.24 1.24 0 01-1.035.434h-1.043c-.382 0-.581-.066-.581-.4v-2.418h.571c.856 0 1.259.174 1.346 1.21l.009.052h.258v-2.81h-.253l-.014.047c-.206 1.025-.547 1.123-1.464 1.128h-.453v-2.75h1.354a1.633 1.633 0 011.429.743 6.846 6.846 0 01.418.586l.022.037.3-.074-.488-1.6h-4.835v.311h.054c.464 0 .7.073.7.463v5.018c0 .417-.213.463-.666.463h-.062v.316h5.162l.393-1.777-.254-.071z"/><path data-name="パス 97" d="M75.132 36.383a10.038 10.038 0 00-1.541-2.252 1.758 1.758 0 001.416-1.736c0-1.339-1.256-1.816-2.43-1.816-.429 0-.871 0-1.3.018-.4.007-.829.022-1.239.022h-.057v.312h.057c.419 0 .593.039.593.463v5.021a.481.481 0 01-.07.352c-.084.089-.264.107-.56.107h-.058v.315h2.531v-.315h-.057c-.584 0-.734-.055-.734-.464v-2.137a1.406 1.406 0 011.007.363 15.972 15.972 0 011.681 2.523l.02.027h1.633v-.315h-.062a.831.831 0 01-.836-.489m-3.444-4.99c0-.424.171-.5.648-.5a1.4 1.4 0 011.538 1.492 1.386 1.386 0 01-1.411 1.534c-.253.013-.513.032-.775.035z"/><path data-name="パス 98" d="M78.97 33.374c-.646-.189-1.252-.37-1.274-1.151a1.39 1.39 0 01.338-1.026 1.277 1.277 0 01.943-.353 1.354 1.354 0 011.006.5 3.334 3.334 0 01.57 1.266 1.671 1.671 0 00.064.206l.008.044h.275l-.05-2.038h-.214l-.255.226a2.5 2.5 0 00-1.532-.513 2.091 2.091 0 00-1.532.6 1.8 1.8 0 00-.494 1.335c.032 1.294.741 1.619 1.825 1.971.1.041.222.078.335.111.627.205 1.217.4 1.23 1.153a1.3 1.3 0 01-.329.907 1.441 1.441 0 01-1.093.389 1.871 1.871 0 01-1.794-1.84l-.01-.045h-.294l.054 2.073h.195l.331-.333a3.093 3.093 0 001.614.46 2.449 2.449 0 001.814-.618 1.712 1.712 0 00.436-1.283c-.025-1.294-1.133-1.731-2.171-2.04"/><path data-name="パス 99" d="M2.459 33.374c-.647-.189-1.25-.37-1.271-1.151a1.374 1.374 0 01.339-1.026 1.27 1.27 0 01.94-.353 1.352 1.352 0 011.008.5 3.267 3.267 0 01.564 1.266c.025.073.043.146.067.206l.012.044h.275l-.059-2.044h-.21l-.255.226a2.491 2.491 0 00-1.53-.513 2.089 2.089 0 00-1.534.6 1.831 1.831 0 00-.492 1.335c.037 1.294.746 1.619 1.823 1.971.112.041.226.078.339.111.621.205 1.213.4 1.232 1.153a1.294 1.294 0 01-.333.907 1.452 1.452 0 01-1.094.389 1.857 1.857 0 01-1.788-1.84l-.013-.048h-.3l.054 2.073h.2l.333-.333a3.083 3.083 0 001.618.469 2.442 2.442 0 001.81-.618 1.7 1.7 0 00.44-1.283c-.032-1.294-1.141-1.731-2.175-2.04"/><path data-name="パス 100" d="M82.274 30.93h.057c.56 0 .786.063.786.463v5.021c0 .4-.226.463-.786.463h-.057v.316h2.762v-.316h-.06c-.56 0-.8-.065-.8-.463v-5.021c0-.4.242-.463.8-.463h.06v-.316h-2.762z"/><path data-name="パス 101" d="M91.508 30.467a2.848 2.848 0 01-.8.153h-3.837a2.869 2.869 0 01-.8-.153l-.052-.015-.418 1.844.2.107.03-.034a5.336 5.336 0 00.379-.542 5.29 5.29 0 01.37-.524l.043-.05c.185-.22.27-.322.565-.322h1.071v5.478c0 .346-.144.437-.786.464h-.054v.314h2.765v-.314h-.058c-.7-.03-.809-.13-.809-.464V30.93h1.07c.294 0 .381.1.565.322l.04.05a5.123 5.123 0 01.468.69c.069.128.148.256.225.38l.026.044.22-.11-.365-1.854z"/><path data-name="パス 102" d="M96.33 30.614v.25l.009.059h.053c.271.023.536.063.536.3a7.309 7.309 0 01-1.035 1.9c-.15.234-.285.442-.377.59l-.719-1.231a21.357 21.357 0 01-.155-.265 8.876 8.876 0 01-.554-1.013c0-.245.3-.279.618-.279h.058v-.311h-2.456v.311h.056c.341 0 .54.324.713.613l.076.124 1.469 2.577v2.165c0 .387-.231.463-.627.463h-.058v.316h2.47v-.316h-.07c-.442 0-.662-.073-.662-.463v-2.29l1.727-2.787a.741.741 0 01.521-.4l.048-.013v-.3z"/><path data-name="パス 103" d="M17.46 22.441h-6.006V11.896h7.373c.686 0 1-.1 1.179-.4l.01-.018-2.9-2.1-1.407 1.838h-4.255V4.074a1.537 1.537 0 001-1.052v-.026l-3.649-.349H8.78v19.794H0v.681h20.661c.646 0 .956-.1 1.18-.4l.014-.022-2.94-2.118z"/><path data-name="パス 104" d="M31.918 11.373a7.676 7.676 0 012.367 2.785v.01h.007a1.254 1.254 0 00.757.258 1.138 1.138 0 001.11-1.211c0-1.005-1.041-2.175-3.964-2.458a11.859 11.859 0 00.359-1.155h3.585a1.2 1.2 0 001.138-.581l.01-.02-2.34-1.705-.017-.013-1.239 1.636h-.982a23.517 23.517 0 00.246-2.99H35.7a1.2 1.2 0 001.112-.6l.014-.02-2.346-1.705-.013-.014-1.222 1.658h-3.444l.067-.109a7.812 7.812 0 00.535-1.036 1 1 0 00.965-.686v-.023l-3.067-.866h-.024v.023a17.709 17.709 0 01-1.787 5.731l-.007.018.332.231.012-.012a9.018 9.018 0 002.53-2.59h1.154c0 .084 0 .176-.006.265a23.162 23.162 0 01-.147 2.725h-4.711v.686h4.622c-.457 2.5-1.777 4.155-4.387 5.5l-.028.016.285.384.016-.006c2.973-.993 4.8-2.3 5.763-4.125"/><path data-name="パス 105" d="M44.459 3.637L43.5 4.903H40l-2.457-1.022-.029-.015v10.029h.025c2.08 0 2.367-.877 2.367-.877v-1.055h3.817v1.445h.02c1.674 0 2.393-.542 2.393-.627V6.147a1.353 1.353 0 00.975-.63l.013-.02-2.647-1.846zm-4.553 1.945h3.817v5.7h-3.817z"/><path data-name="パス 106" d="M41.895 14.056l-.984 1.163H31.85l-2.6-.955h-.027V24.47h.02c2.2 0 2.465-.919 2.465-.926v-.575h9.422v1.34h.02c1.722 0 2.488-.573 2.488-.649v-7.35a1.406 1.406 0 00.9-.473l.015-.021-2.645-1.749zm-.765 8.229h-9.421v-2.944h9.421zm0-3.629h-9.421v-2.752h9.421z"/><path data-name="パス 107" d="M62.993 10.223h8.832c.652 0 .955-.1 1.15-.4l.017-.019-2.971-2.106-.016-.012-1.453 1.854h-5.85c.172-1.674.2-3.144.24-4.83 0-.214.014-.434.014-.656a1.188 1.188 0 00.959-1.031v-.025l-3.787-.332v.024c0 3.25 0 4.933-.167 6.848h-8.828v.685h8.781c-.456 4.454-1.868 9.588-8.837 13.906l-.025.009.258.384.019-.006c3.9-1.634 6.676-3.672 8.5-6.234a16.223 16.223 0 002.749-7.715c.9 6.64 3.561 11.189 8.136 13.923l.029.02.011-.032a2.584 2.584 0 012.3-2.4h.013l.055-.314-.014-.006c-5.731-2.378-9.131-6.256-10.12-11.533"/><path data-name="パス 108" d="M81.564 7.108v.016a1.433 1.433 0 001.041.521 1.4 1.4 0 001.324-1.468 2.2 2.2 0 00-.847-1.635 7.241 7.241 0 00-3.03-1.453h-.012l-.186.185.016.016a6.926 6.926 0 011.692 3.821"/><path data-name="パス 109" d="M86.536 6.803v.016a1.434 1.434 0 001.134.613 1.568 1.568 0 001.465-1.628c0-.613-.352-2.162-3.638-3.276h-.016l-.212.161.013.02a6.98 6.98 0 011.251 4.1"/><path data-name="パス 110" d="M98.563 9.307l.014-.017-2.57-2.422-1.449 1.471h-3.393A26.19 26.19 0 0095.5 4.518a1.378 1.378 0 00.244.018 1.122 1.122 0 00.21-.018.832.832 0 00.6-.4l.009-.02-3.394-1.359-.019-.007-.009.022a37.389 37.389 0 01-2.668 5.585H80.089a7.524 7.524 0 00-.367-1.17l-.009-.018-.367.028v.023a2.83 2.83 0 01-1.682 2.744 1.531 1.531 0 00-1.036 1.322c0 .627.547 1.068 1.326 1.068a2.111 2.111 0 001.6-.72 3.087 3.087 0 00.679-2.072 4.892 4.892 0 00-.02-.525h14.418a29.882 29.882 0 01-.835 2.51l-1.406-1.36-1.478 1.377h-9.834v.68h9.623a24.578 24.578 0 01-2.378 2.574l-1.992-.12v2.134h-9.442v.681h9.438v3.719c0 .327-.118.44-.461.44h-3.952v.349h.018c2.3.236 3.253.621 3.253 2.4v.026h.026a4.651 4.651 0 003.063-1.066 2.983 2.983 0 00.634-2.143v-3.724h8.393c.651 0 .955-.1 1.157-.4l.011-.02-2.732-2.026-1.367 1.769h-5.461v-1.716c.462-.2 3.871-1.692 4.9-2.3.546-.055.8-.1.986-.291l.015-.014-.642-.624a21.807 21.807 0 003.477-2.257c.453-.048.745-.085.918-.311"/></g></g></svg>