<?xml version="1.0" encoding="utf-8"?>
<svg version="1.1" xmlns="http://www.w3.org/2000/svg" xmlns:xlink="http://www.w3.org/1999/xlink" x="0px" y="0px" width="242.465px" height="60px" viewBox="0 0 242.465 60" xml:space="preserve">
<g>
	<g>
		<path fill="#040000" d="M81.239,38.168h-9.827v-1.9h9.827V38.168z M82.621,35.011H70.064v7.644h5.525v2.281h-7.183v1.331h7.183
			v4.271h1.453v-4.271h7.257v-1.331h-7.257v-2.281h5.58V35.011z M81.239,41.398h-9.827v-2.021h9.827V41.398z"/>
		<path fill="#040000" d="M99.724,44.901h-3.538v-2.395h3.538V44.901z M101.073,41.279h-6.217v9.311h1.331v-0.78h3.578v0.78h1.308
			V41.279z M99.724,48.567h-3.538v-2.5h3.538V48.567z M89.67,36.163c1.111-0.241,1.523-0.378,1.939-0.511l-0.553-1.195
			c-1.643,0.535-3.179,0.762-5.563,0.897l0.264,1.297c0.515-0.038,1.322-0.072,2.568-0.247v2.596h-2.762v1.315h2.662
			c-0.675,1.983-1.589,3.662-2.955,5.126l0.653,1.659c0.818-0.883,1.453-1.798,2.402-4.266v7.773h1.346v-7.809
			c0.836,1.522,1.194,1.971,1.475,2.315l0.737-1.279c-0.775-0.845-1.376-1.637-2.212-3.23v-0.288h2.011v-1.315H89.67V36.163z
			 M100.692,34.524c-2.916,0.621-5.336,0.756-8.668,0.776l0.258,1.243c2.954-0.05,5.905-0.274,8.809-0.865L100.692,34.524z
			 M97.622,39.924c-0.279-1.185-0.659-2.258-1.055-3.175l-1.316,0.316c0.245,0.553,0.779,1.788,1.055,3.208L97.622,39.924z
			 M93.475,41.016h-1.363v9.573h1.363V41.016z M94.317,40.139c-0.43-1.285-0.709-1.868-1.341-3.057l-1.214,0.434
			c0.851,1.587,1.145,2.568,1.28,3.073L94.317,40.139z M99.78,40.758c0.843-1.311,1.503-2.819,1.883-3.829l-1.297-0.42
			c-0.364,1.138-1.139,2.747-1.759,3.682L99.78,40.758z"/>
		<path fill="#040000" d="M110.199,41.571h-5.131v-4.939h5.131V41.571z M103.65,35.3v15.077h1.418v-0.875h11.679v0.875h1.414V35.3
			H103.65z M110.199,48.171h-5.131v-5.287h5.131V48.171z M116.747,41.571h-5.163v-4.939h5.163V41.571z M116.747,48.171h-5.163
			v-5.287h5.163V48.171z"/>
		<path fill="#040000" d="M127.287,34.488h1.537v3.938v0.296h7.391v1.448h-7.153c1.073,4.543,3.097,7.067,7.414,8.824l-0.985,1.438
			c-3.506-1.641-6.112-4.004-7.27-8.292c-0.346,1.229-1.246,3.845-3.87,6.081c-1.502,1.281-2.818,1.864-3.525,2.194l-0.829-1.486
			c2.485-0.983,6.272-3.073,7.206-8.758h-7.069v-1.448h7.153V34.488z"/>
		<path fill="#040000" d="M149.005,37.285c0.554-0.967,1.143-2.449,1.297-2.868l1.517,0.503c-0.366,0.811-0.773,1.609-1.242,2.365
			h2.505v3.823h-1.417v-2.54h-12.419v2.54h-1.418v-3.823h2.525c-0.332-0.983-0.987-1.967-1.209-2.273l1.291-0.523
			c0.677,0.879,1.07,1.76,1.331,2.451l-0.862,0.346H149.005z M145.207,37.269c-0.312-0.74-0.759-1.617-1.335-2.468l1.348-0.533
			c0.433,0.633,0.966,1.655,1.314,2.518L145.207,37.269z M150.682,41.295c-1.316,1.174-2.837,2.059-4.408,2.838v0.36h7.222v1.329
			h-7.222v3.417c0,1.024-0.723,1.337-1.415,1.337h-3.179l-0.274-1.49l2.829,0.016c0.537,0,0.572-0.155,0.572-0.551v-2.729h-7.393
			v-1.329h7.393v-1.434h0.761c0.605-0.243,1.861-0.811,2.795-1.661h-8.152v-1.279h10.469V41.295z"/>
	</g>
	<g>
		<polygon fill="#881C28" points="30.001,0 59.999,30.017 30.001,60 0,30.017 		"/>
		<g>
			<g>
				<g>
					<g>
						<path fill="none" stroke="#FFFFFF" stroke-width="0.2168" d="M41.016,37.16c0,0,1.963,2.023-2.097,6.085"/>
						<g>
							<path fill="#FFFFFF" stroke="#881C28" stroke-width="0.0955" stroke-linecap="round" d="M34.355,46.023
								c0,0,2.933-1.237,4.823-4.915c1.426-2.775,2.687-3.586,4.049-3.371c0,0-1.641-0.469-3.106,4.31
								c-1.407,4.555-5.442,4.728-5.442,4.728L34.355,46.023z"/>
							<path fill="none" stroke="#881C28" stroke-width="0.0955" stroke-linecap="round" d="M43.227,37.736
								c0,0-1.583-0.581-3.428,3.435c-1.854,4.02-4.179,4.985-4.179,4.985"/>
						</g>
						<g>
							<path fill="#FFFFFF" stroke="#881C28" stroke-width="0.0955" stroke-linecap="round" d="M33.061,46.997
								c0,0,4.005-1.05,6.15-3.718c1.497-1.868,3.429-6.287,5.822-5.864c0,0-1.713,0.457-3.066,3.435
								c-1.501,3.276-2.724,4.646-4.555,5.81c-1.531,0.961-3.397,1.412-5.459,1.711L33.061,46.997"/>
							<path fill="none" stroke="#881C28" stroke-width="0.0955" stroke-linecap="round" d="M32.222,47.809
								c0,0,4.972-0.533,7.576-4.213c2.06-2.918,2.717-5.846,5.234-6.18"/>
						</g>
						<g>
							<path fill="#FFFFFF" d="M37.46,38.936c0,0-1.752-0.422-2.934,4.38c0,0,3.081-4.931,4.367-3.471
								C38.894,39.845,38.954,39.541,37.46,38.936z"/>
							<path fill="none" stroke="#881C28" stroke-width="0.0955" d="M34.527,43.316c0,0,2.3-5.372,3.918-3.847"/>
							<path fill="#FFFFFF" stroke="#881C28" stroke-width="0.0955" stroke-linecap="round" d="M33.013,46.162
								c0,0,1.387-0.674,2.995-2.248c1.469-1.446,2.657-3.942,1.744-4.867c0,0,0.519,0.086,1.233,0.732c0,0,1.137,3.322-6.022,7.833
								L33.013,46.162z"/>
							<path fill="none" stroke="#881C28" stroke-width="0.0955" stroke-linecap="round" d="M38.476,39.385
								c0,0,1.408,3.274-5.585,7.58"/>
						</g>
						<g>
							<path fill="#FFFFFF" stroke="#881C28" stroke-width="0.0955" stroke-linecap="round" d="M35.945,36.615
								c0.364,0.251,0.225,1.018-0.767,1.245c-0.306,0.08-0.493,0.42-0.493,0.42s0.205-0.247,0.214-0.585
								C34.92,36.549,35.599,36.364,35.945,36.615z"/>
							<path fill="#FFFFFF" stroke="#881C28" stroke-width="0.0955" stroke-linecap="round" d="M36.17,35.529
								c0.37,0.314,0.211,1.094-0.845,1.205c-0.334,0.032-0.537,0.362-0.537,0.362s0.22-0.231,0.234-0.579
								C35.069,35.328,35.8,35.222,36.17,35.529z"/>
							<path fill="#FFFFFF" stroke="#881C28" stroke-width="0.0955" stroke-linecap="round" d="M36.987,35.922
								c0.405,0.261,0.351,1.05-0.695,1.299c-0.319,0.076-0.478,0.424-0.478,0.424s0.188-0.249,0.159-0.597
								C35.873,35.861,36.576,35.668,36.987,35.922z"/>
							<path fill="#FFFFFF" stroke="#881C28" stroke-width="0.0955" stroke-linecap="round" d="M36.728,33.993
								c0.083,0.477-0.527,0.977-1.425,0.378c-0.274-0.183-0.631-0.066-0.631-0.066s0.309-0.034,0.549-0.294
								C36.017,33.134,36.648,33.52,36.728,33.993z"/>
							<path fill="#FFFFFF" stroke="#881C28" stroke-width="0.0955" stroke-linecap="round" d="M36.754,34.854
								c0.156,0.456-0.373,1.044-1.342,0.601c-0.301-0.145-0.641,0.036-0.641,0.036s0.304-0.09,0.498-0.382
								C35.925,34.118,36.601,34.411,36.754,34.854z"/>
							<path fill="#FFFFFF" stroke="#881C28" stroke-width="0.0955" stroke-linecap="round" d="M37.776,34.598
								c-0.01,0.481-0.714,0.849-1.466,0.101c-0.234-0.237-0.618-0.195-0.618-0.195s0.315,0.03,0.601-0.181
								C37.246,33.615,37.789,34.118,37.776,34.598z"/>
							<path fill="#FFFFFF" stroke="#881C28" stroke-width="0.0955" stroke-linecap="round" d="M37.972,35.471
								c0.092,0.481-0.521,0.985-1.416,0.4c-0.276-0.185-0.643-0.064-0.643-0.064s0.316-0.032,0.549-0.289
								C37.258,34.63,37.882,35.011,37.972,35.471z"/>
							<path fill="#FFFFFF" stroke="#881C28" stroke-width="0.0955" stroke-linecap="round" d="M38.432,36.263
								c0.205,0.438-0.264,1.08-1.276,0.73c-0.315-0.107-0.637,0.107-0.637,0.107s0.295-0.117,0.456-0.428
								C37.523,35.62,38.232,35.823,38.432,36.263z"/>
							<path fill="#FFFFFF" stroke="#881C28" stroke-width="0.0955" stroke-linecap="round" d="M38.67,35.115
								c-0.29,0.394-1.071,0.286-1.256-0.766c-0.055-0.328-0.395-0.507-0.395-0.507s0.242,0.203,0.597,0.195
								C38.792,34.011,38.951,34.729,38.67,35.115z"/>
							<path fill="#FFFFFF" stroke="#881C28" stroke-width="0.0955" stroke-linecap="round" d="M39.166,35.922
								c-0.212,0.442-0.998,0.479-1.371-0.521c-0.12-0.302-0.497-0.424-0.497-0.424s0.289,0.153,0.627,0.078
								C39.082,34.809,39.372,35.489,39.166,35.922z"/>
							<path fill="#FFFFFF" stroke="#881C28" stroke-width="0.0955" stroke-linecap="round" d="M39.939,35.413
								c-0.339,0.346-1.095,0.139-1.15-0.925c-0.007-0.332-0.322-0.555-0.322-0.555s0.217,0.229,0.559,0.27
								C40.213,34.335,40.269,35.069,39.939,35.413z"/>
							<path fill="#FFFFFF" stroke="#881C28" stroke-width="0.0955" stroke-linecap="round" d="M40.812,35.986
								c-0.46,0.161-1.045-0.376-0.588-1.341c0.138-0.298-0.036-0.642-0.036-0.642s0.081,0.302,0.377,0.499
								C41.552,35.155,41.27,35.833,40.812,35.986z"/>
							<path fill="#FFFFFF" stroke="#881C28" stroke-width="0.0955" stroke-linecap="round" d="M39.752,38.2
								c0.149,0.461-0.393,1.03-1.358,0.569c-0.295-0.147-0.643,0.018-0.643,0.018s0.312-0.076,0.512-0.362
								C38.933,37.446,39.606,37.74,39.752,38.2z"/>
							<path fill="#FFFFFF" stroke="#881C28" stroke-width="0.0955" stroke-linecap="round" d="M39.3,37.359
								c0.148,0.463-0.398,1.026-1.354,0.565c-0.295-0.141-0.649,0.02-0.649,0.02s0.311-0.074,0.511-0.368
								C38.481,36.601,39.157,36.899,39.3,37.359z"/>
							<path fill="#FFFFFF" stroke="#881C28" stroke-width="0.0955" stroke-linecap="round" d="M39.915,36.77
								c-0.065,0.483-0.803,0.77-1.47-0.06c-0.204-0.261-0.597-0.253-0.597-0.253s0.317,0.06,0.616-0.117
								C39.495,35.743,39.973,36.298,39.915,36.77z"/>
							<path fill="#FFFFFF" stroke="#881C28" stroke-width="0.0955" stroke-linecap="round" d="M40.466,37.484
								c0.15,0.469-0.397,1.038-1.354,0.565c-0.294-0.145-0.648,0.028-0.648,0.028s0.309-0.074,0.513-0.372
								C39.647,36.734,40.319,37.038,40.466,37.484z"/>
							<path fill="#FFFFFF" stroke="#881C28" stroke-width="0.0955" stroke-linecap="round" d="M40.525,36.302
								c-0.216,0.44-1.003,0.483-1.379-0.509c-0.12-0.312-0.481-0.428-0.481-0.428s0.279,0.153,0.624,0.089
								C40.443,35.194,40.725,35.875,40.525,36.302z"/>
							<path fill="#FFFFFF" stroke="#881C28" stroke-width="0.0955" stroke-linecap="round" d="M41.395,37.15
								c-0.458,0.165-1.043-0.372-0.591-1.343c0.133-0.298-0.038-0.639-0.038-0.639s0.082,0.296,0.373,0.499
								C42.136,36.32,41.851,37.003,41.395,37.15z"/>
							<path fill="#FFFFFF" stroke="#881C28" stroke-width="0.0955" stroke-linecap="round" d="M41.103,37.343
								c-0.203,0.442-0.997,0.487-1.373-0.515c-0.114-0.31-0.487-0.424-0.487-0.424s0.278,0.155,0.624,0.08
								C41.031,36.231,41.309,36.909,41.103,37.343z"/>
						</g>
					</g>
					<g>
						<path fill="none" stroke="#FFFFFF" stroke-width="0.2168" d="M18.996,37.16c0,0-1.962,2.023,2.099,6.085"/>
						<g>
							<path fill="#FFFFFF" stroke="#881C28" stroke-width="0.0955" stroke-linecap="round" d="M25.653,46.023
								c0,0-2.926-1.237-4.814-4.915c-1.432-2.775-2.694-3.586-4.051-3.371c0,0,1.641-0.469,3.107,4.31
								c1.406,4.555,5.435,4.728,5.435,4.728L25.653,46.023z"/>
							<path fill="none" stroke="#881C28" stroke-width="0.0955" stroke-linecap="round" d="M16.789,37.736
								c0,0,1.578-0.581,3.425,3.435c1.852,4.02,4.179,4.985,4.179,4.985"/>
						</g>
						<g>
							<path fill="#FFFFFF" stroke="#881C28" stroke-width="0.0955" stroke-linecap="round" d="M26.954,46.997
								c0,0-4.006-1.05-6.154-3.718c-1.494-1.868-3.425-6.287-5.821-5.864c0,0,1.717,0.457,3.075,3.435
								c1.5,3.276,2.711,4.646,4.551,5.81c1.524,0.961,3.398,1.412,5.449,1.711L26.954,46.997"/>
							<path fill="none" stroke="#881C28" stroke-width="0.0955" stroke-linecap="round" d="M27.788,47.809
								c0,0-4.965-0.533-7.574-4.213c-2.062-2.918-2.72-5.846-5.235-6.18"/>
						</g>
						<g>
							<path fill="#FFFFFF" d="M22.56,38.936c0,0,1.738-0.422,2.935,4.38c0,0-3.093-4.931-4.376-3.471
								C21.118,39.845,21.065,39.541,22.56,38.936z"/>
							<path fill="none" stroke="#881C28" stroke-width="0.0955" d="M25.495,43.316c0,0-2.305-5.372-3.93-3.847"/>
							<path fill="#FFFFFF" stroke="#881C28" stroke-width="0.0955" stroke-linecap="round" d="M27,46.162
								c0,0-1.385-0.674-2.995-2.248c-1.472-1.446-2.659-3.942-1.745-4.867c0,0-0.514,0.086-1.233,0.732c0,0-1.14,3.322,6.02,7.833
								L27,46.162z"/>
							<path fill="none" stroke="#881C28" stroke-width="0.0955" stroke-linecap="round" d="M21.538,39.385
								c0,0-1.409,3.274,5.587,7.58"/>
						</g>
						<g>
							<path fill="#FFFFFF" stroke="#881C28" stroke-width="0.0955" stroke-linecap="round" d="M24.068,36.615
								c-0.354,0.251-0.222,1.018,0.765,1.245c0.309,0.08,0.493,0.42,0.493,0.42s-0.202-0.247-0.206-0.585
								C25.091,36.549,24.42,36.364,24.068,36.615z"/>
							<path fill="#FFFFFF" stroke="#881C28" stroke-width="0.0955" stroke-linecap="round" d="M23.845,35.529
								c-0.366,0.314-0.21,1.094,0.847,1.205c0.329,0.032,0.538,0.362,0.538,0.362s-0.226-0.231-0.24-0.579
								C24.942,35.328,24.212,35.222,23.845,35.529z"/>
							<path fill="#FFFFFF" stroke="#881C28" stroke-width="0.0955" stroke-linecap="round" d="M23.028,35.922
								c-0.412,0.261-0.345,1.05,0.689,1.299c0.322,0.076,0.477,0.424,0.477,0.424s-0.179-0.249-0.151-0.597
								C24.146,35.861,23.435,35.668,23.028,35.922z"/>
							<path fill="#FFFFFF" stroke="#881C28" stroke-width="0.0955" stroke-linecap="round" d="M23.287,33.993
								c-0.085,0.477,0.529,0.977,1.42,0.378c0.274-0.183,0.636-0.066,0.636-0.066s-0.31-0.034-0.55-0.294
								C23.996,33.134,23.367,33.52,23.287,33.993z"/>
							<path fill="#FFFFFF" stroke="#881C28" stroke-width="0.0955" stroke-linecap="round" d="M23.255,34.854
								c-0.152,0.456,0.38,1.044,1.343,0.601c0.3-0.145,0.649,0.036,0.649,0.036s-0.309-0.09-0.504-0.382
								C24.091,34.118,23.415,34.411,23.255,34.854z"/>
							<path fill="#FFFFFF" stroke="#881C28" stroke-width="0.0955" stroke-linecap="round" d="M22.242,34.598
								c0.007,0.481,0.706,0.849,1.465,0.101c0.233-0.237,0.612-0.195,0.612-0.195s-0.31,0.03-0.598-0.181
								C22.773,33.615,22.232,34.118,22.242,34.598z"/>
							<path fill="#FFFFFF" stroke="#881C28" stroke-width="0.0955" stroke-linecap="round" d="M22.042,35.471
								c-0.093,0.481,0.528,0.985,1.41,0.4c0.285-0.185,0.646-0.064,0.646-0.064s-0.314-0.032-0.55-0.289
								C22.759,34.63,22.134,35.011,22.042,35.471z"/>
							<path fill="#FFFFFF" stroke="#881C28" stroke-width="0.0955" stroke-linecap="round" d="M21.585,36.263
								c-0.204,0.438,0.262,1.08,1.278,0.73c0.305-0.107,0.628,0.107,0.628,0.107s-0.289-0.117-0.457-0.428
								C22.491,35.62,21.785,35.823,21.585,36.263z"/>
							<path fill="#FFFFFF" stroke="#881C28" stroke-width="0.0955" stroke-linecap="round" d="M21.341,35.115
								c0.289,0.394,1.072,0.286,1.257-0.766c0.059-0.328,0.394-0.507,0.394-0.507s-0.24,0.203-0.594,0.195
								C21.21,34.011,21.065,34.729,21.341,35.115z"/>
							<path fill="#FFFFFF" stroke="#881C28" stroke-width="0.0955" stroke-linecap="round" d="M20.844,35.922
								c0.211,0.442,1.003,0.479,1.379-0.521c0.12-0.302,0.484-0.424,0.484-0.424s-0.279,0.153-0.616,0.078
								C20.924,34.809,20.648,35.489,20.844,35.922z"/>
							<path fill="#FFFFFF" stroke="#881C28" stroke-width="0.0955" stroke-linecap="round" d="M20.074,35.413
								c0.338,0.346,1.1,0.139,1.143-0.925c0.01-0.332,0.331-0.555,0.331-0.555s-0.219,0.229-0.564,0.27
								C19.802,34.335,19.743,35.069,20.074,35.413z"/>
							<path fill="#FFFFFF" stroke="#881C28" stroke-width="0.0955" stroke-linecap="round" d="M19.203,35.986
								c0.456,0.161,1.04-0.376,0.589-1.341c-0.139-0.298,0.036-0.642,0.036-0.642s-0.08,0.302-0.378,0.499
								C18.463,35.155,18.746,35.833,19.203,35.986z"/>
							<path fill="#FFFFFF" stroke="#881C28" stroke-width="0.0955" stroke-linecap="round" d="M20.258,38.2
								c-0.151,0.461,0.395,1.03,1.355,0.569c0.298-0.147,0.646,0.018,0.646,0.018s-0.311-0.076-0.51-0.362
								C21.081,37.446,20.405,37.74,20.258,38.2z"/>
							<path fill="#FFFFFF" stroke="#881C28" stroke-width="0.0955" stroke-linecap="round" d="M20.714,37.359
								c-0.148,0.463,0.404,1.026,1.346,0.565c0.305-0.141,0.647,0.02,0.647,0.02s-0.305-0.074-0.504-0.368
								C21.534,36.601,20.857,36.899,20.714,37.359z"/>
							<path fill="#FFFFFF" stroke="#881C28" stroke-width="0.0955" stroke-linecap="round" d="M20.103,36.77
								c0.054,0.483,0.792,0.77,1.46-0.06c0.211-0.261,0.6-0.253,0.6-0.253s-0.309,0.06-0.613-0.117
								C20.52,35.743,20.037,36.298,20.103,36.77z"/>
							<path fill="#FFFFFF" stroke="#881C28" stroke-width="0.0955" stroke-linecap="round" d="M19.553,37.484
								c-0.156,0.469,0.392,1.038,1.35,0.565c0.298-0.145,0.647,0.028,0.647,0.028s-0.315-0.074-0.518-0.372
								C20.365,36.734,19.694,37.038,19.553,37.484z"/>
							<path fill="#FFFFFF" stroke="#881C28" stroke-width="0.0955" stroke-linecap="round" d="M19.488,36.302
								c0.211,0.44,1.003,0.483,1.374-0.509c0.12-0.312,0.483-0.428,0.483-0.428s-0.273,0.153-0.612,0.089
								C19.57,35.194,19.284,35.875,19.488,36.302z"/>
							<path fill="#FFFFFF" stroke="#881C28" stroke-width="0.0955" stroke-linecap="round" d="M18.617,37.15
								c0.462,0.165,1.043-0.372,0.597-1.343c-0.137-0.298,0.036-0.639,0.036-0.639s-0.085,0.296-0.378,0.499
								C17.88,36.32,18.168,37.003,18.617,37.15z"/>
							<path fill="#FFFFFF" stroke="#881C28" stroke-width="0.0955" stroke-linecap="round" d="M18.905,37.343
								c0.207,0.442,0.998,0.487,1.38-0.515c0.112-0.31,0.479-0.424,0.479-0.424s-0.272,0.155-0.617,0.08
								C18.985,36.231,18.702,36.909,18.905,37.343z"/>
						</g>
					</g>
					<path fill="#FFFFFF" stroke="#881C28" stroke-width="0.1419" d="M28.334,47.487c0,0-1.487,0.967-3.173,0.448
						c0,0,1.483,0.778,1.033,2.14c0,0,2.588-0.712,3.24-1.945C30.077,46.902,28.334,47.487,28.334,47.487z"/>
					<path fill="#FFFFFF" stroke="#881C28" stroke-width="0.1419" d="M29.219,46.421c0,0-2.591-1.633-2.591-0.75v1.941
						c0,0,1.321,0.645,2.809,0.066L29.219,46.421z"/>
					<path fill="none" stroke="#881C28" stroke-width="0.1419" d="M26.628,45.617c0,0-0.175,1.028,2.624,1.028"/>
					<g>
						<path fill="#FFFFFF" d="M33.693,39.554h-7.456c-0.199,0-0.36,0.163-0.36,0.366v3.433c0,0.199,0.161,0.358,0.36,0.358
							c0.198,0,0.36-0.159,0.36-0.358c0,0,0-2.496,0-3.079c0.62,0,6.111,0,6.732,0c0,0.583,0,3.079,0,3.079
							c0,0.199,0.166,0.358,0.364,0.358c0.201,0,0.361-0.159,0.361-0.358V39.92C34.054,39.718,33.894,39.554,33.693,39.554z"/>
						<path fill="#FFFFFF" d="M26.061,35.049c-0.215,0.105-0.299,0.364-0.193,0.579c0.11,0.213,0.369,0.3,0.585,0.187
							c0,0,3.163-1.607,3.516-1.784c0.35,0.177,3.502,1.784,3.502,1.784c0.216,0.113,0.475,0.026,0.583-0.187
							c0.107-0.215,0.022-0.473-0.189-0.579l-3.469-1.772v-1.77c1.276,0,2.455,0,2.777,0c0,0.609,0,2.168,0,2.168
							c0,0.239,0.197,0.434,0.436,0.434c0.24,0,0.433-0.195,0.433-0.434v-2.596c0-0.243-0.192-0.434-0.433-0.434h-3.212v-0.4
							c0-0.241-0.196-0.434-0.432-0.434c-0.24,0-0.433,0.193-0.433,0.434v0.4h-3.226c-0.241,0-0.433,0.191-0.433,0.434v2.596
							c0,0.239,0.192,0.434,0.433,0.434c0.242,0,0.436-0.195,0.436-0.434c0,0,0-1.559,0-2.168c0.323,0,1.513,0,2.79,0v1.774
							L26.061,35.049z"/>
						<path fill="#FFFFFF" d="M33.711,36.052c-0.192,0-0.346,0.153-0.355,0.35h-1.629c-0.2,0-0.362,0.157-0.362,0.358
							c0,0.197,0.161,0.36,0.362,0.36h1.624c0,0.117,0,0.249,0,0.38h-1.624c-0.2,0-0.362,0.161-0.362,0.358
							c0,0.203,0.161,0.36,0.362,0.36h1.624c0,0.153,0,0.284,0,0.376c-0.482,0-1.624,0-1.624,0c-0.2,0-0.362,0.169-0.362,0.366
							c0,0.197,0.161,0.358,0.362,0.358h1.984c0.198,0,0.361-0.161,0.361-0.358v-2.544C34.072,36.219,33.909,36.052,33.711,36.052z"
							/>
						<path fill="#FFFFFF" d="M26.213,39.318h1.981c0.202,0,0.362-0.161,0.362-0.358c0-0.197-0.161-0.366-0.362-0.366
							c0,0-1.136,0-1.619,0c0-0.092,0-0.223,0-0.376h1.619c0.202,0,0.362-0.157,0.362-0.36c0-0.197-0.161-0.358-0.362-0.358h-1.619
							c0-0.131,0-0.263,0-0.38h1.619c0.202,0,0.362-0.163,0.362-0.36c0-0.201-0.161-0.358-0.362-0.358h-1.625
							c-0.009-0.197-0.165-0.35-0.356-0.35c-0.197,0-0.362,0.167-0.362,0.364v2.544C25.851,39.157,26.015,39.318,26.213,39.318z"/>
						<path fill="#FFFFFF" d="M31.129,36.402c-0.072-0.145-0.249-0.201-0.391-0.133l-0.758,0.398l-0.762-0.398
							c-0.146-0.068-0.321-0.012-0.388,0.133c-0.076,0.131-0.02,0.312,0.122,0.384l0.393,0.207l-0.393,0.195
							c-0.142,0.072-0.197,0.245-0.122,0.388c0.067,0.143,0.242,0.199,0.388,0.127l0.762-0.394l0.758,0.394
							c0.143,0.072,0.32,0.016,0.391-0.127c0.074-0.143,0.018-0.316-0.124-0.388l-0.392-0.195l0.392-0.207
							C31.147,36.714,31.203,36.533,31.129,36.402z"/>
						<path fill="#FFFFFF" d="M31.129,37.967c-0.072-0.143-0.249-0.195-0.391-0.127l-0.758,0.396l-0.765-0.396
							c-0.143-0.068-0.318-0.016-0.385,0.127c-0.076,0.139-0.02,0.318,0.122,0.392l0.392,0.197l-0.392,0.201
							c-0.143,0.07-0.198,0.251-0.122,0.388c0.067,0.139,0.242,0.201,0.385,0.125l0.765-0.39l0.758,0.39
							c0.143,0.076,0.32,0.014,0.391-0.125c0.074-0.137,0.018-0.318-0.127-0.388l-0.39-0.201l0.39-0.197
							C31.147,38.285,31.203,38.106,31.129,37.967z"/>
						<path fill="#FFFFFF" d="M32.572,40.571c-0.197,0-0.358,0.161-0.358,0.368c0,0,0,1.53,0,2.055c-0.254,0-1.034,0-1.878,0v-0.284
							h1.11c0.197,0,0.362-0.157,0.362-0.358v-1.412c0-0.207-0.165-0.368-0.362-0.368h-2.975c-0.202,0-0.362,0.161-0.362,0.368
							v1.412c0,0.201,0.16,0.358,0.362,0.358h1.144c0,0.087,0,0.185,0,0.284c-0.844,0-1.625,0-1.883,0c0-0.525,0-2.055,0-2.055
							c0-0.207-0.161-0.368-0.358-0.368c-0.202,0-0.363,0.161-0.363,0.368v2.415c0,0.199,0.161,0.358,0.363,0.358h2.241
							c0,0.209,0,0.392,0,0.523c-0.552,0-2.512,0-2.512,0c-0.201,0-0.362,0.159-0.362,0.362c0,0.199,0.161,0.36,0.362,0.36h2.871
							c0.202,0,0.362-0.161,0.362-0.36v-0.885h2.236c0.201,0,0.363-0.159,0.363-0.358v-2.415
							C32.936,40.732,32.774,40.571,32.572,40.571z M28.831,41.295c0.479,0,1.77,0,2.253,0c0,0.265,0,0.428,0,0.692
							c-0.483,0-1.774,0-2.253,0C28.831,41.722,28.831,41.559,28.831,41.295z"/>
					</g>
					<path fill="#FFFFFF" stroke="#881C28" stroke-width="0.1419" d="M31.617,47.487c0,0,1.487,0.967,3.171,0.448
						c0,0-1.493,0.778-1.04,2.14c0,0-2.586-0.712-3.235-1.945C29.858,46.902,31.617,47.487,31.617,47.487z"/>
					<path fill="#FFFFFF" stroke="#881C28" stroke-width="0.1419" d="M30.728,46.421c0,0,2.591-1.633,2.591-0.75v1.941
						c0,0-1.328,0.645-2.818,0.066L30.728,46.421z"/>
					<path fill="none" stroke="#881C28" stroke-width="0.1419" d="M33.319,45.617c0,0,0.175,1.028-2.623,1.028"/>
					<rect x="29.178" y="46.383" fill="#FFFFFF" stroke="#881C28" stroke-width="0.1419" width="1.592" height="2.2"/>
				</g>
			</g>
		</g>
	</g>
	<g>
		<path fill="#040000" d="M67.805,13.142c0.361,0.058,0.702,0.103,1.064,0.103c0.364,0,0.702-0.046,1.062-0.103
			c1.087,4.316,1.977,7.208,3.681,12.591h0.041c0.766-2.341,3.535-10.399,4.061-12.591c0.238,0.058,0.473,0.103,0.707,0.103
			c0.233,0,0.466-0.046,0.699-0.103c0.639,2.289,3.322,10.377,4.062,12.591h0.044c0.639-1.9,3.401-10.743,3.811-12.591
			c0.253,0.058,0.486,0.103,0.74,0.103c0.261,0,0.491-0.046,0.745-0.103c-0.829,1.993-4.342,12.418-5.087,14.671
			c-0.233-0.064-0.484-0.107-0.72-0.107c-0.232,0-0.488,0.044-0.724,0.107c-1.233-3.98-2.507-7.976-3.913-12.193h-0.042
			c-0.682,1.963-2.826,8.213-4.147,12.193c-0.256-0.064-0.489-0.107-0.746-0.107c-0.252,0-0.488,0.044-0.742,0.107
			C71.697,25.498,68.635,15.391,67.805,13.142z"/>
		<path fill="#040000" d="M95.853,21.136c-0.789,0.022-1.598,0.046-2.381,0.046c-0.746,0-1.558-0.046-2.299-0.046l2.319-5.402
			L95.853,21.136z M93.789,12.857c-2.169,5.024-4.381,9.981-6.655,14.956c0.27-0.064,0.528-0.107,0.783-0.107
			c0.256,0,0.514,0.044,0.788,0.107c0.362-1.343,1.172-3.511,2.063-5.703c0.872-0.02,1.726-0.038,2.594-0.038
			c0.937,0,1.876,0.018,2.788,0.038c0.764,1.9,1.787,4.235,2.19,5.703c0.381-0.064,0.746-0.107,1.128-0.107
			c0.381,0,0.745,0.044,1.126,0.107c-1.126-2.273-4.318-10.021-6.402-14.956H93.789z"/>
		<path fill="#040000" d="M102.668,24.985c0.467,1.003,1.538,2.214,3.361,2.214c1.893,0,3.038-1.382,3.038-3.087
			c0-3.912-6.697-2.228-6.697-7.232c0-2.359,1.789-4.022,4.617-4.022c1.338,0,2.295,0.322,3.15,1.004
			c-0.256,0.487-0.405,0.979-0.573,1.784h-0.261c-0.297-0.786-0.937-1.997-2.529-1.997c-1.594,0-2.747,1.084-2.747,2.636
			c0,3.978,6.704,2.321,6.704,7.021c0,2.594-1.937,4.784-5.209,4.784c-1.766,0-2.767-0.619-3.514-1.211
			c0.256-0.656,0.32-1.088,0.405-1.894H102.668z"/>
		<path fill="#040000" d="M113.346,18.626c0-1.834-0.086-3.678-0.17-5.484c1.276,0.058,2.532,0.103,3.81,0.103
			c1.276,0,2.529-0.046,3.78-0.103c-0.038,0.205-0.064,0.418-0.064,0.63c0,0.219,0.025,0.428,0.071,0.643
			c-1.792-0.127-2.835-0.283-5.595-0.283c-0.024,0.921-0.086,1.663-0.086,2.707c0,1.106,0.021,2.277,0.021,2.807
			c2.509,0,3.909-0.107,5.169-0.209c-0.046,0.209-0.067,0.444-0.067,0.656c0,0.209,0.021,0.428,0.067,0.634
			c-1.469-0.147-4.146-0.189-5.169-0.189c-0.021,0.513-0.021,1.04-0.021,3.089c0,1.619,0.021,2.653,0.045,3.182
			c1.892,0,4.396-0.018,5.735-0.276c-0.041,0.193-0.06,0.471-0.06,0.664c0,0.187,0.018,0.426,0.06,0.615
			c-1.251-0.064-2.529-0.107-3.821-0.107c-1.301,0-2.578,0.044-3.875,0.107c0.083-1.844,0.17-3.702,0.17-5.532V18.626z"/>
		<path fill="#040000" d="M125.514,18.649c0-1.534,0.041-3.045,0.126-4.402c0.869-0.115,2.023-0.213,3.276-0.213
			c3.487,0,6.039,1.207,6.039,6.146c0,5.609-3.399,6.844-6.528,6.844c-1.084,0-2.193-0.086-2.788-0.215
			c-0.085-1.468-0.126-2.996-0.126-4.507V18.649z M123.77,22.303c0,1.832-0.082,3.684-0.17,5.51c0.957-0.064,1.888-0.107,2.85-0.107
			c0.956,0,1.892,0.107,2.849,0.107c3.36,0,7.745-1.957,7.745-7.632c0-4.386-2.046-7.039-7.021-7.039
			c-1.061,0-2.148,0.103-3.211,0.103c-1.064,0-2.148-0.046-3.212-0.103c0.087,1.824,0.17,3.676,0.17,5.508V22.303z"/>
		<path fill="#040000" d="M145.796,21.136c-0.791,0.022-1.604,0.046-2.388,0.046c-0.744,0-1.551-0.046-2.298-0.046l2.319-5.402
			L145.796,21.136z M143.727,12.857c-2.171,5.024-4.381,9.981-6.657,14.956c0.278-0.064,0.532-0.107,0.792-0.107
			c0.251,0,0.503,0.044,0.783,0.107c0.36-1.343,1.165-3.511,2.062-5.703c0.873-0.02,1.723-0.038,2.596-0.038
			c0.938,0,1.876,0.018,2.785,0.038c0.764,1.9,1.79,4.235,2.19,5.703c0.385-0.064,0.745-0.107,1.123-0.107
			c0.389,0,0.75,0.044,1.133,0.107c-1.126-2.273-4.317-10.021-6.405-14.956H143.727z"/>
		<path fill="#040000" d="M166.203,13.142c0.277,0.058,0.574,0.103,0.874,0.103c0.207,0,0.443-0.046,0.636-0.103
			c-0.17,1.975-0.34,5.717-0.381,8.819c-0.047,3.771-2.235,6.128-6.068,6.128c-4.204,0-6.078-1.957-6.078-6.081
			c0-1.321,0.106-2.301,0.106-3.359c0-2.341-0.086-4.28-0.127-5.508c0.338,0.058,0.765,0.103,1.105,0.103
			c0.295,0,0.635-0.046,0.914-0.103c-0.125,1.253-0.257,4.141-0.257,7.292c0,2.892,0,6.659,4.744,6.659
			c4.656,0,4.656-4.364,4.656-7.045C166.327,16.01,166.327,13.971,166.203,13.142z"/>
		<path fill="#040000" d="M174.762,18.54c-1.975,0-2.87,1.275-2.87,3.487v1.806c0,1.277,0.044,2.771,0.168,3.98
			c-0.315-0.064-0.634-0.107-0.954-0.107c-0.316,0-0.633,0.044-0.954,0.107c0.123-1.209,0.169-2.703,0.169-3.98v-2.206
			c0-1.277-0.046-2.769-0.169-3.978c0.32,0.064,0.638,0.101,0.954,0.101c0.213,0,0.533-0.038,0.853-0.101
			c-0.044,0.575-0.066,1.126-0.066,1.697h0.044c0.787-1.209,1.871-1.908,3.399-1.908c1.581,0,3.404,0.766,3.404,3.698
			c0,1.209-0.081,2.492-0.081,3.934c0,0.935,0,1.828,0.045,2.743c-0.322-0.064-0.595-0.107-0.898-0.107
			c-0.299,0-0.574,0.044-0.874,0.107c0.044-1.551,0.152-3.103,0.152-4.744v-1.295C177.083,19.69,176.167,18.54,174.762,18.54z"/>
		<path fill="#040000" d="M181.677,21.627c0-1.277-0.044-2.769-0.172-3.978c0.319,0.064,0.639,0.101,0.957,0.101
			c0.322,0,0.641-0.038,0.96-0.101c-0.128,1.209-0.167,2.701-0.167,3.978v2.206c0,1.277,0.039,2.771,0.167,3.98
			c-0.319-0.064-0.639-0.107-0.96-0.107c-0.318,0-0.639,0.044-0.957,0.107c0.128-1.209,0.172-2.703,0.172-3.98V21.627z
			 M182.462,12.857c0.597,0,1.091,0.489,1.091,1.088c0,0.601-0.494,1.088-1.091,1.088c-0.593,0-1.081-0.487-1.081-1.088
			C181.381,13.347,181.869,12.857,182.462,12.857z"/>
		<path fill="#040000" d="M185.33,17.649c0.36,0.064,0.697,0.101,1.062,0.101c0.319,0,0.617-0.038,0.936-0.101
			c0.872,2.765,1.933,5.508,3.165,8.292c1.15-2.313,2.26-5.528,3.257-8.292c0.212,0.064,0.448,0.101,0.662,0.101
			c0.23,0,0.444-0.038,0.657-0.101c-1.513,3.403-3.064,6.781-4.274,10.164c-0.216-0.064-0.451-0.107-0.662-0.107
			c-0.234,0-0.444,0.044-0.681,0.107C188.155,24.43,186.876,21.052,185.33,17.649z"/>
		<path fill="#040000" d="M200.636,18.116c2.211,0,2.612,2.166,2.612,3.68c-0.895,0.016-1.891,0.062-2.825,0.062
			c-0.898,0-1.895-0.046-2.768-0.062C197.762,20.263,198.546,18.116,200.636,18.116z M195.719,23.027
			c0,2.829,2.107,5.001,5.171,5.001c1.316,0,2.701-0.617,3.55-1.301l0.126-1.038l-0.105-0.066c-0.742,0.847-2.062,1.512-3.189,1.512
			c-2.361,0-3.679-1.728-3.679-3.936c0-0.191,0-0.382,0.021-0.599c0.932-0.02,1.849-0.064,2.782-0.064
			c1.512,0,3.021,0.044,4.552,0.064c0.025-0.276,0.046-0.547,0.046-0.825c0-2.361-1.423-4.336-4.405-4.336
			C197.464,17.438,195.719,19.578,195.719,23.027z"/>
		<path fill="#040000" d="M211.769,19.393c-0.147-0.175-0.614-0.342-1.046-0.342c-1.358,0-2.166,1.299-2.166,2.958
			c0,3.698,0,4.828,0.084,5.804c-0.275-0.064-0.569-0.107-0.848-0.107c-0.298,0-0.576,0.044-0.896,0.107
			c0.09-1.042,0.09-2.703,0.09-5.084v-0.676c0-1.11,0-2.576-0.09-4.404c0.32,0.064,0.598,0.101,0.896,0.101
			c0.279,0,0.574-0.038,0.848-0.101c-0.102,1.018-0.102,1.534-0.102,2.059l0.041,0.026c0.805-1.53,1.831-2.295,2.807-2.295
			c0.253,0,0.404,0.02,0.679,0.121c-0.149,0.342-0.149,1.152-0.149,1.724L211.769,19.393z"/>
		<path fill="#040000" d="M213.958,25.77c0.294,0.575,1.211,1.468,2.402,1.468c1.065,0,2.063-0.654,2.063-1.913
			c0-2.634-5.02-1.082-5.02-4.68c0-1.852,1.275-3.206,3.532-3.206c1.04,0,1.7,0.376,2.357,0.595
			c-0.232,0.402-0.468,1.186-0.509,1.506h-0.259c-0.208-0.68-0.912-1.315-1.87-1.315c-0.824,0-1.808,0.527-1.808,1.786
			c0,2.765,5.021,1.062,5.021,4.654c0,1.617-1.468,3.364-3.827,3.364c-1.298,0-2.148-0.36-2.746-0.698
			c0.171-0.372,0.401-1.13,0.401-1.559H213.958z"/>
		<path fill="#040000" d="M222.233,21.627c0-1.277-0.042-2.769-0.169-3.978c0.316,0.064,0.639,0.101,0.956,0.101
			c0.318,0,0.64-0.038,0.957-0.101c-0.127,1.209-0.174,2.701-0.174,3.978v2.206c0,1.277,0.048,2.771,0.174,3.98
			c-0.316-0.064-0.638-0.107-0.957-0.107c-0.316,0-0.64,0.044-0.956,0.107c0.127-1.209,0.169-2.703,0.169-3.98V21.627z
			 M223.02,12.857c0.597,0,1.087,0.489,1.087,1.088c0,0.601-0.49,1.088-1.087,1.088c-0.599,0-1.083-0.487-1.083-1.088
			C221.937,13.347,222.421,12.857,223.02,12.857z"/>
		<path fill="#040000" d="M229.304,14.797h0.11c-0.087,1.064-0.127,2.102-0.174,3.149c0.297,0,1.277-0.018,2.257-0.064
			c-0.018,0.151-0.018,0.296-0.018,0.444c0,0.151,0,0.3,0.018,0.45c-0.744-0.044-1.741-0.044-2.257-0.044
			c-0.04,0.215-0.148,3.55-0.148,5.404c0,1.597,0.044,3.21,1.724,3.21c0.235,0,0.681-0.062,0.958-0.147v0.507
			c-0.492,0.171-1.108,0.322-1.637,0.322c-1.766,0-2.616-1.003-2.616-2.661c0-1.551,0.126-3.467,0.151-6.635
			c-0.43,0-0.896,0-1.453,0.044c0.026-0.169,0.049-0.32,0.049-0.489c0-0.149-0.023-0.273-0.049-0.426
			c0.64,0.042,1.109,0.068,1.408,0.068c-0.02-0.561-0.045-1.47-0.082-2.391L229.304,14.797z"/>
		<path fill="#040000" d="M232.765,17.649c0.316,0.064,0.656,0.101,0.978,0.101c0.323,0,0.663-0.038,0.981-0.101
			c0.87,2.677,1.999,5.337,3.166,8.167c1.173-2.447,2.317-5.49,3.173-8.167c0.228,0.064,0.465,0.101,0.702,0.101
			c0.233,0,0.466-0.038,0.701-0.101c-0.764,1.551-5.955,12.869-6.849,15.759c-0.233-0.068-0.486-0.109-0.724-0.109
			c-0.232,0-0.485,0.042-0.723,0.109c1.126-1.848,2.062-3.724,2.851-5.571C236.039,25.279,233.362,18.99,232.765,17.649z"/>
	</g>
</g>
</svg>
